<svg width="164" height="48" viewBox="0 0 164 48" fill="none" xmlns="http://www.w3.org/2000/svg">
<g clip-path="url(#clip0_1258_111567)">
<path d="M45.8516 14.0131H53.4737C58.333 14.0131 62.3472 16.8247 62.3472 23.2442V24.5931C62.3472 31.0613 58.5931 33.9704 53.62 33.9704H45.8516V14.0131ZM50.1096 17.6373V30.33H53.3762C56.139 30.33 57.9917 28.526 57.9917 24.5118V23.4555C57.9917 19.4412 56.0415 17.6373 53.2299 17.6373H50.1096ZM64.6063 17.8323H68.0192L68.5717 21.5865C69.2218 19.0349 70.8795 17.6698 73.8861 17.6698H74.9425V21.9765H73.1873C69.7256 21.9765 68.8805 23.1792 68.8805 26.5921V34.0192H64.6713V17.8323H64.6063ZM75.7876 26.2508V25.7957C75.7876 20.3838 79.2492 17.426 83.9623 17.426C88.7728 17.426 92.137 20.3838 92.137 25.7957V26.2508C92.137 31.5652 88.8704 34.4255 83.9623 34.4255C78.7454 34.3767 75.7876 31.5814 75.7876 26.2508ZM87.8302 26.202V25.7957C87.8302 22.7891 86.3188 20.9852 83.9135 20.9852C81.557 20.9852 79.9968 22.6429 79.9968 25.7957V26.202C79.9968 29.1111 81.5082 30.7688 83.9135 30.7688C86.3188 30.7201 87.8302 29.1111 87.8302 26.202ZM94.3472 17.8323H97.8577L98.264 20.8877C99.1091 18.8399 100.913 17.426 103.578 17.426C107.69 17.426 110.404 20.3838 110.404 25.8607V26.3158C110.404 31.6302 107.398 34.4417 103.578 34.4417C101.027 34.4417 99.2716 33.2879 98.4102 31.4351V39.6098H94.2985L94.3472 17.8323ZM106.13 26.202V25.8445C106.13 22.6266 104.472 21.0339 102.262 21.0339C99.9054 21.0339 98.3452 22.8379 98.3452 25.8445V26.1533C98.3452 29.0136 99.8566 30.8176 102.213 30.8176C104.635 30.7688 106.13 29.2249 106.13 26.202ZM116.629 31.0288L116.271 33.9867H112.663V12.4204H116.775V20.6926C117.685 18.5799 119.489 17.426 122.04 17.426C125.908 17.4748 128.769 20.1401 128.769 25.5032V26.007C128.769 31.3701 126.055 34.4417 121.943 34.4417C119.229 34.3767 117.474 33.1253 116.629 31.0288ZM124.446 26.007V25.6007C124.446 22.6429 122.837 20.9852 120.578 20.9852C118.27 20.9852 116.661 22.8379 116.661 25.6495V26.007C116.661 29.0136 118.221 30.7688 120.529 30.7688C122.999 30.7688 124.446 29.2249 124.446 26.007ZM130.573 26.2508V25.7957C130.573 20.3838 134.034 17.426 138.747 17.426C143.558 17.426 146.922 20.3838 146.922 25.7957V26.2508C146.922 31.5652 143.607 34.4255 138.747 34.4255C133.531 34.3767 130.573 31.5814 130.573 26.2508ZM142.648 26.202V25.7957C142.648 22.7891 141.136 20.9852 138.731 20.9852C136.375 20.9852 134.814 22.6429 134.814 25.7957V26.202C134.814 29.1111 136.326 30.7688 138.731 30.7688C141.153 30.7201 142.648 29.1111 142.648 26.202ZM152.432 25.6007L146.76 17.8323H151.619L154.886 22.6916L158.201 17.8323H163.012L157.258 25.5519L163.32 33.9867H158.559L154.853 28.6236L151.245 33.9867H146.272L152.432 25.6007Z" fill="black"/>
<path d="M19.653 14.0132L10.2269 20.0264L19.653 26.0396L10.2269 32.0528L0.800781 26.0071L10.2269 19.9939L0.800781 14.0132L10.2269 8L19.653 14.0132ZM10.1781 33.9868L19.6042 27.9736L29.0303 33.9868L19.6042 40L10.1781 33.9868ZM19.653 26.0071L29.0791 19.9939L19.653 14.0132L29.0303 8L38.4564 14.0132L29.0303 20.0264L38.4564 26.0396L29.0303 32.0528L19.653 26.0071Z" fill="#0061FF"/>
</g>
<defs>
<clipPath id="clip0_1258_111567">
<rect width="163" height="48" fill="white" transform="translate(0.800781)"/>
</clipPath>
</defs>
</svg>
