<svg width="48" height="48" viewBox="0 0 48 48" fill="none" xmlns="http://www.w3.org/2000/svg">
<rect width="48" height="48" rx="10" fill="#9E77ED"/>
<path d="M33.9994 28.9201V31.9201C34.0006 32.1986 33.9435 32.4743 33.832 32.7294C33.7204 32.9846 33.5567 33.2137 33.3515 33.402C33.1463 33.5902 32.904 33.7336 32.6402 33.8228C32.3764 33.912 32.0968 33.9452 31.8194 33.9201C28.7423 33.5857 25.7864 32.5342 23.1894 30.8501C20.7733 29.3148 18.7248 27.2663 17.1894 24.8501C15.4994 22.2413 14.4477 19.2711 14.1194 16.1801C14.0945 15.9036 14.1273 15.6249 14.2159 15.3617C14.3046 15.0986 14.447 14.8568 14.6342 14.6517C14.8214 14.4466 15.0492 14.2828 15.3032 14.1706C15.5572 14.0584 15.8318 14.0004 16.1094 14.0001H19.1094C19.5948 13.9953 20.0652 14.1672 20.4332 14.4836C20.8012 14.8001 21.0415 15.2395 21.1094 15.7201C21.2361 16.6802 21.4709 17.6228 21.8094 18.5301C21.944 18.888 21.9731 19.277 21.8934 19.651C21.8136 20.0249 21.6283 20.3682 21.3594 20.6401L20.0894 21.9101C21.513 24.4136 23.5859 26.4865 26.0894 27.9101L27.3594 26.6401C27.6313 26.3712 27.9746 26.1859 28.3486 26.1062C28.7225 26.0264 29.1115 26.0556 29.4694 26.1901C30.3767 26.5286 31.3194 26.7635 32.2794 26.8901C32.7652 26.9586 33.2088 27.2033 33.526 27.5776C33.8431 27.9519 34.0116 28.4297 33.9994 28.9201Z" stroke="white" stroke-width="2" stroke-linecap="round" stroke-linejoin="round"/>
</svg>
