<svg width="597" height="309" viewBox="0 0 597 309" fill="none" xmlns="http://www.w3.org/2000/svg">
<mask id="path-1-inside-1_733_1581" fill="white">
<path d="M0.978516 306.587L75.4598 306.382L149.932 306.305L298.885 306.16L447.839 306.305L522.32 306.374L596.792 306.587L522.32 306.801L447.839 306.869L298.885 307.014L149.932 306.869L75.4598 306.792L0.978516 306.587Z"/>
</mask>
<path d="M0.978516 306.587L75.4598 306.382L149.932 306.305L298.885 306.16L447.839 306.305L522.32 306.374L596.792 306.587L522.32 306.801L447.839 306.869L298.885 307.014L149.932 306.869L75.4598 306.792L0.978516 306.587Z" fill="#263238"/>
<path d="M0.978516 306.587L0.975763 305.587V307.587L0.978516 306.587ZM75.4598 306.382L75.4587 305.382L75.457 305.382L75.4598 306.382ZM149.932 306.305L149.931 305.305L149.931 305.305L149.932 306.305ZM298.885 306.16L298.886 305.16L298.884 305.16L298.885 306.16ZM447.839 306.305L447.838 307.305L447.838 307.305L447.839 306.305ZM522.32 306.374L522.323 305.374L522.321 305.374L522.32 306.374ZM596.792 306.587L596.795 307.587V305.587L596.792 306.587ZM522.32 306.801L522.321 307.801L522.323 307.801L522.32 306.801ZM447.839 306.869L447.838 305.869L447.838 305.869L447.839 306.869ZM298.885 307.014L298.884 308.014L298.886 308.014L298.885 307.014ZM149.932 306.869L149.931 307.869L149.931 307.869L149.932 306.869ZM75.4598 306.792L75.457 307.792L75.4587 307.792L75.4598 306.792ZM0.981268 307.587L75.4625 307.382L75.457 305.382L0.975763 305.587L0.981268 307.587ZM75.4608 307.382L149.933 307.305L149.931 305.305L75.4587 305.382L75.4608 307.382ZM149.933 307.305L298.886 307.16L298.884 305.16L149.931 305.305L149.933 307.305ZM298.884 307.16L447.838 307.305L447.84 305.305L298.886 305.16L298.884 307.16ZM447.838 307.305L522.319 307.374L522.321 305.374L447.84 305.305L447.838 307.305ZM522.317 307.374L596.789 307.587L596.795 305.587L522.323 305.374L522.317 307.374ZM596.789 305.587L522.317 305.801L522.323 307.801L596.795 307.587L596.789 305.587ZM522.319 305.801L447.838 305.869L447.84 307.869L522.321 307.801L522.319 305.801ZM447.838 305.869L298.884 306.014L298.886 308.014L447.84 307.869L447.838 305.869ZM298.886 306.014L149.933 305.869L149.931 307.869L298.884 308.014L298.886 306.014ZM149.933 305.869L75.4608 305.792L75.4587 307.792L149.931 307.869L149.933 305.869ZM75.4625 305.792L0.981268 305.587L0.975763 307.587L75.457 307.792L75.4625 305.792Z" fill="black" mask="url(#path-1-inside-1_733_1581)"/>
<path d="M381.73 230.025H395.36V282.784H381.73V230.025Z" fill="#E3CEFA" stroke="black"/>
<path d="M381.73 286.44H395.36V294.291H381.73V286.44Z" fill="#E3CEFA" stroke="black"/>
<path d="M381.73 297.947H395.36V302.406H381.73V297.947Z" fill="#E3CEFA" stroke="black"/>
<path d="M381.73 306.062H395.36V307.77H381.73V306.062Z" fill="#E3CEFA" stroke="black"/>
<path d="M388.541 214.457L399.717 229.025H377.365L388.541 214.457Z" fill="#E3CEFA" stroke="black"/>
<path d="M410.846 212.94H424.475V282.784H410.846V212.94Z" fill="#E3CEFA" stroke="black"/>
<path d="M410.846 286.44H424.475V294.291H410.846V286.44Z" fill="#E3CEFA" stroke="black"/>
<path d="M410.846 297.947H424.475V302.406H410.846V297.947Z" fill="#E3CEFA" stroke="black"/>
<path d="M410.846 306.062H424.475V307.77H410.846V306.062Z" fill="#E3CEFA" stroke="black"/>
<path d="M417.664 197.372L428.84 211.94H406.479L417.664 197.372Z" fill="#E3CEFA" stroke="black"/>
<path d="M439.969 195.854H453.598V282.783H439.969V195.854Z" fill="#E3CEFA" stroke="black"/>
<path d="M439.969 286.44H453.598V294.291H439.969V286.44Z" fill="#E3CEFA" stroke="black"/>
<path d="M439.969 297.947H453.598V302.406H439.969V297.947Z" fill="#E3CEFA" stroke="black"/>
<path d="M439.969 306.062H453.598V307.77H439.969V306.062Z" fill="#E3CEFA" stroke="black"/>
<path d="M446.778 180.287L457.954 194.855H435.602L446.778 180.287Z" fill="#E3CEFA" stroke="black"/>
<path d="M469.082 178.77H482.712V282.783H469.082V178.77Z" fill="#E3CEFA" stroke="black"/>
<path d="M469.082 286.44H482.712V294.291H469.082V286.44Z" fill="#E3CEFA" stroke="black"/>
<path d="M469.082 297.947H482.712V302.406H469.082V297.947Z" fill="#E3CEFA" stroke="black"/>
<path d="M469.082 306.062H482.712V307.77H469.082V306.062Z" fill="#E3CEFA" stroke="black"/>
<path d="M475.901 163.202L487.077 177.77H464.725L475.901 163.202Z" fill="#E3CEFA" stroke="black"/>
<path opacity="0.6" d="M149.838 272.084C149.838 273.176 149.494 274.246 148.846 275.16C148.198 276.073 147.273 276.79 146.186 277.214C145.099 277.638 143.901 277.749 142.745 277.533C141.589 277.316 140.531 276.782 139.703 276.003C138.875 275.223 138.316 274.234 138.089 273.162C137.863 272.09 137.979 270.979 138.424 269.968C138.869 268.955 139.625 268.085 140.601 267.471C141.577 266.857 142.728 266.527 143.907 266.527C145.489 266.527 147.001 267.12 148.111 268.165C149.22 269.21 149.838 270.62 149.838 272.084Z" fill="#E3CEFA" stroke="black"/>
<path opacity="0.6" d="M157.665 260.509L157.665 260.51C157.666 260.99 157.517 261.461 157.231 261.866C156.946 262.27 156.535 262.59 156.05 262.781C155.564 262.971 155.027 263.022 154.509 262.925C153.99 262.828 153.518 262.59 153.151 262.243C152.783 261.897 152.537 261.46 152.438 260.989C152.339 260.518 152.39 260.03 152.587 259.584C152.784 259.138 153.119 258.753 153.554 258.48C153.99 258.207 154.506 258.06 155.035 258.062V258.062H155.036C155.742 258.062 156.415 258.326 156.906 258.789C157.396 259.25 157.665 259.87 157.665 260.509Z" fill="#E3CEFA" stroke="black"/>
<path opacity="0.6" d="M295.315 269.154C295.315 269.633 295.165 270.103 294.879 270.507C294.592 270.91 294.182 271.229 293.696 271.419C293.211 271.608 292.675 271.658 292.157 271.561C291.64 271.465 291.168 271.226 290.801 270.88C290.434 270.534 290.188 270.098 290.089 269.627C289.989 269.157 290.04 268.669 290.236 268.224C290.432 267.779 290.766 267.393 291.2 267.12C291.635 266.846 292.149 266.698 292.677 266.698C293.386 266.698 294.061 266.964 294.553 267.428C295.045 267.891 295.315 268.513 295.315 269.154Z" fill="#E3CEFA" stroke="black"/>
<path opacity="0.6" d="M358.106 296.116C358.108 296.595 357.958 297.066 357.673 297.47C357.388 297.875 356.978 298.195 356.493 298.386C356.007 298.576 355.471 298.627 354.953 298.531C354.435 298.435 353.963 298.197 353.595 297.851C353.227 297.506 352.98 297.069 352.88 296.599C352.78 296.128 352.83 295.64 353.026 295.195C353.222 294.749 353.556 294.363 353.99 294.089C354.425 293.815 354.94 293.667 355.468 293.667C356.176 293.667 356.849 293.932 357.342 294.394C357.833 294.856 358.104 295.476 358.106 296.116Z" fill="#E3CEFA" stroke="black"/>
<path opacity="0.6" d="M130.999 295.788C130.981 295.57 130.965 295.372 130.965 295.175C130.967 293.043 131.543 290.945 132.642 289.077C133.742 287.208 135.329 285.63 137.258 284.493C139.187 283.356 141.393 282.697 143.67 282.581C145.946 282.465 148.216 282.896 150.265 283.832L150.918 284.13L150.971 283.414C151.121 281.414 151.986 279.516 153.432 278.031C154.88 276.545 156.824 275.562 158.949 275.247C161.074 274.932 163.248 275.306 165.115 276.305C166.982 277.303 168.428 278.864 169.223 280.728L169.585 281.578L170.098 280.81C171.304 279.005 172.98 277.514 174.969 276.48C176.959 275.447 179.197 274.905 181.473 274.907C182.338 274.908 183.202 274.986 184.051 275.138L184.766 275.267L184.631 274.554C184.447 273.575 184.355 272.583 184.359 271.59V271.588C184.357 268.293 185.36 265.065 187.252 262.287C189.144 259.508 191.846 257.296 195.041 255.917C198.236 254.537 201.786 254.051 205.268 254.517C208.75 254.982 212.013 256.379 214.671 258.539L215.139 258.919L215.426 258.389C215.693 257.897 216.101 257.48 216.61 257.187C217.118 256.894 217.705 256.737 218.305 256.737C218.735 256.74 219.16 256.821 219.556 256.976L220.211 257.233L220.238 256.53L223.72 168.954H243.293L246.775 256.53L246.803 257.239L247.462 256.974C248.219 256.67 249.072 256.648 249.847 256.913C250.621 257.179 251.25 257.709 251.614 258.387L251.9 258.92L252.37 258.539C255.028 256.379 258.291 254.982 261.773 254.517C265.255 254.051 268.805 254.537 272 255.917C275.195 257.296 277.897 259.508 279.789 262.287C281.681 265.065 282.684 268.293 282.682 271.588V271.59C282.685 272.583 282.594 273.575 282.41 274.554L282.275 275.267L282.99 275.138C283.837 274.986 284.697 274.908 285.559 274.907C287.835 274.905 290.073 275.447 292.062 276.48C294.052 277.514 295.727 279.005 296.933 280.81L297.432 281.556L297.804 280.74C298.632 278.926 300.08 277.417 301.927 276.457C303.775 275.497 305.912 275.144 308 275.455C310.088 275.766 312.002 276.722 313.44 278.168C314.879 279.613 315.76 281.464 315.953 283.426L316.021 284.125L316.659 283.831C318.708 282.889 320.979 282.452 323.258 282.563C325.537 282.674 327.748 283.329 329.681 284.464C331.614 285.6 333.206 287.177 334.309 289.046C335.412 290.915 335.991 293.015 335.994 295.149C335.994 295.59 335.993 295.968 335.928 296.366L335.834 296.947H336.422H336.494H336.696L336.841 296.807C337.794 295.89 339.019 295.258 340.362 294.995C341.704 294.733 343.099 294.853 344.367 295.34C345.635 295.827 346.716 296.656 347.475 297.718C348.233 298.78 348.637 300.026 348.638 301.3L348.638 301.917L349.242 301.788C349.505 301.732 349.773 301.704 350.043 301.705L350.047 301.705C350.479 301.703 350.907 301.782 351.306 301.937C351.704 302.091 352.064 302.318 352.365 302.603C352.666 302.887 352.903 303.223 353.063 303.591C353.223 303.958 353.303 304.351 353.3 304.746L353.8 304.75L353.3 304.749C353.298 305.54 352.964 306.304 352.36 306.873C351.755 307.442 350.929 307.768 350.062 307.77H116.914C116.047 307.77 115.22 307.445 114.615 306.875C114.011 306.306 113.678 305.541 113.678 304.75C113.678 303.959 114.011 303.194 114.615 302.626C115.22 302.056 116.047 301.731 116.914 301.731H116.916C117.186 301.73 117.455 301.758 117.717 301.814L118.321 301.942L118.321 301.325C118.323 300.052 118.726 298.805 119.485 297.744C120.243 296.682 121.324 295.852 122.592 295.366C123.86 294.879 125.255 294.759 126.597 295.021C127.94 295.283 129.165 295.916 130.118 296.833L130.263 296.973H130.465H130.537H131.037V296.473C131.037 296.24 131.018 296.01 131.001 295.803L130.999 295.788Z" fill="#E3CEFA" stroke="black"/>
<path d="M292.17 275.694L289.763 276.11L289.434 276.167L289.36 276.492L288.762 279.142L288.168 276.493L288.095 276.167L287.766 276.11L285.352 275.689L287.765 275.133L288.066 275.064L288.139 274.764L288.76 272.215L289.38 274.764L289.453 275.064L289.753 275.133L292.17 275.694Z" fill="#FCFCFC" stroke="black"/>
<path d="M245.016 237.094L242.601 237.515L242.272 237.572L242.199 237.898L241.607 240.533L241.016 237.898L240.943 237.572L240.614 237.515L238.199 237.094L240.613 236.538L240.914 236.469L240.987 236.169L241.607 233.615L242.228 236.169L242.301 236.469L242.602 236.538L245.016 237.094Z" fill="#FCFCFC" stroke="black"/>
<path d="M174.557 284.862L174.286 284.909L173.957 284.966L173.884 285.292L173.767 285.807L173.653 285.293L173.581 284.967L173.252 284.909L172.975 284.861L173.258 284.796L173.56 284.727L173.633 284.426L173.764 283.886L173.894 284.426L173.967 284.726L174.268 284.796L174.557 284.862Z" fill="#FCFCFC" stroke="black"/>
<path d="M320.358 292.883L320.083 292.931L319.753 292.988L319.68 293.315L319.566 293.828L319.45 293.313L319.376 292.988L319.047 292.931L318.772 292.883L319.057 292.817L319.356 292.748L319.429 292.45L319.566 291.895L319.7 292.448L319.773 292.748L320.074 292.817L320.358 292.883Z" fill="#FCFCFC" stroke="black"/>
<path d="M137.27 302.314L137 302.361L136.671 302.418L136.598 302.744L136.478 303.275L136.358 302.744L136.284 302.418L135.955 302.361L135.685 302.314L135.973 302.248L136.274 302.178L136.347 301.878L136.478 301.338L136.609 301.878L136.681 302.178L136.982 302.248L137.27 302.314Z" fill="#FCFCFC" stroke="black"/>
<path d="M255.133 300.076L254.862 300.123L254.533 300.18L254.46 300.506L254.343 301.021L254.229 300.507L254.157 300.18L253.827 300.123L253.551 300.075L253.836 300.009L254.136 299.94L254.209 299.64L254.34 299.1L254.471 299.64L254.543 299.94L254.844 300.009L255.133 300.076Z" fill="#FCFCFC" stroke="black"/>
<path d="M235.297 229.771L235.026 229.818L234.697 229.875L234.624 230.2L234.504 230.731L234.384 230.2L234.31 229.875L233.982 229.818L233.712 229.771L234 229.704L234.3 229.634L234.373 229.335L234.504 228.796L234.635 229.335L234.708 229.635L235.008 229.704L235.297 229.771Z" fill="#FCFCFC" stroke="black"/>
<path d="M329.152 299.358C329.187 299.321 329.235 299.292 329.292 299.277C329.35 299.292 329.398 299.321 329.433 299.358C329.477 299.404 329.497 299.459 329.497 299.509C329.497 299.56 329.477 299.615 329.433 299.661C329.398 299.698 329.35 299.727 329.292 299.742C329.235 299.727 329.187 299.698 329.152 299.661C329.108 299.615 329.088 299.56 329.088 299.509C329.088 299.459 329.108 299.404 329.152 299.358Z" fill="#FCFCFC" stroke="black"/>
<path d="M227.189 221.1C227.224 221.063 227.272 221.034 227.33 221.019C227.387 221.034 227.435 221.063 227.47 221.1C227.514 221.146 227.534 221.201 227.534 221.252C227.534 221.303 227.514 221.357 227.47 221.403C227.435 221.44 227.387 221.469 227.33 221.484C227.272 221.469 227.224 221.44 227.189 221.403C227.145 221.357 227.125 221.303 227.125 221.252C227.125 221.201 227.145 221.146 227.189 221.1Z" fill="#FCFCFC" stroke="black"/>
<path d="M160.181 302.972C160.216 302.935 160.265 302.906 160.322 302.891C160.379 302.906 160.427 302.935 160.463 302.972C160.507 303.018 160.526 303.073 160.526 303.124C160.526 303.175 160.507 303.229 160.463 303.275C160.427 303.312 160.379 303.341 160.322 303.356C160.265 303.341 160.216 303.312 160.181 303.275C160.137 303.229 160.117 303.175 160.117 303.124C160.117 303.073 160.137 303.018 160.181 302.972Z" fill="#FCFCFC" stroke="black"/>
<path d="M209.89 292.792C209.943 292.742 210.019 292.71 210.105 292.71C210.192 292.71 210.268 292.742 210.321 292.792C210.372 292.84 210.395 292.899 210.395 292.953C210.395 293.008 210.372 293.066 210.321 293.115C210.268 293.164 210.191 293.196 210.105 293.196C210.019 293.196 209.943 293.164 209.89 293.115C209.839 293.066 209.816 293.008 209.816 292.953C209.816 292.899 209.839 292.84 209.89 292.792Z" fill="#FCFCFC" stroke="black"/>
<path d="M309.563 285.987C309.571 285.98 309.588 285.971 309.612 285.971C309.635 285.971 309.652 285.98 309.66 285.987C309.662 285.989 309.663 285.991 309.664 285.992C309.663 285.993 309.662 285.994 309.66 285.996C309.652 286.004 309.635 286.013 309.612 286.013C309.588 286.013 309.571 286.004 309.563 285.996C309.561 285.994 309.56 285.993 309.559 285.992C309.56 285.991 309.561 285.989 309.563 285.987Z" fill="#FCFCFC" stroke="black"/>
<mask id="path-40-inside-2_733_1581" fill="white">
<path d="M240.954 277.62C240.818 277.636 240.694 277.699 240.603 277.796C240.513 277.892 240.463 278.017 240.463 278.145C240.463 278.274 240.513 278.399 240.603 278.495C240.694 278.592 240.818 278.655 240.954 278.671C241.09 278.655 241.214 278.592 241.305 278.495C241.395 278.399 241.445 278.274 241.445 278.145C241.445 278.017 241.395 277.892 241.305 277.796C241.214 277.699 241.09 277.636 240.954 277.62V277.62Z"/>
</mask>
<path d="M240.954 277.62C240.818 277.636 240.694 277.699 240.603 277.796C240.513 277.892 240.463 278.017 240.463 278.145C240.463 278.274 240.513 278.399 240.603 278.495C240.694 278.592 240.818 278.655 240.954 278.671C241.09 278.655 241.214 278.592 241.305 278.495C241.395 278.399 241.445 278.274 241.445 278.145C241.445 278.017 241.395 277.892 241.305 277.796C241.214 277.699 241.09 277.636 240.954 277.62V277.62Z" fill="#FCFCFC"/>
<path d="M240.954 278.671L240.834 279.664L240.954 279.678L241.073 279.664L240.954 278.671ZM240.834 276.627C240.473 276.671 240.129 276.838 239.873 277.113L241.334 278.478C241.258 278.56 241.163 278.602 241.073 278.613L240.834 276.627ZM239.873 277.113C239.614 277.389 239.463 277.755 239.463 278.145H241.463C241.463 278.278 241.411 278.396 241.334 278.478L239.873 277.113ZM239.463 278.145C239.463 278.536 239.614 278.902 239.873 279.178L241.334 277.813C241.411 277.895 241.463 278.013 241.463 278.145H239.463ZM239.873 279.178C240.129 279.453 240.473 279.62 240.834 279.664L241.073 277.678C241.163 277.689 241.258 277.731 241.334 277.813L239.873 279.178ZM241.073 279.664C241.435 279.62 241.779 279.453 242.035 279.178L240.574 277.813C240.65 277.731 240.745 277.689 240.834 277.678L241.073 279.664ZM242.035 279.178C242.294 278.902 242.445 278.535 242.445 278.145H240.445C240.445 278.013 240.497 277.896 240.574 277.813L242.035 279.178ZM242.445 278.145C242.445 277.756 242.294 277.389 242.035 277.113L240.574 278.478C240.497 278.395 240.445 278.278 240.445 278.145H242.445ZM242.035 277.113C241.779 276.838 241.435 276.671 241.073 276.627L240.834 278.613C240.745 278.602 240.65 278.56 240.574 278.478L242.035 277.113Z" fill="black" mask="url(#path-40-inside-2_733_1581)"/>
<path d="M190.64 267.911C190.648 267.904 190.665 267.895 190.688 267.895C190.711 267.895 190.728 267.904 190.736 267.911C190.738 267.913 190.74 267.915 190.74 267.916C190.74 267.917 190.738 267.918 190.736 267.92C190.728 267.928 190.712 267.937 190.688 267.937C190.665 267.937 190.648 267.928 190.64 267.92C190.638 267.918 190.636 267.917 190.636 267.916C190.636 267.915 190.638 267.913 190.64 267.911Z" fill="#FCFCFC" stroke="black"/>
<path d="M275.958 270.309C276.144 270.133 276.403 270.029 276.679 270.029C276.955 270.029 277.215 270.133 277.401 270.309C277.587 270.483 277.685 270.714 277.685 270.947C277.685 271.181 277.587 271.411 277.401 271.586C277.215 271.762 276.955 271.865 276.679 271.865C276.403 271.865 276.144 271.762 275.958 271.586C275.772 271.411 275.674 271.181 275.674 270.947C275.674 270.714 275.772 270.483 275.958 270.309Z" fill="#FCFCFC" stroke="black"/>
<path d="M197.087 263.372C197.273 263.196 197.532 263.093 197.808 263.093C198.084 263.093 198.344 263.196 198.53 263.372C198.716 263.547 198.814 263.777 198.814 264.011C198.814 264.244 198.716 264.475 198.53 264.65C198.344 264.825 198.084 264.929 197.808 264.929C197.532 264.929 197.273 264.825 197.087 264.65C196.901 264.475 196.803 264.244 196.803 264.011C196.803 263.777 196.901 263.547 197.087 263.372Z" fill="#FCFCFC" stroke="black"/>
<path d="M198.143 99.5142L204.583 139.768C204.539 139.797 204.49 139.83 204.437 139.867C204.17 140.048 203.789 140.313 203.325 140.653C202.397 141.333 201.136 142.311 199.807 143.505C197.166 145.879 194.181 149.171 193.06 152.722C189.992 162.411 189.803 171.48 189.982 178.361C190.016 179.658 190.063 180.87 190.106 181.992C190.178 183.864 190.24 185.484 190.218 186.831C190.2 187.904 190.128 188.762 189.975 189.403C189.821 190.049 189.606 190.385 189.377 190.542C189.361 190.545 189.295 190.552 189.14 190.497C188.924 190.421 188.628 190.254 188.255 189.973C187.514 189.414 186.564 188.479 185.479 187.2C183.314 184.649 180.666 180.795 178.14 176.041C173.083 166.528 168.547 153.478 169.284 140.121C170.096 125.618 177.267 115.42 184.344 108.837C187.884 105.544 191.396 103.16 194.066 101.6C195.401 100.821 196.524 100.248 197.332 99.8718C197.657 99.7204 197.929 99.6015 198.143 99.5142ZM198.612 99.3433C198.612 99.3433 198.61 99.3438 198.606 99.3444C198.61 99.3435 198.612 99.3432 198.612 99.3433Z" fill="#E3CEFA" stroke="black"/>
<path opacity="0.1" d="M198.143 99.557L204.592 139.772C202.112 141.465 199.826 143.399 197.773 145.54C193.675 136.941 186.438 121.689 181.643 111.576C185.552 107.375 189.685 104.335 192.912 102.336C194.556 101.318 195.962 100.572 196.979 100.082C197.462 99.8486 197.855 99.6745 198.143 99.557ZM198.612 99.386C198.612 99.3861 198.61 99.3866 198.606 99.3873C198.61 99.3863 198.612 99.386 198.612 99.386Z" fill="black" stroke="black"/>
<path d="M268.67 99.5664C268.884 99.6541 269.156 99.7734 269.482 99.9255C270.289 100.303 271.412 100.877 272.746 101.66C275.416 103.224 278.926 105.614 282.461 108.912C289.531 115.506 296.686 125.712 297.466 140.206C298.185 153.568 293.629 166.611 288.557 176.117C286.022 180.867 283.368 184.717 281.198 187.265C280.111 188.542 279.159 189.476 278.417 190.034C278.043 190.315 277.747 190.482 277.53 190.558C277.374 190.613 277.308 190.605 277.292 190.602C277.064 190.446 276.85 190.11 276.698 189.465C276.546 188.823 276.476 187.965 276.46 186.892C276.44 185.546 276.504 183.926 276.579 182.056C276.624 180.933 276.672 179.719 276.708 178.421C276.898 171.539 276.723 162.468 273.673 152.774C272.556 149.223 269.576 145.929 266.938 143.553C265.611 142.357 264.352 141.378 263.425 140.698C262.961 140.358 262.58 140.092 262.314 139.91C262.261 139.874 262.212 139.841 262.168 139.812L268.67 99.5664Z" fill="#E3CEFA" stroke="black"/>
<path opacity="0.1" d="M273.942 102.372C277.189 104.394 281.342 107.468 285.253 111.71C284.218 113.889 283.073 116.3 281.873 118.828C277.463 128.117 272.304 138.984 269.114 145.684C267.026 143.501 264.698 141.533 262.168 139.815L268.67 99.5577C268.96 99.6768 269.358 99.8536 269.847 100.09C270.872 100.587 272.288 101.342 273.942 102.372ZM268.201 99.3859C268.201 99.3858 268.203 99.3862 268.207 99.3872C268.203 99.3865 268.201 99.386 268.201 99.3859Z" fill="black" stroke="black"/>
<path d="M253.836 165.827H213.08C213.059 165.79 213.035 165.748 213.009 165.702C212.868 165.455 212.662 165.087 212.399 164.603C211.875 163.636 211.127 162.209 210.235 160.374C208.453 156.703 206.098 151.399 203.816 144.877C199.249 131.83 194.975 113.925 196.122 94.463C197.279 75.0104 202.677 55.4076 209.184 39.1869L209.184 39.1862C213.659 27.9822 218.66 18.4162 223.133 11.6609C225.37 8.28154 227.466 5.61955 229.289 3.80923C230.201 2.90381 231.033 2.22267 231.77 1.77104C232.513 1.31547 233.119 1.11831 233.588 1.11914C234.058 1.11998 234.664 1.31905 235.407 1.77643C236.143 2.22986 236.974 2.91266 237.884 3.81949C239.704 5.63264 241.796 8.29653 244.029 11.6765C248.491 18.4329 253.478 27.9947 257.94 39.1859L257.94 39.1861C264.401 55.381 269.772 75.0264 270.902 94.4791C272.022 113.941 267.721 131.842 263.134 144.885C260.841 151.405 258.478 156.706 256.69 160.376C255.796 162.21 255.045 163.637 254.519 164.603C254.256 165.087 254.049 165.455 253.908 165.702C253.881 165.748 253.857 165.79 253.836 165.827Z" fill="#EBEBEB" stroke="black"/>
<path d="M257.757 89.3847C257.756 93.7211 256.389 97.9623 253.826 101.572C251.262 105.182 247.616 108 243.346 109.663C239.075 111.327 234.375 111.761 229.841 110.909C225.307 110.058 221.147 107.959 217.886 104.884C214.625 101.809 212.409 97.8956 211.513 93.6411C210.617 89.3868 211.081 84.9776 212.847 80.9697C214.613 76.9613 217.604 73.5314 221.446 71.1173C225.288 68.7031 229.807 67.4147 234.431 67.418C240.63 67.4224 246.568 69.7458 250.94 73.8687C255.311 77.9906 257.76 83.5724 257.757 89.3847Z" fill="#C7C7C7" stroke="black"/>
<path d="M256.916 87.0946C256.914 91.431 255.547 95.6722 252.984 99.282C250.42 102.892 246.774 105.709 242.504 107.373C238.233 109.037 233.533 109.471 228.999 108.619C224.465 107.768 220.305 105.669 217.044 102.594C213.783 99.5188 211.567 95.6056 210.671 91.3511C209.776 87.0968 210.239 82.6875 212.005 78.6796C213.771 74.6713 216.762 71.2414 220.604 68.8273C224.446 66.4131 228.965 65.1246 233.589 65.1279C239.788 65.1324 245.726 67.4558 250.098 71.5787C254.47 75.7006 256.918 81.2823 256.916 87.0946Z" fill="#E3CEFA" stroke="black"/>
<path d="M249.606 87.0867C249.606 90.061 248.669 92.9711 246.911 95.4493C245.153 97.9279 242.65 99.8641 239.717 101.009C236.783 102.153 233.554 102.453 230.438 101.869C227.322 101.285 224.463 99.845 222.223 97.7346C219.982 95.6244 218.46 92.9396 217.844 90.0216C217.228 87.1038 217.544 84.079 218.753 81.3285C219.963 78.5775 222.014 76.2213 224.652 74.5614C227.29 72.9013 230.394 72.0137 233.571 72.0137C235.681 72.0137 237.769 72.4051 239.717 73.1649C241.665 73.9247 243.432 75.0377 244.92 76.4389C246.408 77.84 247.586 79.5018 248.389 81.3285C249.193 83.155 249.606 85.1116 249.606 87.0867Z" fill="white" stroke="black"/>
<path d="M249.237 83.8569C249.485 84.9143 249.611 85.9946 249.613 87.0788C249.614 88.909 249.26 90.7243 248.566 92.4351L239.297 101.166C237.473 101.823 235.535 102.157 233.58 102.151L233.578 102.151C232.431 102.153 231.289 102.037 230.172 101.806L249.237 83.8569Z" fill="#EBEBEB" stroke="black"/>
<path d="M229.106 72.6332C230.971 72.1258 232.915 71.9418 234.844 72.0873L217.593 88.328C217.556 87.9152 217.537 87.501 217.537 87.0864C217.54 84.9264 218.036 82.7913 218.995 80.8261C219.953 78.8607 221.352 77.1105 223.096 75.696C224.841 74.2815 226.891 73.2362 229.106 72.6332Z" fill="#EBEBEB" stroke="black"/>
<path d="M247.177 79.1181C247.252 79.2325 247.328 79.3472 247.402 79.4626L225.487 100.095C225.363 100.028 225.239 99.9581 225.117 99.8866L247.177 79.1181Z" fill="#EBEBEB" stroke="black"/>
<path d="M244.022 11.6766C248.396 18.2947 253.273 27.6044 257.663 38.5008H209.449C213.853 27.592 218.74 18.2781 223.122 11.6609C225.359 8.28153 227.456 5.61955 229.278 3.80923C230.19 2.90381 231.022 2.22267 231.759 1.77104C232.502 1.31547 233.108 1.11831 233.578 1.11914C234.048 1.11998 234.653 1.31907 235.396 1.77647C236.133 2.22992 236.964 2.91273 237.875 3.81958C239.696 5.63273 241.789 8.29664 244.022 11.6766Z" fill="#E3CEFA" stroke="black"/>
<path d="M216.773 34.1261C216.769 34.278 216.717 34.4282 216.621 34.5579C216.524 34.688 216.385 34.7924 216.219 34.8538C216.052 34.9152 215.869 34.9293 215.693 34.8935C215.516 34.8576 215.359 34.7745 215.239 34.6585C215.12 34.5429 215.043 34.4002 215.012 34.2502C214.982 34.1004 215 33.9451 215.063 33.8024C215.127 33.6593 215.237 33.5323 215.383 33.4409C215.53 33.3493 215.704 33.2989 215.885 33.2988C216.008 33.2988 216.129 33.3219 216.24 33.3662C216.352 33.4104 216.451 33.4745 216.532 33.5532C216.613 33.6318 216.675 33.7232 216.716 33.8213C216.757 33.9192 216.776 34.0227 216.773 34.1261Z" fill="white" stroke="black"/>
<path d="M225.614 34.1297C225.61 34.2836 225.559 34.4361 225.462 34.568C225.364 34.7002 225.224 34.8066 225.056 34.8692C224.888 34.9319 224.702 34.9466 224.524 34.9106C224.345 34.8747 224.186 34.7905 224.064 34.673C223.943 34.5558 223.865 34.4112 223.835 34.259C223.804 34.1071 223.822 33.9496 223.887 33.8051C223.953 33.6602 224.065 33.5319 224.213 33.44C224.362 33.3479 224.54 33.2978 224.723 33.2988C224.846 33.2996 224.966 33.3233 225.078 33.368C225.189 33.4126 225.288 33.4769 225.37 33.5557C225.451 33.6345 225.514 33.726 225.555 33.8242C225.596 33.9223 225.616 34.026 225.614 34.1297Z" fill="white" stroke="black"/>
<path d="M233.567 33.3418L233.567 33.3418H233.57C233.815 33.3418 234.044 33.4337 234.208 33.5886C234.372 33.7426 234.458 33.9448 234.458 34.1488H234.958L234.458 34.1523C234.459 34.3071 234.411 34.4613 234.317 34.5956C234.222 34.7303 234.084 34.8399 233.916 34.9059C233.749 34.9719 233.562 34.9899 233.382 34.9564C233.202 34.923 233.04 34.8404 232.916 34.7236C232.792 34.6071 232.712 34.4623 232.68 34.3094C232.648 34.1569 232.665 33.9984 232.729 33.8528C232.794 33.7068 232.906 33.5773 233.055 33.4844C233.204 33.3914 233.382 33.3407 233.567 33.3418Z" fill="white" stroke="black"/>
<path d="M242.405 33.3418L242.408 33.3418C242.529 33.3411 242.649 33.3631 242.76 33.406C242.871 33.4489 242.97 33.5115 243.052 33.5886C243.134 33.6657 243.197 33.7556 243.239 33.8523C243.281 33.9489 243.302 34.0513 243.301 34.1539L243.801 34.1574H243.301C243.301 34.3118 243.253 34.4654 243.158 34.599C243.063 34.7329 242.925 34.8417 242.757 34.907C242.59 34.9724 242.404 34.9899 242.224 34.9562C242.045 34.9225 241.883 34.8401 241.76 34.7236C241.636 34.6074 241.556 34.4631 241.524 34.3107C241.492 34.1586 241.508 34.0006 241.572 33.8552C241.636 33.7094 241.747 33.58 241.895 33.4867C242.043 33.3933 242.221 33.3418 242.405 33.3418Z" fill="white" stroke="black"/>
<path d="M252.135 34.1611C252.136 34.3159 252.089 34.4701 251.994 34.6044C251.9 34.7391 251.762 34.8487 251.594 34.9147C251.426 34.9807 251.24 34.9987 251.06 34.9652C250.879 34.9318 250.718 34.8492 250.594 34.7324C250.47 34.6159 250.39 34.4711 250.358 34.3182C250.326 34.1656 250.342 34.0072 250.407 33.8616C250.472 33.7156 250.583 33.5861 250.733 33.4932C250.882 33.4001 251.06 33.3495 251.245 33.3506C251.49 33.3521 251.719 33.4447 251.883 33.5999C252.047 33.7542 252.134 33.9565 252.135 34.1611Z" fill="white" stroke="black"/>
<path d="M216.717 160.314C216.717 160.468 216.669 160.622 216.574 160.756C216.478 160.89 216.34 160.999 216.172 161.064C216.004 161.129 215.818 161.146 215.638 161.112C215.458 161.078 215.297 160.995 215.174 160.878C215.051 160.761 214.971 160.616 214.939 160.464C214.908 160.311 214.925 160.153 214.989 160.008C215.054 159.862 215.166 159.733 215.315 159.64C215.464 159.547 215.643 159.497 215.827 159.498C216.073 159.5 216.303 159.593 216.467 159.749C216.631 159.905 216.717 160.108 216.717 160.314Z" fill="#C7C7C7" stroke="black"/>
<path d="M225.561 160.316C225.562 160.471 225.515 160.625 225.421 160.759C225.326 160.894 225.188 161.003 225.021 161.069C224.854 161.136 224.668 161.154 224.488 161.121C224.308 161.088 224.146 161.006 224.022 160.89C223.898 160.774 223.817 160.629 223.784 160.477C223.751 160.324 223.767 160.166 223.831 160.02C223.895 159.874 224.006 159.745 224.154 159.651C224.303 159.557 224.48 159.506 224.664 159.506C224.91 159.506 225.141 159.598 225.307 159.753C225.472 159.908 225.56 160.111 225.561 160.316Z" fill="#C7C7C7" stroke="black"/>
<path d="M234.403 160.321C234.403 160.476 234.354 160.629 234.26 160.763C234.165 160.897 234.026 161.006 233.859 161.071C233.691 161.136 233.505 161.154 233.326 161.12C233.146 161.087 232.985 161.004 232.861 160.888C232.738 160.771 232.658 160.627 232.625 160.475C232.593 160.323 232.609 160.165 232.673 160.019C232.738 159.873 232.848 159.744 232.996 159.651C233.145 159.557 233.322 159.506 233.506 159.506C233.628 159.506 233.748 159.528 233.859 159.572C233.97 159.615 234.069 159.678 234.151 159.755C234.233 159.832 234.296 159.922 234.339 160.019C234.381 160.116 234.403 160.219 234.403 160.321Z" fill="#C7C7C7" stroke="black"/>
<path d="M243.237 160.33C243.237 160.485 243.188 160.639 243.093 160.772C242.998 160.906 242.859 161.015 242.692 161.08C242.524 161.146 242.337 161.163 242.157 161.129C241.978 161.094 241.817 161.012 241.693 160.895C241.57 160.778 241.49 160.633 241.459 160.48C241.427 160.328 241.444 160.17 241.509 160.024C241.574 159.879 241.686 159.749 241.835 159.657C241.984 159.564 242.162 159.514 242.346 159.515C242.592 159.516 242.822 159.61 242.987 159.766C243.151 159.921 243.237 160.125 243.237 160.33Z" fill="#C7C7C7" stroke="black"/>
<path d="M252.081 160.334C252.082 160.489 252.034 160.643 251.94 160.777C251.845 160.912 251.707 161.022 251.539 161.088C251.372 161.154 251.185 161.172 251.005 161.138C250.825 161.105 250.663 161.022 250.539 160.905C250.415 160.789 250.335 160.644 250.303 160.491C250.271 160.339 250.288 160.18 250.352 160.034C250.417 159.888 250.529 159.759 250.678 159.666C250.827 159.573 251.006 159.522 251.19 159.523C251.435 159.525 251.664 159.618 251.829 159.773C251.992 159.927 252.079 160.129 252.081 160.334Z" fill="#C7C7C7" stroke="black"/>
<path d="M251.329 166.827L249.877 177.53L217.13 177.505L215.695 166.802L251.329 166.827Z" fill="#E3CEFA" stroke="black"/>
<path opacity="0.1" d="M216.161 170.293L215.701 166.802L251.327 166.827L250.686 171.51L216.161 170.293Z" fill="black" stroke="black"/>
</svg>
