<svg width="24" height="25" viewBox="0 0 24 25" fill="none" xmlns="http://www.w3.org/2000/svg">
<path d="M22.2234 0.773438H1.77187C0.792187 0.773438 0 1.54688 0 2.50313V23.0391C0 23.9953 0.792187 24.7734 1.77187 24.7734H22.2234C23.2031 24.7734 24 23.9953 24 23.0438V2.50313C24 1.54688 23.2031 0.773438 22.2234 0.773438ZM7.12031 21.225H3.55781V9.76875H7.12031V21.225ZM5.33906 8.20781C4.19531 8.20781 3.27188 7.28437 3.27188 6.14531C3.27188 5.00625 4.19531 4.08281 5.33906 4.08281C6.47813 4.08281 7.40156 5.00625 7.40156 6.14531C7.40156 7.27969 6.47813 8.20781 5.33906 8.20781ZM20.4516 21.225H16.8937V15.6562C16.8937 14.3297 16.8703 12.6187 15.0422 12.6187C13.1906 12.6187 12.9094 14.0672 12.9094 15.5625V21.225H9.35625V9.76875H12.7687V11.3344H12.8156C13.2891 10.4344 14.4516 9.48281 16.1813 9.48281C19.7859 9.48281 20.4516 11.8547 20.4516 14.9391V21.225Z" fill="#98A2B3"/>
</svg>
