<svg width="17" height="18" viewBox="0 0 17 18" fill="none" xmlns="http://www.w3.org/2000/svg">
<g clip-path="url(#clip0_26_21624)">
<path d="M14.4892 7.54307C14.4892 12.3448 8.31556 16.4606 8.31556 16.4606C8.31556 16.4606 2.14188 12.3448 2.14188 7.54307C2.14188 5.90571 2.79232 4.33541 3.95011 3.17761C5.1079 2.01982 6.6782 1.36938 8.31556 1.36938C9.95292 1.36938 11.5232 2.01982 12.681 3.17761C13.8388 4.33541 14.4892 5.90571 14.4892 7.54307Z" stroke="#7F56D9" stroke-width="1.45263" stroke-linecap="round" stroke-linejoin="round"/>
<path d="M8.31555 9.60114C9.4521 9.60114 10.3734 8.67979 10.3734 7.54325C10.3734 6.4067 9.4521 5.48535 8.31555 5.48535C7.17901 5.48535 6.25766 6.4067 6.25766 7.54325C6.25766 8.67979 7.17901 9.60114 8.31555 9.60114Z" stroke="#7F56D9" stroke-width="1.45263" stroke-linecap="round" stroke-linejoin="round"/>
</g>
<defs>
<clipPath id="clip0_26_21624">
<rect width="16.4632" height="16.4632" fill="white" transform="translate(0.0839844 0.683594)"/>
</clipPath>
</defs>
</svg>
