<?xml version="1.0" encoding="UTF-8"?>
<svg xmlns="http://www.w3.org/2000/svg" xmlns:xlink="http://www.w3.org/1999/xlink" viewBox="0 0 24 24" width="24px" height="24px">
<g id="surface155156218">
<path style="fill-rule:nonzero;fill:rgb(0%,0%,0%);fill-opacity:1;stroke-width:1;stroke-linecap:butt;stroke-linejoin:round;stroke:rgb(80.000001%,80.000001%,80.000001%);stroke-opacity:1;stroke-miterlimit:10;" d="M 51.612031 48.147886 C 30.742674 48.147886 13.759919 65.130642 13.759919 85.999999 C 13.759919 106.869355 30.742674 123.852111 51.612031 123.852111 C 72.453223 123.852111 89.435979 106.869355 89.435979 85.999999 C 89.435979 65.130642 72.453223 48.147886 51.612031 48.147886 M 51.612031 41.275926 C 76.31166 41.275926 96.30794 61.300369 96.30794 85.999999 C 96.30794 110.699628 76.31166 130.724071 51.612031 130.724071 C 26.912401 130.724071 6.887958 110.699628 6.887958 85.999999 C 6.887958 61.300369 26.912401 41.275926 51.612031 41.275926 Z M 122.105957 51.612031 C 114.811539 51.612031 106.644045 66.313521 106.644045 85.999999 C 106.644045 105.686476 114.811539 120.387966 122.105957 120.387966 C 129.428538 120.387966 137.596032 105.686476 137.596032 85.999999 C 137.596032 66.313521 129.428538 51.612031 122.105957 51.612031 M 122.105957 44.711906 C 134.469853 44.711906 144.467993 63.215505 144.467993 85.999999 C 144.467993 108.784492 134.469853 127.288091 122.105957 127.288091 C 109.770224 127.288091 99.772084 108.784492 99.772084 85.999999 C 99.772084 63.215505 109.770224 44.711906 122.105957 44.711906 Z M 156.522088 63.891436 C 155.56452 69.355208 154.804098 76.818608 154.804098 85.999999 C 154.804098 95.181389 155.56452 102.644789 156.522088 108.108561 C 157.479656 102.644789 158.240078 95.181389 158.240078 85.999999 C 158.240078 76.818608 157.479656 69.355208 156.522088 63.891436 M 156.522088 48.147886 C 161.281766 48.147886 165.112039 65.102478 165.112039 85.999999 C 165.112039 106.897519 161.281766 123.852111 156.522088 123.852111 C 151.76241 123.852111 147.932137 106.897519 147.932137 85.999999 C 147.932137 65.102478 151.76241 48.147886 156.522088 48.147886 Z M 156.522088 48.147886 " transform="matrix(0.138698,0,0,0.138698,0.072,0.072)"/>
<path style=" stroke:none;fill-rule:nonzero;fill:rgb(58.431375%,64.705884%,65.098041%);fill-opacity:1;" d="M 7.230469 6.75 C 10.121094 6.75 12.476562 9.105469 12.476562 12 C 12.476562 14.894531 10.121094 17.25 7.230469 17.25 C 4.335938 17.25 1.980469 14.894531 1.980469 12 C 1.980469 9.105469 4.335938 6.75 7.230469 6.75 M 7.230469 5.796875 C 3.804688 5.796875 1.027344 8.574219 1.027344 12 C 1.027344 15.425781 3.804688 18.203125 7.230469 18.203125 C 10.65625 18.203125 13.429688 15.425781 13.429688 12 C 13.429688 8.574219 10.65625 5.796875 7.230469 5.796875 Z M 17.007812 7.230469 C 18.023438 7.230469 19.15625 9.269531 19.15625 12 C 19.15625 14.730469 18.023438 16.769531 17.007812 16.769531 C 15.996094 16.769531 14.863281 14.730469 14.863281 12 C 14.863281 9.269531 15.996094 7.230469 17.007812 7.230469 M 17.007812 6.273438 C 15.296875 6.273438 13.910156 8.839844 13.910156 12 C 13.910156 15.160156 15.296875 17.726562 17.007812 17.726562 C 18.722656 17.726562 20.109375 15.160156 20.109375 12 C 20.109375 8.839844 18.722656 6.273438 17.007812 6.273438 Z M 22.199219 7.546875 L 22.203125 7.546875 L 22.199219 7.546875 M 21.78125 8.933594 C 21.914062 9.691406 22.019531 10.726562 22.019531 12 C 22.019531 13.273438 21.914062 14.308594 21.78125 15.066406 C 21.648438 14.308594 21.542969 13.273438 21.542969 12 C 21.542969 10.726562 21.648438 9.691406 21.78125 8.933594 M 21.78125 6.75 C 21.121094 6.75 20.589844 9.101562 20.589844 12 C 20.589844 14.898438 21.121094 17.25 21.78125 17.25 C 22.441406 17.25 22.972656 14.898438 22.972656 12 C 22.972656 9.101562 22.441406 6.75 21.78125 6.75 Z M 21.78125 6.75 "/>
</g>
</svg>
