<svg width="18" height="25" viewBox="0 0 18 25" fill="none" xmlns="http://www.w3.org/2000/svg">
<path d="M14.7703 10.8703C15.3187 9.34219 16.8984 4.92188 16.8984 3.50625C16.8984 2.25937 16.1625 1.21406 14.85 1.21406C12.7593 1.21406 10.8843 7.3875 10.2984 8.85938C9.84371 7.52344 7.71558 0.773438 5.84058 0.773438C4.38277 0.773438 3.69839 1.84688 3.69839 3.19688C3.69839 4.85156 5.30152 9.14062 5.88277 10.7906C5.58746 10.6828 5.26871 10.5891 4.94527 10.5891C3.84839 10.5891 2.68121 11.9531 2.68121 13.0547C2.68121 13.4719 2.91089 14.0578 3.05621 14.4469C1.32652 14.9156 0.660894 16.0687 0.660894 17.8078C0.656206 21.1922 3.86246 24.7734 8.37183 24.7734C13.9031 24.7734 17.3437 20.6203 17.3437 15.2625C17.3437 13.2422 17.0203 11.4187 14.7703 10.8703ZM13.1109 5.83594C13.2984 5.25938 14.1 2.82188 14.85 2.82188C15.2531 2.82188 15.3609 3.23906 15.3609 3.57188C15.3609 4.46719 13.5515 9.4125 13.1531 10.5094L11.5593 10.2281L13.1109 5.83594ZM5.17027 3.0375C5.17027 2.47969 5.84996 0.895312 7.34058 5.24531L8.96246 9.94687C8.23121 9.88594 7.66402 9.80625 7.30308 10.0125C6.79214 8.6625 5.17027 4.40156 5.17027 3.0375ZM5.06246 12.2109C6.43589 12.2109 8.20777 16.6453 8.20777 17.2453C8.20777 17.4844 7.97808 17.7797 7.71089 17.7797C6.73121 17.7797 4.10621 14.175 4.10621 13.2C4.11089 12.8391 4.70152 12.2109 5.06246 12.2109ZM13.7015 20.9437C12.3375 22.4437 10.5937 23.2219 8.55933 23.2219C5.77496 23.2219 3.57652 21.6938 2.51714 19.0828C1.71558 17.0484 2.69527 15.8812 3.48277 15.8812C4.01714 15.8812 6.02808 18.7078 6.02808 19.3078C6.02808 19.5375 5.66714 19.6969 5.47964 19.6969C4.72496 19.6969 4.42964 18.9703 3.08433 17.2875C1.69214 18.6797 4.04527 21.3609 5.81714 21.3609C7.04058 21.3609 7.83746 20.2266 7.59839 19.3922C7.77183 19.3922 7.98746 19.4062 8.14683 19.3641C8.19839 20.6344 8.57339 22.1484 10.1015 22.2562C10.1015 22.2141 10.1953 21.9234 10.1953 21.9094C10.1953 21.0938 9.69839 20.3813 9.69839 19.5516C9.69839 18.225 10.7156 16.9406 11.7468 16.1906C12.1218 15.9094 12.5765 15.7359 13.0171 15.5766C13.4718 15.4031 13.9546 15.2016 14.3015 14.8547C14.25 14.3297 14.0343 13.8656 13.5093 13.8656C12.2109 13.8656 7.85621 14.0531 7.85621 12.0047C7.85621 11.6906 7.86089 11.3906 8.67183 11.3906C10.1859 11.3906 14.0296 11.7656 15.1546 12.7547C16.0031 13.5094 16.2937 18.0609 13.7015 20.9437ZM9.07964 15.0375C9.53433 15.1828 10.0031 15.225 10.4718 15.3187C10.125 15.5719 9.81558 15.8812 9.52027 16.2141C9.38902 15.8156 9.22964 15.4266 9.07964 15.0375Z" fill="#98A2B3"/>
</svg>
