<svg width="522" height="143" viewBox="0 0 522 143" fill="none" xmlns="http://www.w3.org/2000/svg">
<path d="M194.576 100.184C189.479 100.184 184.797 98.9608 180.531 96.515C176.266 94.0693 172.885 90.6931 170.388 86.3864C167.891 82.0265 166.643 77.1084 166.643 71.632C166.643 66.2088 167.891 61.3439 170.388 57.0372C172.885 52.6774 176.266 49.2746 180.531 46.8288C184.797 44.383 189.479 43.1602 194.576 43.1602C199.726 43.1602 204.408 44.383 208.621 46.8288C212.887 49.2746 216.242 52.6774 218.687 57.0372C221.184 61.3439 222.432 66.2088 222.432 71.632C222.432 77.1084 221.184 82.0265 218.687 86.3864C216.242 90.6931 212.887 94.0693 208.621 96.515C204.356 98.9608 199.674 100.184 194.576 100.184ZM194.576 90.2145C197.853 90.2145 200.741 89.4702 203.237 87.9815C205.734 86.4396 207.685 84.2596 209.089 81.4417C210.494 78.6237 211.196 75.3539 211.196 71.632C211.196 67.9102 210.494 64.6669 209.089 61.9022C207.685 59.0842 205.734 56.9309 203.237 55.4421C200.741 53.9534 197.853 53.2091 194.576 53.2091C191.299 53.2091 188.386 53.9534 185.837 55.4421C183.34 56.9309 181.39 59.0842 179.985 61.9022C178.581 64.6669 177.879 67.9102 177.879 71.632C177.879 75.3539 178.581 78.6237 179.985 81.4417C181.39 84.2596 183.34 86.4396 185.837 87.9815C188.386 89.4702 191.299 90.2145 194.576 90.2145Z" fill="white"/>
<path d="M254.782 100.184C250.985 100.184 247.552 99.5191 244.483 98.1899C241.466 96.8606 239.073 94.9466 237.304 92.4476C235.536 89.9487 234.625 86.9978 234.573 83.595H246.277C246.433 85.8813 247.214 87.689 248.618 89.0182C250.075 90.3475 252.051 91.0121 254.548 91.0121C257.097 91.0121 259.1 90.4006 260.556 89.1777C262.013 87.9017 262.741 86.2535 262.741 84.2331C262.741 82.5848 262.247 81.229 261.259 80.1656C260.27 79.1023 259.022 78.2782 257.513 77.6933C256.057 77.0553 254.028 76.3641 251.427 75.6197C247.89 74.5563 245.003 73.5195 242.766 72.5093C240.581 71.446 238.683 69.8775 237.07 67.8039C235.51 65.6771 234.729 62.8592 234.729 59.3501C234.729 56.0536 235.536 53.1825 237.148 50.7367C238.761 48.2909 241.023 46.43 243.936 45.154C246.849 43.8248 250.179 43.1602 253.924 43.1602C259.542 43.1602 264.094 44.5691 267.579 47.3871C271.116 50.1519 273.067 54.0332 273.431 59.031H261.415C261.311 57.117 260.504 55.5485 258.996 54.3256C257.539 53.0496 255.589 52.4115 253.144 52.4115C251.011 52.4115 249.294 52.9698 247.994 54.0863C246.745 55.2029 246.121 56.8245 246.121 58.9513C246.121 60.44 246.589 61.6895 247.526 62.6997C248.514 63.6567 249.71 64.4543 251.115 65.0923C252.571 65.6771 254.6 66.3683 257.201 67.1659C260.738 68.2292 263.625 69.2926 265.862 70.356C268.099 71.4194 270.024 73.0144 271.636 75.1412C273.249 77.2679 274.055 80.0593 274.055 83.5153C274.055 86.4927 273.301 89.2575 271.792 91.8096C270.284 94.3617 268.073 96.4087 265.16 97.9506C262.247 99.4393 258.788 100.184 254.782 100.184Z" fill="white"/>
<path d="M326.007 43.9577V52.9698H311.494V99.6254H300.57V52.9698H286.057V43.9577H326.007Z" fill="white"/>
<path d="M350.32 52.9698V66.9266H368.656V75.7792H350.32V90.5336H370.997V99.6254H339.396V43.8779H370.997V52.9698H350.32Z" fill="white"/>
<path d="M397.267 90.7728H415.213V99.6254H386.343V43.9577H397.267V90.7728Z" fill="white"/>
<path d="M438.498 90.7728H456.445V99.6254H427.575V43.9577H438.498V90.7728Z" fill="white"/>
<path d="M494.087 100.184C488.99 100.184 484.308 98.9608 480.042 96.515C475.777 94.0693 472.396 90.6931 469.899 86.3864C467.402 82.0265 466.154 77.1084 466.154 71.632C466.154 66.2088 467.402 61.3439 469.899 57.0372C472.396 52.6774 475.777 49.2746 480.042 46.8288C484.308 44.383 488.99 43.1602 494.087 43.1602C499.237 43.1602 503.919 44.383 508.132 46.8288C512.398 49.2746 515.753 52.6774 518.198 57.0372C520.695 61.3439 521.943 66.2088 521.943 71.632C521.943 77.1084 520.695 82.0265 518.198 86.3864C515.753 90.6931 512.398 94.0693 508.132 96.515C503.867 98.9608 499.185 100.184 494.087 100.184ZM494.087 90.2145C497.364 90.2145 500.252 89.4702 502.748 87.9815C505.245 86.4396 507.196 84.2596 508.6 81.4417C510.005 78.6237 510.707 75.3539 510.707 71.632C510.707 67.9102 510.005 64.6669 508.6 61.9022C507.196 59.0842 505.245 56.9309 502.748 55.4421C500.252 53.9534 497.364 53.2091 494.087 53.2091C490.81 53.2091 487.897 53.9534 485.348 55.4421C482.851 56.9309 480.901 59.0842 479.496 61.9022C478.092 64.6669 477.39 67.9102 477.39 71.632C477.39 75.3539 478.092 78.6237 479.496 81.4417C480.901 84.2596 482.851 86.4396 485.348 87.9815C487.897 89.4702 490.81 90.2145 494.087 90.2145Z" fill="white"/>
<path d="M142.473 71.6701C142.473 110.789 110.761 142.501 71.6417 142.501C32.5227 142.501 0.810547 110.789 0.810547 71.6701C0.810547 32.5511 32.5227 0.838867 71.6417 0.838867C110.761 0.838867 142.473 32.5511 142.473 71.6701Z" fill="white"/>
<path fill-rule="evenodd" clip-rule="evenodd" d="M71.6391 109.097C92.309 109.097 109.065 92.3412 109.065 71.6713C109.065 51.0014 92.309 34.2452 71.6391 34.2452C50.9692 34.2452 34.213 51.0014 34.213 71.6713C34.213 92.3412 50.9692 109.097 71.6391 109.097ZM71.6391 122.228C99.561 122.228 122.196 99.5932 122.196 71.6713C122.196 43.7494 99.561 21.1143 71.6391 21.1143C43.7172 21.1143 21.082 43.7494 21.082 71.6713C21.082 99.5932 43.7172 122.228 71.6391 122.228Z" fill="black"/>
<path d="M19.6756 75.0115L14.2852 64.2285H78.7005V128.387L67.1111 123.535V75.0115H19.6756Z" fill="black"/>
<path fill-rule="evenodd" clip-rule="evenodd" d="M46.4926 79.243H14.6699V74.9502H46.4926V79.243Z" fill="white"/>
<path fill-rule="evenodd" clip-rule="evenodd" d="M46.1079 64.2264H14.2852V59.9336H46.1079V64.2264Z" fill="white"/>
<path fill-rule="evenodd" clip-rule="evenodd" d="M78.7033 128.386L78.7033 106.188L82.9961 106.188L82.9961 128.386L78.7033 128.386Z" fill="white"/>
<path fill-rule="evenodd" clip-rule="evenodd" d="M62.7892 125.821L62.7892 103.622L67.082 103.622L67.082 125.821L62.7892 125.821Z" fill="white"/>
</svg>
