<svg width="151" height="31" viewBox="0 0 151 31" fill="none" xmlns="http://www.w3.org/2000/svg">
<path d="M45.2203 26.1717C43.5798 26.1717 42.0731 25.7782 40.7004 24.9911C39.3277 24.204 38.2395 23.1174 37.436 21.7314C36.6324 20.3284 36.2307 18.7456 36.2307 16.9832C36.2307 15.2379 36.6324 13.6722 37.436 12.2862C38.2395 10.8832 39.3277 9.78806 40.7004 9.00096C42.0731 8.21386 43.5798 7.82031 45.2203 7.82031C46.8777 7.82031 48.3843 8.21386 49.7403 9.00096C51.113 9.78806 52.1928 10.8832 52.9796 12.2862C53.7831 13.6722 54.1849 15.2379 54.1849 16.9832C54.1849 18.7456 53.7831 20.3284 52.9796 21.7314C52.1928 23.1174 51.113 24.204 49.7403 24.9911C48.3676 25.7782 46.8609 26.1717 45.2203 26.1717ZM45.2203 22.9634C46.275 22.9634 47.2041 22.7239 48.0076 22.2448C48.8112 21.7486 49.439 21.047 49.891 20.1401C50.343 19.2333 50.5689 18.1809 50.5689 16.9832C50.5689 15.7854 50.343 14.7417 49.891 13.8519C49.439 12.945 48.8112 12.252 48.0076 11.7729C47.2041 11.2938 46.275 11.0543 45.2203 11.0543C44.1657 11.0543 43.2282 11.2938 42.4079 11.7729C41.6044 12.252 40.9766 12.945 40.5246 13.8519C40.0726 14.7417 39.8466 15.7854 39.8466 16.9832C39.8466 18.1809 40.0726 19.2333 40.5246 20.1401C40.9766 21.047 41.6044 21.7486 42.4079 22.2448C43.2282 22.7239 44.1657 22.9634 45.2203 22.9634Z" fill="#6941C6"/>
<path d="M64.5959 26.1717C63.3738 26.1717 62.269 25.9578 61.2813 25.5301C60.3103 25.1023 59.5402 24.4863 58.9711 23.6821C58.4019 22.8779 58.1089 21.9282 58.0922 20.8331H61.8588C61.909 21.5689 62.1601 22.1507 62.6121 22.5784C63.0809 23.0062 63.717 23.2201 64.5206 23.2201C65.3408 23.2201 65.9854 23.0233 66.4541 22.6298C66.9228 22.2191 67.1572 21.6887 67.1572 21.0385C67.1572 20.508 66.9982 20.0717 66.6801 19.7295C66.362 19.3873 65.9603 19.122 65.4748 18.9338C65.006 18.7285 64.3532 18.5061 63.5161 18.2665C62.3778 17.9243 61.4487 17.5906 60.7288 17.2655C60.0257 16.9233 59.4147 16.4185 58.8957 15.7512C58.3935 15.0668 58.1424 14.1599 58.1424 13.0306C58.1424 11.9697 58.4019 11.0457 58.9208 10.2586C59.4398 9.47151 60.168 8.87263 61.1055 8.46197C62.043 8.0342 63.1144 7.82031 64.3197 7.82031C66.1277 7.82031 67.5925 8.27375 68.7141 9.18063C69.8524 10.0704 70.4802 11.3195 70.5974 12.9279H66.7303C66.6968 12.3119 66.4374 11.8071 65.9519 11.4136C65.4831 11.0029 64.8554 10.7976 64.0686 10.7976C63.3822 10.7976 62.8298 10.9773 62.4112 11.3366C62.0095 11.6959 61.8086 12.2178 61.8086 12.9022C61.8086 13.3813 61.9593 13.7835 62.2606 14.1086C62.5787 14.4166 62.9637 14.6732 63.4157 14.8785C63.8844 15.0668 64.5373 15.2892 65.3743 15.5459C66.5127 15.8881 67.4418 16.2303 68.1616 16.5725C68.8815 16.9147 69.5009 17.4281 70.0198 18.1125C70.5388 18.7969 70.7983 19.6953 70.7983 20.8075C70.7983 21.7657 70.5555 22.6554 70.0701 23.4768C69.5846 24.2981 68.8731 24.9569 67.9356 25.4531C66.9982 25.9322 65.8849 26.1717 64.5959 26.1717Z" fill="#6941C6"/>
<path d="M87.5176 8.07698V10.9773H82.8469V25.9921H79.3314V10.9773H74.6608V8.07698H87.5176Z" fill="#6941C6"/>
<path d="M95.3419 10.9773V15.4689H101.243V18.3178H95.3419V23.0661H101.996V25.9921H91.8264V8.05131H101.996V10.9773H95.3419Z" fill="#6941C6"/>
<path d="M110.45 23.1431H116.226V25.9921H106.935V8.07698H110.45V23.1431Z" fill="#6941C6"/>
<path d="M123.72 23.1431H129.495V25.9921H120.204V8.07698H123.72V23.1431Z" fill="#6941C6"/>
<path d="M141.609 26.1717C139.969 26.1717 138.462 25.7782 137.089 24.9911C135.717 24.204 134.629 23.1174 133.825 21.7314C133.021 20.3284 132.62 18.7456 132.62 16.9832C132.62 15.2379 133.021 13.6722 133.825 12.2862C134.629 10.8832 135.717 9.78806 137.089 9.00096C138.462 8.21386 139.969 7.82031 141.609 7.82031C143.267 7.82031 144.773 8.21386 146.129 9.00096C147.502 9.78806 148.582 10.8832 149.369 12.2862C150.172 13.6722 150.574 15.2379 150.574 16.9832C150.574 18.7456 150.172 20.3284 149.369 21.7314C148.582 23.1174 147.502 24.204 146.129 24.9911C144.757 25.7782 143.25 26.1717 141.609 26.1717ZM141.609 22.9634C142.664 22.9634 143.593 22.7239 144.397 22.2448C145.2 21.7486 145.828 21.047 146.28 20.1401C146.732 19.2333 146.958 18.1809 146.958 16.9832C146.958 15.7854 146.732 14.7417 146.28 13.8519C145.828 12.945 145.2 12.252 144.397 11.7729C143.593 11.2938 142.664 11.0543 141.609 11.0543C140.555 11.0543 139.617 11.2938 138.797 11.7729C137.993 12.252 137.366 12.945 136.914 13.8519C136.462 14.7417 136.236 15.7854 136.236 16.9832C136.236 18.1809 136.462 19.2333 136.914 20.1401C137.366 21.047 137.993 21.7486 138.797 22.2448C139.617 22.7239 140.555 22.9634 141.609 22.9634Z" fill="#6941C6"/>
<path d="M30.4097 15.7948C30.4097 24.1922 23.6022 30.9997 15.2048 30.9997C6.80732 30.9997 -0.000152588 24.1922 -0.000152588 15.7948C-0.000152588 7.39731 6.80732 0.589844 15.2048 0.589844C23.6022 0.589844 30.4097 7.39731 30.4097 15.7948Z" fill="#6941C6"/>
<path fill-rule="evenodd" clip-rule="evenodd" d="M15.2049 23.8292C19.642 23.8292 23.239 20.2322 23.239 15.7952C23.239 11.3581 19.642 7.76112 15.2049 7.76112C10.7678 7.76112 7.17088 11.3581 7.17088 15.7952C7.17088 20.2322 10.7678 23.8292 15.2049 23.8292ZM15.2049 26.648C21.1988 26.648 26.0577 21.789 26.0577 15.7952C26.0577 9.80134 21.1988 4.94238 15.2049 4.94238C9.2111 4.94238 4.35214 9.80134 4.35214 15.7952C4.35214 21.789 9.2111 26.648 15.2049 26.648Z" fill="white"/>
<path d="M4.04989 16.511L2.89276 14.1963H16.7204V27.9689L14.2326 26.9272V16.511H4.04989Z" fill="white"/>
<path fill-rule="evenodd" clip-rule="evenodd" d="M9.80507 17.4196H2.97388V16.498H9.80507V17.4196Z" fill="#6941C6"/>
<path fill-rule="evenodd" clip-rule="evenodd" d="M9.72395 14.1959H2.89276V13.2744H9.72395V14.1959Z" fill="#6941C6"/>
<path fill-rule="evenodd" clip-rule="evenodd" d="M16.7197 27.9694L16.7197 23.2041L17.6412 23.2041L17.6412 27.9694L16.7197 27.9694Z" fill="#6941C6"/>
<path fill-rule="evenodd" clip-rule="evenodd" d="M13.3038 27.4186L13.3038 22.6533L14.2253 22.6533L14.2253 27.4186L13.3038 27.4186Z" fill="#6941C6"/>
</svg>
