<svg width="308" height="439" viewBox="0 0 308 439" fill="none" xmlns="http://www.w3.org/2000/svg">
<path d="M0 50C0 22.3858 22.3858 0 50 0H258C285.614 0 308 22.3858 308 50V439H0V50Z" fill="white"/>
<rect x="103" y="19" width="84" height="11" rx="5.5" fill="black"/>
<circle cx="200" cy="24" r="5" fill="black"/>
<path d="M212 231.5C212 263.256 186.256 289 154.5 289C122.744 289 97 263.256 97 231.5C97 199.744 122.744 174 154.5 174C186.256 174 212 199.744 212 231.5Z" fill="#7D23E0"/>
<path fill-rule="evenodd" clip-rule="evenodd" d="M154.487 261.877C171.267 261.877 184.869 248.274 184.869 231.495C184.869 214.715 171.267 201.113 154.487 201.113C137.707 201.113 124.105 214.715 124.105 231.495C124.105 248.274 137.707 261.877 154.487 261.877ZM154.487 272.536C177.154 272.536 195.529 254.161 195.529 231.495C195.529 208.828 177.154 190.453 154.487 190.453C131.82 190.453 113.445 208.828 113.445 231.495C113.445 254.161 131.82 272.536 154.487 272.536Z" fill="white"/>
<path d="M112.329 234.214L107.953 225.461H160.245V277.544L150.837 273.605V234.214H112.329Z" fill="white"/>
<path fill-rule="evenodd" clip-rule="evenodd" d="M134.087 237.642H108.254V234.157H134.087V237.642Z" fill="#7D23E0"/>
<path fill-rule="evenodd" clip-rule="evenodd" d="M133.786 225.458H107.953V221.974H133.786V225.458Z" fill="#7D23E0"/>
<path fill-rule="evenodd" clip-rule="evenodd" d="M160.226 277.54L160.226 259.52L163.711 259.52L163.711 277.54L160.226 277.54Z" fill="#7D23E0"/>
<path fill-rule="evenodd" clip-rule="evenodd" d="M147.296 275.457L147.296 257.437L150.781 257.437L150.781 275.457L147.296 275.457Z" fill="#7D23E0"/>
<path d="M92.2266 329V329.625C92.2266 330.484 92.1146 331.255 91.8906 331.938C91.6667 332.62 91.3464 333.201 90.9297 333.68C90.5182 334.159 90.0234 334.526 89.4453 334.781C88.8672 335.031 88.2266 335.156 87.5234 335.156C86.8255 335.156 86.1875 335.031 85.6094 334.781C85.0365 334.526 84.5391 334.159 84.1172 333.68C83.6953 333.201 83.3672 332.62 83.1328 331.938C82.9036 331.255 82.7891 330.484 82.7891 329.625V329C82.7891 328.141 82.9036 327.372 83.1328 326.695C83.362 326.013 83.6849 325.432 84.1016 324.953C84.5234 324.469 85.0208 324.102 85.5938 323.852C86.1719 323.596 86.8099 323.469 87.5078 323.469C88.2109 323.469 88.8516 323.596 89.4297 323.852C90.0078 324.102 90.5052 324.469 90.9219 324.953C91.3385 325.432 91.6589 326.013 91.8828 326.695C92.112 327.372 92.2266 328.141 92.2266 329ZM90.2656 329.625V328.984C90.2656 328.349 90.2031 327.789 90.0781 327.305C89.9583 326.815 89.7786 326.406 89.5391 326.078C89.3047 325.745 89.0156 325.495 88.6719 325.328C88.3281 325.156 87.9401 325.07 87.5078 325.07C87.0755 325.07 86.6901 325.156 86.3516 325.328C86.013 325.495 85.724 325.745 85.4844 326.078C85.25 326.406 85.0703 326.815 84.9453 327.305C84.8203 327.789 84.7578 328.349 84.7578 328.984V329.625C84.7578 330.26 84.8203 330.823 84.9453 331.312C85.0703 331.802 85.2526 332.216 85.4922 332.555C85.737 332.888 86.0286 333.141 86.3672 333.312C86.7057 333.479 87.0911 333.562 87.5234 333.562C87.9609 333.562 88.349 333.479 88.6875 333.312C89.026 333.141 89.3125 332.888 89.5469 332.555C89.7812 332.216 89.9583 331.802 90.0781 331.312C90.2031 330.823 90.2656 330.26 90.2656 329.625ZM97.0391 332.445L99.3047 323.625H100.492L100.359 325.898L97.9375 335H96.7031L97.0391 332.445ZM95.3438 323.625L97.1797 332.375L97.3438 335H96.0312L93.3984 323.625H95.3438ZM103.062 332.352L104.875 323.625H106.828L104.195 335H102.883L103.062 332.352ZM100.953 323.625L103.195 332.469L103.523 335H102.289L99.9062 325.898L99.7812 323.625H100.953ZM117.305 323.625V335H115.344L110.242 326.852V335H108.281V323.625H110.242L115.359 331.789V323.625H117.305ZM124.711 323.625L127.352 329.055L129.992 323.625H132.164L128.336 330.812V335H126.359V330.812L122.531 323.625H124.711ZM142.242 329V329.625C142.242 330.484 142.13 331.255 141.906 331.938C141.682 332.62 141.362 333.201 140.945 333.68C140.534 334.159 140.039 334.526 139.461 334.781C138.883 335.031 138.242 335.156 137.539 335.156C136.841 335.156 136.203 335.031 135.625 334.781C135.052 334.526 134.555 334.159 134.133 333.68C133.711 333.201 133.383 332.62 133.148 331.938C132.919 331.255 132.805 330.484 132.805 329.625V329C132.805 328.141 132.919 327.372 133.148 326.695C133.378 326.013 133.701 325.432 134.117 324.953C134.539 324.469 135.036 324.102 135.609 323.852C136.188 323.596 136.826 323.469 137.523 323.469C138.227 323.469 138.867 323.596 139.445 323.852C140.023 324.102 140.521 324.469 140.938 324.953C141.354 325.432 141.674 326.013 141.898 326.695C142.128 327.372 142.242 328.141 142.242 329ZM140.281 329.625V328.984C140.281 328.349 140.219 327.789 140.094 327.305C139.974 326.815 139.794 326.406 139.555 326.078C139.32 325.745 139.031 325.495 138.688 325.328C138.344 325.156 137.956 325.07 137.523 325.07C137.091 325.07 136.706 325.156 136.367 325.328C136.029 325.495 135.74 325.745 135.5 326.078C135.266 326.406 135.086 326.815 134.961 327.305C134.836 327.789 134.773 328.349 134.773 328.984V329.625C134.773 330.26 134.836 330.823 134.961 331.312C135.086 331.802 135.268 332.216 135.508 332.555C135.753 332.888 136.044 333.141 136.383 333.312C136.721 333.479 137.107 333.562 137.539 333.562C137.977 333.562 138.365 333.479 138.703 333.312C139.042 333.141 139.328 332.888 139.562 332.555C139.797 332.216 139.974 331.802 140.094 331.312C140.219 330.823 140.281 330.26 140.281 329.625ZM150.586 323.625H152.539V331.227C152.539 332.091 152.352 332.815 151.977 333.398C151.602 333.982 151.091 334.422 150.445 334.719C149.805 335.01 149.089 335.156 148.297 335.156C147.479 335.156 146.75 335.01 146.109 334.719C145.469 334.422 144.964 333.982 144.594 333.398C144.229 332.815 144.047 332.091 144.047 331.227V323.625H146V331.227C146 331.773 146.094 332.224 146.281 332.578C146.469 332.927 146.734 333.185 147.078 333.352C147.422 333.518 147.828 333.602 148.297 333.602C148.766 333.602 149.169 333.518 149.508 333.352C149.852 333.185 150.117 332.927 150.305 332.578C150.492 332.224 150.586 331.773 150.586 331.227V323.625ZM154.672 323.625H158.695C159.56 323.625 160.297 323.755 160.906 324.016C161.516 324.276 161.982 324.661 162.305 325.172C162.633 325.677 162.797 326.302 162.797 327.047C162.797 327.615 162.693 328.115 162.484 328.547C162.276 328.979 161.982 329.344 161.602 329.641C161.221 329.932 160.768 330.159 160.242 330.32L159.648 330.609H156.031L156.016 329.055H158.727C159.195 329.055 159.586 328.971 159.898 328.805C160.211 328.638 160.445 328.411 160.602 328.125C160.763 327.833 160.844 327.505 160.844 327.141C160.844 326.745 160.766 326.401 160.609 326.109C160.458 325.812 160.224 325.586 159.906 325.43C159.589 325.268 159.185 325.188 158.695 325.188H156.633V335H154.672V323.625ZM161.164 335L158.492 329.891L160.547 329.883L163.258 334.898V335H161.164ZM175.453 331.297H177.406C177.344 332.042 177.135 332.706 176.781 333.289C176.427 333.867 175.93 334.323 175.289 334.656C174.648 334.99 173.87 335.156 172.953 335.156C172.25 335.156 171.617 335.031 171.055 334.781C170.492 334.526 170.01 334.167 169.609 333.703C169.208 333.234 168.901 332.669 168.688 332.008C168.479 331.346 168.375 330.607 168.375 329.789V328.844C168.375 328.026 168.482 327.286 168.695 326.625C168.914 325.964 169.227 325.398 169.633 324.93C170.039 324.456 170.526 324.094 171.094 323.844C171.667 323.594 172.31 323.469 173.023 323.469C173.93 323.469 174.695 323.635 175.32 323.969C175.945 324.302 176.43 324.763 176.773 325.352C177.122 325.94 177.336 326.615 177.414 327.375H175.461C175.409 326.885 175.294 326.466 175.117 326.117C174.945 325.768 174.69 325.503 174.352 325.32C174.013 325.133 173.57 325.039 173.023 325.039C172.576 325.039 172.185 325.122 171.852 325.289C171.518 325.456 171.24 325.701 171.016 326.023C170.792 326.346 170.622 326.745 170.508 327.219C170.398 327.688 170.344 328.224 170.344 328.828V329.789C170.344 330.362 170.393 330.883 170.492 331.352C170.596 331.815 170.753 332.214 170.961 332.547C171.174 332.88 171.445 333.138 171.773 333.32C172.102 333.503 172.495 333.594 172.953 333.594C173.51 333.594 173.961 333.505 174.305 333.328C174.654 333.151 174.917 332.893 175.094 332.555C175.276 332.211 175.396 331.792 175.453 331.297ZM183.617 325.141L180.219 335H178.164L182.445 323.625H183.758L183.617 325.141ZM186.461 335L183.055 325.141L182.906 323.625H184.227L188.523 335H186.461ZM186.297 330.781V332.336H180.109V330.781H186.297ZM189.797 323.625H193.82C194.685 323.625 195.422 323.755 196.031 324.016C196.641 324.276 197.107 324.661 197.43 325.172C197.758 325.677 197.922 326.302 197.922 327.047C197.922 327.615 197.818 328.115 197.609 328.547C197.401 328.979 197.107 329.344 196.727 329.641C196.346 329.932 195.893 330.159 195.367 330.32L194.773 330.609H191.156L191.141 329.055H193.852C194.32 329.055 194.711 328.971 195.023 328.805C195.336 328.638 195.57 328.411 195.727 328.125C195.888 327.833 195.969 327.505 195.969 327.141C195.969 326.745 195.891 326.401 195.734 326.109C195.583 325.812 195.349 325.586 195.031 325.43C194.714 325.268 194.31 325.188 193.82 325.188H191.758V335H189.797V323.625ZM196.289 335L193.617 329.891L195.672 329.883L198.383 334.898V335H196.289ZM207.32 333.445V335H201.281V333.445H207.32ZM201.836 323.625V335H199.875V323.625H201.836ZM206.531 328.375V329.906H201.281V328.375H206.531ZM207.281 323.625V325.188H201.281V323.625H207.281ZM216.367 333.445V335H210.328V333.445H216.367ZM210.883 323.625V335H208.922V323.625H210.883ZM215.578 328.375V329.906H210.328V328.375H215.578ZM216.328 323.625V325.188H210.328V323.625H216.328ZM217.969 323.625H221.992C222.857 323.625 223.594 323.755 224.203 324.016C224.812 324.276 225.279 324.661 225.602 325.172C225.93 325.677 226.094 326.302 226.094 327.047C226.094 327.615 225.99 328.115 225.781 328.547C225.573 328.979 225.279 329.344 224.898 329.641C224.518 329.932 224.065 330.159 223.539 330.32L222.945 330.609H219.328L219.312 329.055H222.023C222.492 329.055 222.883 328.971 223.195 328.805C223.508 328.638 223.742 328.411 223.898 328.125C224.06 327.833 224.141 327.505 224.141 327.141C224.141 326.745 224.062 326.401 223.906 326.109C223.755 325.812 223.521 325.586 223.203 325.43C222.885 325.268 222.482 325.188 221.992 325.188H219.93V335H217.969V323.625ZM224.461 335L221.789 329.891L223.844 329.883L226.555 334.898V335H224.461Z" fill="#7D23E0"/>
</svg>
