<svg width="157" height="42" viewBox="0 0 157 42" fill="none" xmlns="http://www.w3.org/2000/svg">
<path d="M61.1765 28.6016C59.6843 28.6016 58.314 28.2584 57.0654 27.5722C55.8169 26.8859 54.8271 25.9386 54.0963 24.7302C53.3654 23.5069 53 22.127 53 20.5904C53 19.0687 53.3654 17.7037 54.0963 16.4953C54.8271 15.272 55.8169 14.3172 57.0654 13.6309C58.314 12.9447 59.6843 12.6016 61.1765 12.6016C62.6839 12.6016 64.0543 12.9447 65.2876 13.6309C66.5361 14.3172 67.5182 15.272 68.2339 16.4953C68.9647 17.7037 69.3301 19.0687 69.3301 20.5904C69.3301 22.127 68.9647 23.5069 68.2339 24.7302C67.5182 25.9386 66.5361 26.8859 65.2876 27.5722C64.039 28.2584 62.6687 28.6016 61.1765 28.6016ZM61.1765 25.8044C62.1357 25.8044 62.9808 25.5955 63.7117 25.1778C64.4425 24.7452 65.0135 24.1335 65.4246 23.3428C65.8357 22.5521 66.0413 21.6347 66.0413 20.5904C66.0413 19.5461 65.8357 18.6361 65.4246 17.8603C65.0135 17.0696 64.4425 16.4654 63.7117 16.0477C62.9808 15.63 62.1357 15.4211 61.1765 15.4211C60.2172 15.4211 59.3646 15.63 58.6185 16.0477C57.8876 16.4654 57.3166 17.0696 56.9055 17.8603C56.4944 18.6361 56.2889 19.5461 56.2889 20.5904C56.2889 21.6347 56.4944 22.5521 56.9055 23.3428C57.3166 24.1335 57.8876 24.7452 58.6185 25.1778C59.3646 25.5955 60.2172 25.8044 61.1765 25.8044Z" fill="#7D23E0"/>
<path d="M78.7994 28.6016C77.6878 28.6016 76.6829 28.4151 75.7846 28.0421C74.9014 27.6692 74.201 27.1321 73.6833 26.4309C73.1657 25.7298 72.8992 24.9018 72.884 23.947H76.3099C76.3556 24.5885 76.5839 25.0957 76.9951 25.4687C77.4214 25.8417 78 26.0281 78.7308 26.0281C79.4769 26.0281 80.0631 25.8566 80.4895 25.5135C80.9158 25.1554 81.129 24.6929 81.129 24.126C81.129 23.6636 80.9843 23.2831 80.695 22.9848C80.4057 22.6864 80.0403 22.4552 79.5987 22.2911C79.1724 22.1121 78.5786 21.9181 77.8173 21.7093C76.7819 21.4109 75.9368 21.12 75.2821 20.8365C74.6426 20.5382 74.0868 20.0981 73.6148 19.5162C73.158 18.9195 72.9296 18.1288 72.9296 17.1442C72.9296 16.2193 73.1657 15.4137 73.6377 14.7274C74.1097 14.0412 74.772 13.519 75.6247 13.161C76.4774 12.788 77.4518 12.6016 78.5481 12.6016C80.1926 12.6016 81.5249 12.9969 82.545 13.7876C83.5804 14.5633 84.1514 15.6524 84.258 17.0547H80.7407C80.7103 16.5176 80.4742 16.0776 80.0327 15.7344C79.6064 15.3764 79.0354 15.1974 78.3197 15.1974C77.6955 15.1974 77.193 15.354 76.8123 15.6673C76.4469 15.9806 76.2642 16.4356 76.2642 17.0323C76.2642 17.45 76.4012 17.8006 76.6753 18.0841C76.9646 18.3526 77.3148 18.5764 77.7259 18.7554C78.1523 18.9195 78.7461 19.1135 79.5074 19.3372C80.5428 19.6356 81.3878 19.934 82.0426 20.2323C82.6973 20.5307 83.2607 20.9783 83.7327 21.575C84.2047 22.1717 84.4407 22.9549 84.4407 23.9246C84.4407 24.7601 84.2199 25.5358 83.7783 26.2519C83.3368 26.968 82.6897 27.5424 81.837 27.975C80.9843 28.3927 79.9718 28.6016 78.7994 28.6016Z" fill="#7D23E0"/>
<path d="M99.6476 12.8253V15.354H95.3995V28.4449H92.2019V15.354H87.9538V12.8253H99.6476Z" fill="#7D23E0"/>
<path d="M106.764 15.354V19.2701H112.131V21.754H106.764V25.8939H112.817V28.4449H103.567V12.803H112.817V15.354H106.764Z" fill="#7D23E0"/>
<path d="M120.506 25.961H125.759V28.4449H117.308V12.8253H120.506V25.961Z" fill="#7D23E0"/>
<path d="M132.575 25.961H137.828V28.4449H129.377V12.8253H132.575V25.961Z" fill="#7D23E0"/>
<path d="M148.846 28.6016C147.354 28.6016 145.984 28.2584 144.735 27.5722C143.487 26.8859 142.497 25.9386 141.766 24.7302C141.035 23.5069 140.67 22.127 140.67 20.5904C140.67 19.0687 141.035 17.7037 141.766 16.4953C142.497 15.272 143.487 14.3172 144.735 13.6309C145.984 12.9447 147.354 12.6016 148.846 12.6016C150.354 12.6016 151.724 12.9447 152.957 13.6309C154.206 14.3172 155.188 15.272 155.904 16.4953C156.635 17.7037 157 19.0687 157 20.5904C157 22.127 156.635 23.5069 155.904 24.7302C155.188 25.9386 154.206 26.8859 152.957 27.5722C151.709 28.2584 150.339 28.6016 148.846 28.6016ZM148.846 25.8044C149.806 25.8044 150.651 25.5955 151.382 25.1778C152.112 24.7452 152.683 24.1335 153.094 23.3428C153.506 22.5521 153.711 21.6347 153.711 20.5904C153.711 19.5461 153.506 18.6361 153.094 17.8603C152.683 17.0696 152.112 16.4654 151.382 16.0477C150.651 15.63 149.806 15.4211 148.846 15.4211C147.887 15.4211 147.034 15.63 146.288 16.0477C145.557 16.4654 144.986 17.0696 144.575 17.8603C144.164 18.6361 143.959 19.5461 143.959 20.5904C143.959 21.6347 144.164 22.5521 144.575 23.3428C144.986 24.1335 145.557 24.7452 146.288 25.1778C147.034 25.5955 147.887 25.8044 148.846 25.8044Z" fill="#7D23E0"/>
<path d="M41.6012 20.8006C41.6012 32.2884 32.2884 41.6012 20.8006 41.6012C9.31273 41.6012 0 32.2884 0 20.8006C0 9.31273 9.31273 0 20.8006 0C32.2884 0 41.6012 9.31273 41.6012 20.8006Z" fill="#7D23E0"/>
<path fill-rule="evenodd" clip-rule="evenodd" d="M20.7994 31.7906C26.8694 31.7906 31.7901 26.8699 31.7901 20.7999C31.7901 14.7299 26.8694 9.8092 20.7994 9.8092C14.7294 9.8092 9.80872 14.7299 9.80872 20.7999C9.80872 26.8699 14.7294 31.7906 20.7994 31.7906ZM20.7994 35.6467C28.9991 35.6467 35.6462 28.9996 35.6462 20.7999C35.6462 12.6003 28.9991 5.95312 20.7994 5.95312C12.5998 5.95312 5.95264 12.6003 5.95264 20.7999C5.95264 28.9996 12.5998 35.6467 20.7994 35.6467Z" fill="white"/>
<path d="M5.53805 21.7818L3.95508 18.6152H22.8715V37.4563L19.4682 36.0314V21.7818H5.53805Z" fill="white"/>
<path fill-rule="evenodd" clip-rule="evenodd" d="M13.4159 23.0243H4.07074V21.7637H13.4159V23.0243Z" fill="#7D23E0"/>
<path fill-rule="evenodd" clip-rule="evenodd" d="M13.3003 18.6161H3.95508V17.3555H13.3003V18.6161Z" fill="#7D23E0"/>
<path fill-rule="evenodd" clip-rule="evenodd" d="M22.8717 37.4565L22.8717 30.9375L24.1323 30.9375L24.1323 37.4565L22.8717 37.4565Z" fill="#7D23E0"/>
<path fill-rule="evenodd" clip-rule="evenodd" d="M18.2022 36.7026L18.2022 30.1836L19.4629 30.1836L19.4629 36.7026L18.2022 36.7026Z" fill="#7D23E0"/>
</svg>
