<svg width="320" height="320" viewBox="0 0 320 320" fill="none" xmlns="http://www.w3.org/2000/svg">
<mask id="mask0_434_256" style="mask-type:alpha" maskUnits="userSpaceOnUse" x="0" y="0" width="320" height="320">
<rect width="320" height="320" rx="24" fill="#73D4DD"/>
</mask>
<g mask="url(#mask0_434_256)">
<rect width="320" height="320" rx="24" fill="#49A3B7"/>
<circle cx="125.826" cy="-79.2231" r="191.068" fill="#288093"/>
<circle cx="385.948" cy="175.949" r="148.984" transform="rotate(178.057 385.948 175.949)" fill="white" fill-opacity="0.2"/>
<circle cx="109.806" cy="56.8058" r="19.8058" fill="#0D929E"/>
<path d="M236.118 319.614C236.118 416.773 157.355 495.536 60.1958 495.536C-36.9635 495.536 -115.727 416.773 -115.727 319.614C-115.727 222.455 -36.9635 143.691 60.1958 143.691C157.355 143.691 236.118 222.455 236.118 319.614ZM-33.7935 319.614C-33.7935 371.523 8.28693 413.603 60.1958 413.603C112.105 413.603 154.185 371.523 154.185 319.614C154.185 267.705 112.105 225.624 60.1958 225.624C8.28693 225.624 -33.7935 267.705 -33.7935 319.614Z" fill="#64C4D0"/>
</g>
</svg>
