<svg width="20" height="20" viewBox="0 0 20 20" fill="none" xmlns="http://www.w3.org/2000/svg">
<path d="M4.16667 12.5H3.33334C2.89131 12.5 2.46739 12.3244 2.15483 12.0118C1.84227 11.6992 1.66667 11.2753 1.66667 10.8333V3.33329C1.66667 2.89127 1.84227 2.46734 2.15483 2.15478C2.46739 1.84222 2.89131 1.66663 3.33334 1.66663H10.8333C11.2754 1.66663 11.6993 1.84222 12.0118 2.15478C12.3244 2.46734 12.5 2.89127 12.5 3.33329V4.16663M9.16667 7.49996H16.6667C17.5871 7.49996 18.3333 8.24615 18.3333 9.16663V16.6666C18.3333 17.5871 17.5871 18.3333 16.6667 18.3333H9.16667C8.2462 18.3333 7.50001 17.5871 7.50001 16.6666V9.16663C7.50001 8.24615 8.2462 7.49996 9.16667 7.49996Z" stroke="#344054" stroke-width="1.67" stroke-linecap="round" stroke-linejoin="round"/>
</svg>
