<svg width="98" height="98" viewBox="0 0 98 98" fill="none" xmlns="http://www.w3.org/2000/svg">
<path d="M22.4585 32.6654H24.5002V34.707C24.5002 35.79 24.9304 36.8286 25.6961 37.5944C26.4619 38.3602 27.5005 38.7904 28.5835 38.7904C29.6665 38.7904 30.7051 38.3602 31.4708 37.5944C32.2366 36.8286 32.6668 35.79 32.6668 34.707V32.6654H34.7085C35.7915 32.6654 36.8301 32.2352 37.5958 31.4694C38.3616 30.7036 38.7918 29.665 38.7918 28.582C38.7918 27.4991 38.3616 26.4605 37.5958 25.6947C36.8301 24.9289 35.7915 24.4987 34.7085 24.4987H32.6668V22.457C32.6668 21.3741 32.2366 20.3355 31.4708 19.5697C30.7051 18.8039 29.6665 18.3737 28.5835 18.3737C27.5005 18.3737 26.4619 18.8039 25.6961 19.5697C24.9304 20.3355 24.5002 21.3741 24.5002 22.457V24.4987H22.4585C21.3755 24.4987 20.3369 24.9289 19.5711 25.6947C18.8054 26.4605 18.3752 27.4991 18.3752 28.582C18.3752 29.665 18.8054 30.7036 19.5711 31.4694C20.3369 32.2352 21.3755 32.6654 22.4585 32.6654ZM19.9268 78.072C20.6919 78.8326 21.7268 79.2594 22.8056 79.2594C23.8843 79.2594 24.9193 78.8326 25.6843 78.072L28.5835 75.1729L31.4827 78.072C32.2477 78.8326 33.2827 79.2594 34.3614 79.2594C35.4402 79.2594 36.4751 78.8326 37.2402 78.072C38.0007 77.307 38.4276 76.272 38.4276 75.1933C38.4276 74.1145 38.0007 73.0796 37.2402 72.3145L34.341 69.4154L37.2402 66.5162C37.9091 65.735 38.2587 64.7302 38.219 63.7026C38.1793 62.6749 37.7533 61.7 37.026 60.9728C36.2988 60.2456 35.324 59.8196 34.2963 59.7799C33.2686 59.7402 32.2638 60.0897 31.4827 60.7587L28.5835 63.6579L25.6843 60.7587C24.9032 60.0897 23.8984 59.7402 22.8707 59.7799C21.843 59.8196 20.8682 60.2456 20.1409 60.9728C19.4137 61.7 18.9877 62.6749 18.948 63.7026C18.9083 64.7302 19.2579 65.735 19.9268 66.5162L22.826 69.4154L19.9268 72.3145C19.1663 73.0796 18.7394 74.1145 18.7394 75.1933C18.7394 76.272 19.1663 77.307 19.9268 78.072V78.072ZM81.6668 4.08203H16.3335C13.0846 4.08203 9.96876 5.37265 7.67144 7.66997C5.37412 9.96729 4.0835 13.0831 4.0835 16.332V81.6654C4.0835 84.9143 5.37412 88.0301 7.67144 90.3274C9.96876 92.6247 13.0846 93.9154 16.3335 93.9154H81.6668C84.9157 93.9154 88.0316 92.6247 90.3289 90.3274C92.6262 88.0301 93.9168 84.9143 93.9168 81.6654V16.332C93.9168 13.0831 92.6262 9.96729 90.3289 7.66997C88.0316 5.37265 84.9157 4.08203 81.6668 4.08203V4.08203ZM44.9168 85.7487H16.3335C15.2505 85.7487 14.2119 85.3185 13.4461 84.5527C12.6804 83.7869 12.2502 82.7483 12.2502 81.6654V53.082H44.9168V85.7487ZM44.9168 44.9154H12.2502V16.332C12.2502 15.2491 12.6804 14.2105 13.4461 13.4447C14.2119 12.6789 15.2505 12.2487 16.3335 12.2487H44.9168V44.9154ZM85.7502 81.6654C85.7502 82.7483 85.32 83.7869 84.5542 84.5527C83.7884 85.3185 82.7498 85.7487 81.6668 85.7487H53.0835V53.082H85.7502V81.6654ZM85.7502 44.9154H53.0835V12.2487H81.6668C82.7498 12.2487 83.7884 12.6789 84.5542 13.4447C85.32 14.2105 85.7502 15.2491 85.7502 16.332V44.9154ZM63.2918 67.3737H75.5418C76.6248 67.3737 77.6634 66.9435 78.4292 66.1777C79.195 65.4119 79.6252 64.3733 79.6252 63.2904C79.6252 62.2074 79.195 61.1688 78.4292 60.403C77.6634 59.6372 76.6248 59.207 75.5418 59.207H63.2918C62.2089 59.207 61.1702 59.6372 60.4045 60.403C59.6387 61.1688 59.2085 62.2074 59.2085 63.2904C59.2085 64.3733 59.6387 65.4119 60.4045 66.1777C61.1702 66.9435 62.2089 67.3737 63.2918 67.3737V67.3737ZM75.5418 24.4987H63.2918C62.2089 24.4987 61.1702 24.9289 60.4045 25.6947C59.6387 26.4605 59.2085 27.4991 59.2085 28.582C59.2085 29.665 59.6387 30.7036 60.4045 31.4694C61.1702 32.2352 62.2089 32.6654 63.2918 32.6654H75.5418C76.6248 32.6654 77.6634 32.2352 78.4292 31.4694C79.195 30.7036 79.6252 29.665 79.6252 28.582C79.6252 27.4991 79.195 26.4605 78.4292 25.6947C77.6634 24.9289 76.6248 24.4987 75.5418 24.4987ZM63.2918 79.6237H75.5418C76.6248 79.6237 77.6634 79.1935 78.4292 78.4277C79.195 77.6619 79.6252 76.6233 79.6252 75.5404C79.6252 74.4574 79.195 73.4188 78.4292 72.653C77.6634 71.8872 76.6248 71.457 75.5418 71.457H63.2918C62.2089 71.457 61.1702 71.8872 60.4045 72.653C59.6387 73.4188 59.2085 74.4574 59.2085 75.5404C59.2085 76.6233 59.6387 77.6619 60.4045 78.4277C61.1702 79.1935 62.2089 79.6237 63.2918 79.6237V79.6237Z" fill="#F99DCB"/>
</svg>
