<svg width="70" height="70" viewBox="0 0 70 70" fill="none" xmlns="http://www.w3.org/2000/svg">
<path d="M34.9906 23.3284C28.5639 23.3284 23.3192 28.5732 23.3192 35C23.3192 41.4268 28.5639 46.6716 34.9906 46.6716C41.4173 46.6716 46.662 41.4268 46.662 35C46.662 28.5732 41.4173 23.3284 34.9906 23.3284ZM69.9961 35C69.9961 30.1667 70.0399 25.3772 69.7684 20.5527C69.497 14.949 68.2187 9.97559 64.121 5.87782C60.0145 1.7713 55.05 0.501691 49.4463 0.230258C44.6132 -0.0411753 39.8238 0.0026044 34.9993 0.0026044C30.1662 0.0026044 25.3768 -0.0411753 20.5524 0.230258C14.9487 0.501691 9.97541 1.78005 5.87771 5.87782C1.77127 9.98435 0.501682 14.949 0.230254 20.5527C-0.0411745 25.386 0.00260435 30.1755 0.00260435 35C0.00260435 39.8245 -0.0411745 44.6228 0.230254 49.4473C0.501682 55.051 1.78002 60.0244 5.87771 64.1222C9.98416 68.2287 14.9487 69.4983 20.5524 69.7697C25.3855 70.0412 30.1749 69.9974 34.9993 69.9974C39.8325 69.9974 44.6219 70.0412 49.4463 69.7697C55.05 69.4983 60.0233 68.2199 64.121 64.1222C68.2274 60.0157 69.497 55.051 69.7684 49.4473C70.0486 44.6228 69.9961 39.8333 69.9961 35ZM34.9906 52.9584C25.0528 52.9584 17.0325 44.938 17.0325 35C17.0325 25.062 25.0528 17.0416 34.9906 17.0416C44.9284 17.0416 52.9486 25.062 52.9486 35C52.9486 44.938 44.9284 52.9584 34.9906 52.9584ZM53.6841 20.5002C51.3639 20.5002 49.4901 18.6264 49.4901 16.3061C49.4901 13.9858 51.3639 12.112 53.6841 12.112C56.0044 12.112 57.8781 13.9858 57.8781 16.3061C57.8788 16.8571 57.7708 17.4028 57.5603 17.9119C57.3498 18.4211 57.0409 18.8837 56.6513 19.2733C56.2617 19.6629 55.7991 19.9718 55.2899 20.1824C54.7808 20.3929 54.2351 20.5009 53.6841 20.5002Z" fill="#7D23E0"/>
</svg>
