<svg width="22" height="28" viewBox="0 0 22 28" fill="none" xmlns="http://www.w3.org/2000/svg">
<path d="M11 0.666504C8.171 0.666504 5.4579 1.79031 3.45751 3.7907C1.45712 5.79109 0.333313 8.50419 0.333313 11.3332C0.333313 18.5332 9.73331 26.6665 10.1333 27.0132C10.3748 27.2197 10.6822 27.3333 11 27.3333C11.3178 27.3333 11.6251 27.2197 11.8666 27.0132C12.3333 26.6665 21.6666 18.5332 21.6666 11.3332C21.6666 8.50419 20.5428 5.79109 18.5425 3.7907C16.5421 1.79031 13.829 0.666504 11 0.666504V0.666504ZM11 24.1998C8.15998 21.5332 2.99998 15.7865 2.99998 11.3332C2.99998 9.21144 3.84283 7.17661 5.34313 5.67632C6.84342 4.17603 8.87825 3.33317 11 3.33317C13.1217 3.33317 15.1565 4.17603 16.6568 5.67632C18.1571 7.17661 19 9.21144 19 11.3332C19 15.7865 13.84 21.5465 11 24.1998ZM11 5.99984C9.94515 5.99984 8.914 6.31263 8.03694 6.89867C7.15988 7.4847 6.47629 8.31765 6.07262 9.29219C5.66895 10.2667 5.56334 11.3391 5.76912 12.3737C5.97491 13.4082 6.48286 14.3585 7.22874 15.1044C7.97462 15.8503 8.92493 16.3582 9.9595 16.564C10.9941 16.7698 12.0664 16.6642 13.041 16.2605C14.0155 15.8569 14.8484 15.1733 15.4345 14.2962C16.0205 13.4191 16.3333 12.388 16.3333 11.3332C16.3333 9.91868 15.7714 8.56213 14.7712 7.56193C13.771 6.56174 12.4145 5.99984 11 5.99984ZM11 13.9998C10.4726 13.9998 9.95699 13.8434 9.51846 13.5504C9.07993 13.2574 8.73813 12.8409 8.5363 12.3537C8.33447 11.8664 8.28166 11.3302 8.38455 10.8129C8.48745 10.2956 8.74142 9.82049 9.11436 9.44755C9.4873 9.07461 9.96246 8.82064 10.4797 8.71774C10.997 8.61485 11.5332 8.66766 12.0205 8.86949C12.5077 9.07133 12.9242 9.41312 13.2172 9.85165C13.5102 10.2902 13.6666 10.8058 13.6666 11.3332C13.6666 12.0404 13.3857 12.7187 12.8856 13.2188C12.3855 13.7189 11.7072 13.9998 11 13.9998Z" fill="white"/>
</svg>
