<svg width="17" height="17" viewBox="0 0 17 17" fill="none" xmlns="http://www.w3.org/2000/svg">
<path d="M4.95835 15.5833L4.95835 1.41659C4.95835 1.22872 4.88373 1.04856 4.75089 0.915718C4.61805 0.78288 4.43788 0.708252 4.25002 0.708252C4.06216 0.708252 3.88199 0.78288 3.74915 0.915718C3.61631 1.04856 3.54169 1.22872 3.54169 1.41659L3.54169 15.5833C3.54169 15.7711 3.61631 15.9513 3.74915 16.0841C3.88199 16.217 4.06216 16.2916 4.25002 16.2916C4.43788 16.2916 4.61805 16.217 4.75089 16.0841C4.88373 15.9513 4.95835 15.7711 4.95835 15.5833ZM2.12502 15.5833L2.12502 1.41659C2.12502 1.22872 2.05039 1.04856 1.91755 0.915718C1.78472 0.78288 1.60455 0.708252 1.41669 0.708252C1.22883 0.708252 1.04866 0.78288 0.915819 0.915718C0.782981 1.04856 0.708354 1.22872 0.708354 1.41659L0.708354 15.5833C0.708354 15.7711 0.782981 15.9513 0.915819 16.0841C1.04866 16.217 1.22883 16.2916 1.41669 16.2916C1.60455 16.2916 1.78472 16.217 1.91755 16.0841C2.05039 15.9513 2.12502 15.7711 2.12502 15.5833ZM12.0417 4.24992C12.0417 4.10982 12.0001 3.97287 11.9223 3.85639C11.8445 3.7399 11.7339 3.64912 11.6044 3.5955C11.475 3.54189 11.3326 3.52786 11.1952 3.5552C11.0578 3.58253 10.9315 3.64999 10.8325 3.74905C10.7334 3.84811 10.666 3.97433 10.6386 4.11173C10.6113 4.24913 10.6253 4.39155 10.6789 4.52099C10.7326 4.65042 10.8233 4.76104 10.9398 4.83888C11.0563 4.91671 11.1933 4.95825 11.3334 4.95825C11.5212 4.95825 11.7014 4.88362 11.8342 4.75079C11.9671 4.61795 12.0417 4.43778 12.0417 4.24992ZM16.2917 14.1666V2.83325C16.2917 2.26967 16.0678 1.72916 15.6693 1.33065C15.2708 0.932135 14.7303 0.708252 14.1667 0.708252L8.50002 0.708252C7.93644 0.708252 7.39593 0.932135 6.99742 1.33065C6.5989 1.72916 6.37502 2.26967 6.37502 2.83325V14.1666C6.37502 14.7302 6.5989 15.2707 6.99742 15.6692C7.39593 16.0677 7.93644 16.2916 8.50002 16.2916H14.1667C14.7303 16.2916 15.2708 16.0677 15.6693 15.6692C16.0678 15.2707 16.2917 14.7302 16.2917 14.1666ZM8.50002 14.8749C8.31216 14.8749 8.13199 14.8003 7.99915 14.6675C7.86631 14.5346 7.79169 14.3544 7.79169 14.1666V2.83325C7.79169 2.64539 7.86631 2.46522 7.99915 2.33238C8.13199 2.19955 8.31216 2.12492 8.50002 2.12492L14.1667 2.12492C14.3545 2.12492 14.5347 2.19955 14.6676 2.33238C14.8004 2.46522 14.875 2.64539 14.875 2.83325V14.1666C14.875 14.3544 14.8004 14.5346 14.6676 14.6675C14.5347 14.8003 14.3545 14.8749 14.1667 14.8749H8.50002ZM13.4584 8.49992C13.4584 8.07963 13.3337 7.66879 13.1002 7.31933C12.8667 6.96988 12.5348 6.69751 12.1466 6.53667C11.7583 6.37584 11.331 6.33376 10.9188 6.41575C10.5066 6.49774 10.1279 6.70013 9.83075 6.99732C9.53357 7.2945 9.33118 7.67314 9.24919 8.08535C9.16719 8.49756 9.20927 8.92483 9.37011 9.31312C9.53095 9.70141 9.80331 10.0333 10.1528 10.2668C10.5022 10.5003 10.9131 10.6249 11.3334 10.6249C11.8969 10.6249 12.4374 10.401 12.836 10.0025C13.2345 9.60401 13.4584 9.0635 13.4584 8.49992ZM10.625 8.49992C10.625 8.35982 10.6666 8.22287 10.7444 8.10639C10.8222 7.9899 10.9329 7.89912 11.0623 7.8455C11.1917 7.79189 11.3341 7.77786 11.4715 7.8052C11.6089 7.83253 11.7352 7.89999 11.8342 7.99905C11.9333 8.09811 12.0007 8.22433 12.0281 8.36173C12.0554 8.49913 12.0414 8.64155 11.9878 8.77099C11.9342 8.90042 11.8434 9.01104 11.7269 9.08888C11.6104 9.16671 11.4734 9.20825 11.3334 9.20825C11.1455 9.20825 10.9653 9.13362 10.8325 9.00079C10.6996 8.86795 10.625 8.68778 10.625 8.49992ZM12.0417 12.7499C12.0417 12.6098 12.0001 12.4729 11.9223 12.3564C11.8445 12.2399 11.7339 12.1491 11.6044 12.0955C11.475 12.0419 11.3326 12.0279 11.1952 12.0552C11.0578 12.0825 10.9315 12.15 10.8325 12.2491C10.7334 12.3481 10.666 12.4743 10.6386 12.6117C10.6113 12.7491 10.6253 12.8916 10.6789 13.021C10.7326 13.1504 10.8233 13.261 10.9398 13.3389C11.0563 13.4167 11.1933 13.4583 11.3334 13.4583C11.5212 13.4583 11.7014 13.3836 11.8342 13.2508C11.9671 13.1179 12.0417 12.9378 12.0417 12.7499Z" fill="#0D9F1C"/>
</svg>
