<svg width="106" height="106" viewBox="0 0 106 106" fill="none" xmlns="http://www.w3.org/2000/svg">
<path d="M53.0002 88.332H22.0835C20.9121 88.332 19.7887 87.8667 18.9604 87.0384C18.1322 86.2101 17.6668 85.0867 17.6668 83.9154V22.082C17.6668 20.9107 18.1322 19.7873 18.9604 18.959C19.7887 18.1307 20.9121 17.6654 22.0835 17.6654H44.1668V30.9154C44.1668 34.4295 45.5628 37.7997 48.0477 40.2845C50.5325 42.7694 53.9027 44.1654 57.4168 44.1654H70.6668V48.582C70.6668 49.7534 71.1321 50.8768 71.9604 51.7051C72.7887 52.5334 73.9121 52.9987 75.0835 52.9987C76.2549 52.9987 77.3783 52.5334 78.2066 51.7051C79.0348 50.8768 79.5002 49.7534 79.5002 48.582V39.7487C79.5002 39.7487 79.5002 39.7487 79.5002 39.4837C79.4542 39.078 79.3653 38.6782 79.2352 38.2912V37.8937C79.0228 37.4396 78.7395 37.0221 78.396 36.657L51.896 10.157C51.5309 9.81349 51.1135 9.53022 50.6593 9.31786C50.5275 9.29914 50.3937 9.29914 50.2618 9.31786C49.8132 9.06056 49.3176 8.89538 48.8043 8.83203H22.0835C18.5694 8.83203 15.1992 10.228 12.7143 12.7129C10.2295 15.1977 8.8335 18.5679 8.8335 22.082V83.9154C8.8335 87.4295 10.2295 90.7997 12.7143 93.2845C15.1992 95.7694 18.5694 97.1654 22.0835 97.1654H53.0002C54.1715 97.1654 55.2949 96.7 56.1232 95.8717C56.9515 95.0435 57.4168 93.9201 57.4168 92.7487C57.4168 91.5773 56.9515 90.4539 56.1232 89.6256C55.2949 88.7973 54.1715 88.332 53.0002 88.332ZM53.0002 23.8929L64.4393 35.332H57.4168C56.2455 35.332 55.1221 34.8667 54.2938 34.0384C53.4655 33.2101 53.0002 32.0867 53.0002 30.9154V23.8929ZM30.9168 35.332C29.7455 35.332 28.6221 35.7974 27.7938 36.6256C26.9655 37.4539 26.5002 38.5773 26.5002 39.7487C26.5002 40.9201 26.9655 42.0435 27.7938 42.8717C28.6221 43.7 29.7455 44.1654 30.9168 44.1654H35.3335C36.5049 44.1654 37.6283 43.7 38.4565 42.8717C39.2848 42.0435 39.7502 40.9201 39.7502 39.7487C39.7502 38.5773 39.2848 37.4539 38.4565 36.6256C37.6283 35.7974 36.5049 35.332 35.3335 35.332H30.9168ZM95.886 89.6129L90.7185 84.4895C92.3702 81.6066 93.0312 78.2617 92.6005 74.9671C92.1697 71.6726 90.6709 68.6101 88.3335 66.2487C86.1827 64.0212 83.4109 62.4932 80.3792 61.8636C77.3475 61.234 74.1965 61.532 71.3366 62.7188C68.4767 63.9057 66.0406 65.9263 64.3456 68.5175C62.6505 71.1087 61.7751 74.1504 61.8335 77.2462C61.8183 79.9103 62.4998 82.532 63.8105 84.8514C65.1211 87.1708 67.0154 89.1073 69.3053 90.4688C71.5953 91.8303 74.2014 92.5694 76.8651 92.613C79.5289 92.6565 82.1578 92.0029 84.491 90.717L89.6143 95.8845C90.0249 96.2985 90.5134 96.6271 91.0516 96.8513C91.5898 97.0755 92.1671 97.191 92.7502 97.191C93.3332 97.191 93.9105 97.0755 94.4487 96.8513C94.9869 96.6271 95.4754 96.2985 95.886 95.8845C96.3 95.4739 96.6285 94.9855 96.8528 94.4472C97.077 93.909 97.1924 93.3317 97.1924 92.7487C97.1924 92.1656 97.077 91.5884 96.8528 91.0501C96.6285 90.5119 96.3 90.0235 95.886 89.6129ZM81.8852 81.8837C80.6237 83.07 78.9572 83.7305 77.2256 83.7305C75.4939 83.7305 73.8275 83.07 72.566 81.8837C71.3502 80.6462 70.6683 78.9811 70.6668 77.2462C70.6577 76.375 70.8252 75.511 71.1592 74.7064C71.4932 73.9017 71.9868 73.1731 72.6102 72.5645C73.7877 71.3934 75.3668 70.7144 77.0268 70.6654C77.9198 70.6105 78.8144 70.7407 79.6546 71.0479C80.4948 71.3552 81.2625 71.8327 81.9095 72.4506C82.5564 73.0685 83.0686 73.8135 83.4141 74.6387C83.7595 75.464 83.9307 76.3517 83.9168 77.2462C83.8803 79 83.1497 80.6678 81.8852 81.8837ZM57.4168 52.9987H30.9168C29.7455 52.9987 28.6221 53.464 27.7938 54.2923C26.9655 55.1206 26.5002 56.244 26.5002 57.4154C26.5002 58.5867 26.9655 59.7101 27.7938 60.5384C28.6221 61.3667 29.7455 61.832 30.9168 61.832H57.4168C58.5882 61.832 59.7116 61.3667 60.5399 60.5384C61.3682 59.7101 61.8335 58.5867 61.8335 57.4154C61.8335 56.244 61.3682 55.1206 60.5399 54.2923C59.7116 53.464 58.5882 52.9987 57.4168 52.9987ZM48.5835 79.4987C49.7549 79.4987 50.8783 79.0334 51.7065 78.2051C52.5348 77.3768 53.0002 76.2534 53.0002 75.082C53.0002 73.9107 52.5348 72.7873 51.7065 71.959C50.8783 71.1307 49.7549 70.6654 48.5835 70.6654H30.9168C29.7455 70.6654 28.6221 71.1307 27.7938 71.959C26.9655 72.7873 26.5002 73.9107 26.5002 75.082C26.5002 76.2534 26.9655 77.3768 27.7938 78.2051C28.6221 79.0334 29.7455 79.4987 30.9168 79.4987H48.5835Z" fill="#F99DCB"/>
</svg>
