<svg width="28" height="28" viewBox="0 0 28 28" fill="none" xmlns="http://www.w3.org/2000/svg">
<path d="M22 16.6667C21.2122 16.6719 20.4354 16.8515 19.7253 17.1927C19.0153 17.5339 18.3896 18.0282 17.8933 18.64L11.0933 15.5067C11.413 14.5277 11.413 13.4723 11.0933 12.4933L17.8933 9.35999C18.6955 10.3279 19.8138 10.9814 21.0509 11.2051C22.2879 11.4288 23.5643 11.2083 24.6546 10.5825C25.7449 9.95676 26.5791 8.96596 27.01 7.78498C27.441 6.604 27.4408 5.30877 27.0097 4.12787C26.5786 2.94697 25.7442 1.95631 24.6537 1.33075C23.5633 0.705181 22.2869 0.484914 21.0499 0.708821C19.8129 0.932729 18.6947 1.58642 17.8927 2.55452C17.0907 3.52262 16.6565 4.74289 16.6667 5.99999C16.6707 6.31763 16.7019 6.63435 16.76 6.94666L9.71999 10.1867C8.96943 9.45276 8.01898 8.95668 6.98773 8.76056C5.95647 8.56444 4.89028 8.67701 3.92272 9.08417C2.95516 9.49132 2.12927 10.1749 1.54852 11.0494C0.96777 11.9239 0.65799 12.9503 0.65799 14C0.65799 15.0497 0.96777 16.0761 1.54852 16.9506C2.12927 17.825 2.95516 18.5087 3.92272 18.9158C4.89028 19.323 5.95647 19.4355 6.98773 19.2394C8.01898 19.0433 8.96943 18.5472 9.71999 17.8133L16.76 21.0533C16.7019 21.3656 16.6707 21.6823 16.6667 22C16.6667 23.0548 16.9794 24.086 17.5655 24.963C18.1515 25.8401 18.9845 26.5237 19.959 26.9273C20.9335 27.331 22.0059 27.4366 23.0405 27.2308C24.075 27.0251 25.0253 26.5171 25.7712 25.7712C26.5171 25.0253 27.0251 24.075 27.2308 23.0405C27.4366 22.0059 27.331 20.9336 26.9273 19.959C26.5237 18.9845 25.8401 18.1515 24.963 17.5655C24.086 16.9795 23.0548 16.6667 22 16.6667ZM22 3.33332C22.5274 3.33332 23.043 3.48972 23.4815 3.78274C23.92 4.07576 24.2618 4.49223 24.4637 4.9795C24.6655 5.46677 24.7183 6.00295 24.6154 6.52023C24.5125 7.03751 24.2585 7.51267 23.8856 7.88561C23.5127 8.25855 23.0375 8.51252 22.5202 8.61542C22.0029 8.71831 21.4668 8.6655 20.9795 8.46367C20.4922 8.26184 20.0758 7.92004 19.7827 7.48151C19.4897 7.04298 19.3333 6.52741 19.3333 5.99999C19.3333 5.29275 19.6143 4.61447 20.1144 4.11437C20.6145 3.61427 21.2927 3.33332 22 3.33332ZM5.99999 16.6667C5.47257 16.6667 4.957 16.5103 4.51847 16.2172C4.07994 15.9242 3.73814 15.5077 3.53631 15.0205C3.33447 14.5332 3.28166 13.997 3.38456 13.4797C3.48745 12.9625 3.74143 12.4873 4.11437 12.1144C4.48731 11.7414 4.96246 11.4875 5.47975 11.3846C5.99703 11.2817 6.53321 11.3345 7.02048 11.5363C7.50775 11.7381 7.92422 12.0799 8.21724 12.5185C8.51026 12.957 8.66665 13.4726 8.66665 14C8.66665 14.7072 8.3857 15.3855 7.8856 15.8856C7.38551 16.3857 6.70723 16.6667 5.99999 16.6667ZM22 24.6667C21.4726 24.6667 20.957 24.5103 20.5185 24.2172C20.0799 23.9242 19.7381 23.5077 19.5363 23.0205C19.3345 22.5332 19.2817 21.997 19.3846 21.4797C19.4875 20.9625 19.7414 20.4873 20.1144 20.1144C20.4873 19.7414 20.9625 19.4875 21.4797 19.3846C21.997 19.2817 22.5332 19.3345 23.0205 19.5363C23.5077 19.7381 23.9242 20.0799 24.2172 20.5185C24.5103 20.957 24.6667 21.4726 24.6667 22C24.6667 22.7072 24.3857 23.3855 23.8856 23.8856C23.3855 24.3857 22.7072 24.6667 22 24.6667Z" fill="#767676"/>
</svg>
