<svg width="34" height="34" viewBox="0 0 34 34" fill="none" xmlns="http://www.w3.org/2000/svg">
<path d="M17 0C7.616 0 0 7.616 0 17C0 26.384 7.616 34 17 34C26.384 34 34 26.384 34 17C34 7.616 26.384 0 17 0ZM17 5.1C19.822 5.1 22.1 7.378 22.1 10.2C22.1 13.022 19.822 15.3 17 15.3C14.178 15.3 11.9 13.022 11.9 10.2C11.9 7.378 14.178 5.1 17 5.1ZM17 29.24C12.75 29.24 8.993 27.064 6.8 23.766C6.851 20.383 13.6 18.53 17 18.53C20.383 18.53 27.149 20.383 27.2 23.766C25.007 27.064 21.25 29.24 17 29.24Z" fill="#808080"/>
</svg>
