<svg width="70" height="70" viewBox="0 0 70 70" fill="none" xmlns="http://www.w3.org/2000/svg">
<path d="M64.765 16.1871C54.2938 -0.000535105 32.9152 -4.81307 16.3359 5.24951C0.192901 15.3121 -5.04267 37.1872 5.42847 53.3749L6.30107 54.6874L2.81069 67.8125L15.8996 64.3125L17.2085 65.1875C22.8804 68.25 28.9886 70 35.0967 70C41.6412 70 48.1856 68.25 53.8575 64.75C70.0005 54.2499 74.7998 32.8122 64.765 16.1871ZM55.6027 49.8748C53.8575 52.4999 51.676 54.2499 48.6219 54.6874C46.8768 54.6874 44.6953 55.5624 35.9693 52.0624C28.5523 48.5623 22.4441 42.8748 18.0811 36.3122C15.4633 33.2497 14.1544 29.3122 13.7181 25.3747C13.7181 21.8746 15.027 18.8121 17.2085 16.6246C18.0811 15.7496 18.9537 15.3121 19.8263 15.3121H22.0078C22.8804 15.3121 23.753 15.3121 24.1893 17.0621C25.0619 19.2496 27.2434 24.4997 27.2434 24.9372C27.6797 25.3747 27.6797 26.2497 27.2434 26.6872C27.6797 27.5622 27.2434 28.4372 26.8071 28.8747C26.3708 29.3122 25.9345 30.1872 25.4982 30.6247C24.6256 31.0622 24.1893 31.9372 24.6256 32.8122C26.3708 35.4372 28.5523 38.0623 30.7337 40.2498C33.3515 42.4373 35.9693 44.1873 39.0234 45.4998C39.896 45.9373 40.7686 45.9373 41.2049 45.0623C41.6412 44.1873 43.8227 41.9998 44.6953 41.1248C45.5679 40.2498 46.0042 40.2498 46.8768 40.6873L53.8575 44.1873C54.7301 44.6248 55.6027 45.0623 56.039 45.4998C56.4753 46.8123 56.4753 48.5623 55.6027 49.8748Z" fill="#7D23E0"/>
</svg>
