<svg width="20" height="21" viewBox="0 0 20 21" fill="none" xmlns="http://www.w3.org/2000/svg">
<path fillRule="evenodd" clipRule="evenodd" d="M15.1798 3.2225C15.1798 1.8925 16.2598 0.8125 17.5898 0.8125C18.9198 0.8125 19.9998 1.8925 19.9998 3.2225C19.9998 4.5525 18.9198 5.6325 17.5898 5.6325C16.2598 5.6325 15.1798 4.5525 15.1798 3.2225ZM11.3297 13.5718L14.2197 9.8428L14.1797 9.8628C14.3397 9.6428 14.3697 9.3628 14.2597 9.1128C14.1507 8.8628 13.9097 8.6928 13.6507 8.6728C13.3797 8.6428 13.1107 8.7628 12.9497 8.9828L10.5307 12.1128L7.75969 9.9328C7.58969 9.8028 7.38969 9.7518 7.18969 9.7728C6.99069 9.8028 6.81069 9.9118 6.68969 10.0718L3.73069 13.9228L3.66969 14.0128C3.49969 14.3318 3.57969 14.7418 3.87969 14.9628C4.01969 15.0528 4.16969 15.1128 4.33969 15.1128C4.57069 15.1228 4.78969 15.0018 4.92969 14.8128L7.43969 11.5818L10.2897 13.7228L10.3797 13.7818C10.6997 13.9518 11.0997 13.8728 11.3297 13.5718ZM13.4497 2.5928C13.4097 2.8428 13.3897 3.0928 13.3897 3.3428C13.3897 5.5928 15.2097 7.4118 17.4497 7.4118C17.6997 7.4118 17.9397 7.3828 18.1897 7.3428V15.4118C18.1897 18.8028 16.1897 20.8128 12.7897 20.8128H5.40069C1.99969 20.8128 -0.000305176 18.8028 -0.000305176 15.4118V8.0128C-0.000305176 4.6128 1.99969 2.5928 5.40069 2.5928H13.4497Z" fill="#030229"/>
</svg>
