<svg width="195" height="54" viewBox="0 0 195 54" fill="none" xmlns="http://www.w3.org/2000/svg">
<path d="M53.0732 26.6407C53.0845 41.2943 41.2172 53.1826 26.5671 53.1938C11.9169 53.205 0.0315175 41.3349 0.0203039 26.6813C0.00909038 12.0276 11.8763 0.139349 26.5265 0.128138C41.1766 0.116928 53.062 11.987 53.0732 26.6407Z" fill="white"/>
<path fill-rule="evenodd" clip-rule="evenodd" d="M26.5605 40.6797C34.3015 40.6738 40.5719 34.3922 40.566 26.6494C40.5601 18.9066 34.28 12.6347 26.5391 12.6406C18.7982 12.6465 12.5277 18.9281 12.5336 26.6709C12.5395 34.4136 18.8196 40.6856 26.5605 40.6797ZM26.5643 45.5984C37.0211 45.5904 45.4916 37.105 45.4836 26.6456C45.4756 16.1863 36.9921 7.71384 26.5353 7.72184C16.0785 7.72984 7.60805 16.2153 7.61605 26.6746C7.62406 37.1339 16.1075 45.6064 26.5643 45.5984Z" fill="#1C1C1C"/>
<path d="M7.08431 27.9263L5.0625 23.8887L29.1862 23.8702L29.2046 47.9036L24.863 46.0892L24.849 27.9128L7.08431 27.9263Z" fill="#1C1C1C"/>
<path fill-rule="evenodd" clip-rule="evenodd" d="M17.1299 29.5052L5.21217 29.5143L5.21094 27.9062L17.1286 27.8971L17.1299 29.5052Z" fill="white"/>
<path fill-rule="evenodd" clip-rule="evenodd" d="M16.9814 23.8802L5.06373 23.8893L5.0625 22.2812L16.9802 22.2721L16.9814 23.8802Z" fill="white"/>
<path fill-rule="evenodd" clip-rule="evenodd" d="M29.203 47.9047L29.1966 39.5891L30.8047 39.5879L30.8111 47.9034L29.203 47.9047Z" fill="white"/>
<path fill-rule="evenodd" clip-rule="evenodd" d="M23.2499 46.9476L23.2435 38.6321L24.8516 38.6309L24.8579 46.9464L23.2499 46.9476Z" fill="white"/>
<path d="M71.5408 37.3044C69.6187 37.3059 67.8531 36.8569 66.2441 35.9574C64.6351 35.058 63.3592 33.8156 62.4166 32.2303C61.4739 30.6254 61.0018 28.8146 61.0002 26.7978C60.9987 24.8006 61.468 23.0086 62.4083 21.4219C63.3485 19.8156 64.6224 18.5615 66.2301 17.6595C67.8377 16.7576 69.6026 16.3059 71.5248 16.3044C73.4665 16.303 75.2321 16.752 76.8215 17.6514C78.4305 18.5509 79.6966 19.8031 80.6196 21.408C81.5623 22.9933 82.0344 24.7845 82.0359 26.7817C82.0375 28.7985 81.5681 30.61 80.6279 32.2164C79.7073 33.8031 78.4431 35.0474 76.8355 35.9493C75.2279 36.8513 73.463 37.303 71.5408 37.3044ZM71.538 33.6331C72.7737 33.6322 73.862 33.3572 74.8031 32.8082C75.7441 32.2397 76.479 31.4363 77.0078 30.3982C77.5366 29.36 77.8004 28.1556 77.7994 26.785C77.7983 25.4143 77.5326 24.2201 77.0023 23.2023C76.4719 22.165 75.7358 21.3725 74.7939 20.825C73.852 20.2775 72.7633 20.0042 71.5276 20.0051C70.2919 20.0061 69.1938 20.2811 68.2331 20.83C67.2921 21.379 66.5572 22.1726 66.0284 23.2107C65.4996 24.2293 65.2357 25.4239 65.2368 26.7946C65.2378 28.1652 65.5035 29.3692 66.0339 30.4066C66.5643 31.4439 67.3004 32.2461 68.2423 32.8133C69.2038 33.3608 70.3024 33.6341 71.538 33.6331Z" fill="white"/>
<path d="M94.2418 37.2871C92.81 37.2882 91.5153 37.0444 90.3577 36.5558C89.2197 36.0671 88.317 35.3629 87.6494 34.4432C86.9818 33.5234 86.6377 32.4369 86.6172 31.1838L91.0303 31.1804C91.0897 32.0223 91.3845 32.6879 91.9144 33.177C92.464 33.666 93.2095 33.9102 94.1509 33.9095C95.112 33.9088 95.867 33.683 96.4158 33.2323C96.9646 32.7619 97.2387 32.1547 97.2382 31.4106C97.2377 30.8036 97.051 30.3045 96.678 29.9132C96.3051 29.5218 95.8341 29.2187 95.2652 29.0038C94.7158 28.7692 93.9507 28.5153 92.9698 28.2419C91.6357 27.8513 90.5469 27.4703 89.7032 27.0989C88.8791 26.7079 88.1628 26.1309 87.5542 25.3677C86.9652 24.5849 86.6702 23.5474 86.6692 22.2551C86.6682 21.0411 86.9714 19.9835 87.5788 19.0824C88.1861 18.1812 89.0388 17.4952 90.1368 17.0245C91.2348 16.5341 92.4899 16.2884 93.9021 16.2873C96.0204 16.2857 97.737 16.8033 99.0519 17.84C100.386 18.8572 101.123 20.286 101.262 22.1264L96.7309 22.1299C96.6912 21.425 96.3867 20.8477 95.8176 20.3977C95.268 19.9282 94.5323 19.6938 93.6105 19.6945C92.8063 19.6951 92.1592 19.9012 91.6692 20.3128C91.1988 20.7244 90.9639 21.3217 90.9645 22.1049C90.9649 22.6532 91.1418 23.1132 91.4951 23.485C91.868 23.8371 92.3194 24.1305 92.8491 24.365C93.3985 24.58 94.1636 24.834 95.1445 25.1269C96.4785 25.5175 97.5674 25.9083 98.4111 26.2993C99.2548 26.6902 99.9809 27.2771 100.59 28.0598C101.198 28.8426 101.503 29.8703 101.504 31.143C101.505 32.2395 101.221 33.2579 100.653 34.1982C100.085 35.1385 99.252 35.893 98.1541 36.4617C97.0561 37.0108 95.752 37.2859 94.2418 37.2871Z" fill="white"/>
<path d="M121.082 16.5602L121.084 19.8791L115.612 19.8833L115.625 37.0651L111.506 37.0683L111.493 19.8864L106.021 19.8906L106.018 16.5718L121.082 16.5602Z" fill="white"/>
<path d="M130.251 19.8721L130.255 25.0119L137.169 25.0067L137.172 28.2668L130.258 28.2721L130.262 33.7057L138.058 33.6997L138.061 37.0479L126.146 37.0571L126.13 16.527L138.045 16.5179L138.048 19.8661L130.251 19.8721Z" fill="white"/>
<path d="M147.964 33.7802L154.73 33.775L154.733 37.0352L143.847 37.0435L143.831 16.5428L147.95 16.5397L147.964 33.7802Z" fill="white"/>
<path d="M163.51 33.7683L170.277 33.7631L170.279 37.0233L159.394 37.0316L159.378 16.5309L163.497 16.5278L163.51 33.7683Z" fill="white"/>
<path d="M184.473 37.218C182.551 37.2195 180.785 36.7705 179.176 35.871C177.567 34.9716 176.291 33.7292 175.349 32.1439C174.406 30.539 173.934 28.7282 173.932 26.7114C173.931 24.7142 174.4 22.9222 175.34 21.3355C176.281 19.7292 177.555 18.475 179.162 17.5731C180.77 16.6712 182.535 16.2195 184.457 16.218C186.399 16.2165 188.164 16.6655 189.754 17.565C191.363 18.4645 192.629 19.7167 193.552 21.3216C194.494 22.9068 194.967 24.6981 194.968 26.6953C194.97 28.7121 194.5 30.5236 193.56 32.1299C192.639 33.7167 191.375 34.961 189.768 35.8629C188.16 36.7648 186.395 37.2165 184.473 37.218ZM184.47 33.5467C185.706 33.5457 186.794 33.2708 187.735 32.7218C188.676 32.1533 189.411 31.3499 189.94 30.3117C190.469 29.2736 190.733 28.0692 190.731 26.6985C190.73 25.3279 190.465 24.1337 189.934 23.1159C189.404 22.0786 188.668 21.2861 187.726 20.7386C186.784 20.1911 185.695 19.9178 184.46 19.9187C183.224 19.9197 182.126 20.1946 181.165 20.7436C180.224 21.2926 179.489 22.0862 178.961 23.1243C178.432 24.1429 178.168 25.3375 178.169 26.7082C178.17 28.0788 178.436 29.2828 178.966 30.3201C179.496 31.3575 180.233 32.1597 181.174 32.7268C182.136 33.2743 183.234 33.5476 184.47 33.5467Z" fill="white"/>
</svg>
