<svg width="236" height="64" viewBox="0 0 236 64" fill="none" xmlns="http://www.w3.org/2000/svg">
<path d="M86.6388 44.5847C84.313 44.5847 82.177 44.0322 80.2308 42.9274C78.2847 41.8225 76.742 40.2973 75.6028 38.3518C74.4636 36.3823 73.894 34.1606 73.894 31.6867C73.894 29.2368 74.4636 27.0391 75.6028 25.0936C76.742 23.124 78.2847 21.5868 80.2308 20.482C82.177 19.3771 84.313 18.8247 86.6388 18.8247C88.9884 18.8247 91.1244 19.3771 93.0468 20.482C94.993 21.5868 96.5238 23.124 97.6392 25.0936C98.7784 27.0391 99.348 29.2368 99.348 31.6867C99.348 34.1606 98.7784 36.3823 97.6392 38.3518C96.5238 40.2973 94.993 41.8225 93.0468 42.9274C91.1007 44.0322 88.9647 44.5847 86.6388 44.5847ZM86.6388 40.0812C88.134 40.0812 89.4512 39.7449 90.5904 39.0724C91.7296 38.3758 92.6196 37.3911 93.2604 36.1181C93.9012 34.8451 94.2216 33.368 94.2216 31.6867C94.2216 30.0054 93.9012 28.5402 93.2604 27.2913C92.6196 26.0183 91.7296 25.0455 90.5904 24.373C89.4512 23.7005 88.134 23.3642 86.6388 23.3642C85.1436 23.3642 83.8146 23.7005 82.6516 24.373C81.5124 25.0455 80.6224 26.0183 79.9816 27.2913C79.3408 28.5402 79.0204 30.0054 79.0204 31.6867C79.0204 33.368 79.3408 34.8451 79.9816 36.1181C80.6224 37.3911 81.5124 38.3758 82.6516 39.0724C83.8146 39.7449 85.1436 40.0812 86.6388 40.0812Z" fill="white"/>
<path d="M114.108 44.5847C112.375 44.5847 110.809 44.2844 109.409 43.684C108.032 43.0835 106.94 42.2188 106.133 41.0899C105.326 39.9611 104.911 38.628 104.887 37.0909H110.227C110.299 38.1237 110.655 38.9403 111.295 39.5408C111.96 40.1412 112.862 40.4414 114.001 40.4414C115.164 40.4414 116.078 40.1652 116.742 39.6128C117.407 39.0364 117.739 38.2918 117.739 37.3791C117.739 36.6345 117.514 36.022 117.063 35.5417C116.612 35.0613 116.042 34.689 115.354 34.4248C114.689 34.1366 113.764 33.8243 112.577 33.4881C110.963 33.0077 109.646 32.5393 108.625 32.083C107.629 31.6026 106.762 30.8941 106.027 29.9573C105.315 28.9966 104.959 27.7236 104.959 26.1384C104.959 24.6492 105.326 23.3522 106.062 22.2474C106.798 21.1425 107.83 20.3018 109.159 19.7254C110.488 19.1249 112.007 18.8247 113.716 18.8247C116.279 18.8247 118.356 19.4612 119.946 20.7342C121.56 21.9832 122.45 23.7365 122.616 25.9943H117.134C117.086 25.1296 116.718 24.421 116.03 23.8686C115.366 23.2922 114.476 23.0039 113.36 23.0039C112.387 23.0039 111.604 23.2561 111.011 23.7605C110.441 24.2649 110.156 24.9975 110.156 25.9582C110.156 26.6308 110.37 27.1952 110.797 27.6515C111.248 28.0839 111.794 28.4442 112.435 28.7324C113.099 28.9966 114.025 29.3088 115.211 29.6691C116.825 30.1495 118.142 30.6299 119.163 31.1102C120.184 31.5906 121.062 32.3112 121.797 33.2719C122.533 34.2326 122.901 35.4936 122.901 37.0548C122.901 38.3999 122.557 39.6488 121.869 40.8017C121.18 41.9546 120.172 42.8793 118.843 43.5759C117.514 44.2484 115.935 44.5847 114.108 44.5847Z" fill="white"/>
<path d="M146.604 19.185V23.2561H139.983V44.3325H134.999V23.2561H128.377V19.185H146.604Z" fill="white"/>
<path d="M157.697 23.2561V29.561H166.063V33.5601H157.697V40.2253H167.131V44.3325H152.713V19.149H167.131V23.2561H157.697Z" fill="white"/>
<path d="M179.116 40.3334H187.304V44.3325H174.132V19.185H179.116V40.3334Z" fill="white"/>
<path d="M197.928 40.3334H206.116V44.3325H192.944V19.185H197.928V40.3334Z" fill="white"/>
<path d="M223.291 44.5847C220.965 44.5847 218.829 44.0322 216.883 42.9274C214.937 41.8225 213.394 40.2973 212.255 38.3518C211.116 36.3823 210.546 34.1606 210.546 31.6867C210.546 29.2368 211.116 27.0391 212.255 25.0936C213.394 23.124 214.937 21.5868 216.883 20.482C218.829 19.3771 220.965 18.8247 223.291 18.8247C225.64 18.8247 227.776 19.3771 229.699 20.482C231.645 21.5868 233.176 23.124 234.291 25.0936C235.43 27.0391 236 29.2368 236 31.6867C236 34.1606 235.43 36.3823 234.291 38.3518C233.176 40.2973 231.645 41.8225 229.699 42.9274C227.753 44.0322 225.617 44.5847 223.291 44.5847ZM223.291 40.0812C224.786 40.0812 226.103 39.7449 227.242 39.0724C228.382 38.3758 229.272 37.3911 229.912 36.1181C230.553 34.8451 230.874 33.368 230.874 31.6867C230.874 30.0054 230.553 28.5402 229.912 27.2913C229.272 26.0183 228.382 25.0455 227.242 24.373C226.103 23.7005 224.786 23.3642 223.291 23.3642C221.796 23.3642 220.467 23.7005 219.304 24.373C218.164 25.0455 217.274 26.0183 216.634 27.2913C215.993 28.5402 215.672 30.0054 215.672 31.6867C215.672 33.368 215.993 34.8451 216.634 36.1181C217.274 37.3911 218.164 38.3758 219.304 39.0724C220.467 39.7449 221.796 40.0812 223.291 40.0812Z" fill="white"/>
<path d="M64.0419 32C64.0419 49.6731 49.7056 64 32.0209 64C14.3363 64 0 49.6731 0 32C0 14.3269 14.3363 0 32.0209 0C49.7056 0 64.0419 14.3269 64.0419 32Z" fill="white"/>
<path d="M8.52823 33.5107L6.09137 28.6392H35.2119V57.6247L29.9726 55.4325V33.5107H8.52823Z" fill="#7D23E0"/>
<path fill-rule="evenodd" clip-rule="evenodd" d="M32.021 48.5738C33.1113 48.5738 34.1777 48.4724 35.2111 48.2785V54.2751C34.1685 54.4183 33.1034 54.4923 32.021 54.4923C31.3261 54.4923 30.6384 54.4618 29.9592 54.4021V48.4515C30.635 48.5322 31.3231 48.5738 32.021 48.5738ZM28.0185 48.1057C21.7395 46.6089 16.8152 41.669 15.3973 35.4164H9.30971C10.8862 44.9444 18.4311 52.4843 28.0185 54.1489V48.1057ZM49.0584 31.7046C49.0584 39.2509 44.054 45.6398 37.1518 47.7954V53.9239C47.3929 51.6152 55.036 42.5437 55.036 31.7046C55.036 19.1194 44.7318 8.91699 32.021 8.91699C21.0478 8.91699 11.8683 16.5205 9.56349 26.6966H15.7468C17.9014 19.8254 24.3726 14.8355 32.021 14.8355C41.4305 14.8355 49.0584 22.3881 49.0584 31.7046ZM9.21283 28.6359C9.07638 29.6395 9.00592 30.6639 9.00592 31.7046C9.00592 32.3011 9.02907 32.8922 9.07452 33.4772H15.0764C15.015 32.8946 14.9835 32.3033 14.9835 31.7046C14.9835 30.6566 15.08 29.631 15.2647 28.6359H9.21283Z" fill="#7D23E0"/>
</svg>
