<svg width="95" height="95" viewBox="0 0 95 95" fill="none" xmlns="http://www.w3.org/2000/svg">
<path d="M23.7502 51.457H7.91683C6.86701 51.457 5.8602 51.8741 5.11786 52.6164C4.37553 53.3587 3.9585 54.3655 3.9585 55.4154V87.082C3.9585 88.1318 4.37553 89.1387 5.11786 89.881C5.8602 90.6233 6.86701 91.0404 7.91683 91.0404H23.7502C24.8 91.0404 25.8068 90.6233 26.5491 89.881C27.2915 89.1387 27.7085 88.1318 27.7085 87.082V55.4154C27.7085 54.3655 27.2915 53.3587 26.5491 52.6164C25.8068 51.8741 24.8 51.457 23.7502 51.457ZM19.7918 83.1237H11.8752V59.3737H19.7918V83.1237ZM87.0835 35.6237H71.2502C70.2003 35.6237 69.1935 36.0407 68.4512 36.7831C67.7089 37.5254 67.2918 38.5322 67.2918 39.582V87.082C67.2918 88.1318 67.7089 89.1387 68.4512 89.881C69.1935 90.6233 70.2003 91.0404 71.2502 91.0404H87.0835C88.1333 91.0404 89.1401 90.6233 89.8825 89.881C90.6248 89.1387 91.0418 88.1318 91.0418 87.082V39.582C91.0418 38.5322 90.6248 37.5254 89.8825 36.7831C89.1401 36.0407 88.1333 35.6237 87.0835 35.6237ZM83.1252 83.1237H75.2085V43.5404H83.1252V83.1237ZM55.4168 3.95703H39.5835C38.5337 3.95703 37.5269 4.37407 36.7845 5.1164C36.0422 5.85873 35.6252 6.86555 35.6252 7.91536V87.082C35.6252 88.1318 36.0422 89.1387 36.7845 89.881C37.5269 90.6233 38.5337 91.0404 39.5835 91.0404H55.4168C56.4666 91.0404 57.4735 90.6233 58.2158 89.881C58.9581 89.1387 59.3752 88.1318 59.3752 87.082V7.91536C59.3752 6.86555 58.9581 5.85873 58.2158 5.1164C57.4735 4.37407 56.4666 3.95703 55.4168 3.95703ZM51.4585 83.1237H43.5418V11.8737H51.4585V83.1237Z" fill="#F99DCB"/>
</svg>
