<svg width="15" height="19" viewBox="0 0 15 19" fill="none" xmlns="http://www.w3.org/2000/svg">
<path d="M7.5 0C5.51088 0 3.60322 0.80071 2.1967 2.22598C0.790176 3.65125 0 5.58434 0 7.59998C0 12.73 6.60938 18.5249 6.89063 18.7719C7.06044 18.9191 7.27654 19 7.5 19C7.72346 19 7.93956 18.9191 8.10938 18.7719C8.4375 18.5249 15 12.73 15 7.59998C15 5.58434 14.2098 3.65125 12.8033 2.22598C11.3968 0.80071 9.48912 0 7.5 0ZM7.5 16.7674C5.50312 14.8675 1.875 10.773 1.875 7.59998C1.875 6.08825 2.46763 4.63843 3.52252 3.56948C4.57742 2.50053 6.00816 1.89999 7.5 1.89999C8.99184 1.89999 10.4226 2.50053 11.4775 3.56948C12.5324 4.63843 13.125 6.08825 13.125 7.59998C13.125 10.773 9.49687 14.877 7.5 16.7674ZM7.5 3.79999C6.75832 3.79999 6.0333 4.02285 5.41661 4.4404C4.79993 4.85795 4.31928 5.45143 4.03545 6.14578C3.75162 6.84014 3.67736 7.60419 3.82205 8.34132C3.96675 9.07844 4.3239 9.75554 4.84835 10.287C5.3728 10.8184 6.04098 11.1803 6.76841 11.3269C7.49584 11.4736 8.24984 11.3983 8.93506 11.1107C9.62029 10.8231 10.206 10.336 10.618 9.71113C11.0301 9.08623 11.25 8.35154 11.25 7.59998C11.25 6.59216 10.8549 5.62561 10.1517 4.91298C9.44839 4.20034 8.49456 3.79999 7.5 3.79999ZM7.5 9.49997C7.12916 9.49997 6.76665 9.38854 6.45831 9.17976C6.14996 8.97099 5.90964 8.67425 5.76773 8.32707C5.62581 7.97989 5.58868 7.59787 5.66103 7.22931C5.73337 6.86074 5.91195 6.5222 6.17418 6.25648C6.4364 5.99076 6.77049 5.8098 7.13421 5.73649C7.49792 5.66318 7.87492 5.7008 8.21753 5.84461C8.56014 5.98842 8.85298 6.23194 9.05901 6.5444C9.26503 6.85685 9.375 7.22419 9.375 7.59998C9.375 8.10389 9.17746 8.58716 8.82582 8.94347C8.47419 9.29979 7.99728 9.49997 7.5 9.49997Z" fill="#7D23E0"/>
</svg>
