<svg width="24" height="24" viewBox="0 0 24 24" fill="none" xmlns="http://www.w3.org/2000/svg">
<path d="M18.3 9.50013L19.21 8.59447C19.3983 8.40498 19.5041 8.14798 19.5041 7.88C19.5041 7.61203 19.3983 7.35502 19.21 7.16554C19.0217 6.97605 18.7663 6.86959 18.5 6.86959C18.2337 6.86959 17.9783 6.97605 17.79 7.16554L16.89 8.08126C15.4886 6.99029 13.7669 6.39838 11.995 6.39838C10.2232 6.39838 8.50147 6.99029 7.10003 8.08126L6.19003 7.15547C6.0004 6.96599 5.74373 6.86006 5.47649 6.86101C5.20925 6.86195 4.95333 6.96968 4.76503 7.1605C4.57672 7.35133 4.47146 7.60961 4.4724 7.87853C4.47334 8.14745 4.5804 8.40498 4.77003 8.59447L5.69003 9.51019C4.59304 10.9165 3.99782 12.6532 4.00003 14.441C3.99676 15.7245 4.29849 16.9901 4.88005 18.1323C5.46161 19.2746 6.30614 20.2604 7.34322 21.0075C8.38029 21.7546 9.57985 22.2413 10.8418 22.4271C12.1038 22.6129 13.3917 22.4924 14.598 22.0756C15.8043 21.6588 16.8941 20.9578 17.7764 20.0311C18.6588 19.1044 19.3082 17.9788 19.6705 16.7482C20.0328 15.5176 20.0974 14.2177 19.859 12.9569C19.6206 11.696 19.0861 10.5108 18.3 9.50013V9.50013ZM12 20.4787C10.8133 20.4787 9.6533 20.1246 8.6666 19.4612C7.67991 18.7978 6.91087 17.8548 6.45675 16.7515C6.00262 15.6483 5.8838 14.4343 6.11531 13.2631C6.34683 12.0919 6.91827 11.0161 7.75739 10.1717C8.5965 9.32729 9.6656 8.75225 10.8295 8.51929C11.9934 8.28632 13.1998 8.40589 14.2961 8.86287C15.3925 9.31985 16.3296 10.0937 16.9888 11.0866C17.6481 12.0795 18 13.2469 18 14.441C18 16.0423 17.3679 17.578 16.2427 18.7103C15.1174 19.8426 13.5913 20.4787 12 20.4787ZM10 5.3844H14C14.2652 5.3844 14.5196 5.27838 14.7071 5.08967C14.8947 4.90095 15 4.645 15 4.37812C15 4.11123 14.8947 3.85528 14.7071 3.66656C14.5196 3.47785 14.2652 3.37183 14 3.37183H10C9.73481 3.37183 9.48046 3.47785 9.29292 3.66656C9.10538 3.85528 9.00003 4.11123 9.00003 4.37812C9.00003 4.645 9.10538 4.90095 9.29292 5.08967C9.48046 5.27838 9.73481 5.3844 10 5.3844V5.3844ZM13 11.4221C13 11.1553 12.8947 10.8993 12.7071 10.7106C12.5196 10.5219 12.2652 10.4159 12 10.4159C11.7348 10.4159 11.4805 10.5219 11.2929 10.7106C11.1054 10.8993 11 11.1553 11 11.4221V13.324C10.7736 13.5278 10.614 13.796 10.5423 14.0931C10.4707 14.3902 10.4904 14.7021 10.5988 14.9877C10.7072 15.2733 10.8992 15.519 11.1494 15.6923C11.3996 15.8657 11.6962 15.9585 12 15.9585C12.3038 15.9585 12.6004 15.8657 12.8507 15.6923C13.1009 15.519 13.2929 15.2733 13.4013 14.9877C13.5097 14.7021 13.5294 14.3902 13.4577 14.0931C13.3861 13.796 13.2265 13.5278 13 13.324V11.4221Z" fill="#44DDFF"/>
</svg>
