<svg width="70" height="70" viewBox="0 0 70 70" fill="none" xmlns="http://www.w3.org/2000/svg">
<path d="M58.3333 21.9661C56.6319 22.7257 54.7938 23.2422 52.819 23.5156C54.885 22.3003 56.2977 20.523 57.0573 18.1836C55.0825 19.3381 53.0469 20.1128 50.9505 20.5078C49.0972 18.5026 46.773 17.5 43.9779 17.5C41.3346 17.5 39.0788 18.4342 37.2103 20.3027C35.3418 22.1712 34.4076 24.4271 34.4076 27.0703C34.4076 27.9514 34.4835 28.6806 34.6354 29.2578C30.7161 29.0451 27.0399 28.0577 23.6068 26.2956C20.1736 24.5334 17.2569 22.1788 14.8568 19.2318C13.9757 20.7509 13.5352 22.3611 13.5352 24.0625C13.5352 27.526 14.9175 30.1845 17.6823 32.0378C16.2543 32.0074 14.7352 31.6124 13.125 30.8529V30.944C13.125 33.2227 13.8845 35.2507 15.4036 37.028C16.9227 38.8053 18.7912 39.9067 21.0091 40.332C20.128 40.5751 19.3533 40.6966 18.6849 40.6966C18.2899 40.6966 17.6975 40.6359 16.9076 40.5143C17.5456 42.4284 18.6773 44.0082 20.3027 45.2539C21.9282 46.4996 23.7739 47.1376 25.8398 47.168C22.3155 49.9023 18.3507 51.2695 13.9453 51.2695C13.1554 51.2695 12.3958 51.224 11.6667 51.1328C16.1632 53.9887 21.0547 55.4167 26.3411 55.4167C29.7439 55.4167 32.934 54.8774 35.9115 53.7988C38.8889 52.7203 41.441 51.2771 43.5677 49.4694C45.6944 47.6617 47.525 45.5805 49.0592 43.2259C50.5935 40.8713 51.7329 38.4104 52.4772 35.8431C53.2216 33.2758 53.5938 30.7161 53.5938 28.1641C53.5938 27.6172 53.5786 27.207 53.5482 26.9336C55.4622 25.5664 57.0573 23.9106 58.3333 21.9661ZM70 13.125V56.875C70 60.4905 68.7164 63.5818 66.1491 66.1491C63.5818 68.7164 60.4905 70 56.875 70H13.125C9.50955 70 6.41819 68.7164 3.85091 66.1491C1.28364 63.5818 0 60.4905 0 56.875V13.125C0 9.50955 1.28364 6.41819 3.85091 3.85091C6.41819 1.28364 9.50955 0 13.125 0H56.875C60.4905 0 63.5818 1.28364 66.1491 3.85091C68.7164 6.41819 70 9.50955 70 13.125Z" fill="#7D23E0"/>
</svg>
