<svg width="44" height="36" viewBox="0 0 44 36" fill="none" xmlns="http://www.w3.org/2000/svg">
<path d="M6.2 36V8.3L0.45 9.65V4.75L8.9 0.999998H12.85V36H6.2ZM18.933 36V31.35C21.0663 29.5833 23.133 27.8333 25.133 26.1C27.1663 24.3667 28.9663 22.65 30.533 20.95C32.133 19.25 33.3997 17.6 34.333 16C35.2997 14.3667 35.783 12.7833 35.783 11.25C35.783 9.81666 35.383 8.55 34.583 7.45C33.8163 6.35 32.533 5.8 30.733 5.8C28.8997 5.8 27.5163 6.4 26.583 7.6C25.6497 8.8 25.183 10.25 25.183 11.95H18.983C19.0497 9.38333 19.6163 7.25 20.683 5.55C21.7497 3.81667 23.1663 2.53333 24.933 1.7C26.6997 0.833332 28.683 0.399999 30.883 0.399999C34.4497 0.399999 37.2163 1.38333 39.183 3.35C41.183 5.28333 42.183 7.8 42.183 10.9C42.183 12.8333 41.733 14.7167 40.833 16.55C39.9663 18.3833 38.8163 20.15 37.383 21.85C35.9497 23.55 34.3997 25.15 32.733 26.65C31.0663 28.1167 29.4497 29.4833 27.883 30.75H43.033V36H18.933Z" fill="white"/>
</svg>
