<svg width="26" height="35" viewBox="0 0 26 35" fill="none" xmlns="http://www.w3.org/2000/svg">
<path d="M2.60795 34.0568H23.5988C24.345 34.0568 25.0146 33.6735 25.3979 33.0347C25.7812 32.3959 25.7965 31.6138 25.4338 30.9391V30.934L17.0975 16.4337C16.9799 16.2191 16.9186 15.9738 16.9186 15.7284V9.95294H17.4296C18.0786 9.95294 18.6052 9.42662 18.6052 8.77741V6.77905C18.6052 6.13006 18.0788 5.60352 17.4296 5.60352H8.77126C8.12227 5.60352 7.59573 6.12984 7.59573 6.77905V8.77741C7.59573 9.4264 8.12205 9.95294 8.77126 9.95294H9.2874V15.7284C9.2874 15.9738 9.22606 16.2191 9.11357 16.4235L0.756819 30.9542C0.404079 31.6137 0.419594 32.3955 0.802881 33.0343C1.18641 33.6734 1.86111 34.0567 2.60729 34.0567L2.60795 34.0568ZM10.0089 16.9194C10.2031 16.5565 10.3105 16.1424 10.3105 15.7286V9.95307H15.8969V15.7286C15.8969 16.1426 15.9992 16.5565 16.2036 16.9347L18.9533 21.7135H7.25383L10.0089 16.9194Z" fill="white"/>
<path d="M9.56979 4.58379H16.6381L17.0112 1.62948C17.0471 1.29734 16.9397 0.964972 16.7147 0.714548C16.4951 0.46945 16.1729 0.326172 15.8408 0.326172H10.3669C10.0297 0.326172 9.71256 0.469208 9.48783 0.714548C9.26794 0.964984 9.16079 1.29711 9.19643 1.63966L9.56979 4.58379Z" fill="white"/>
</svg>
