<svg width="155" height="155" viewBox="0 0 155 155" fill="none" xmlns="http://www.w3.org/2000/svg">
<mask id="mask0_748_2111" style="mask-type:alpha" maskUnits="userSpaceOnUse" x="0" y="0" width="155" height="155">
<rect width="155" height="155" rx="16" fill="#73D4DD"/>
</mask>
<g mask="url(#mask0_748_2111)">
<rect width="155" height="155" rx="16" fill="#77C0A5"/>
<circle cx="27.8398" cy="-17.306" r="77.5" fill="#589981"/>
<ellipse cx="123.422" cy="29.9372" rx="9.59345" ry="9.59345" fill="#BDF5C1"/>
<path d="M141.081 154.813C141.081 201.874 102.93 240.025 55.8686 240.025C8.80713 240.025 -29.3438 201.874 -29.3438 154.813C-29.3438 107.751 8.80713 69.6005 55.8686 69.6005C102.93 69.6005 141.081 107.751 141.081 154.813ZM26.334 154.813C26.334 171.124 39.5571 184.348 55.8686 184.348C72.1801 184.348 85.4032 171.124 85.4032 154.813C85.4032 138.501 72.1801 125.278 55.8686 125.278C39.5571 125.278 26.334 138.501 26.334 154.813Z" fill="#F1F7ED" fill-opacity="0.22"/>
<circle cx="157.804" cy="-0.104299" r="83.2124" transform="rotate(178.057 157.804 -0.104299)" stroke="white" stroke-width="4"/>
</g>
</svg>
