<svg width="143" height="143" viewBox="0 0 143 143" fill="none" xmlns="http://www.w3.org/2000/svg">
<path d="M142.112 71.6701C142.112 110.789 110.399 142.501 71.2804 142.501C32.1614 142.501 0.449219 110.789 0.449219 71.6701C0.449219 32.5511 32.1614 0.838867 71.2804 0.838867C110.399 0.838867 142.112 32.5511 142.112 71.6701Z" fill="#9C4DF4"/>
<path fill-rule="evenodd" clip-rule="evenodd" d="M71.2778 109.097C91.9476 109.097 108.704 92.3412 108.704 71.6713C108.704 51.0014 91.9476 34.2452 71.2778 34.2452C50.6079 34.2452 33.8516 51.0014 33.8516 71.6713C33.8516 92.3412 50.6079 109.097 71.2778 109.097ZM71.2778 122.228C99.1997 122.228 121.835 99.5932 121.835 71.6713C121.835 43.7494 99.1997 21.1143 71.2778 21.1143C43.3559 21.1143 20.7207 43.7494 20.7207 71.6713C20.7207 99.5932 43.3559 122.228 71.2778 122.228Z" fill="white"/>
<path d="M19.3142 75.0115L13.9238 64.2285H78.3392V128.387L66.7498 123.535V75.0115H19.3142Z" fill="white"/>
<path fill-rule="evenodd" clip-rule="evenodd" d="M46.1313 79.243H14.3086V74.9502H46.1313V79.243Z" fill="#9C4DF4"/>
<path fill-rule="evenodd" clip-rule="evenodd" d="M45.7465 64.2264H13.9238V59.9336H45.7465V64.2264Z" fill="#9C4DF4"/>
<path fill-rule="evenodd" clip-rule="evenodd" d="M78.342 128.386L78.342 106.188L82.6348 106.188L82.6348 128.386L78.342 128.386Z" fill="#9C4DF4"/>
<path fill-rule="evenodd" clip-rule="evenodd" d="M62.4279 125.821L62.4279 103.622L66.7207 103.622L66.7207 125.821L62.4279 125.821Z" fill="#9C4DF4"/>
</svg>
