<svg width="522" height="143" viewBox="0 0 522 143" fill="none" xmlns="http://www.w3.org/2000/svg">
<path d="M194.215 100.184C189.117 100.184 184.436 98.9608 180.17 96.515C175.905 94.0693 172.523 90.6931 170.027 86.3864C167.53 82.0265 166.281 77.1084 166.281 71.632C166.281 66.2088 167.53 61.3439 170.027 57.0372C172.523 52.6774 175.905 49.2746 180.17 46.8288C184.436 44.383 189.117 43.1602 194.215 43.1602C199.365 43.1602 204.046 44.383 208.26 46.8288C212.525 49.2746 215.881 52.6774 218.325 57.0372C220.822 61.3439 222.071 66.2088 222.071 71.632C222.071 77.1084 220.822 82.0265 218.325 86.3864C215.881 90.6931 212.525 94.0693 208.26 96.515C203.994 98.9608 199.313 100.184 194.215 100.184ZM194.215 90.2145C197.492 90.2145 200.379 89.4702 202.876 87.9815C205.373 86.4396 207.324 84.2596 208.728 81.4417C210.133 78.6237 210.835 75.3539 210.835 71.632C210.835 67.9102 210.133 64.6669 208.728 61.9022C207.324 59.0842 205.373 56.9309 202.876 55.4421C200.379 53.9534 197.492 53.2091 194.215 53.2091C190.938 53.2091 188.025 53.9534 185.476 55.4421C182.979 56.9309 181.028 59.0842 179.624 61.9022C178.219 64.6669 177.517 67.9102 177.517 71.632C177.517 75.3539 178.219 78.6237 179.624 81.4417C181.028 84.2596 182.979 86.4396 185.476 87.9815C188.025 89.4702 190.938 90.2145 194.215 90.2145Z" fill="#9C4DF4"/>
<path d="M254.421 100.184C250.624 100.184 247.19 99.5191 244.121 98.1899C241.104 96.8606 238.711 94.9466 236.943 92.4476C235.174 89.9487 234.264 86.9978 234.212 83.595H245.916C246.072 85.8813 246.852 87.689 248.257 89.0182C249.713 90.3475 251.69 91.0121 254.187 91.0121C256.736 91.0121 258.738 90.4006 260.195 89.1777C261.651 87.9017 262.38 86.2535 262.38 84.2331C262.38 82.5848 261.886 81.229 260.897 80.1656C259.909 79.1023 258.66 78.2782 257.152 77.6933C255.695 77.0553 253.667 76.3641 251.066 75.6197C247.529 74.5563 244.642 73.5195 242.405 72.5093C240.22 71.446 238.321 69.8775 236.709 67.8039C235.148 65.6771 234.368 62.8592 234.368 59.3501C234.368 56.0536 235.174 53.1825 236.787 50.7367C238.399 48.2909 240.662 46.43 243.575 45.154C246.488 43.8248 249.817 43.1602 253.563 43.1602C259.181 43.1602 263.732 44.5691 267.217 47.3871C270.755 50.1519 272.705 54.0332 273.069 59.031H261.053C260.949 57.117 260.143 55.5485 258.634 54.3256C257.178 53.0496 255.227 52.4115 252.782 52.4115C250.65 52.4115 248.933 52.9698 247.633 54.0863C246.384 55.2029 245.76 56.8245 245.76 58.9513C245.76 60.44 246.228 61.6895 247.164 62.6997C248.153 63.6567 249.349 64.4543 250.754 65.0923C252.21 65.6771 254.239 66.3683 256.84 67.1659C260.377 68.2292 263.264 69.2926 265.501 70.356C267.738 71.4194 269.662 73.0144 271.275 75.1412C272.887 77.2679 273.694 80.0593 273.694 83.5153C273.694 86.4927 272.939 89.2575 271.431 91.8096C269.922 94.3617 267.712 96.4087 264.799 97.9506C261.886 99.4393 258.426 100.184 254.421 100.184Z" fill="#9C4DF4"/>
<path d="M325.646 43.9577V52.9698H311.133V99.6254H300.209V52.9698H285.696V43.9577H325.646Z" fill="#9C4DF4"/>
<path d="M349.959 52.9698V66.9266H368.295V75.7792H349.959V90.5336H370.636V99.6254H339.035V43.8779H370.636V52.9698H349.959Z" fill="#9C4DF4"/>
<path d="M396.905 90.7728H414.852V99.6254H385.981V43.9577H396.905V90.7728Z" fill="#9C4DF4"/>
<path d="M438.137 90.7728H456.083V99.6254H427.213V43.9577H438.137V90.7728Z" fill="#9C4DF4"/>
<path d="M493.726 100.184C488.628 100.184 483.947 98.9608 479.681 96.515C475.416 94.0693 472.034 90.6931 469.538 86.3864C467.041 82.0265 465.792 77.1084 465.792 71.632C465.792 66.2088 467.041 61.3439 469.538 57.0372C472.034 52.6774 475.416 49.2746 479.681 46.8288C483.947 44.383 488.628 43.1602 493.726 43.1602C498.876 43.1602 503.557 44.383 507.771 46.8288C512.036 49.2746 515.392 52.6774 517.836 57.0372C520.333 61.3439 521.582 66.2088 521.582 71.632C521.582 77.1084 520.333 82.0265 517.836 86.3864C515.392 90.6931 512.036 94.0693 507.771 96.515C503.505 98.9608 498.824 100.184 493.726 100.184ZM493.726 90.2145C497.003 90.2145 499.89 89.4702 502.387 87.9815C504.884 86.4396 506.835 84.2596 508.239 81.4417C509.644 78.6237 510.346 75.3539 510.346 71.632C510.346 67.9102 509.644 64.6669 508.239 61.9022C506.835 59.0842 504.884 56.9309 502.387 55.4421C499.89 53.9534 497.003 53.2091 493.726 53.2091C490.449 53.2091 487.536 53.9534 484.987 55.4421C482.49 56.9309 480.539 59.0842 479.135 61.9022C477.73 64.6669 477.028 67.9102 477.028 71.632C477.028 75.3539 477.73 78.6237 479.135 81.4417C480.539 84.2596 482.49 86.4396 484.987 87.9815C487.536 89.4702 490.449 90.2145 493.726 90.2145Z" fill="#9C4DF4"/>
<path d="M142.112 71.6701C142.112 110.789 110.399 142.501 71.2804 142.501C32.1614 142.501 0.449219 110.789 0.449219 71.6701C0.449219 32.5511 32.1614 0.838867 71.2804 0.838867C110.399 0.838867 142.112 32.5511 142.112 71.6701Z" fill="#9C4DF4"/>
<path fill-rule="evenodd" clip-rule="evenodd" d="M71.2778 109.097C91.9476 109.097 108.704 92.3412 108.704 71.6713C108.704 51.0014 91.9476 34.2452 71.2778 34.2452C50.6079 34.2452 33.8516 51.0014 33.8516 71.6713C33.8516 92.3412 50.6079 109.097 71.2778 109.097ZM71.2778 122.228C99.1997 122.228 121.835 99.5932 121.835 71.6713C121.835 43.7494 99.1997 21.1143 71.2778 21.1143C43.3559 21.1143 20.7207 43.7494 20.7207 71.6713C20.7207 99.5932 43.3559 122.228 71.2778 122.228Z" fill="white"/>
<path d="M19.3142 75.0115L13.9238 64.2285H78.3392V128.387L66.7498 123.535V75.0115H19.3142Z" fill="white"/>
<path fill-rule="evenodd" clip-rule="evenodd" d="M46.1313 79.243H14.3086V74.9502H46.1313V79.243Z" fill="#9C4DF4"/>
<path fill-rule="evenodd" clip-rule="evenodd" d="M45.7465 64.2264H13.9238V59.9336H45.7465V64.2264Z" fill="#9C4DF4"/>
<path fill-rule="evenodd" clip-rule="evenodd" d="M78.342 128.386L78.342 106.188L82.6348 106.188L82.6348 128.386L78.342 128.386Z" fill="#9C4DF4"/>
<path fill-rule="evenodd" clip-rule="evenodd" d="M62.4279 125.821L62.4279 103.622L66.7207 103.622L66.7207 125.821L62.4279 125.821Z" fill="#9C4DF4"/>
</svg>
