<svg width="30" height="38" viewBox="0 0 30 38" fill="none" xmlns="http://www.w3.org/2000/svg">
<path d="M14.9997 20.8333C14.5134 20.8333 14.0471 21.0264 13.7033 21.3703C13.3595 21.7141 13.1663 22.1804 13.1663 22.6666V28.1666C13.1663 28.6529 13.3595 29.1192 13.7033 29.463C14.0471 29.8068 14.5134 30 14.9997 30C15.4859 30 15.9522 29.8068 16.296 29.463C16.6399 29.1192 16.833 28.6529 16.833 28.1666V22.6666C16.833 22.1804 16.6399 21.7141 16.296 21.3703C15.9522 21.0264 15.4859 20.8333 14.9997 20.8333ZM24.1663 13.5V9.83329C24.1663 7.40214 23.2006 5.07056 21.4815 3.35148C19.7624 1.6324 17.4308 0.666626 14.9997 0.666626C12.5685 0.666626 10.2369 1.6324 8.51786 3.35148C6.79878 5.07056 5.83301 7.40214 5.83301 9.83329V13.5C4.37432 13.5 2.97537 14.0794 1.94392 15.1109C0.912471 16.1423 0.333008 17.5413 0.333008 19V31.8333C0.333008 33.292 0.912471 34.6909 1.94392 35.7224C2.97537 36.7538 4.37432 37.3333 5.83301 37.3333H24.1663C25.625 37.3333 27.024 36.7538 28.0554 35.7224C29.0869 34.6909 29.6663 33.292 29.6663 31.8333V19C29.6663 17.5413 29.0869 16.1423 28.0554 15.1109C27.024 14.0794 25.625 13.5 24.1663 13.5ZM9.49967 9.83329C9.49967 8.3746 10.0791 6.97566 11.1106 5.94421C12.142 4.91276 13.541 4.33329 14.9997 4.33329C16.4584 4.33329 17.8573 4.91276 18.8888 5.94421C19.9202 6.97566 20.4997 8.3746 20.4997 9.83329V13.5H9.49967V9.83329ZM25.9997 31.8333C25.9997 32.3195 25.8065 32.7858 25.4627 33.1297C25.1189 33.4735 24.6526 33.6666 24.1663 33.6666H5.83301C5.34678 33.6666 4.88046 33.4735 4.53665 33.1297C4.19283 32.7858 3.99967 32.3195 3.99967 31.8333V19C3.99967 18.5137 4.19283 18.0474 4.53665 17.7036C4.88046 17.3598 5.34678 17.1666 5.83301 17.1666H24.1663C24.6526 17.1666 25.1189 17.3598 25.4627 17.7036C25.8065 18.0474 25.9997 18.5137 25.9997 19V31.8333Z" fill="#909090"/>
</svg>
