<svg width="195" height="54" viewBox="0 0 195 54" fill="none" xmlns="http://www.w3.org/2000/svg">
<path d="M53.0732 26.6407C53.0845 41.2943 41.2172 53.1826 26.5671 53.1938C11.9169 53.205 0.0315175 41.3349 0.0203039 26.6813C0.00909038 12.0276 11.8763 0.139349 26.5265 0.128138C41.1766 0.116928 53.062 11.987 53.0732 26.6407Z" fill="white"/>
<path fill-rule="evenodd" clip-rule="evenodd" d="M26.5566 40.6797C34.2976 40.6738 40.568 34.3922 40.5621 26.6494C40.5562 18.9066 34.2761 12.6347 26.5352 12.6406C18.7942 12.6465 12.5238 18.9281 12.5297 26.6709C12.5356 34.4136 18.8157 40.6856 26.5566 40.6797ZM26.5604 45.5984C37.0172 45.5904 45.4877 37.105 45.4797 26.6456C45.4716 16.1863 36.9882 7.71384 26.5314 7.72184C16.0746 7.72984 7.60414 16.2153 7.61215 26.6746C7.62015 37.1339 16.1036 45.6064 26.5604 45.5984Z" fill="#1C1C1C"/>
<path d="M7.08431 27.9263L5.0625 23.8887L29.1862 23.8702L29.2046 47.9036L24.863 46.0892L24.849 27.9128L7.08431 27.9263Z" fill="#1C1C1C"/>
<path fill-rule="evenodd" clip-rule="evenodd" d="M17.1299 29.5052L5.21217 29.5143L5.21094 27.9062L17.1286 27.8971L17.1299 29.5052Z" fill="white"/>
<path fill-rule="evenodd" clip-rule="evenodd" d="M16.9814 23.8802L5.06373 23.8893L5.0625 22.2812L16.9802 22.2721L16.9814 23.8802Z" fill="white"/>
<path fill-rule="evenodd" clip-rule="evenodd" d="M29.2069 47.9047L29.2005 39.5891L30.8086 39.5879L30.815 47.9034L29.2069 47.9047Z" fill="white"/>
<path fill-rule="evenodd" clip-rule="evenodd" d="M23.246 46.9476L23.2396 38.6321L24.8477 38.6309L24.854 46.9464L23.246 46.9476Z" fill="white"/>
<path d="M71.5447 37.3044C69.6226 37.3059 67.857 36.8569 66.248 35.9574C64.639 35.058 63.3631 33.8156 62.4205 32.2303C61.4778 30.6254 61.0057 28.8146 61.0041 26.7978C61.0026 24.8006 61.4719 23.0086 62.4122 21.4219C63.3524 19.8156 64.6264 18.5615 66.234 17.6595C67.8416 16.7576 69.6065 16.3059 71.5287 16.3044C73.4704 16.303 75.236 16.752 76.8254 17.6514C78.4344 18.5509 79.7005 19.8031 80.6235 21.408C81.5662 22.9933 82.0383 24.7845 82.0398 26.7817C82.0414 28.7985 81.572 30.61 80.6318 32.2164C79.7112 33.8031 78.447 35.0474 76.8394 35.9493C75.2318 36.8513 73.4669 37.303 71.5447 37.3044ZM71.5419 33.6331C72.7776 33.6322 73.8659 33.3572 74.807 32.8082C75.748 32.2397 76.4829 31.4363 77.0117 30.3982C77.5405 29.36 77.8043 28.1556 77.8033 26.785C77.8022 25.4143 77.5365 24.2201 77.0062 23.2023C76.4758 22.165 75.7397 21.3725 74.7978 20.825C73.8559 20.2775 72.7672 20.0042 71.5315 20.0051C70.2958 20.0061 69.1977 20.2811 68.237 20.83C67.296 21.379 66.5611 22.1726 66.0323 23.2107C65.5035 24.2293 65.2396 25.4239 65.2407 26.7946C65.2417 28.1652 65.5074 29.3692 66.0378 30.4066C66.5682 31.4439 67.3043 32.2461 68.2462 32.8133C69.2077 33.3608 70.3063 33.6341 71.5419 33.6331Z" fill="white"/>
<path d="M94.2457 37.2871C92.8139 37.2882 91.5192 37.0444 90.3616 36.5558C89.2236 36.0671 88.3209 35.3629 87.6533 34.4432C86.9857 33.5234 86.6416 32.4369 86.6211 31.1838L91.0342 31.1804C91.0936 32.0223 91.3884 32.6879 91.9183 33.177C92.4679 33.666 93.2134 33.9102 94.1548 33.9095C95.1159 33.9088 95.8709 33.683 96.4197 33.2323C96.9685 32.7619 97.2427 32.1547 97.2421 31.4106C97.2416 30.8036 97.0549 30.3045 96.6819 29.9132C96.309 29.5218 95.838 29.2187 95.2691 29.0038C94.7197 28.7692 93.9546 28.5153 92.9737 28.2419C91.6396 27.8513 90.5508 27.4703 89.7071 27.0989C88.883 26.7079 88.1667 26.1309 87.5581 25.3677C86.9691 24.5849 86.6741 23.5474 86.6731 22.2551C86.6721 21.0411 86.9754 19.9835 87.5827 19.0824C88.19 18.1812 89.0427 17.4952 90.1407 17.0245C91.2387 16.5341 92.4938 16.2884 93.906 16.2873C96.0243 16.2857 97.7409 16.8033 99.0558 17.84C100.39 18.8572 101.127 20.286 101.266 22.1264L96.7348 22.1299C96.6951 21.425 96.3906 20.8477 95.8215 20.3977C95.2719 19.9282 94.5362 19.6938 93.6144 19.6945C92.8102 19.6951 92.1631 19.9012 91.6731 20.3128C91.2027 20.7244 90.9678 21.3217 90.9684 22.1049C90.9688 22.6532 91.1457 23.1132 91.499 23.485C91.8719 23.8371 92.3233 24.1305 92.853 24.365C93.4024 24.58 94.1675 24.834 95.1484 25.1269C96.4824 25.5175 97.5713 25.9083 98.415 26.2993C99.2587 26.6902 99.9848 27.2771 100.593 28.0598C101.202 28.8426 101.507 29.8703 101.508 31.143C101.509 32.2395 101.225 33.2579 100.657 34.1982C100.089 35.1385 99.2559 35.893 98.158 36.4617C97.06 37.0108 95.7559 37.2859 94.2457 37.2871Z" fill="white"/>
<path d="M121.086 16.5602L121.088 19.8791L115.616 19.8833L115.629 37.0651L111.51 37.0683L111.497 19.8864L106.025 19.8906L106.022 16.5718L121.086 16.5602Z" fill="white"/>
<path d="M130.255 19.8721L130.259 25.0119L137.173 25.0067L137.176 28.2668L130.262 28.2721L130.266 33.7057L138.062 33.6997L138.065 37.0479L126.15 37.0571L126.134 16.527L138.049 16.5179L138.052 19.8661L130.255 19.8721Z" fill="white"/>
<path d="M147.967 33.7802L154.734 33.775L154.737 37.0352L143.851 37.0435L143.835 16.5428L147.954 16.5397L147.967 33.7802Z" fill="white"/>
<path d="M163.514 33.7683L170.281 33.7631L170.283 37.0233L159.398 37.0316L159.382 16.5309L163.501 16.5278L163.514 33.7683Z" fill="white"/>
<path d="M184.477 37.218C182.555 37.2195 180.789 36.7705 179.18 35.871C177.571 34.9716 176.295 33.7292 175.353 32.1439C174.41 30.539 173.938 28.7282 173.936 26.7114C173.935 24.7142 174.404 22.9222 175.344 21.3355C176.285 19.7292 177.558 18.475 179.166 17.5731C180.774 16.6712 182.539 16.2195 184.461 16.218C186.403 16.2165 188.168 16.6655 189.758 17.565C191.367 18.4645 192.633 19.7167 193.556 21.3216C194.498 22.9068 194.97 24.6981 194.972 26.6953C194.974 28.7121 194.504 30.5236 193.564 32.1299C192.643 33.7167 191.379 34.961 189.772 35.8629C188.164 36.7648 186.399 37.2165 184.477 37.218ZM184.474 33.5467C185.71 33.5457 186.798 33.2708 187.739 32.7218C188.68 32.1533 189.415 31.3499 189.944 30.3117C190.473 29.2736 190.736 28.0692 190.735 26.6985C190.734 25.3279 190.469 24.1337 189.938 23.1159C189.408 22.0786 188.672 21.2861 187.73 20.7386C186.788 20.1911 185.699 19.9178 184.464 19.9187C183.228 19.9197 182.13 20.1946 181.169 20.7436C180.228 21.2926 179.493 22.0862 178.964 23.1243C178.436 24.1429 178.172 25.3375 178.173 26.7082C178.174 28.0788 178.44 29.2828 178.97 30.3201C179.5 31.3575 180.236 32.1597 181.178 32.7268C182.14 33.2743 183.238 33.5476 184.474 33.5467Z" fill="white"/>
</svg>
