<svg width="839" height="558" viewBox="0 0 839 558" fill="none" xmlns="http://www.w3.org/2000/svg">
<path d="M300.949 321.134C329.702 270.516 384.548 231.65 442.608 235.394C399.781 282.001 374.808 342.266 372.107 405.526C371.154 429.927 372.632 457.165 356.443 475.436C346.371 486.805 330.974 492.311 315.836 493.466C300.697 494.621 285.561 491.883 270.624 489.158L267.001 490.271C265.622 432.062 272.196 371.751 300.949 321.134Z" fill="#D1F3FB"/>
<path d="M442.694 236.613C399.759 257.297 363.15 291.842 340.677 333.973C335.818 343.081 331.682 352.744 329.877 362.961C328.072 373.183 329.333 382.913 332.821 392.621C336.011 401.496 340.3 410.205 341.278 419.701C342.309 429.711 338.628 439.071 332.004 446.499C323.898 455.587 313.013 461.219 302.177 466.357C290.146 472.061 277.559 477.794 269.037 488.44C268.004 489.73 266.065 488.051 267.096 486.763C281.922 468.242 307.301 464.76 324.899 449.84C333.111 442.878 339.277 433.397 338.887 422.288C338.547 412.574 334.132 403.589 330.825 394.631C327.353 385.224 325.621 375.766 326.866 365.738C328.14 355.479 331.908 345.633 336.513 336.441C346.897 315.708 361.109 296.675 377.39 280.221C396.1 261.309 417.906 245.739 441.863 234.185C443.346 233.47 444.167 235.903 442.694 236.613Z" fill="white"/>
<path d="M347.261 319.893C340.679 315.077 336.022 308.076 334.122 300.14C332.222 292.205 333.202 283.852 336.888 276.573C337.639 275.103 339.957 276.202 339.205 277.674C335.761 284.445 334.848 292.226 336.633 299.612C338.417 306.998 342.781 313.502 348.937 317.95C350.273 318.919 348.59 320.856 347.261 319.893Z" fill="white"/>
<path d="M330.613 388.334C347.105 385.922 362.084 377.378 372.562 364.405C373.599 363.119 375.538 364.797 374.503 366.081C363.574 379.561 347.969 388.421 330.8 390.893C329.164 391.127 328.985 388.567 330.613 388.334V388.334Z" fill="white"/>
<path d="M397.367 264.466C399.525 266.861 402.245 268.682 405.28 269.765C408.316 270.848 411.572 271.159 414.758 270.671C416.391 270.416 416.568 272.977 414.946 273.231C411.424 273.753 407.827 273.405 404.471 272.216C401.115 271.027 398.1 269.033 395.691 266.409C395.444 266.181 395.292 265.867 395.267 265.53C395.243 265.194 395.347 264.861 395.558 264.599C395.782 264.343 396.097 264.186 396.435 264.161C396.774 264.136 397.109 264.246 397.367 264.466Z" fill="white"/>
<path d="M558.129 395.075C557.114 395.263 556.099 395.451 555.074 395.659C541.441 398.262 528.042 401.968 515.009 406.743C513.996 407.096 512.974 407.469 511.973 407.85C480.696 419.687 451.886 437.233 427.009 459.595C417.118 468.502 407.919 478.15 399.49 488.454C387.851 502.686 376.363 519.043 361.154 528.322C359.578 529.308 357.942 530.195 356.257 530.978L268.64 494.608C268.482 494.426 268.315 494.262 268.156 494.079L264.592 492.787C264.989 492.225 265.414 491.651 265.811 491.09C266.041 490.763 266.289 490.444 266.519 490.117C266.678 489.902 266.838 489.687 266.969 489.483C267.022 489.411 267.075 489.34 267.12 489.288C267.251 489.085 267.395 488.91 267.517 488.726C269.881 485.51 272.271 482.305 274.688 479.112C274.697 479.092 274.697 479.092 274.725 479.08C293.203 454.792 313.87 431.834 337.362 412.745C338.069 412.171 338.784 411.577 339.531 411.019C350.167 402.474 361.484 394.813 373.368 388.112C379.887 384.464 386.587 381.149 393.441 378.179C411.166 370.539 429.981 365.737 449.196 363.948C487.504 360.388 526.522 369.129 555.902 393.212C556.653 393.829 557.386 394.438 558.129 395.075Z" fill="#D1F3FB"/>
<path d="M557.471 396.106C510.746 386.752 460.733 392.277 417.444 412.374C408.084 416.72 398.968 421.942 391.381 429.013C383.79 436.086 378.943 444.615 375.888 454.468C373.095 463.476 371.28 473.014 366.348 481.186C361.149 489.799 352.58 495.055 342.822 496.994C330.882 499.367 318.803 497.305 307.06 494.878C294.022 492.183 280.523 489.177 267.314 492.543C265.714 492.951 265.175 490.441 266.773 490.034C289.754 484.179 312.112 496.69 335.139 495.381C345.885 494.771 356.511 490.915 362.883 481.811C368.456 473.85 370.336 464.016 373.085 454.871C375.971 445.268 380.279 436.673 387.307 429.416C394.495 421.992 403.427 416.401 412.634 411.836C433.398 401.539 456.196 394.905 479.094 391.577C505.411 387.751 532.189 388.457 558.269 393.667C559.883 393.99 559.074 396.427 557.471 396.106V396.106Z" fill="white"/>
<path d="M431.17 405.098C428.812 397.287 429.306 388.891 432.562 381.41C435.819 373.929 441.627 367.851 448.949 364.26C450.433 363.538 451.623 365.812 450.137 366.535C443.313 369.866 437.903 375.529 434.885 382.501C431.866 389.473 431.438 397.296 433.676 404.557C434.161 406.135 431.651 406.668 431.17 405.098Z" fill="white"/>
<path d="M376.703 449.714C391.323 457.726 408.423 459.929 424.593 455.884C426.195 455.482 426.734 457.991 425.134 458.392C408.299 462.57 390.509 460.241 375.314 451.871C373.866 451.072 375.263 448.92 376.703 449.714Z" fill="white"/>
<path d="M504.522 391.035C504.805 394.247 505.881 397.339 507.653 400.033C509.425 402.727 511.838 404.938 514.675 406.468C516.132 407.248 514.733 409.399 513.285 408.624C510.159 406.919 507.497 404.474 505.532 401.502C503.568 398.531 502.361 395.123 502.016 391.576C501.955 391.244 502.023 390.902 502.206 390.619C502.388 390.336 502.672 390.133 502.998 390.051C503.331 389.981 503.677 390.045 503.962 390.229C504.248 390.413 504.449 390.703 504.522 391.035Z" fill="white"/>
<path d="M391.224 455.078C378.953 395.702 363.615 375.906 363.615 375.906L357.756 371.359L350.709 365.881L350.743 365.177L349.072 364.608L348.679 364.303L348.036 363.809L347.932 363.92L347.714 364.147L315.827 353.299L275.373 339.548L256.641 315.181C253.59 311.212 249.662 308.004 245.165 305.809C240.668 303.614 235.724 302.491 230.721 302.528L170.895 302.971C162.806 303.031 155.032 306.117 149.101 311.623L109.778 348.125L48.5058 377.411L48.4024 377.307L47.759 377.767L38.2918 382.298L38.6825 384.333L32.8229 388.564C32.8229 388.564 17.4848 406.984 5.21417 462.232C2.09267 476.29 0.556158 506.446 0.00155854 543.605C-0.0262989 545.485 0.319539 547.352 1.01895 549.096C1.71837 550.841 2.75741 552.43 4.07567 553.769C5.39393 555.108 6.96509 556.172 8.69781 556.898C10.4305 557.625 12.2902 557.999 14.1688 558H341.437V557.999H382.284C384.161 557.999 386.02 557.625 387.751 556.899C389.483 556.174 391.053 555.111 392.371 553.773C393.689 552.436 394.729 550.849 395.429 549.106C396.129 547.363 396.477 545.498 396.451 543.62C395.91 503.184 394.374 470.323 391.224 455.078Z" fill="#7A81DC"/>
<path d="M433.214 51.7803C420.481 51.7803 408.27 56.8422 399.266 65.8524C390.263 74.8626 385.205 87.0831 385.205 99.8254C385.205 112.568 390.263 124.788 399.266 133.799C408.27 142.809 420.481 147.871 433.214 147.871H790.991C803.724 147.871 815.935 142.809 824.938 133.799C833.942 124.788 839 112.568 839 99.8254C839 87.0831 833.942 74.8626 824.938 65.8524C815.935 56.8422 803.724 51.7803 790.991 51.7803H433.214Z" fill="#E5E5E5"/>
<path d="M433.214 61.5039C423.059 61.5039 413.319 65.5414 406.137 72.7281C398.956 79.9148 394.922 89.6621 394.922 99.8257C394.922 109.989 398.956 119.737 406.137 126.923C413.319 134.11 423.059 138.147 433.214 138.147H790.992C801.148 138.147 810.888 134.11 818.069 126.923C825.25 119.737 829.285 109.989 829.285 99.8257C829.285 89.6621 825.25 79.9148 818.069 72.7281C810.888 65.5414 801.148 61.5039 790.992 61.5039H433.214Z" fill="white"/>
<path d="M210.204 280.036C253.491 280.036 288.582 244.918 288.582 201.598C288.582 158.278 253.491 123.16 210.204 123.16C166.917 123.16 131.826 158.278 131.826 201.598C131.826 244.918 166.917 280.036 210.204 280.036Z" fill="#9E616A"/>
<path d="M190.152 276.196C189.817 275.458 189.483 274.717 189.15 273.975C189.279 273.979 189.406 273.997 189.534 274.001L190.152 276.196Z" fill="#2F2E41"/>
<path d="M129.646 126.727C133.61 123.562 138.243 120.65 143.311 120.814C148.379 120.977 153.519 125.558 152.469 130.523C161.778 114.028 176.596 101.341 194.321 94.6891C212.046 88.0376 231.546 87.8467 249.398 94.1498C261.994 98.5974 274.347 107.495 277.241 120.546C277.984 123.896 278.143 127.569 280.233 130.29C282.869 133.719 287.911 134.495 292.063 133.289C292.104 133.277 292.146 133.264 292.187 133.252C292.889 133.012 293.646 132.989 294.361 133.184C295.075 133.38 295.715 133.786 296.197 134.349C296.679 134.913 296.981 135.608 297.064 136.345C297.147 137.082 297.007 137.827 296.662 138.484L293.098 145.136C297.591 146.138 302.259 146.039 306.705 144.846C307.444 144.653 308.224 144.692 308.94 144.96C309.655 145.227 310.27 145.71 310.7 146.341C311.131 146.972 311.355 147.721 311.344 148.485C311.332 149.249 311.084 149.991 310.634 150.609C298.882 166.757 279.247 177.184 259.21 177.062C244.969 176.975 230.582 172.063 216.722 175.34C211.36 176.608 206.35 179.061 202.06 182.52C197.769 185.978 194.306 190.354 191.925 195.326C189.545 200.299 188.307 205.741 188.302 211.255C188.298 216.769 189.527 222.213 191.899 227.189C187.641 222.529 179.411 223.632 175.055 228.202C170.7 232.772 169.573 239.592 170.012 245.892C170.683 255.527 174.455 264.606 178.431 273.442C145.09 272.392 113.555 248.986 102.94 217.328C92.281 185.538 103.452 147.638 129.646 126.727Z" fill="#483131"/>
<path opacity="0.2" d="M77.1445 437.152L99.1278 556.851L112.318 558L77.1445 437.152Z" fill="black"/>
<path opacity="0.2" d="M319.295 428.125L297.312 556.764L284.121 558L319.295 428.125Z" fill="black"/>
<path d="M512.243 122.739H441.058C440.832 122.741 440.608 122.698 440.399 122.612C440.189 122.527 439.999 122.401 439.838 122.241C439.678 122.082 439.551 121.892 439.464 121.683C439.377 121.474 439.332 121.25 439.332 121.024C439.332 120.797 439.377 120.573 439.464 120.364C439.551 120.155 439.678 119.966 439.838 119.806C439.999 119.647 440.189 119.52 440.399 119.435C440.608 119.349 440.832 119.306 441.058 119.308H512.243C512.695 119.311 513.129 119.493 513.448 119.814C513.767 120.136 513.946 120.57 513.946 121.024C513.946 121.477 513.767 121.911 513.448 122.233C513.129 122.554 512.695 122.736 512.243 122.739Z" fill="#7D23E0"/>
<path d="M602.544 123.312H531.359C531.133 123.313 530.909 123.27 530.699 123.184C530.49 123.099 530.3 122.973 530.139 122.813C529.979 122.654 529.851 122.464 529.764 122.255C529.678 122.046 529.633 121.822 529.633 121.596C529.633 121.37 529.678 121.145 529.764 120.936C529.851 120.728 529.979 120.538 530.139 120.378C530.3 120.219 530.49 120.093 530.699 120.007C530.909 119.922 531.133 119.878 531.359 119.88H602.544C602.77 119.878 602.994 119.922 603.203 120.007C603.413 120.093 603.603 120.219 603.763 120.378C603.924 120.538 604.051 120.728 604.138 120.936C604.225 121.145 604.27 121.37 604.27 121.596C604.27 121.822 604.225 122.046 604.138 122.255C604.051 122.464 603.924 122.654 603.763 122.813C603.603 122.973 603.413 123.099 603.203 123.184C602.994 123.27 602.77 123.313 602.544 123.312Z" fill="#7D23E0"/>
<path d="M692.846 123.884H621.662C621.209 123.881 620.776 123.699 620.457 123.377C620.138 123.056 619.959 122.621 619.959 122.168C619.959 121.715 620.138 121.28 620.457 120.959C620.776 120.637 621.209 120.455 621.662 120.452H692.846C693.072 120.451 693.297 120.494 693.506 120.579C693.715 120.665 693.906 120.791 694.066 120.951C694.227 121.11 694.354 121.3 694.441 121.509C694.528 121.718 694.573 121.942 694.573 122.168C694.573 122.394 694.528 122.618 694.441 122.827C694.354 123.036 694.227 123.226 694.066 123.386C693.906 123.545 693.715 123.671 693.506 123.757C693.297 123.842 693.072 123.886 692.846 123.884H692.846Z" fill="#7D23E0"/>
<path d="M783.147 124.455H711.963C711.51 124.452 711.077 124.27 710.758 123.949C710.439 123.627 710.26 123.192 710.26 122.739C710.26 122.286 710.439 121.852 710.758 121.53C711.077 121.209 711.51 121.027 711.963 121.023H783.147C783.6 121.027 784.033 121.209 784.352 121.53C784.671 121.852 784.85 122.286 784.85 122.739C784.85 123.192 784.671 123.627 784.352 123.949C784.033 124.27 783.6 124.452 783.147 124.455Z" fill="#7D23E0"/>
<path d="M476.494 106.948C483.801 106.948 489.724 101.02 489.724 93.708C489.724 86.3956 483.801 80.4678 476.494 80.4678C469.187 80.4678 463.264 86.3956 463.264 93.708C463.264 101.02 469.187 106.948 476.494 106.948Z" fill="#7D23E0"/>
<path d="M567.341 106.948C574.648 106.948 580.572 101.02 580.572 93.708C580.572 86.3956 574.648 80.4678 567.341 80.4678C560.035 80.4678 554.111 86.3956 554.111 93.708C554.111 101.02 560.035 106.948 567.341 106.948Z" fill="#7D23E0"/>
<path d="M658.187 106.948C665.494 106.948 671.417 101.02 671.417 93.708C671.417 86.3956 665.494 80.4678 658.187 80.4678C650.88 80.4678 644.957 86.3956 644.957 93.708C644.957 101.02 650.88 106.948 658.187 106.948Z" fill="#7D23E0"/>
<path d="M749.035 106.948C756.342 106.948 762.265 101.02 762.265 93.708C762.265 86.3956 756.342 80.4678 749.035 80.4678C741.728 80.4678 735.805 86.3956 735.805 93.708C735.805 101.02 741.728 106.948 749.035 106.948Z" fill="#7D23E0"/>
</svg>
