<svg width="38" height="38" viewBox="0 0 38 38" fill="none" xmlns="http://www.w3.org/2000/svg">
<path d="M27 11.6429H28.9286V29H27V11.6429ZM7.71429 18.3929L9.64286 16.4643V29H7.71429V18.3929ZM3.85714 22.25L5.78572 20.3214V29H3.85714V22.25ZM11.5714 14.5357L13.5 12.6071V29H11.5714V14.5357ZM15.4286 12.6071L17.3571 14.5357V28.9849H15.4286V12.6071ZM20.25 17.4286L21.2143 16.4643V29H19.2857V16.4643L20.25 17.4286ZM23.1429 14.5357L25.0714 12.6071V29H23.1429V14.5357ZM0 26.1071L1.92857 24.1786V29H0V26.1071ZM30.8571 2V9.71429H28.9286V5.29967L20.25 13.9632L14.4643 8.17746L0 22.6568V19.9146L14.4643 5.4654L20.25 11.2511L27.5575 3.92857H23.1429V2H30.8571Z" fill="#6D737A"/>
</svg>
