<svg width="38" height="38" viewBox="0 0 38 38" fill="none" xmlns="http://www.w3.org/2000/svg">
<path d="M13.7758 8.75781L12.6328 6.01172" stroke="#6D737A" stroke-width="1.5" stroke-linecap="round" stroke-linejoin="round"/>
<path d="M6.38281 16.1508L3.63672 15.0078" stroke="#6D737A" stroke-width="1.5" stroke-linecap="round" stroke-linejoin="round"/>
<path d="M31.6172 16.1508L34.3633 15.0078" stroke="#6D737A" stroke-width="1.5" stroke-linecap="round" stroke-linejoin="round"/>
<path d="M24.2266 8.75781L25.3695 6.01172" stroke="#6D737A" stroke-width="1.5" stroke-linecap="round" stroke-linejoin="round"/>
<path d="M35.625 23.75H2.375" stroke="#6D737A" stroke-width="1.5" stroke-linecap="round" stroke-linejoin="round"/>
<path d="M30.875 29.6875H7.125" stroke="#6D737A" stroke-width="1.5" stroke-linecap="round" stroke-linejoin="round"/>
<path d="M10.4203 23.7509C10.0518 22.4278 9.99429 21.0373 10.2523 19.6883C10.5103 18.3392 11.0769 17.0681 11.9076 15.9744C12.7384 14.8806 13.8109 13.9938 15.0412 13.3833C16.2716 12.7728 17.6265 12.4551 19 12.4551C20.3735 12.4551 21.7284 12.7728 22.9588 13.3833C24.1891 13.9938 25.2616 14.8806 26.0924 15.9744C26.9232 17.0681 27.4897 18.3392 27.7477 19.6883C28.0057 21.0373 27.9482 22.4278 27.5797 23.7509" stroke="#6D737A" stroke-width="1.5" stroke-linecap="round" stroke-linejoin="round"/>
</svg>
