<svg width="38" height="38" viewBox="0 0 38 38" fill="none" xmlns="http://www.w3.org/2000/svg">
<path d="M14 6C13.48 6 12.94 6.18 12.56 6.56C12.18 6.94 12 7.48 12 8V9H3V29H14.2C14.07 28.36 14 27.69 14 27H5V20.44C5.59 20.78 6.27 21 7 21H16.01C16.57 20.24 17.25 19.56 18.01 19H7C5.81 19 5 18.19 5 17V11H27V17C27 17.16 26.99 17.31 26.96 17.45C27.68 17.67 28.36 17.97 29 18.34V9H20V8C20 7.48 19.82 6.94 19.44 6.56C19.06 6.18 18.52 6 18 6H14ZM14 8H18V9H14V8ZM9 15V18H11V15H9ZM21 15V17.46C21.6512 17.2565 22.3213 17.1191 23 17.05V15H21ZM24 19C19.59 19 16 22.59 16 27C16 31.41 19.59 35 24 35C28.41 35 32 31.41 32 27C32 22.59 28.41 19 24 19ZM24 21C27.32 21 30 23.68 30 27C30 30.32 27.32 33 24 33C20.68 33 18 30.32 18 27C18 23.68 20.68 21 24 21ZM23 22V28H28V26H25V22H23Z" fill="#6D737A"/>
</svg>
