<svg width="32" height="30" viewBox="0 0 32 30" fill="none" xmlns="http://www.w3.org/2000/svg">
<path id="Vector" d="M29.0625 6.79681H22.7688C22.5509 5.1559 21.7444 3.64999 20.4993 2.55924C19.2542 1.4685 17.6553 0.867188 16 0.867188C14.3447 0.867188 12.7458 1.4685 11.5007 2.55924C10.2556 3.64999 9.44907 5.1559 9.23125 6.79681H2.9375C2.38635 6.79681 1.85777 7.01575 1.46804 7.40547C1.07832 7.7952 0.859375 8.32378 0.859375 8.87493V27.8749C0.859375 28.4261 1.07832 28.9547 1.46804 29.3444C1.85777 29.7341 2.38635 29.9531 2.9375 29.9531H29.0625C29.6137 29.9531 30.1422 29.7341 30.532 29.3444C30.9217 28.9547 31.1406 28.4261 31.1406 27.8749V8.87493C31.1406 8.32378 30.9217 7.7952 30.532 7.40547C30.1422 7.01575 29.6137 6.79681 29.0625 6.79681ZM16 2.64056C17.1841 2.64229 18.3302 3.05911 19.2387 3.8185C20.1473 4.57789 20.7608 5.63178 20.9727 6.79681H11.0273C11.2392 5.63178 11.8527 4.57789 12.7613 3.8185C13.6698 3.05911 14.8159 2.64229 16 2.64056ZM29.3594 27.8749C29.3594 27.9537 29.3281 28.0292 29.2724 28.0849C29.2167 28.1405 29.1412 28.1718 29.0625 28.1718H2.9375C2.85876 28.1718 2.78325 28.1405 2.72758 28.0849C2.6719 28.0292 2.64062 27.9537 2.64062 27.8749V8.87493C2.64062 8.79619 2.6719 8.72068 2.72758 8.66501C2.78325 8.60933 2.85876 8.57806 2.9375 8.57806H9.17188V12.4374C9.17188 12.6736 9.26571 12.9002 9.43273 13.0672C9.59976 13.2342 9.82629 13.3281 10.0625 13.3281C10.2987 13.3281 10.5252 13.2342 10.6923 13.0672C10.8593 12.9002 10.9531 12.6736 10.9531 12.4374V8.57806H21.0469V12.4374C21.0469 12.6736 21.1407 12.9002 21.3077 13.0672C21.4748 13.2342 21.7013 13.3281 21.9375 13.3281C22.1737 13.3281 22.4002 13.2342 22.5673 13.0672C22.7343 12.9002 22.8281 12.6736 22.8281 12.4374V8.57806H29.0625C29.1412 8.57806 29.2167 8.60933 29.2724 8.66501C29.3281 8.72068 29.3594 8.79619 29.3594 8.87493V27.8749Z" fill="#6D737A"/>
</svg>
