<svg width="847" height="573" viewBox="0 0 847 573" fill="none" xmlns="http://www.w3.org/2000/svg">
<path d="M824.739 556.309H15.084V558.534H824.739V556.309Z" fill="#3F3D56"/>
<path d="M15.5821 573C24.1879 573 31.1643 566.026 31.1643 557.422C31.1643 548.818 24.1879 541.844 15.5821 541.844C6.97636 541.844 0 548.818 0 557.422C0 566.026 6.97636 573 15.5821 573Z" fill="#3F3D56"/>
<path d="M831.418 573C840.024 573 847 566.026 847 557.422C847 548.818 840.024 541.844 831.418 541.844C822.812 541.844 815.836 548.818 815.836 557.422C815.836 566.026 822.812 573 831.418 573Z" fill="#3F3D56"/>
<path d="M454.918 557.479H137.71C135.055 557.476 132.509 556.42 130.631 554.543C128.753 552.665 127.696 550.12 127.693 547.464V10.0146C127.696 7.35948 128.753 4.81396 130.631 2.93651C132.509 1.05906 135.055 0.00299227 137.71 0H454.918C457.574 0.00299227 460.12 1.05906 461.998 2.93651C463.876 4.81396 464.932 7.35948 464.935 10.0146V547.464C464.932 550.12 463.876 552.665 461.998 554.543C460.12 556.42 457.574 557.476 454.918 557.479ZM137.71 2.22547C135.645 2.22787 133.665 3.04928 132.204 4.50951C130.743 5.96973 129.922 7.94953 129.919 10.0146V547.464C129.922 549.529 130.743 551.509 132.204 552.97C133.665 554.43 135.645 555.251 137.71 555.254H454.918C456.984 555.251 458.964 554.43 460.425 552.97C461.885 551.509 462.707 549.529 462.709 547.464V10.0146C462.707 7.94953 461.885 5.96973 460.425 4.50951C458.964 3.04928 456.984 2.22787 454.918 2.22547H137.71Z" fill="#3F3D56"/>
<path d="M339.721 32.2684H252.906C252.611 32.2684 252.328 32.1512 252.119 31.9425C251.91 31.7338 251.793 31.4508 251.793 31.1557C251.793 30.8606 251.91 30.5776 252.119 30.3689C252.328 30.1602 252.611 30.043 252.906 30.043H339.721C340.016 30.043 340.299 30.1602 340.508 30.3689C340.716 30.5776 340.834 30.8606 340.834 31.1557C340.834 31.4508 340.716 31.7338 340.508 31.9425C340.299 32.1512 340.016 32.2684 339.721 32.2684Z" fill="#3F3D56"/>
<path d="M418.188 517.422H173.326C170.67 517.419 168.124 516.363 166.246 514.485C164.368 512.608 163.312 510.062 163.309 507.407V71.2157C163.312 68.5606 164.368 66.0151 166.246 64.1377C168.124 62.2602 170.67 61.2042 173.326 61.2012H418.188C420.843 61.2042 423.39 62.2602 425.268 64.1377C427.146 66.0151 428.202 68.5606 428.205 71.2157V507.407C428.202 510.062 427.146 512.608 425.268 514.485C423.39 516.363 420.843 517.419 418.188 517.422ZM173.326 63.4266C171.26 63.429 169.28 64.2505 167.819 65.7107C166.359 67.1709 165.537 69.1507 165.535 71.2157V507.407C165.537 509.472 166.359 511.452 167.819 512.912C169.28 514.372 171.26 515.194 173.326 515.196H418.188C420.253 515.194 422.234 514.372 423.694 512.912C425.155 511.452 425.976 509.472 425.979 507.407V71.2157C425.976 69.1507 425.155 67.1709 423.694 65.7107C422.234 64.2505 420.253 63.429 418.188 63.4266H173.326Z" fill="#3F3D56"/>
<path d="M467.718 114.612C466.39 114.61 465.117 114.082 464.178 113.143C463.239 112.205 462.71 110.932 462.709 109.604V88.4624C462.709 87.1344 463.237 85.8607 464.176 84.9217C465.115 83.9826 466.389 83.4551 467.718 83.4551C469.046 83.4551 470.32 83.9826 471.259 84.9217C472.198 85.8607 472.726 87.1344 472.726 88.4624V109.604C472.725 110.932 472.196 112.205 471.257 113.143C470.319 114.082 469.045 114.61 467.718 114.612ZM467.718 85.6805C466.98 85.6813 466.273 85.9747 465.751 86.4962C465.229 87.0177 464.936 87.7248 464.935 88.4624V109.604C464.935 110.342 465.228 111.05 465.75 111.571C466.272 112.093 466.98 112.386 467.718 112.386C468.455 112.386 469.163 112.093 469.685 111.571C470.207 111.05 470.5 110.342 470.5 109.604V88.4624C470.499 87.7248 470.206 87.0177 469.684 86.4962C469.163 85.9747 468.455 85.6813 467.718 85.6805Z" fill="#3F3D56"/>
<path d="M467.718 149.106C466.39 149.104 465.117 148.576 464.178 147.638C463.239 146.699 462.71 145.426 462.709 144.098V122.957C462.709 121.628 463.237 120.355 464.176 119.416C465.115 118.477 466.389 117.949 467.718 117.949C469.046 117.949 470.32 118.477 471.259 119.416C472.198 120.355 472.726 121.628 472.726 122.957V144.098C472.725 145.426 472.196 146.699 471.257 147.638C470.319 148.576 469.045 149.104 467.718 149.106ZM467.718 120.175C466.98 120.175 466.273 120.469 465.751 120.99C465.229 121.512 464.936 122.219 464.935 122.957V144.098C464.935 144.836 465.228 145.544 465.75 146.066C466.272 146.587 466.98 146.88 467.718 146.88C468.455 146.88 469.163 146.587 469.685 146.066C470.207 145.544 470.5 144.836 470.5 144.098V122.957C470.499 122.219 470.206 121.512 469.684 120.99C469.163 120.469 468.455 120.175 467.718 120.175Z" fill="#3F3D56"/>
<path d="M379.233 235.907H212.282C210.51 235.907 208.812 235.204 207.559 233.952C206.307 232.7 205.604 231.002 205.604 229.231C205.604 227.46 206.307 225.762 207.559 224.51C208.812 223.258 210.51 222.555 212.282 222.555H379.233C381.004 222.555 382.703 223.258 383.955 224.51C385.207 225.762 385.911 227.46 385.911 229.231C385.911 231.002 385.207 232.7 383.955 233.952C382.703 235.204 381.004 235.907 379.233 235.907Z" fill="#CCCCCC"/>
<path d="M379.233 265.952H212.282C210.51 265.952 208.812 265.249 207.559 263.997C206.307 262.745 205.604 261.047 205.604 259.276C205.604 257.505 206.307 255.807 207.559 254.555C208.812 253.303 210.51 252.6 212.282 252.6H379.233C381.004 252.6 382.703 253.303 383.955 254.555C385.207 255.807 385.911 257.505 385.911 259.276C385.911 261.047 385.207 262.745 383.955 263.997C382.703 265.249 381.004 265.952 379.233 265.952Z" fill="#CCCCCC"/>
<path d="M379.233 295.995H212.282C210.51 295.995 208.812 295.292 207.559 294.04C206.307 292.788 205.604 291.09 205.604 289.319C205.604 287.548 206.307 285.85 207.559 284.598C208.812 283.346 210.51 282.643 212.282 282.643H379.233C381.004 282.643 382.703 283.346 383.955 284.598C385.207 285.85 385.911 287.548 385.911 289.319C385.911 291.09 385.207 292.788 383.955 294.04C382.703 295.292 381.004 295.995 379.233 295.995Z" fill="#CCCCCC"/>
<path d="M319.802 205.865H265.815C262.568 205.865 259.454 204.575 257.158 202.28C254.862 199.984 253.572 196.871 253.572 193.625C253.572 190.379 254.862 187.265 257.158 184.97C259.454 182.674 262.568 181.385 265.815 181.385H319.802C323.049 181.385 326.163 182.674 328.459 184.97C330.755 187.265 332.045 190.379 332.045 193.625C332.045 196.871 330.755 199.984 328.459 202.28C326.163 204.575 323.049 205.865 319.802 205.865Z" fill="#7D23E0"/>
<path d="M244.519 397.238C239.723 397.238 235.034 395.816 231.047 393.152C227.059 390.488 223.951 386.702 222.115 382.272C220.28 377.843 219.8 372.968 220.735 368.265C221.671 363.563 223.981 359.243 227.372 355.853C230.763 352.462 235.084 350.153 239.788 349.218C244.492 348.282 249.367 348.762 253.798 350.597C258.229 352.432 262.016 355.54 264.681 359.526C267.345 363.513 268.768 368.2 268.768 372.995C268.76 379.422 266.203 385.584 261.657 390.129C257.111 394.674 250.948 397.231 244.519 397.238ZM244.519 351.304C240.227 351.304 236.033 352.576 232.465 354.959C228.897 357.343 226.116 360.731 224.474 364.694C222.831 368.658 222.402 373.019 223.239 377.227C224.076 381.434 226.142 385.299 229.177 388.333C232.211 391.366 236.077 393.432 240.286 394.269C244.494 395.106 248.857 394.677 252.821 393.035C256.786 391.393 260.175 388.613 262.559 385.046C264.943 381.479 266.215 377.285 266.215 372.995C266.215 370.146 265.654 367.326 264.564 364.694C263.473 362.062 261.875 359.671 259.86 357.657C257.846 355.643 255.454 354.045 252.821 352.955C250.189 351.865 247.368 351.304 244.519 351.304Z" fill="#3F3D56"/>
<path d="M244.56 381.386C244.195 381.386 243.833 381.314 243.496 381.174C243.159 381.034 242.852 380.828 242.594 380.57L233.684 371.661C233.426 371.403 233.221 371.097 233.081 370.759C232.941 370.422 232.869 370.06 232.869 369.695C232.869 369.329 232.941 368.967 233.081 368.63C233.221 368.293 233.426 367.986 233.685 367.728L234.146 367.266C234.668 366.746 235.376 366.453 236.113 366.453C236.851 366.453 237.558 366.746 238.081 367.266L242.7 371.883C242.872 372.055 243.08 372.188 243.308 372.271C243.537 372.354 243.781 372.387 244.024 372.366C244.267 372.345 244.502 372.271 244.713 372.15C244.924 372.029 245.106 371.863 245.246 371.664L264.943 343.678C265.368 343.075 266.015 342.666 266.742 342.539C267.469 342.413 268.217 342.58 268.82 343.004L269.356 343.381C269.655 343.592 269.909 343.859 270.105 344.167C270.3 344.476 270.433 344.82 270.496 345.18C270.558 345.54 270.549 345.909 270.469 346.265C270.389 346.622 270.24 346.959 270.029 347.257L246.837 380.205C246.604 380.537 246.301 380.814 245.949 381.016C245.597 381.218 245.205 381.341 244.8 381.375C244.72 381.383 244.64 381.386 244.56 381.386Z" fill="#7D23E0"/>
<path d="M340.239 397.238C335.443 397.238 330.755 395.816 326.767 393.152C322.779 390.488 319.671 386.702 317.836 382.272C316.001 377.843 315.521 372.968 316.456 368.265C317.392 363.563 319.701 359.243 323.093 355.853C326.484 352.462 330.805 350.153 335.509 349.218C340.212 348.282 345.088 348.762 349.519 350.597C353.95 352.432 357.737 355.54 360.402 359.526C363.066 363.513 364.488 368.2 364.488 372.995C364.481 379.422 361.924 385.584 357.378 390.129C352.832 394.674 346.668 397.231 340.239 397.238ZM340.239 351.304C335.948 351.304 331.753 352.576 328.185 354.959C324.617 357.343 321.836 360.731 320.194 364.694C318.552 368.658 318.122 373.019 318.96 377.227C319.797 381.434 321.863 385.299 324.898 388.333C327.932 391.366 331.798 393.432 336.006 394.269C340.215 395.106 344.578 394.677 348.542 393.035C352.507 391.393 355.895 388.613 358.279 385.046C360.663 381.479 361.936 377.285 361.936 372.995C361.936 370.146 361.375 367.326 360.284 364.694C359.194 362.062 357.596 359.671 355.581 357.657C353.566 355.643 351.175 354.045 348.542 352.955C345.91 351.865 343.089 351.304 340.239 351.304Z" fill="#3F3D56"/>
<path d="M348.008 384.082H348.004C347.638 384.082 347.276 384.01 346.939 383.87C346.601 383.729 346.295 383.523 346.038 383.264L341.421 378.636C341.102 378.331 340.679 378.161 340.238 378.161C339.798 378.16 339.374 378.33 339.056 378.634L334.439 383.265C334.181 383.524 333.875 383.73 333.537 383.87C333.2 384.01 332.838 384.082 332.472 384.082H332.468C332.103 384.083 331.742 384.012 331.404 383.872C331.067 383.733 330.761 383.528 330.503 383.269L330.042 382.81C329.521 382.289 329.227 381.582 329.226 380.845C329.225 380.108 329.516 379.4 330.036 378.877L334.673 374.225C334.985 373.912 335.159 373.488 335.159 373.047C335.159 372.605 334.984 372.182 334.673 371.869L329.93 367.109C329.41 366.587 329.118 365.879 329.119 365.142C329.12 364.405 329.414 363.698 329.935 363.177L330.398 362.716C330.655 362.458 330.961 362.253 331.298 362.114C331.635 361.974 331.997 361.903 332.362 361.904H332.366C332.732 361.904 333.094 361.976 333.431 362.116C333.769 362.257 334.075 362.463 334.332 362.723L339.056 367.459C339.375 367.763 339.798 367.933 340.238 367.933C340.679 367.933 341.102 367.763 341.421 367.459L346.144 362.723C346.402 362.463 346.708 362.257 347.045 362.116C347.383 361.976 347.745 361.904 348.111 361.904H348.115C348.48 361.903 348.841 361.975 349.179 362.114C349.516 362.254 349.822 362.459 350.079 362.717L350.541 363.177C351.063 363.698 351.356 364.405 351.357 365.142C351.358 365.879 351.067 366.587 350.547 367.109L345.803 371.868C345.492 372.181 345.317 372.605 345.317 373.046C345.317 373.488 345.492 373.911 345.803 374.225L350.44 378.877C350.96 379.399 351.252 380.107 351.251 380.844C351.25 381.581 350.956 382.288 350.435 382.809L349.972 383.27C349.715 383.528 349.409 383.733 349.072 383.873C348.735 384.012 348.373 384.083 348.008 384.082Z" fill="#CCCCCC"/>
<path d="M669.434 543.573H683.663L690.436 488.701H669.434V543.573Z" fill="#A0616A"/>
<path d="M711.105 556.783H666.384V539.509H694.066C696.304 539.509 698.52 539.949 700.587 540.806C702.654 541.662 704.533 542.916 706.115 544.498C707.697 546.08 708.952 547.958 709.808 550.025C710.665 552.092 711.105 554.307 711.105 556.544V556.783Z" fill="#2F2E41"/>
<path d="M674.435 458.547L664.619 468.847L620.209 435.901L634.695 420.699L674.435 458.547Z" fill="#A0616A"/>
<path d="M654.501 473.576L673.594 453.538L686.105 465.452L655.259 497.825L655.085 497.66C651.813 494.544 649.913 490.256 649.804 485.739C649.694 481.222 651.384 476.847 654.501 473.576Z" fill="#2F2E41"/>
<path d="M773.481 308.215C774.382 306.766 774.954 305.138 775.158 303.444C775.361 301.751 775.191 300.033 774.658 298.412C774.126 296.792 773.245 295.307 772.077 294.064C770.908 292.821 769.482 291.848 767.897 291.216L712.029 148.865L690.252 161.901L752.314 298.464C751.427 301.196 751.574 304.158 752.726 306.789C753.879 309.42 755.956 311.537 758.565 312.739C761.174 313.941 764.134 314.144 766.883 313.311C769.632 312.477 771.979 310.664 773.481 308.215Z" fill="#A0616A"/>
<path d="M561.425 318.418C563.127 318.296 564.782 317.803 566.272 316.973C567.763 316.142 569.053 314.995 570.053 313.613C571.052 312.23 571.736 310.645 572.056 308.97C572.377 307.294 572.325 305.569 571.907 303.915L654.326 175.098L630.982 165.135L556.886 295.564C554.154 296.452 551.842 298.31 550.389 300.788C548.936 303.266 548.443 306.19 549.002 309.007C549.562 311.824 551.135 314.338 553.425 316.072C555.715 317.807 558.561 318.641 561.425 318.418Z" fill="#A0616A"/>
<path d="M711.479 293.96L696.89 510.727L662.026 507.652L654.849 347.728L635.366 416.413L593.324 419.489L609.964 283.709L711.479 293.96Z" fill="#2F2E41"/>
<path d="M629.212 406.162L635.365 416.414L678.432 446.143L647.67 462.545C647.67 462.545 588.196 429.741 593.323 419.489L629.212 406.162Z" fill="#2F2E41"/>
<path d="M742.008 206.257L729.872 172.063C727.172 164.456 722.989 157.46 717.567 151.479C712.144 145.499 705.589 140.653 698.281 137.222C681.855 131.171 663.989 130.194 647 134.415C645.605 134.762 644.132 135.127 642.583 135.511C630.807 138.366 619.773 143.695 610.215 151.143C602.737 157.037 596.008 164.5 595.41 172.527C595.406 172.545 595.4 172.56 595.395 172.577C593.324 181.654 592.299 228.811 592.299 228.811H610.57L607.68 292.37L607.914 291.91C607.914 291.91 713.297 311.848 713.297 301.596V235.987L715.457 212.23L742.008 206.257Z" fill="#7A81DC"/>
<path d="M643.643 125.534C659.772 125.534 672.848 112.462 672.848 96.3374C672.848 80.2125 659.772 67.1406 643.643 67.1406C627.515 67.1406 614.439 80.2125 614.439 96.3374C614.439 112.462 627.515 125.534 643.643 125.534Z" fill="#A0616A"/>
<path d="M641.152 84.2287L616.594 84.1508C613.741 84.1417 610.626 84.0409 608.452 82.1931C605.179 79.4099 605.727 74.1586 607.48 70.2362C612.362 59.3136 624.48 52.377 636.441 52.6982C648.403 53.0194 659.729 60.0979 666.174 70.1779C672.618 80.2579 674.359 92.9886 671.932 104.703C669.126 98.7466 664.806 93.6301 659.404 89.8643C654.002 86.0984 647.706 83.8151 641.146 83.2421L641.152 84.2287Z" fill="#2F2E41"/>
</svg>
