<svg width="793" height="579" viewBox="0 0 793 579" fill="none" xmlns="http://www.w3.org/2000/svg">
<path d="M555.637 20.2476C555.637 20.2476 553.594 22.587 557.095 27.1135C560.596 31.64 557.769 41.4619 551.117 41.7121C544.466 41.9623 541.24 44.7455 542.844 48.4117C544.447 52.0779 546.374 60.7894 539.131 59.4648C531.887 58.1402 529.598 61.0212 530.88 63.2355C532.163 65.4498 527.65 58.832 527.65 58.832C527.65 58.832 523.614 64.8398 518.659 60.6342C513.705 56.4286 511.735 18.3057 521.835 17.6596C531.936 17.0134 555.637 20.2476 555.637 20.2476Z" fill="#2F2E41"/>
<path d="M504.434 201.542L502.132 217.637H491.775L495.227 199.242L504.434 201.542Z" fill="#9F616A"/>
<path d="M490.624 207.867C490.624 207.867 476.814 220.514 480.266 221.664C483.719 222.814 496.378 236.61 498.68 237.76C500.738 238.788 522.847 245.808 519.395 237.76C515.942 229.712 507.886 225.113 507.886 225.113L505.585 211.316L490.624 207.867Z" fill="#F2F2F2"/>
<path opacity="0.1" d="M490.624 207.867C490.624 207.867 476.814 220.514 480.266 221.664C483.719 222.814 496.378 236.61 498.68 237.76C500.738 238.788 522.847 245.808 519.395 237.76C515.942 229.712 507.886 225.113 507.886 225.113L505.585 211.316L490.624 207.867Z" fill="black"/>
<path d="M490.623 189.471L488.321 205.568H477.964L481.416 187.172L490.623 189.471Z" fill="#9F616A"/>
<path d="M533.902 146.744L518.819 96.9184C518.819 96.9184 544.137 73.9238 526.875 67.0255C509.613 60.1271 505.009 94.6189 505.009 94.6189L510.763 154.405H533.78L533.902 146.744Z" fill="#FFB8B8"/>
<path d="M498.679 110.141C498.679 110.141 528.423 148.253 523.909 153.916C519.394 159.579 511.338 194.071 511.338 194.071C511.338 194.071 512.489 207.867 507.886 207.867C503.283 207.867 491.774 205.568 491.774 202.119C491.774 198.67 502.132 154.98 502.132 154.98L472.21 115.889L498.679 110.141Z" fill="#7A81DC"/>
<path d="M496.377 112.44L466.456 96.3438C466.456 96.3438 445.741 106.691 451.495 115.889C457.249 125.087 483.718 149.231 483.718 149.231C483.718 149.231 475.662 188.322 476.813 189.472C477.964 190.621 490.623 195.22 494.076 194.071C497.528 192.921 515.941 148.081 511.338 145.782C506.735 143.483 491.774 119.338 491.774 119.338L496.377 112.44Z" fill="#7A81DC"/>
<path d="M578.086 534.391C578.086 534.391 557.371 547.038 555.069 547.038C552.768 547.038 521.695 555.086 535.505 560.834C549.315 566.583 602.253 558.535 601.103 555.086C599.952 551.637 601.103 530.941 598.801 530.941C596.499 530.941 578.086 534.391 578.086 534.391Z" fill="#2F2E41"/>
<path d="M555.07 550.484C555.07 550.484 534.355 563.131 532.054 563.131C529.752 563.131 498.68 571.179 512.49 576.928C526.3 582.677 579.238 574.629 578.087 571.179C576.936 567.73 578.087 547.035 575.785 547.035C573.484 547.035 555.07 550.484 555.07 550.484Z" fill="#2F2E41"/>
<path d="M576.936 306.742C576.936 306.742 573.484 323.988 567.729 336.635C561.975 349.282 568.88 409.068 572.333 418.266C575.785 427.463 609.159 536.688 598.802 537.837C588.444 538.987 567.729 537.837 567.729 537.837L534.355 433.212L540.11 292.945L576.936 306.742Z" fill="#575A88"/>
<path opacity="0.1" d="M576.936 306.742C576.936 306.742 573.484 323.988 567.729 336.635C561.975 349.282 568.88 409.068 572.333 418.266C575.785 427.463 609.159 536.688 598.802 537.837C588.444 538.987 567.729 537.837 567.729 537.837L534.355 433.212L540.11 292.945L576.936 306.742Z" fill="black"/>
<path d="M570.031 307.891C570.031 307.891 565.428 338.934 555.07 345.832C544.713 352.731 548.165 359.629 548.165 359.629L552.769 420.565C552.769 420.565 597.651 530.939 583.841 544.735C570.031 558.532 557.372 552.783 551.618 551.634C545.864 550.484 535.506 526.34 541.26 519.441C547.015 512.543 529.752 471.153 525.149 464.254C520.546 457.356 525.149 448.158 519.395 445.859C513.641 443.559 500.981 428.613 500.981 418.265C500.981 407.918 484.87 297.544 495.227 290.646C505.585 283.747 571.975 304.883 571.975 304.883L570.031 307.891Z" fill="#575A88"/>
<path d="M591.897 146.932C577.914 146.932 566.578 135.607 566.578 121.638C566.578 107.668 577.914 96.3438 591.897 96.3438C605.879 96.3438 617.215 107.668 617.215 121.638C617.215 135.607 605.879 146.932 591.897 146.932Z" fill="#FFB8B8"/>
<path d="M534.355 50.355C522.915 50.355 513.64 41.0895 513.64 29.6599C513.64 18.2304 522.915 8.96484 534.355 8.96484C545.796 8.96484 555.07 18.2304 555.07 29.6599C555.07 41.0895 545.796 50.355 534.355 50.355Z" fill="#9F616A"/>
<path d="M574.635 121.637C574.635 121.637 560.825 146.931 553.92 146.931C547.015 146.931 581.54 173.374 581.54 173.374C581.54 173.374 593.048 140.032 595.35 138.883C597.652 137.733 574.635 121.637 574.635 121.637Z" fill="#FFB8B8"/>
<path d="M570.031 144.633C570.031 144.633 599.953 154.98 598.802 158.429C597.651 161.879 606.858 169.927 606.858 173.376C606.858 176.825 609.16 207.868 595.35 233.162C581.54 258.456 559.674 276.851 570.031 288.349C580.389 299.846 596.501 319.391 579.238 319.391C561.976 319.391 534.356 294.097 509.037 303.295C483.719 312.493 489.473 278.001 489.473 278.001C489.473 278.001 486.021 251.557 492.926 243.509C499.831 235.461 523.998 177.975 523.998 171.076C523.998 164.178 547.015 137.734 552.769 137.734C558.523 137.734 570.031 144.633 570.031 144.633Z" fill="#8985A8"/>
<path d="M528.602 42.3071C528.602 42.3071 519.23 60.1077 518.737 63.2795C518.244 66.4514 502.132 42.3071 502.132 42.3071L520.546 29.6602L528.602 42.3071Z" fill="#9F616A"/>
<path d="M525.148 56.1013L505.584 35.4062L482.567 45.7538C482.567 45.7538 461.101 92.8926 459.75 96.3418C458.399 99.791 494.075 115.887 497.528 115.887C500.98 115.887 525.148 80.2456 525.148 80.2456C525.148 80.2456 530.902 62.9997 525.148 56.1013Z" fill="#F2F2F2"/>
<path d="M534.355 83.6953V104.391H520.545L525.088 83.6953H534.355Z" fill="#9F616A"/>
<path d="M526.475 99.2156C528.221 99.192 529.931 99.7005 531.38 100.673C532.828 101.646 533.946 103.037 534.583 104.66C535.482 107.091 535.177 109.645 530.902 110.713C521.696 113.012 520.545 110.713 520.545 110.713C520.545 110.713 504.563 108.413 507.95 103.815C511.338 99.2156 520.545 99.2156 520.545 99.2156H526.475Z" fill="#9F616A"/>
<path d="M476.813 198.668C476.813 198.668 463.003 211.315 466.456 212.465C469.908 213.614 482.567 227.411 484.869 228.561C486.928 229.589 509.036 236.609 505.584 228.561C502.131 220.513 494.076 215.914 494.076 215.914L491.774 202.117L476.813 198.668Z" fill="#F2F2F2"/>
<path d="M600.918 102.166C599.334 101.238 597.463 100.083 597.418 98.2498C597.459 97.5761 597.696 96.9291 598.1 96.3882C598.504 95.8473 599.058 95.436 599.693 95.2049C600.97 94.7648 602.321 94.5827 603.67 94.6695C604.187 94.6431 604.705 94.6944 605.207 94.8217C606.518 95.2257 607.273 96.5554 608.306 97.4578C609.805 98.7681 611.87 99.1535 613.798 99.6528C617.029 100.49 620.127 101.773 623.004 103.464C623.572 103.751 624.069 104.16 624.461 104.662C624.913 105.585 625.115 106.611 625.046 107.637C625.306 111.538 627.647 114.934 629.394 118.432C631.142 121.93 632.29 126.287 630.239 129.617C629.425 130.653 628.665 131.73 627.963 132.845C626.509 135.871 628.323 139.597 627.273 142.786C626.803 144.041 626.049 145.171 625.07 146.087C623.049 148.12 620.558 149.626 617.818 150.473C615.203 151.277 611.958 151.813 610.934 154.348C610.495 155.436 610.584 156.717 609.964 157.713C609.197 158.947 607.613 159.345 606.183 159.608C604.578 159.975 602.926 160.094 601.285 159.962C600.464 159.892 599.666 159.655 598.94 159.266C598.213 158.878 597.574 158.346 597.059 157.703C596.595 156.795 596.021 155.949 595.348 155.182C593.682 153.791 591.151 154.89 589.011 154.521C588.144 154.358 587.341 153.95 586.698 153.347C586.055 152.744 585.597 151.969 585.379 151.115C585.32 150.205 585.069 149.318 584.642 148.512C583.313 146.813 579.816 148.013 578.938 146.043C578.368 144.763 579.561 143.41 580.714 142.613C582.595 141.313 584.698 140.314 586.384 138.771C588.071 137.228 589.319 134.92 588.791 132.697C587.999 129.363 583.642 127.528 583.498 124.105C583.415 122.144 584.826 120.423 586.405 119.255C587.984 118.087 589.814 117.248 591.226 115.883C592.257 114.885 593.036 113.633 594.157 112.737C596.186 111.117 598.961 110.92 601.545 110.655C602.93 110.513 608.458 109.874 608.241 107.765C608.06 106.013 602.324 102.989 600.918 102.166Z" fill="#2F2E41"/>
<path d="M525.149 54.9531C525.149 54.9531 537.808 59.552 537.808 65.3007C537.808 71.0493 543.562 89.445 537.808 89.445C532.054 89.445 520.545 85.0316 520.545 85.0316L525.149 54.9531Z" fill="#F2F2F2"/>
<path d="M528.601 137.735C528.601 137.735 495.227 126.237 494.076 126.237C492.925 126.237 476.813 117.04 477.964 113.59L482.568 84.8473C482.568 84.8473 500.981 46.9062 488.322 46.9062C475.663 46.9062 468.758 76.7992 468.758 76.7992C468.758 76.7992 441.138 128.537 456.098 140.034C471.059 151.531 533.204 172.227 536.657 168.777C540.109 165.328 528.601 137.735 528.601 137.735Z" fill="#FFB8B8"/>
<path d="M496.377 63.0003L488.609 70.479L498.679 80.2462C498.679 80.2462 512.489 74.4976 511.338 77.9467C510.187 81.3959 503.282 91.7435 498.679 91.7435C494.076 91.7435 470.117 76.797 470.013 72.1981C469.908 67.5992 484.869 51.503 488.321 50.3532C491.774 49.2035 496.377 63.0003 496.377 63.0003Z" fill="#9F616A"/>
<path d="M510.984 54.9878C510.984 54.9878 494.076 69.9004 491.774 69.9004C489.473 69.9004 485.287 47.4947 485.287 47.4947C485.287 47.4947 498.929 38.6143 503.983 41.0355C509.037 43.4566 510.984 54.9878 510.984 54.9878Z" fill="#F2F2F2"/>
<path d="M570.031 151.53C570.031 151.53 570.031 135.434 535.506 135.434H520.546L527.451 173.375L550.467 180.273L570.031 151.53Z" fill="#8985A8"/>
<path d="M494.616 21.2711C498 21.2548 501.38 21.0465 504.739 20.6473C507.378 14.2767 510.739 8.93118 514.375 6.93823C516.955 4.63165 520.934 2.95542 524.057 1.63011C531.725 -1.62439 544.49 0.405524 545.236 4.10686C560.325 11.3097 556.512 23.959 556.512 23.959C554.167 28.91 548.907 26.7157 544.445 24.4736C543.306 28.0626 540.614 31.1085 536.761 31.2534C529.393 31.5306 525.819 34.6138 527.596 38.6752C529.372 42.7367 531.507 52.3872 523.482 50.9198C515.458 49.4524 512.922 52.644 514.342 55.097C515.763 57.55 510.764 50.2188 510.764 50.2188C510.764 50.2188 506.293 56.8742 500.804 52.2153C500.249 51.6812 499.853 51.0038 499.661 50.2584C497.108 51.3558 495.087 51.7724 493.939 51.2593C487.365 48.3207 491.448 41.4203 491.448 41.4203C491.448 41.4203 482.671 40.0753 485.499 40.2983C488.327 40.5212 490.116 36.859 485.331 30.2583C480.546 23.6576 490.182 21.4209 494.616 21.2711Z" fill="#2F2E41"/>
<path d="M539.138 16.0969L542.414 15.0078L545.685 24.826L542.409 25.9151L539.138 16.0969Z" fill="#7D23E0"/>
<path d="M316.887 332.496H327.309V575.441H316.887V332.496Z" fill="#381E1D"/>
<path d="M327.309 332.497C327.309 332.497 309.591 310.284 295.001 339.091C295.001 339.091 301.949 351.932 304.033 345.685C306.117 339.438 311.11 330.098 316.951 335.636" fill="#381E1D"/>
<path d="M328.876 290.062C328.876 290.062 302.662 315.844 315.571 337.62C315.97 338.294 316.519 338.867 317.174 339.297C317.829 339.728 318.573 340.003 319.351 340.102C320.128 340.202 320.918 340.123 321.661 339.871C322.403 339.619 323.078 339.202 323.635 338.651C328.085 334.254 335.122 323.332 343.766 296.309L328.876 290.062Z" fill="#FDA57D"/>
<path opacity="0.1" d="M347.283 154.279C347.283 154.279 320.186 162.609 325.397 195.233C330.608 227.857 328.523 250.763 328.523 250.763L321.575 292.411L334.082 309.417C334.082 309.417 355.62 287.899 362.916 266.034C370.211 244.169 369.516 157.75 347.283 154.279Z" fill="black"/>
<path d="M347.632 153.932C347.632 153.932 320.535 162.261 325.746 194.885C330.957 227.509 328.873 250.416 328.873 250.416L321.925 292.063L334.431 309.07C334.431 309.07 355.97 287.552 363.265 265.687C370.561 243.821 369.866 157.402 347.632 153.932Z" fill="#7D23E0"/>
<path d="M379.406 525.438L383.848 558.672C383.848 558.672 372.445 563.336 369.027 562.281C365.61 561.225 359.621 565.514 359.621 565.514C359.621 565.514 334.14 573.557 329.136 566.33C324.132 559.104 335.482 556.894 344.691 551.446C353.9 545.999 357.794 524.973 357.794 524.973L379.406 525.438Z" fill="black"/>
<path d="M330.782 290.852V413.712L354.405 531.02H379.418L375.596 418.571C375.596 418.571 401.651 327.64 390.187 293.628L330.782 290.852Z" fill="#333333"/>
<path d="M350.053 306.352C350.053 306.352 313.631 311.502 311.046 336.679C310.966 337.458 311.065 338.245 311.336 338.98C311.606 339.715 312.041 340.379 312.607 340.92C313.173 341.462 313.855 341.868 314.602 342.107C315.348 342.346 316.139 342.411 316.915 342.299C323.11 341.408 335.269 336.809 358.305 320.22L350.053 306.352Z" fill="#FDA57D"/>
<path d="M345.546 148.38C345.546 148.38 351.452 158.445 349.02 175.798C349.02 175.798 383.933 172.848 382.891 152.719C382.891 152.719 365.869 148.554 361.874 133.109L345.546 148.38Z" fill="#FDA57D"/>
<path d="M403.726 532.726L408.168 565.96C408.168 565.96 396.765 570.623 393.348 569.568C389.931 568.512 383.941 572.802 383.941 572.802C383.941 572.802 358.46 580.844 353.456 573.617C348.452 566.391 359.803 564.181 369.011 558.733C378.22 553.286 382.114 532.26 382.114 532.26L403.726 532.726Z" fill="black"/>
<path opacity="0.1" d="M357.01 300.395V423.255L380.633 540.563H405.646L401.825 428.114C401.825 428.114 427.88 337.183 416.416 303.171L357.01 300.395Z" fill="black"/>
<path d="M358.053 300.395V423.255L381.677 540.563H406.689L402.868 428.114C402.868 428.114 428.923 337.183 417.458 303.171L358.053 300.395Z" fill="#333333"/>
<path opacity="0.1" d="M370.559 154.625C370.559 154.625 392.445 140.396 407.035 182.738C421.626 225.079 415.72 303.169 415.72 303.169C415.72 303.169 353.536 323.299 331.303 295.187V253.192C331.303 253.192 319.491 205.297 336.166 163.649C336.166 163.649 350.757 169.549 370.559 154.625Z" fill="black"/>
<path opacity="0.1" d="M371.254 155.666C371.254 155.666 393.14 141.437 407.731 183.779C422.321 226.12 416.416 304.21 416.416 304.21C416.416 304.21 354.231 324.34 331.998 296.228V254.233C331.998 254.233 320.186 206.338 336.862 164.69C336.862 164.69 351.452 170.59 371.254 155.666Z" fill="black"/>
<path d="M371.254 154.625C371.254 154.625 393.14 140.396 407.731 182.738C422.321 225.079 416.416 303.169 416.416 303.169C416.416 303.169 354.231 323.299 331.998 295.187V253.192C331.998 253.192 320.186 205.297 336.862 163.649C336.862 163.649 351.452 169.549 371.254 154.625Z" fill="#7D23E0"/>
<path opacity="0.1" d="M393.488 175.797C393.488 175.797 366.391 184.126 371.602 216.751C376.813 249.375 374.728 272.281 374.728 272.281L339.988 307.334L352.495 324.341C352.495 324.341 401.825 309.417 409.121 287.552C416.416 265.687 415.721 179.268 393.488 175.797Z" fill="black"/>
<path opacity="0.1" d="M395.226 176.84C395.226 176.84 368.129 185.169 373.34 217.794C378.551 250.418 376.467 273.324 376.467 273.324L341.727 308.377L354.233 325.384C354.233 325.384 403.564 310.46 410.859 288.595C418.154 266.73 417.46 180.31 395.226 176.84Z" fill="black"/>
<path d="M394.529 175.797C394.529 175.797 367.432 184.126 372.643 216.751C377.854 249.375 375.769 272.281 375.769 272.281L341.03 307.334L353.536 324.341C353.536 324.341 402.866 309.417 410.162 287.552C417.457 265.687 416.762 179.268 394.529 175.797Z" fill="#7D23E0"/>
<path opacity="0.1" d="M362.397 134.322L346.069 149.593C346.336 150.073 346.578 150.567 346.795 151.072C349.165 151.703 351.607 152.023 354.059 152.023C360.295 152.023 365.722 148.858 370.387 145.428C367.126 142.485 364.329 139.632 362.397 134.322Z" fill="black"/>
<path d="M358.226 137.793C342.685 137.793 330.087 125.207 330.087 109.681C330.087 94.1546 342.685 81.5684 358.226 81.5684C373.767 81.5684 386.365 94.1546 386.365 109.681C386.365 125.207 373.767 137.793 358.226 137.793Z" fill="#E0E0E0"/>
<path d="M353.539 150.81C337.998 150.81 325.399 138.224 325.399 122.698C325.399 107.172 337.998 94.5859 353.539 94.5859C369.079 94.5859 381.678 107.172 381.678 122.698C381.678 138.224 369.079 150.81 353.539 150.81Z" fill="#FDA57D"/>
<path d="M381.504 109.684C381.504 109.684 392.041 137.248 369.75 145.678C367.894 144.731 366.289 143.358 365.067 141.671C363.845 139.985 363.04 138.033 362.719 135.975C362.398 133.918 362.57 131.814 363.22 129.836C363.871 127.858 364.981 126.062 366.461 124.595L381.504 109.684Z" fill="#E0E0E0"/>
<path d="M330.769 103.509C330.769 103.509 321.055 105.862 338.077 111.762C340.879 112.702 343.458 114.207 345.652 116.185C347.847 118.163 349.61 120.571 350.833 123.259C351.595 124.898 352.686 126.364 354.037 127.565C355.389 128.767 356.973 129.679 358.691 130.245C360.409 130.811 362.225 131.019 364.027 130.856C365.829 130.694 367.579 130.163 369.167 129.299L374.554 126.339L383.934 104.474L372.817 91.6326L353.71 89.2031L330.769 103.509Z" fill="#E0E0E0"/>
<path d="M361.006 136.751C359.471 136.751 358.227 134.576 358.227 131.892C358.227 129.209 359.471 127.033 361.006 127.033C362.541 127.033 363.785 129.209 363.785 131.892C363.785 134.576 362.541 136.751 361.006 136.751Z" fill="#FDA57D"/>
<path d="M370.559 154.627C370.559 154.627 351.625 184.301 340.856 184.301C330.087 184.301 348.409 156.476 348.409 156.476L348.846 164.171L370.559 154.627Z" fill="#333333"/>
<path d="M188.65 97.7578C188.65 97.7578 187.276 102.332 195.06 106.449C202.844 110.566 205.133 126.119 195.976 130.694C186.818 135.268 184.071 141.215 188.65 145.332C193.229 149.449 201.47 160.428 190.481 163.172C179.492 165.917 178.118 171.406 181.324 173.693C184.529 175.981 173.997 169.576 173.997 169.576C173.997 169.576 172.166 180.555 162.55 177.81C152.935 175.066 125.92 122.917 139.656 115.598C153.393 108.279 188.65 97.7578 188.65 97.7578Z" fill="#2F2E41"/>
<path d="M153.17 485.57L156.147 513.328L143.247 521.259L131.34 519.276L137.293 485.57H153.17Z" fill="#9F616A"/>
<path d="M163.093 152.48C178.438 152.48 190.877 140.053 190.877 124.723C190.877 109.392 178.438 96.9648 163.093 96.9648C147.748 96.9648 135.309 109.392 135.309 124.723C135.309 140.053 147.748 152.48 163.093 152.48Z" fill="#9F616A"/>
<path d="M172.521 138.102C172.521 138.102 175.002 180.235 177.979 180.235C180.955 180.235 143.248 178.252 143.248 178.252C143.248 178.252 159.125 150.494 151.186 141.572C143.248 132.65 172.521 138.102 172.521 138.102Z" fill="#9F616A"/>
<path d="M131.34 360.66L144.24 410.227L134.316 494.492L157.14 492.508L166.07 360.66H131.34Z" fill="#2F2E41"/>
<path opacity="0.2" d="M131.34 360.66L144.24 410.227L134.316 494.492L157.14 492.508L166.07 360.66H131.34Z" fill="black"/>
<path d="M151.185 508.374C151.185 508.374 152.178 502.426 162.101 508.374C172.024 514.322 213.7 533.158 191.87 537.123C170.039 541.089 125.386 532.166 125.386 529.192C125.386 526.218 124.393 507.383 128.363 509.365C132.332 511.348 145.232 524.236 151.185 508.374Z" fill="#2F2E41"/>
<path d="M138.287 501.433C138.287 501.433 122.41 526.217 121.418 533.156C120.426 540.096 105.541 517.295 105.541 517.295L119.433 491.52L138.287 501.433Z" fill="#9F616A"/>
<path d="M190.878 364.627L173.017 424.108C173.017 424.108 141.263 508.373 139.278 507.381C137.294 506.39 113.479 500.442 112.486 497.468C111.494 494.494 142.255 414.195 142.255 414.195L146.225 362.645L190.878 364.627Z" fill="#2F2E41"/>
<path d="M102.563 513.328C105.272 513.141 107.972 513.805 110.285 515.227C112.598 516.649 114.409 518.758 115.463 521.258C119.432 530.181 124.394 531.172 125.386 532.163C126.378 533.155 122.409 553.973 125.386 555.956C128.363 557.938 131.34 578.757 121.417 578.757C111.494 578.757 95.6169 567.852 96.6092 565.869C97.6015 563.886 97.6015 550.007 94.6246 544.059C91.6477 538.111 86.6862 528.198 94.6246 522.25C102.563 516.302 102.563 513.328 102.563 513.328Z" fill="#2F2E41"/>
<path d="M196.832 272.431L198.817 290.275C198.817 290.275 213.701 305.145 218.663 322.99C223.624 340.834 264.308 370.574 252.401 374.54C240.493 378.505 226.601 380.488 191.87 374.54C157.14 368.592 102.564 381.479 102.564 348.765C102.564 348.765 95.6175 339.843 90.656 352.73C87.1612 361.533 83.1861 370.137 78.7484 378.505C78.7484 378.505 66.8408 357.687 70.81 348.765C74.7792 339.843 70.81 340.834 75.7715 330.921C80.733 321.007 105.541 284.327 115.463 282.345C125.386 280.362 144.24 254.587 143.248 251.613C142.256 248.639 196.832 272.431 196.832 272.431Z" fill="#7A81DC"/>
<path d="M143.247 161.402C143.247 161.402 183.931 170.324 185.916 176.273C187.032 179.618 192.23 185.787 196.565 190.544C203.882 198.457 208.747 208.318 210.57 218.936C211.605 225.26 207.254 230.947 205.266 238.232C199.312 260.041 194.847 254.589 200.8 270.451C206.754 286.312 171.031 292.26 157.139 285.321C143.247 278.381 127.866 237.24 127.866 232.284C127.866 227.327 114.47 171.316 125.386 167.35C136.301 163.385 143.247 161.402 143.247 161.402Z" fill="#F2F2F2"/>
<path d="M199.809 208.984L211.717 261.526L250.912 278.874C250.912 278.874 280.681 271.935 281.674 282.84C282.322 289.959 247.936 292.753 247.936 292.753L190.878 270.448L177.979 221.872L199.809 208.984Z" fill="#9F616A"/>
<path d="M185.915 189.16C185.915 189.16 210.723 204.03 204.769 211.961C198.815 219.892 183.931 232.779 179.962 232.779C175.993 232.779 173.016 208.987 173.016 202.048C173.016 195.108 185.915 189.16 185.915 189.16Z" fill="#F2F2F2"/>
<path d="M161.095 88.6758C161.095 88.6758 159.574 93.7433 168.197 98.3041C176.82 102.865 179.356 120.095 169.211 125.162C159.066 130.23 156.023 136.818 161.095 141.378C166.168 145.939 175.298 158.101 163.124 161.142C150.95 164.182 149.429 170.264 152.979 172.797C156.53 175.331 144.863 168.236 144.863 168.236C144.863 168.236 142.835 180.399 132.182 177.358C121.53 174.318 110.902 119.048 122.776 104.812C133.817 91.5763 161.095 88.6758 161.095 88.6758Z" fill="#2F2E41"/>
<path d="M164.335 83.4611C164.333 76.0369 142.1 81.3716 132.568 91.7374C125.967 98.9157 115.941 109.715 124.342 117.328C132.744 124.94 109.941 134.919 103.826 137.945C97.7104 140.97 85.6359 150.223 96.5383 156.43C107.441 162.637 107.265 168.903 103.162 170.386C99.0588 171.87 112.208 168.181 112.208 168.181C112.208 168.181 110.88 180.439 121.958 180.38C133.036 180.321 164.818 119.497 157.226 102.591C150.166 86.8709 164.335 83.4611 164.335 83.4611Z" fill="#2F2E41"/>
<path d="M159.518 81.8323C189.25 80.0437 192.233 102.402 192.233 102.402C192.028 115.341 171.461 109.036 165.748 110.965C158.857 106.012 145.573 96.641 136.072 89.9531C142.97 85.1011 151.095 82.2868 159.518 81.8323Z" fill="#2F2E41"/>
<path d="M661.046 546.446C661.951 546.487 662.847 546.25 663.613 545.765C664.379 545.28 664.977 544.572 665.327 543.736C665.677 542.9 665.761 541.977 665.568 541.092C665.375 540.206 664.915 539.402 664.249 538.787L663.947 537.583C663.986 537.486 664.026 537.39 664.067 537.294C664.979 535.14 666.507 533.304 668.46 532.016C670.413 530.728 672.703 530.045 675.042 530.054C677.382 530.062 679.667 530.762 681.61 532.065C683.553 533.367 685.067 535.215 685.964 537.375C689.545 545.998 694.104 554.635 695.227 563.752C695.722 567.782 695.513 571.867 694.611 575.826C703.022 557.483 707.39 537.547 707.418 517.369C707.42 512.305 707.139 507.246 706.575 502.214C706.11 498.088 705.464 493.992 704.638 489.926C700.129 467.861 690.45 447.18 676.393 429.582C669.59 425.871 664.089 420.165 660.629 413.232C659.376 410.74 658.491 408.079 658 405.334C658.767 405.434 660.894 393.75 660.315 393.033C661.384 391.411 663.299 390.605 664.467 389.021C670.276 381.148 678.279 382.523 682.457 393.222C691.383 397.725 691.469 405.194 685.993 412.377C682.508 416.946 682.03 423.13 678.972 428.022C679.287 428.425 679.614 428.815 679.929 429.217C685.678 436.608 690.689 444.544 694.89 452.912C693.869 443.538 695.088 434.055 698.448 425.243C701.853 417.031 708.236 410.115 713.856 403.015C720.608 394.488 734.452 398.209 735.641 409.019C735.653 409.124 735.664 409.229 735.675 409.333C734.84 409.804 734.023 410.304 733.223 410.832C732.219 411.503 731.44 412.462 730.99 413.582C730.54 414.703 730.439 415.934 730.7 417.113C730.962 418.292 731.573 419.365 732.455 420.19C733.336 421.016 734.447 421.556 735.641 421.74L735.763 421.759C735.466 424.767 734.94 427.748 734.19 430.676C741.401 458.552 725.834 468.705 703.606 469.161C703.115 469.413 702.637 469.664 702.147 469.904C706.367 481.861 709.015 494.315 710.022 506.955C710.593 514.412 710.559 521.903 709.922 529.354L709.959 529.09C711.57 520.804 715.992 513.328 722.478 507.923C732.111 500.012 745.721 497.099 756.114 490.741C757.218 490.032 758.503 489.653 759.815 489.65C761.128 489.647 762.414 490.019 763.522 490.722C764.63 491.426 765.513 492.432 766.068 493.621C766.623 494.81 766.827 496.133 766.654 497.433C766.64 497.526 766.626 497.618 766.612 497.711C765.062 498.342 763.554 499.068 762.095 499.887C761.26 500.358 760.443 500.857 759.643 501.386C758.639 502.057 757.861 503.015 757.41 504.136C756.96 505.257 756.859 506.487 757.12 507.666C757.382 508.845 757.993 509.918 758.875 510.744C759.756 511.57 760.867 512.11 762.061 512.294L762.183 512.313C762.271 512.325 762.347 512.338 762.435 512.35C759.788 518.669 756.072 524.485 751.452 529.543C746.943 553.878 727.578 556.187 706.865 549.1H706.852C704.579 558.973 701.286 568.583 697.026 577.775H661.925C661.799 577.386 661.686 576.983 661.573 576.593C664.822 576.797 668.084 576.603 671.286 576.015C668.681 572.82 666.077 569.6 663.473 566.406C663.415 566.346 663.36 566.283 663.309 566.217C661.988 564.582 660.654 562.96 659.334 561.325L659.333 561.323C659.262 556.311 659.838 551.311 661.045 546.446L661.046 546.446Z" fill="#D1F3FB"/>
<path d="M5.82014e-06 577C-0.000509177 577.263 0.0331581 577.523 0.0990608 577.766C0.164964 578.009 0.261807 578.23 0.384019 578.416C0.50623 578.602 0.651387 578.749 0.811161 578.849C0.970934 578.95 1.14217 579.001 1.315 579H791.685C792.034 579 792.368 578.789 792.615 578.414C792.862 578.039 793 577.53 793 577C793 576.47 792.862 575.961 792.615 575.586C792.368 575.211 792.034 575 791.685 575H1.315C1.14218 574.999 0.970948 575.05 0.811178 575.151C0.651407 575.251 0.506246 575.398 0.384036 575.584C0.261825 575.77 0.164982 575.991 0.0990777 576.234C0.0331728 576.477 -0.000503311 576.737 5.82014e-06 577Z" fill="#5F5F5F"/>
</svg>
