<svg width="281" height="456" viewBox="0 0 281 456" fill="none" xmlns="http://www.w3.org/2000/svg">
<path d="M137.053 239.915C159.312 239.915 177.356 221.895 177.356 199.666C177.356 177.438 159.312 159.418 137.053 159.418C114.794 159.418 96.75 177.438 96.75 199.666C96.75 221.895 114.794 239.915 137.053 239.915Z" fill="#7A81DC"/>
<path d="M39.0328 297.605C38.179 297.196 37.4509 296.565 36.9251 295.779C36.3994 294.992 36.0952 294.079 36.0445 293.135L35.4582 282.051C35.3859 280.657 35.8703 279.292 36.8051 278.254C37.7398 277.216 39.0486 276.591 40.4442 276.516L132.951 271.636C134.347 271.564 135.715 272.047 136.754 272.981C137.793 273.914 138.418 275.221 138.494 276.615L139.08 287.699C139.152 289.093 138.668 290.458 137.733 291.496C136.798 292.534 135.49 293.159 134.094 293.234L41.5868 298.114C40.7061 298.162 39.8276 297.986 39.0328 297.605Z" fill="#7A81DC"/>
<path d="M102.802 297.824C101.902 297.389 101.144 296.709 100.615 295.861C100.087 295.014 99.8101 294.034 99.8166 293.036L99.707 272.167C99.7121 271.475 99.8536 270.791 100.123 270.154C100.393 269.517 100.786 268.939 101.28 268.454C101.774 267.969 102.358 267.585 103 267.326C103.642 267.066 104.329 266.936 105.022 266.942L147.224 270.657C148.341 270.664 149.751 272.392 150.885 273.78C151.241 274.215 151.548 274.591 151.772 274.819C151.871 274.919 151.964 275.022 152.053 275.128C152.86 276.087 153.296 277.302 153.285 278.555L153.193 289.653C153.179 291.049 152.612 292.382 151.616 293.361C150.619 294.34 149.275 294.884 147.877 294.874L105.077 298.343C104.29 298.34 103.513 298.163 102.802 297.824Z" fill="#2F2E41"/>
<path d="M129.198 455.247H118.084C116.686 455.245 115.346 454.69 114.358 453.703C113.37 452.716 112.814 451.378 112.812 449.982V355.967C112.814 354.572 113.37 353.234 114.358 352.247C115.346 351.26 116.686 350.705 118.084 350.703H129.198C130.596 350.705 131.936 351.26 132.924 352.247C133.912 353.234 134.468 354.572 134.47 355.967V449.982C134.468 451.378 133.912 452.716 132.924 453.703C131.936 454.69 130.596 455.245 129.198 455.247Z" fill="#7A81DC"/>
<path d="M158.513 455.247H147.398C146.001 455.245 144.661 454.69 143.673 453.703C142.684 452.716 142.129 451.378 142.127 449.982V355.967C142.129 354.572 142.684 353.234 143.673 352.247C144.661 351.26 146.001 350.705 147.398 350.703H158.513C159.911 350.705 161.25 351.26 162.239 352.247C163.227 353.234 163.783 354.572 163.784 355.967V449.982C163.783 451.378 163.227 452.716 162.239 453.703C161.25 454.69 159.911 455.245 158.513 455.247Z" fill="#7A81DC"/>
<path d="M142.419 214.589L142.461 213.085C139.66 213.007 137.189 212.831 135.333 211.477C134.807 211.071 134.374 210.557 134.065 209.97C133.755 209.382 133.576 208.735 133.54 208.072C133.507 207.667 133.569 207.26 133.719 206.882C133.87 206.504 134.105 206.167 134.408 205.895C135.64 204.856 137.623 205.192 139.068 205.854L140.314 206.424L137.924 188.984L136.432 189.189L138.465 204.024C137.633 203.715 136.737 203.62 135.858 203.746C134.98 203.872 134.147 204.216 133.436 204.746C132.957 205.163 132.582 205.685 132.339 206.271C132.096 206.858 131.992 207.492 132.035 208.125C132.079 209.015 132.317 209.886 132.734 210.675C133.15 211.464 133.734 212.152 134.445 212.692C136.83 214.432 139.929 214.519 142.419 214.589Z" fill="#2F2E41"/>
<path d="M129.053 190.465H120.941V191.969H129.053V190.465Z" fill="#2F2E41"/>
<path d="M154.656 190.465H146.545V191.969H154.656V190.465Z" fill="#2F2E41"/>
<path d="M182.971 333.708L145.771 259.628H146.296C147.593 259.627 148.838 259.111 149.755 258.195C150.673 257.278 151.189 256.036 151.19 254.74V253.236C151.189 251.94 150.673 250.697 149.755 249.781C148.838 248.865 147.593 248.349 146.296 248.348H129.728C128.431 248.349 127.186 248.865 126.269 249.781C125.351 250.697 124.835 251.94 124.834 253.236V254.74C124.837 255.936 125.281 257.088 126.079 257.979C126.878 258.87 127.976 259.436 129.166 259.571L91.8594 333.749C90.0852 337.277 89.2442 341.199 89.4166 345.143C89.5889 349.087 90.7688 352.921 92.844 356.281C94.9192 359.641 97.8207 362.415 101.272 364.339C104.724 366.263 108.612 367.273 112.565 367.273H162.226C166.184 367.273 170.076 366.262 173.533 364.336C176.99 362.41 179.895 359.633 181.974 356.27C184.053 352.906 185.236 349.067 185.41 345.118C185.585 341.17 184.745 337.242 182.971 333.708Z" fill="#2F2E41"/>
<path d="M138.795 276.393L222.706 237.197C223.973 236.607 225.422 236.543 226.736 237.019C228.05 237.495 229.121 238.471 229.714 239.735L234.423 249.789C235.014 251.054 235.078 252.501 234.602 253.813C234.125 255.125 233.147 256.195 231.882 256.788L147.971 295.983C146.705 296.574 145.255 296.638 143.942 296.162C142.628 295.686 141.556 294.709 140.963 293.446L136.254 283.392C135.959 282.766 135.792 282.088 135.761 281.397C135.73 280.707 135.837 280.017 136.075 279.367C136.262 278.853 136.527 278.37 136.861 277.936C137.373 277.275 138.036 276.745 138.795 276.393Z" fill="#7A81DC"/>
<path d="M135.918 276.15L172.86 254.159C174.12 253.556 175.567 253.476 176.886 253.936C178.204 254.397 179.286 255.361 179.894 256.617L189.21 275.309C189.511 275.934 189.686 276.613 189.723 277.305C189.761 277.998 189.661 278.692 189.429 279.346C189.198 280 188.839 280.602 188.373 281.117C187.908 281.632 187.345 282.049 186.717 282.346L147.253 297.57C146.22 298.067 144.191 297.138 142.561 296.391C142.049 296.157 141.608 295.955 141.306 295.849C141.173 295.803 141.044 295.751 140.917 295.695C139.77 295.189 138.842 294.291 138.299 293.162L133.482 283.16C133.058 282.278 132.887 281.296 132.99 280.323C133.092 279.35 133.464 278.425 134.062 277.65C134.555 277.012 135.19 276.498 135.918 276.15Z" fill="#2F2E41"/>
<path d="M105.222 178.735C104.683 178.733 104.166 178.519 103.785 178.138C103.404 177.757 103.189 177.241 103.188 176.702C103.185 176.542 103.203 176.383 103.241 176.227L113.775 129.89C113.855 129.541 114.025 129.219 114.269 128.956C114.512 128.694 114.821 128.499 115.163 128.393C115.505 128.287 115.869 128.272 116.219 128.35C116.569 128.429 116.892 128.598 117.156 128.84L152.079 161.136C152.342 161.38 152.536 161.687 152.642 162.029C152.748 162.371 152.763 162.734 152.684 163.083C152.606 163.433 152.437 163.755 152.194 164.018C151.952 164.282 151.644 164.477 151.303 164.585L105.834 178.643C105.636 178.704 105.429 178.735 105.222 178.735Z" fill="#FF6584"/>
<path d="M133.785 144.861L111.848 140.502L112.193 138.98L131.587 142.831L133.785 144.861Z" fill="white"/>
<path d="M151.06 160.84L109.117 152.506L109.462 150.977L148.861 158.801L151.06 160.84Z" fill="white"/>
<path d="M136.057 168.807L132.909 169.779L106.395 164.51L106.74 162.98L136.057 168.807Z" fill="white"/>
<path d="M238.321 179.445C241.977 179.445 244.941 176.485 244.941 172.834C244.941 169.183 241.977 166.223 238.321 166.223C234.665 166.223 231.701 169.183 231.701 172.834C231.701 176.485 234.665 179.445 238.321 179.445Z" fill="#FFD130"/>
<path d="M153.207 9.44441C155.819 9.44441 157.936 7.33021 157.936 4.7222C157.936 2.1142 155.819 0 153.207 0C150.596 0 148.479 2.1142 148.479 4.7222C148.479 7.33021 150.596 9.44441 153.207 9.44441Z" fill="#FF6584"/>
<path d="M50.1231 155.831C52.7347 155.831 54.8518 153.717 54.8518 151.109C54.8518 148.501 52.7347 146.387 50.1231 146.387C47.5116 146.387 45.3945 148.501 45.3945 151.109C45.3945 153.717 47.5116 155.831 50.1231 155.831Z" fill="#FF6584"/>
<path d="M215.625 139.776C218.237 139.776 220.354 137.662 220.354 135.054C220.354 132.446 218.237 130.332 215.625 130.332C213.014 130.332 210.896 132.446 210.896 135.054C210.896 137.662 213.014 139.776 215.625 139.776Z" fill="#7A81DC"/>
<path d="M71.8751 203.999C74.4866 203.999 76.6037 201.885 76.6037 199.277C76.6037 196.669 74.4866 194.555 71.8751 194.555C69.2636 194.555 67.1465 196.669 67.1465 199.277C67.1465 201.885 69.2636 203.999 71.8751 203.999Z" fill="#7A81DC"/>
<path d="M221.299 217.222C223.91 217.222 226.028 215.108 226.028 212.5C226.028 209.892 223.91 207.777 221.299 207.777C218.687 207.777 216.57 209.892 216.57 212.5C216.57 215.108 218.687 217.222 221.299 217.222Z" fill="#FF6584"/>
<path d="M179.688 49.1085C182.299 49.1085 184.416 46.9943 184.416 44.3863C184.416 41.7783 182.299 39.6641 179.688 39.6641C177.076 39.6641 174.959 41.7783 174.959 44.3863C174.959 46.9943 177.076 49.1085 179.688 49.1085Z" fill="#7A81DC"/>
<path d="M0.96156 101.033C5.9129 101.345 10.7198 102.824 14.9883 105.349C19.2568 107.874 22.8654 111.373 25.5182 115.56C26.2616 116.746 27.2321 118.051 26.7175 119.512C26.5382 120.072 26.1739 120.555 25.6842 120.881C25.1945 121.208 24.6084 121.359 24.0216 121.31C23.2899 121.152 22.6304 120.759 22.1448 120.19C21.6592 119.622 21.3744 118.909 21.3343 118.163C21.2943 117.417 21.5013 116.678 21.9233 116.061C22.3453 115.444 22.9589 114.982 23.6695 114.748C27.1036 113.285 30.5682 115.546 33.3655 117.35C39.7393 121.461 46.7498 125.179 54.4731 125.648C61.6188 126.081 69.2816 123.283 73.2562 117.095C73.9515 116.012 72.2251 115.012 71.5331 116.089C67.5913 122.226 59.6226 124.43 52.6939 123.482C48.5649 122.831 44.578 121.479 40.9058 119.485C39.0014 118.498 37.1543 117.404 35.3446 116.254C33.6226 115.054 31.7973 114.009 29.8903 113.131C26.7098 111.827 22.4994 111.928 20.2778 114.932C18.2052 117.735 19.8069 122.401 23.2735 123.188C24.0339 123.338 24.8197 123.297 25.5603 123.069C26.301 122.841 26.9733 122.433 27.5172 121.881C28.061 121.329 28.4593 120.652 28.6763 119.909C28.8933 119.166 28.9223 118.38 28.7606 117.623C28.4148 115.973 27.1704 114.358 26.2072 113.009C23.3132 108.943 19.5427 105.578 15.1735 103.16C10.8043 100.743 5.94772 99.3351 0.961445 99.0405C-0.322155 98.9771 -0.318807 100.97 0.961445 101.033L0.96156 101.033Z" fill="#FFE17B"/>
<path d="M280.622 161.356C277.305 159.223 274.54 156.335 272.556 152.929C270.571 149.523 269.423 145.696 269.206 141.762C269.151 140.65 268.983 139.368 269.907 138.553C270.249 138.233 270.69 138.039 271.157 138.002C271.623 137.964 272.089 138.086 272.477 138.348C272.925 138.74 273.23 139.269 273.346 139.851C273.463 140.434 273.384 141.039 273.122 141.573C272.861 142.107 272.43 142.54 271.897 142.805C271.365 143.071 270.759 143.153 270.175 143.041C267.222 142.728 265.694 139.817 264.451 137.481C261.62 132.158 258.195 126.862 253.013 123.547C248.218 120.48 241.811 119.457 236.648 122.216C235.745 122.699 236.556 124.062 237.454 123.582C242.574 120.845 248.964 122.399 253.408 125.74C256.023 127.79 258.267 130.272 260.043 133.079C260.983 134.502 261.841 135.976 262.651 137.476C263.381 138.976 264.243 140.408 265.227 141.756C266.93 143.893 269.893 145.452 272.602 144.226C273.206 143.914 273.728 143.465 274.127 142.916C274.526 142.366 274.79 141.731 274.9 141.061C275.009 140.392 274.96 139.705 274.756 139.058C274.552 138.41 274.199 137.82 273.726 137.332C273.256 136.934 272.695 136.658 272.092 136.53C271.489 136.402 270.863 136.425 270.272 136.598C269.68 136.77 269.14 137.087 268.701 137.519C268.262 137.951 267.937 138.485 267.755 139.073C267.477 140.457 267.471 141.881 267.738 143.266C268.169 147.21 269.482 151.007 271.578 154.377C273.674 157.748 276.5 160.605 279.849 162.74C280.716 163.281 281.487 161.896 280.622 161.356L280.622 161.356Z" fill="#FFE17B"/>
<path d="M117.45 30.6076C113.512 30.3599 109.689 29.1837 106.294 27.1754C102.899 25.1672 100.029 22.3841 97.9195 19.0542C97.3282 18.1102 96.5563 17.0729 96.9656 15.911C97.1082 15.4654 97.3979 15.0814 97.7874 14.8216C98.1769 14.5619 98.643 14.4417 99.1098 14.4808C99.6917 14.6059 100.216 14.9188 100.602 15.371C100.989 15.8233 101.215 16.3899 101.247 16.9835C101.279 17.5771 101.114 18.1646 100.779 18.6555C100.443 19.1464 99.955 19.5134 99.3898 19.6999C96.6585 20.8634 93.9029 19.0653 91.6781 17.6303C86.6087 14.3605 81.0329 11.4034 74.8902 11.0307C69.2068 10.686 63.1123 12.9114 59.9511 17.8333C59.398 18.6944 60.7712 19.4901 61.3215 18.6332C64.4567 13.7519 70.7945 11.9988 76.3052 12.7533C79.5892 13.2708 82.7602 14.3459 85.6809 15.9321C87.1956 16.7171 88.6645 17.5872 90.1039 18.502C91.4735 19.4564 92.9253 20.2875 94.4421 20.9855C96.9717 22.0232 100.32 21.9422 102.087 19.553C102.462 18.9868 102.699 18.341 102.779 17.667C102.859 16.9931 102.781 16.3097 102.549 15.6716C102.317 15.0335 101.94 14.4584 101.446 13.9922C100.952 13.5259 100.356 13.1816 99.7047 12.9866C99.0999 12.8675 98.4749 12.9002 97.8858 13.0817C97.2968 13.2632 96.762 13.5878 96.3295 14.0265C95.8969 14.4651 95.5802 15.0041 95.4076 15.5951C95.235 16.1861 95.2119 16.8107 95.3405 17.4128C95.7721 18.7563 96.462 20.0028 97.3714 21.0827C99.6732 24.3163 102.672 26.9931 106.147 28.9158C109.622 30.8386 113.485 31.9583 117.451 32.1926C118.471 32.243 118.469 30.6579 117.451 30.6076L117.45 30.6076Z" fill="#FFE17B"/>
<path d="M121.051 80.8203H116.322V96.3361H121.051V80.8203Z" fill="#FF6584"/>
<path d="M44.5965 69.9888L47.8828 66.707L37.0851 55.9239L33.7988 59.2057L44.5965 69.9888Z" fill="#7A81DC"/>
<path d="M177.55 102.597L180.836 105.879L191.634 95.0958L188.347 91.814L177.55 102.597Z" fill="#FFD130"/>
<path d="M43.2567 236.706L46.543 239.988L57.3407 229.205L54.0544 225.923L43.2567 236.706Z" fill="#FFD130"/>
</svg>
