<svg width="236" height="65" viewBox="0 0 236 65" fill="none" xmlns="http://www.w3.org/2000/svg">
<path d="M86.5537 47C84.2342 47 82.1041 46.4424 80.1632 45.3273C78.2224 44.2121 76.684 42.6727 75.5479 40.7091C74.4118 38.7212 73.8438 36.4788 73.8438 33.9818C73.8438 31.5091 74.4118 29.2909 75.5479 27.3273C76.684 25.3394 78.2224 23.7879 80.1632 22.6727C82.1041 21.5576 84.2342 21 86.5537 21C88.8969 21 91.0271 21.5576 92.9442 22.6727C94.885 23.7879 96.4117 25.3394 97.5241 27.3273C98.6602 29.2909 99.2282 31.5091 99.2282 33.9818C99.2282 36.4788 98.6602 38.7212 97.5241 40.7091C96.4117 42.6727 94.885 44.2121 92.9442 45.3273C91.0034 46.4424 88.8732 47 86.5537 47ZM86.5537 42.4545C88.0448 42.4545 89.3584 42.1152 90.4945 41.4364C91.6306 40.7333 92.5182 39.7394 93.1572 38.4545C93.7963 37.1697 94.1158 35.6788 94.1158 33.9818C94.1158 32.2849 93.7963 30.8061 93.1572 29.5455C92.5182 28.2606 91.6306 27.2788 90.4945 26.6C89.3584 25.9212 88.0448 25.5818 86.5537 25.5818C85.0626 25.5818 83.7372 25.9212 82.5774 26.6C81.4413 27.2788 80.5538 28.2606 79.9147 29.5455C79.2757 30.8061 78.9561 32.2849 78.9561 33.9818C78.9561 35.6788 79.2757 37.1697 79.9147 38.4545C80.5538 39.7394 81.4413 40.7333 82.5774 41.4364C83.7372 42.1152 85.0626 42.4545 86.5537 42.4545Z" fill="white"/>
<path d="M113.948 47C112.22 47 110.658 46.697 109.261 46.0909C107.889 45.4849 106.8 44.6121 105.995 43.4727C105.19 42.3333 104.776 40.9879 104.752 39.4364H110.078C110.149 40.4788 110.504 41.303 111.143 41.9091C111.806 42.5152 112.705 42.8182 113.841 42.8182C115.001 42.8182 115.912 42.5394 116.575 41.9818C117.238 41.4 117.569 40.6485 117.569 39.7273C117.569 38.9758 117.344 38.3576 116.894 37.8727C116.445 37.3879 115.877 37.0121 115.19 36.7455C114.528 36.4545 113.604 36.1394 112.421 35.8C110.812 35.3152 109.498 34.8424 108.48 34.3818C107.486 33.897 106.622 33.1818 105.889 32.2364C105.178 31.2667 104.823 29.9818 104.823 28.3818C104.823 26.8788 105.19 25.5697 105.924 24.4545C106.658 23.3394 107.687 22.4909 109.013 21.9091C110.338 21.303 111.853 21 113.557 21C116.113 21 118.184 21.6424 119.77 22.9273C121.38 24.1879 122.267 25.9576 122.433 28.2364H116.965C116.918 27.3636 116.551 26.6485 115.865 26.0909C115.202 25.5091 114.315 25.2182 113.202 25.2182C112.232 25.2182 111.451 25.4727 110.859 25.9818C110.291 26.4909 110.007 27.2303 110.007 28.2C110.007 28.8788 110.22 29.4485 110.646 29.9091C111.096 30.3455 111.64 30.7091 112.279 31C112.942 31.2667 113.865 31.5818 115.048 31.9455C116.658 32.4303 117.971 32.9152 118.989 33.4C120.007 33.8849 120.883 34.6121 121.616 35.5818C122.35 36.5515 122.717 37.8242 122.717 39.4C122.717 40.7576 122.374 42.0182 121.687 43.1818C121.001 44.3455 119.995 45.2788 118.67 45.9818C117.344 46.6606 115.77 47 113.948 47Z" fill="white"/>
<path d="M146.355 21.3636V25.4727H139.752V46.7455H134.781V25.4727H128.178V21.3636H146.355Z" fill="white"/>
<path d="M157.418 25.4727V31.8364H165.761V35.8727H157.418V42.6H166.826V46.7455H152.447V21.3273H166.826V25.4727H157.418Z" fill="white"/>
<path d="M178.779 42.7091H186.944V46.7455H173.808V21.3636H178.779V42.7091Z" fill="white"/>
<path d="M197.539 42.7091H205.705V46.7455H192.569V21.3636H197.539V42.7091Z" fill="white"/>
<path d="M222.832 47C220.513 47 218.383 46.4424 216.442 45.3273C214.501 44.2121 212.963 42.6727 211.827 40.7091C210.691 38.7212 210.122 36.4788 210.122 33.9818C210.122 31.5091 210.691 29.2909 211.827 27.3273C212.963 25.3394 214.501 23.7879 216.442 22.6727C218.383 21.5576 220.513 21 222.832 21C225.176 21 227.306 21.5576 229.223 22.6727C231.164 23.7879 232.69 25.3394 233.803 27.3273C234.939 29.2909 235.507 31.5091 235.507 33.9818C235.507 36.4788 234.939 38.7212 233.803 40.7091C232.69 42.6727 231.164 44.2121 229.223 45.3273C227.282 46.4424 225.152 47 222.832 47ZM222.832 42.4545C224.324 42.4545 225.637 42.1152 226.773 41.4364C227.909 40.7333 228.797 39.7394 229.436 38.4545C230.075 37.1697 230.395 35.6788 230.395 33.9818C230.395 32.2849 230.075 30.8061 229.436 29.5455C228.797 28.2606 227.909 27.2788 226.773 26.6C225.637 25.9212 224.324 25.5818 222.832 25.5818C221.341 25.5818 220.016 25.9212 218.856 26.6C217.72 27.2788 216.833 28.2606 216.193 29.5455C215.554 30.8061 215.235 32.2849 215.235 33.9818C215.235 35.6788 215.554 37.1697 216.193 38.4545C216.833 39.7394 217.72 40.7333 218.856 41.4364C220.016 42.1152 221.341 42.4545 222.832 42.4545Z" fill="white"/>
<path d="M64.457 32.2956C64.457 50.132 50.0278 64.5913 32.2285 64.5913C14.4292 64.5913 0 50.132 0 32.2956C0 14.4592 14.4292 0 32.2285 0C50.0278 0 64.457 14.4592 64.457 32.2956Z" fill="white"/>
<path fill-rule="evenodd" clip-rule="evenodd" d="M32.2302 49.3603C41.6351 49.3603 49.2593 41.7202 49.2593 32.2957C49.2593 22.8713 41.6351 15.2312 32.2302 15.2312C22.8253 15.2312 15.2012 22.8713 15.2012 32.2957C15.2012 41.7202 22.8253 49.3603 32.2302 49.3603ZM32.2302 55.3473C44.9348 55.3473 55.2339 45.0268 55.2339 32.2957C55.2339 19.5647 44.9348 9.24414 32.2302 9.24414C19.5257 9.24414 9.22656 19.5647 9.22656 32.2957C9.22656 45.0268 19.5257 55.3473 32.2302 55.3473Z" fill="#7D23E0"/>
<path d="M8.58156 33.8189L6.12891 28.9023H35.4381V58.1556L30.1649 55.9432V33.8189H8.58156Z" fill="#7D23E0"/>
<path fill-rule="evenodd" clip-rule="evenodd" d="M20.7842 35.7483H6.30469V33.791H20.7842V35.7483Z" fill="white"/>
<path fill-rule="evenodd" clip-rule="evenodd" d="M20.6084 28.9026H6.12891V26.9453H20.6084V28.9026Z" fill="white"/>
<path fill-rule="evenodd" clip-rule="evenodd" d="M35.4374 58.1548L35.4374 48.0332L37.3906 48.0332L37.3906 58.1548L35.4374 58.1548Z" fill="white"/>
<path fill-rule="evenodd" clip-rule="evenodd" d="M28.1991 56.9849L28.1991 46.8633L30.1523 46.8633L30.1523 56.9849L28.1991 56.9849Z" fill="white"/>
</svg>
