<svg width="236" height="64" viewBox="0 0 236 64" fill="none" xmlns="http://www.w3.org/2000/svg">
<path d="M86.7365 45C84.4121 45 82.2775 44.4424 80.3327 43.3273C78.3878 42.2121 76.8461 40.6727 75.7077 38.7091C74.5692 36.7212 74 34.4788 74 31.9818C74 29.5091 74.5692 27.2909 75.7077 25.3273C76.8461 23.3394 78.3878 21.7879 80.3327 20.6727C82.2775 19.5576 84.4121 19 86.7365 19C89.0845 19 91.2191 19.5576 93.1403 20.6727C95.0851 21.7879 96.6149 23.3394 97.7297 25.3273C98.8681 27.2909 99.4373 29.5091 99.4373 31.9818C99.4373 34.4788 98.8681 36.7212 97.7297 38.7091C96.6149 40.6727 95.0851 42.2121 93.1403 43.3273C91.1954 44.4424 89.0608 45 86.7365 45ZM86.7365 40.4545C88.2307 40.4545 89.547 40.1152 90.6855 39.4364C91.8239 38.7333 92.7133 37.7394 93.3537 36.4545C93.9941 35.1697 94.3143 33.6788 94.3143 31.9818C94.3143 30.2848 93.9941 28.8061 93.3537 27.5455C92.7133 26.2606 91.8239 25.2788 90.6855 24.6C89.547 23.9212 88.2307 23.5818 86.7365 23.5818C85.2422 23.5818 83.914 23.9212 82.7519 24.6C81.6134 25.2788 80.724 26.2606 80.0836 27.5455C79.4432 28.8061 79.123 30.2848 79.123 31.9818C79.123 33.6788 79.4432 35.1697 80.0836 36.4545C80.724 37.7394 81.6134 38.7333 82.7519 39.4364C83.914 40.1152 85.2422 40.4545 86.7365 40.4545Z" fill="#7D23E0"/>
<path d="M114.187 45C112.456 45 110.891 44.697 109.491 44.0909C108.116 43.4849 107.025 42.6121 106.218 41.4727C105.412 40.3333 104.997 38.9879 104.973 37.4364H110.31C110.381 38.4788 110.737 39.303 111.377 39.9091C112.041 40.5152 112.942 40.8182 114.081 40.8182C115.243 40.8182 116.156 40.5394 116.82 39.9818C117.484 39.4 117.816 38.6485 117.816 37.7273C117.816 36.9758 117.591 36.3576 117.14 35.8727C116.69 35.3879 116.12 35.0121 115.433 34.7455C114.769 34.4545 113.844 34.1394 112.658 33.8C111.045 33.3152 109.729 32.8424 108.709 32.3818C107.713 31.897 106.847 31.1818 106.112 30.2364C105.4 29.2667 105.044 27.9818 105.044 26.3818C105.044 24.8788 105.412 23.5697 106.147 22.4545C106.882 21.3394 107.914 20.4909 109.242 19.9091C110.571 19.303 112.088 19 113.796 19C116.358 19 118.433 19.6424 120.022 20.9273C121.635 22.1879 122.524 23.9576 122.69 26.2364H117.211C117.164 25.3636 116.796 24.6485 116.109 24.0909C115.445 23.5091 114.555 23.2182 113.44 23.2182C112.468 23.2182 111.685 23.4727 111.092 23.9818C110.523 24.4909 110.238 25.2303 110.238 26.2C110.238 26.8788 110.452 27.4485 110.879 27.9091C111.329 28.3455 111.875 28.7091 112.515 29C113.179 29.2667 114.104 29.5818 115.29 29.9455C116.903 30.4303 118.219 30.9152 119.239 31.4C120.259 31.8849 121.137 32.6121 121.872 33.5818C122.607 34.5515 122.975 35.8242 122.975 37.4C122.975 38.7576 122.631 40.0182 121.943 41.1818C121.255 42.3455 120.247 43.2788 118.919 43.9818C117.591 44.6606 116.014 45 114.187 45Z" fill="#7D23E0"/>
<path d="M146.663 19.3636V23.4727H140.045V44.7455H135.065V23.4727H128.447V19.3636H146.663Z" fill="#7D23E0"/>
<path d="M157.748 23.4727V29.8364H166.109V33.8727H157.748V40.6H167.176V44.7455H152.767V19.3273H167.176V23.4727H157.748Z" fill="#7D23E0"/>
<path d="M179.153 40.7091H187.336V44.7455H174.173V19.3636H179.153V40.7091Z" fill="#7D23E0"/>
<path d="M197.953 40.7091H206.136V44.7455H192.973V19.3636H197.953V40.7091Z" fill="#7D23E0"/>
<path d="M223.299 45C220.975 45 218.84 44.4424 216.895 43.3273C214.95 42.2121 213.409 40.6727 212.27 38.7091C211.132 36.7212 210.563 34.4788 210.563 31.9818C210.563 29.5091 211.132 27.2909 212.27 25.3273C213.409 23.3394 214.95 21.7879 216.895 20.6727C218.84 19.5576 220.975 19 223.299 19C225.647 19 227.782 19.5576 229.703 20.6727C231.648 21.7879 233.178 23.3394 234.292 25.3273C235.431 27.2909 236 29.5091 236 31.9818C236 34.4788 235.431 36.7212 234.292 38.7091C233.178 40.6727 231.648 42.2121 229.703 43.3273C227.758 44.4424 225.623 45 223.299 45ZM223.299 40.4545C224.793 40.4545 226.11 40.1152 227.248 39.4364C228.387 38.7333 229.276 37.7394 229.916 36.4545C230.557 35.1697 230.877 33.6788 230.877 31.9818C230.877 30.2848 230.557 28.8061 229.916 27.5455C229.276 26.2606 228.387 25.2788 227.248 24.6C226.11 23.9212 224.793 23.5818 223.299 23.5818C221.805 23.5818 220.477 23.9212 219.315 24.6C218.176 25.2788 217.287 26.2606 216.646 27.5455C216.006 28.8061 215.686 30.2848 215.686 31.9818C215.686 33.6788 216.006 35.1697 216.646 36.4545C217.287 37.7394 218.176 38.7333 219.315 39.4364C220.477 40.1152 221.805 40.4545 223.299 40.4545Z" fill="#7D23E0"/>
<path d="M63.8669 32C63.8669 49.6731 49.5698 64 31.9335 64C14.2971 64 0 49.6731 0 32C0 14.3269 14.2971 0 31.9335 0C49.5698 0 63.8669 14.3269 63.8669 32Z" fill="#7D23E0"/>
<path fill-rule="evenodd" clip-rule="evenodd" d="M32.2285 49.3583C41.6334 49.3583 49.2576 41.7183 49.2576 32.2938C49.2576 22.8693 41.6334 15.2293 32.2285 15.2293C22.8236 15.2293 15.1995 22.8693 15.1995 32.2938C15.1995 41.7183 22.8236 49.3583 32.2285 49.3583ZM32.2285 55.3454C44.9331 55.3454 55.2322 45.0248 55.2322 32.2938C55.2322 19.5627 44.9331 9.24219 32.2285 9.24219C19.5239 9.24219 9.22485 19.5627 9.22485 32.2938C9.22485 45.0248 19.5239 55.3454 32.2285 55.3454Z" fill="white"/>
<path d="M8.58345 33.8189L6.1308 28.9023H35.44V58.1556L30.1668 55.9432V33.8189H8.58345Z" fill="white"/>
<path fill-rule="evenodd" clip-rule="evenodd" d="M20.7846 35.7464H6.30518V33.7891H20.7846V35.7464Z" fill="#7D23E0"/>
<path fill-rule="evenodd" clip-rule="evenodd" d="M20.6103 28.9026H6.1308V26.9453H20.6103V28.9026Z" fill="#7D23E0"/>
<path fill-rule="evenodd" clip-rule="evenodd" d="M35.4396 58.1529L35.4396 48.0313L37.3928 48.0312L37.3928 58.1529L35.4396 58.1529Z" fill="#7D23E0"/>
<path fill-rule="evenodd" clip-rule="evenodd" d="M28.1998 56.9849L28.1998 46.8633L30.153 46.8633L30.153 56.9849L28.1998 56.9849Z" fill="#7D23E0"/>
</svg>
