<svg width="1920" height="693" viewBox="0 0 1920 693" fill="none" xmlns="http://www.w3.org/2000/svg">
<mask id="mask0_648_5594" style="mask-type:alpha" maskUnits="userSpaceOnUse" x="0" y="0" width="1920" height="693">
<rect width="1920" height="693" fill="#FF6E5D"/>
</mask>
<g mask="url(#mask0_648_5594)">
<rect width="1920" height="693" fill="#6E3DA5"/>
<circle cx="1788.5" cy="179.5" r="253.5" stroke="white" stroke-width="4"/>
<g filter="url(#filter0_d_648_5594)">
<circle cx="103" cy="587" r="215" fill="#582A8B"/>
</g>
<g filter="url(#filter1_d_648_5594)">
<circle cx="1557" cy="632" r="120" fill="#D3BBEF"/>
</g>
<circle cx="1787" cy="576" r="17" fill="#F99DCB"/>
<circle cx="366" cy="149" r="17" fill="#F99DCB"/>
<circle cx="379" cy="540" r="10" fill="#86DFF4"/>
<g filter="url(#filter2_d_648_5594)">
<path d="M183 112C183 137.957 161.957 159 136 159C110.043 159 89 137.957 89 112C89 86.0426 110.043 65 136 65C161.957 65 183 86.0426 183 112ZM103.518 112C103.518 129.939 118.061 144.482 136 144.482C153.939 144.482 168.482 129.939 168.482 112C168.482 94.0607 153.939 79.5181 136 79.5181C118.061 79.5181 103.518 94.0607 103.518 112Z" fill="#D1F3FB"/>
</g>
</g>
<defs>
<filter id="filter0_d_648_5594" x="-112" y="372" width="434" height="436" filterUnits="userSpaceOnUse" color-interpolation-filters="sRGB">
<feFlood flood-opacity="0" result="BackgroundImageFix"/>
<feColorMatrix in="SourceAlpha" type="matrix" values="0 0 0 0 0 0 0 0 0 0 0 0 0 0 0 0 0 0 127 0" result="hardAlpha"/>
<feOffset dx="4" dy="6"/>
<feComposite in2="hardAlpha" operator="out"/>
<feColorMatrix type="matrix" values="0 0 0 0 0.491667 0 0 0 0 0.491667 0 0 0 0 0.491667 0 0 0 0.2 0"/>
<feBlend mode="normal" in2="BackgroundImageFix" result="effect1_dropShadow_648_5594"/>
<feBlend mode="normal" in="SourceGraphic" in2="effect1_dropShadow_648_5594" result="shape"/>
</filter>
<filter id="filter1_d_648_5594" x="1437" y="512" width="244" height="246" filterUnits="userSpaceOnUse" color-interpolation-filters="sRGB">
<feFlood flood-opacity="0" result="BackgroundImageFix"/>
<feColorMatrix in="SourceAlpha" type="matrix" values="0 0 0 0 0 0 0 0 0 0 0 0 0 0 0 0 0 0 127 0" result="hardAlpha"/>
<feOffset dx="4" dy="6"/>
<feComposite in2="hardAlpha" operator="out"/>
<feColorMatrix type="matrix" values="0 0 0 0 0 0 0 0 0 0 0 0 0 0 0 0 0 0 0.2 0"/>
<feBlend mode="normal" in2="BackgroundImageFix" result="effect1_dropShadow_648_5594"/>
<feBlend mode="normal" in="SourceGraphic" in2="effect1_dropShadow_648_5594" result="shape"/>
</filter>
<filter id="filter2_d_648_5594" x="89" y="65" width="98" height="100" filterUnits="userSpaceOnUse" color-interpolation-filters="sRGB">
<feFlood flood-opacity="0" result="BackgroundImageFix"/>
<feColorMatrix in="SourceAlpha" type="matrix" values="0 0 0 0 0 0 0 0 0 0 0 0 0 0 0 0 0 0 127 0" result="hardAlpha"/>
<feOffset dx="4" dy="6"/>
<feComposite in2="hardAlpha" operator="out"/>
<feColorMatrix type="matrix" values="0 0 0 0 0 0 0 0 0 0 0 0 0 0 0 0 0 0 0.2 0"/>
<feBlend mode="normal" in2="BackgroundImageFix" result="effect1_dropShadow_648_5594"/>
<feBlend mode="normal" in="SourceGraphic" in2="effect1_dropShadow_648_5594" result="shape"/>
</filter>
</defs>
</svg>
