<svg width="141" height="48" viewBox="0 0 141 48" fill="none" xmlns="http://www.w3.org/2000/svg">
<g clip-path="url(#clip0_1258_111559)">
<path d="M21.6723 3.0791C10.0743 3.0791 0.671875 12.4813 0.671875 24.0792C0.671875 35.6777 10.0743 45.0791 21.6723 45.0791C33.2715 45.0791 42.6729 35.6777 42.6729 24.0792C42.6729 12.482 33.2715 3.0801 21.672 3.0801L21.6723 3.0791V3.0791ZM31.3029 33.3673C30.9267 33.9842 30.1193 34.1798 29.5024 33.8011C24.5717 30.7894 18.3646 30.1073 11.0546 31.7774C10.3502 31.9379 9.648 31.4966 9.48751 30.7919C9.32626 30.0872 9.76586 29.3851 10.472 29.2246C18.4717 27.3969 25.3335 28.1839 30.8691 31.5668C31.486 31.9454 31.6816 32.7504 31.3029 33.3673V33.3673ZM33.8733 27.6492C33.3993 28.4196 32.3913 28.6628 31.6214 28.1889C25.9765 24.7192 17.3718 23.7144 10.695 25.7411C9.82906 26.0026 8.91449 25.5146 8.65169 24.6502C8.39088 23.7843 8.87914 22.8715 9.74355 22.6082C17.3703 20.2941 26.8517 21.415 33.3342 25.3985C34.104 25.8725 34.3473 26.8806 33.8733 27.6495V27.6492ZM34.094 21.6949C27.3257 17.6748 16.1588 17.3051 9.69665 19.2664C8.65896 19.5811 7.56158 18.9953 7.24711 17.9576C6.93264 16.9194 7.51795 15.8228 8.55639 15.5073C15.9745 13.2554 28.3062 13.6905 36.0987 18.3165C37.034 18.8704 37.34 20.0759 36.7858 21.008C36.2341 21.9414 35.0254 22.2491 34.095 21.6949H34.094ZM57.807 22.4653C54.1808 21.6006 53.5363 20.9937 53.5363 19.7186C53.5363 18.5139 54.6698 17.7031 56.3575 17.7031C57.9925 17.7031 59.6125 18.3187 61.3128 19.5861C61.3629 19.6245 61.4281 19.6398 61.4908 19.6298C61.556 19.6203 61.6112 19.5854 61.6488 19.533L63.4192 17.0373C63.492 16.9345 63.4719 16.7928 63.3741 16.7143C61.3504 15.0911 59.0734 14.3019 56.4102 14.3019C52.4956 14.3019 49.7597 16.6514 49.7597 20.013C49.7597 23.6178 52.1195 24.8942 56.197 25.8795C59.6652 26.6787 60.252 27.3483 60.252 28.545C60.252 29.8716 59.0684 30.6966 57.1625 30.6966C55.046 30.6966 53.3182 29.9819 51.3872 28.3118C51.3396 28.2691 51.2744 28.2516 51.2142 28.2541C51.149 28.2591 51.0913 28.2892 51.0512 28.3368L49.0651 30.6991C48.9823 30.7994 48.9923 30.9449 49.0876 31.0301C51.3346 33.0363 54.0981 34.0945 57.0822 34.0945C61.3002 34.0945 64.0261 31.79 64.0261 28.2215C64.0336 25.2105 62.2306 23.5428 57.8145 22.4685L57.807 22.4653V22.4653ZM73.5705 18.8893C71.7424 18.8893 70.2427 19.6095 69.0039 21.0853V19.4242C69.0039 19.293 68.8986 19.1862 68.7682 19.1862H65.5207C65.3903 19.1862 65.285 19.293 65.285 19.4242V37.8812C65.285 38.0116 65.3903 38.1194 65.5207 38.1194H68.7682C68.8986 38.1194 69.0039 38.0116 69.0039 37.8812V32.0558C70.2427 33.4425 71.7424 34.1221 73.5705 34.1221C76.9685 34.1221 80.409 31.5066 80.409 26.5064C80.4141 21.5053 76.9735 18.889 73.573 18.889L73.5705 18.8893ZM76.6324 26.5064C76.6324 29.0515 75.0651 30.8295 72.8182 30.8295C70.5989 30.8295 68.9237 28.9713 68.9237 26.5064C68.9237 24.0414 70.5989 22.1836 72.8182 22.1836C75.0275 22.1834 76.6324 24.001 76.6324 26.5062V26.5064ZM89.2237 18.8893C84.8477 18.8893 81.4197 22.2586 81.4197 26.5609C81.4197 30.817 84.8251 34.1497 89.171 34.1497C93.562 34.1497 97.0001 30.7919 97.0001 26.5064C97.0001 22.2356 93.5846 18.8898 89.2237 18.8898V18.8893V18.8893ZM89.2237 30.8546C86.8965 30.8546 85.1411 28.9838 85.1411 26.5052C85.1411 24.0153 86.8363 22.2085 89.171 22.2085C91.5132 22.2085 93.2787 24.0785 93.2787 26.5596C93.2787 29.049 91.5734 30.8546 89.2237 30.8546V30.8546ZM106.344 19.1862H102.77V15.5334C102.77 15.4025 102.665 15.2957 102.535 15.2957H99.2871C99.1567 15.2957 99.0489 15.4025 99.0489 15.5334V19.1862H97.4891C97.3587 19.1862 97.2534 19.293 97.2534 19.4242V22.2145C97.2534 22.3454 97.3587 22.4525 97.4891 22.4525H99.0489V29.6734C99.0489 32.5899 100.501 34.0695 103.367 34.0695C104.531 34.0695 105.496 33.8287 106.407 33.3121C106.482 33.272 106.527 33.1918 106.527 33.1065V30.4483C106.527 30.3681 106.484 30.2903 106.414 30.2477C106.344 30.2026 106.256 30.2001 106.183 30.2377C105.559 30.5511 104.955 30.6966 104.278 30.6966C103.237 30.6966 102.77 30.2226 102.77 29.1644V22.4537H106.344C106.474 22.4537 106.58 22.3469 106.58 22.2157V19.4257C106.585 19.2945 106.479 19.1877 106.346 19.1877L106.344 19.1862V19.1862ZM118.792 19.2005V18.7518C118.792 17.432 119.299 16.8435 120.432 16.8435C121.109 16.8435 121.653 16.9779 122.263 17.181C122.338 17.2046 122.416 17.1928 122.476 17.1479C122.539 17.103 122.574 17.031 122.574 16.9548V14.2189C122.574 14.1143 122.509 14.0218 122.406 13.9909C121.764 13.7996 120.941 13.6032 119.707 13.6032C116.711 13.6032 115.123 15.2919 115.123 18.485V19.1721H113.564C113.433 19.1721 113.325 19.279 113.325 19.4099V22.2145C113.325 22.3454 113.433 22.4525 113.564 22.4525H115.123V33.588C115.123 33.7209 115.231 33.8262 115.362 33.8262H118.607C118.74 33.8262 118.845 33.7209 118.845 33.588V22.4532H121.877L126.521 33.588C125.994 34.7566 125.475 34.9898 124.768 34.9898C124.196 34.9898 123.592 34.8193 122.978 34.4807C122.92 34.4506 122.85 34.4456 122.789 34.4632C122.727 34.4858 122.674 34.5309 122.649 34.5911L121.548 37.006C121.495 37.1214 121.541 37.2543 121.651 37.3145C122.8 37.9364 123.835 38.2022 125.117 38.2022C127.514 38.2022 128.841 37.0837 130.007 34.0795L135.639 19.5255C135.669 19.4522 135.659 19.3695 135.614 19.3045C135.571 19.2401 135.499 19.2012 135.421 19.2012H132.04C131.938 19.2012 131.847 19.2657 131.815 19.3607L128.352 29.2496L124.56 19.3542C124.525 19.2622 124.437 19.2012 124.339 19.2012H118.792V19.2005V19.2005ZM111.575 19.1862H108.327C108.197 19.1862 108.089 19.293 108.089 19.4242V33.588C108.089 33.7209 108.197 33.8262 108.327 33.8262H111.575C111.705 33.8262 111.813 33.7209 111.813 33.588V19.4252C111.813 19.294 111.708 19.1872 111.575 19.1872V19.1862ZM109.97 12.7366C108.684 12.7366 107.64 13.7778 107.64 15.064C107.64 16.3509 108.684 17.3934 109.97 17.3934C111.256 17.3934 112.297 16.3509 112.297 15.064C112.297 13.778 111.254 12.7366 109.97 12.7366ZM138.413 23.7404C137.129 23.7404 136.128 22.7085 136.128 21.4554C136.128 20.2023 137.141 19.1586 138.425 19.1586C139.709 19.1586 140.71 20.1903 140.71 21.4424C140.71 22.6955 139.697 23.7404 138.413 23.7404ZM138.425 19.3858C137.254 19.3858 136.369 20.3161 136.369 21.4554C136.369 22.5942 137.249 23.512 138.413 23.512C139.584 23.512 140.469 22.5824 140.469 21.4424C140.469 20.3036 139.589 19.3858 138.425 19.3858V19.3858ZM138.932 21.6773L139.579 22.5821H139.032L138.45 21.7521H137.951V22.5821H137.495V20.1837H138.563C139.122 20.1837 139.488 20.4689 139.488 20.9488C139.491 21.3421 139.263 21.5823 138.934 21.6773H138.932ZM138.545 20.5953H137.951V21.3538H138.545C138.841 21.3538 139.019 21.2086 139.019 20.9742C139.019 20.7274 138.841 20.5953 138.545 20.5953V20.5953Z" fill="#1ED760"/>
</g>
<defs>
<clipPath id="clip0_1258_111559">
<rect width="140" height="48" fill="white" transform="translate(0.599609)"/>
</clipPath>
</defs>
</svg>
