<svg width="122" height="48" viewBox="0 0 122 48" fill="none" xmlns="http://www.w3.org/2000/svg">
<g clip-path="url(#clip0_1258_111561)">
<path d="M38.1255 32.4265L39.5936 28.995C41.2011 30.1854 43.2977 30.8155 45.3949 30.8155C46.9327 30.8155 47.9111 30.2205 47.9111 29.3103C47.876 26.7891 38.6498 28.7499 38.5796 22.4113C38.5445 19.1898 41.4106 16.7037 45.4651 16.7037C47.876 16.7037 50.288 17.2992 52.0002 18.665L50.6283 22.1697C49.0529 21.1567 47.1071 20.4504 45.2551 20.4504C43.997 20.4504 43.1579 21.0454 43.1579 21.8163C43.193 24.3024 52.4899 22.9366 52.5947 28.995C52.5947 32.2866 49.7983 34.5978 45.8139 34.5978C42.8787 34.5978 40.1876 33.8976 38.125 32.4265H38.1255ZM96.5835 27.7524C96.213 28.4109 95.6739 28.9589 95.0217 29.3403C94.3694 29.7217 93.6275 29.9227 92.8719 29.9228C90.5171 29.9228 88.6084 28.0101 88.6084 25.6508C88.6084 23.2914 90.5171 21.3787 92.8719 21.3787C93.6275 21.3788 94.3694 21.5798 95.0217 21.9612C95.6739 22.3426 96.213 22.8906 96.5835 23.5491L100.665 21.2835C99.1363 18.5513 96.2201 16.7037 92.8719 16.7037C87.9402 16.7037 83.9424 20.7091 83.9424 25.6508C83.9424 30.5919 87.9402 34.5978 92.8719 34.5978C96.2201 34.5978 99.1363 32.7502 100.665 30.018L96.5835 27.7524ZM55.2432 34.2474H60.3458V9.25586H55.2437L55.2432 34.2474ZM103.242 9.25586V34.2474H108.345V26.76L114.391 34.2474H120.913L113.224 25.3525L120.354 17.0526H114.111L108.345 23.9531V9.25586H103.242ZM76.066 17.0536V19.0851C75.2274 17.6841 73.1653 16.7037 70.9985 16.7037C66.525 16.7037 62.9953 20.661 62.9953 25.6332C62.9953 30.6055 66.525 34.5978 70.9985 34.5978C73.1653 34.5978 75.2274 33.6174 76.066 32.2164V34.2474H81.1686V17.0536H76.066ZM76.066 27.787C75.3322 29.0125 73.7944 29.9223 72.0822 29.9223C69.7269 29.9223 67.8182 28.0101 67.8182 25.6508C67.8182 23.2914 69.7269 21.3787 72.0822 21.3787C73.7944 21.3787 75.3322 22.3241 76.066 23.5842V27.787Z" fill="black"/>
<path d="M11.1773 8.70361C9.52369 8.70361 8.18339 10.0469 8.18339 11.7035C8.183 12.0971 8.26012 12.4868 8.41036 12.8506C8.56061 13.2143 8.78102 13.5449 9.05903 13.8235C9.33704 14.1021 9.66719 14.3231 10.0306 14.4741C10.3941 14.6251 10.7837 14.703 11.1773 14.7034H14.1716V11.7035C14.1723 10.9086 13.8572 10.1461 13.2957 9.58348C12.7341 9.0209 11.9721 8.70441 11.1773 8.70361ZM11.1773 16.7033H3.1931C1.53952 16.7033 0.199219 18.0466 0.199219 19.7037C0.199219 21.3603 1.53952 22.7036 3.1931 22.7036H11.1778C12.8308 22.7036 14.1716 21.3603 14.1716 19.7037C14.1716 18.0466 12.8308 16.7033 11.1773 16.7033Z" fill="#36C5F0"/>
<path d="M30.1404 19.7037C30.1404 18.0466 28.7996 16.7033 27.146 16.7033C25.4924 16.7033 24.1521 18.0466 24.1521 19.7037V22.7036H27.146C27.9409 22.7028 28.7029 22.3863 29.2644 21.8237C29.826 21.2612 30.1411 20.4986 30.1404 19.7037ZM22.1562 19.7037V11.7035C22.1569 10.9086 21.8418 10.1461 21.2803 9.58348C20.7187 9.0209 19.9567 8.70441 19.1618 8.70361C17.5083 8.70361 16.168 10.0469 16.168 11.7035V19.7032C16.168 21.3608 17.5083 22.7041 19.1618 22.7041C19.9567 22.7033 20.7187 22.3868 21.2803 21.8242C21.8418 21.2617 22.1569 20.4991 22.1562 19.7042" fill="#2EB67D"/>
<path d="M19.1618 38.7036C19.9567 38.7028 20.7187 38.3863 21.2803 37.8237C21.8418 37.2612 22.1569 36.4986 22.1562 35.7037C22.1569 34.9088 21.8418 34.1463 21.2803 33.5837C20.7187 33.0211 19.9567 32.7046 19.1618 32.7038H16.168V35.7037C16.168 37.3603 17.5083 38.7036 19.1618 38.7036ZM19.1618 30.7039H27.1465C28.7996 30.7039 30.1404 29.3606 30.1404 27.7035C30.1411 26.9086 29.826 26.1461 29.2644 25.5835C28.7029 25.0209 27.9409 24.7044 27.146 24.7036H19.1618C17.5083 24.7036 16.168 26.0469 16.168 27.7035C16.1676 28.0971 16.2447 28.4868 16.3949 28.8506C16.5452 29.2143 16.7656 29.5449 17.0436 29.8235C17.3216 30.1021 17.6518 30.3231 18.0152 30.4741C18.3787 30.6251 18.7683 30.703 19.1618 30.7034" fill="#ECB22E"/>
<path d="M0.19922 27.7035C0.198825 28.0971 0.275951 28.4868 0.426193 28.8506C0.576436 29.2143 0.796853 29.5449 1.07486 29.8235C1.35287 30.1021 1.68302 30.3231 2.04647 30.4741C2.40992 30.6251 2.79954 30.703 3.1931 30.7034C3.98797 30.7026 4.74997 30.3861 5.31151 29.8235C5.87305 29.261 6.18814 28.4984 6.18747 27.7035V24.7036H3.1931C1.53952 24.7036 0.19922 26.0469 0.19922 27.7035ZM8.18339 27.7035V35.7032C8.18339 37.3603 9.5237 38.7036 11.1773 38.7036C11.9721 38.7028 12.7341 38.3863 13.2957 37.8237C13.8572 37.2612 14.1723 36.4986 14.1716 35.7037V27.7035C14.172 27.3099 14.0949 26.9201 13.9446 26.5563C13.7944 26.1925 13.5739 25.8619 13.2958 25.5833C13.0178 25.3048 12.6876 25.0837 12.3241 24.9327C11.9605 24.7818 11.5709 24.7039 11.1773 24.7036C9.5237 24.7036 8.18339 26.0469 8.18339 27.7035Z" fill="#E01E5A"/>
</g>
<defs>
<clipPath id="clip0_1258_111561">
<rect width="121" height="48" fill="white" transform="translate(0.199219)"/>
</clipPath>
</defs>
</svg>
