<svg width="121" height="48" viewBox="0 0 121 48" fill="none" xmlns="http://www.w3.org/2000/svg">
<g clip-path="url(#clip0_1258_111570)">
<path d="M38.9312 21.8009C38.9312 19.6682 36.7985 17.3934 33.244 17.3934C29.2629 17.3934 24.7132 20.3791 24.0023 26.3507C23.2914 32.3223 26.9881 35.0237 30.8269 35.0237C34.6658 35.0237 36.5141 33.6019 38.5047 31.6114C36.7985 29.4787 34.5236 30.4739 34.0971 30.6161C33.6705 30.9005 32.9596 31.1848 31.8222 31.1848C30.4004 31.1848 28.8364 30.4739 28.8364 27.7725C38.2203 26.7773 38.9312 23.9336 38.9312 21.8009ZM34.3814 22.0853C34.3814 22.7962 34.0971 23.9336 29.4051 24.5024C30.4004 20.9479 32.2487 20.6635 33.1018 20.6635C33.9549 20.8057 34.3814 21.3744 34.3814 22.0853ZM18.5994 22.654C18.5994 22.654 16.6089 28.91 16.4667 29.4787C16.4667 28.91 14.9028 17.6777 14.9028 17.6777C11.4904 17.6777 9.6421 20.0948 8.78902 22.654C8.78902 22.654 6.37195 28.91 6.22977 29.4787C6.08759 29.0521 5.80323 22.7962 5.80323 22.7962C5.51887 19.6682 2.67527 17.6777 0.400391 17.6777L3.24399 34.7393C6.79849 34.7393 8.78902 32.3223 9.78428 29.763C9.78428 29.763 11.917 24.218 12.0592 23.9336C12.0592 24.218 13.6231 34.7393 13.6231 34.7393C17.1776 34.7393 19.1682 32.4645 20.1634 30.0474L25.1397 17.6777C21.443 17.6777 19.5947 20.0948 18.5994 22.654ZM52.1539 17.2512C50.0212 17.2512 48.3151 18.3886 46.8933 20.237L48.0307 10C45.0449 10 42.7701 12.5592 42.2013 16.2559L39.9265 34.5972C41.6326 34.5972 43.3388 34.1706 44.334 32.891C45.1871 34.0284 46.4667 34.8815 48.3151 34.8815C53.2914 34.8815 56.7037 29.1943 56.7037 23.7915C56.8459 18.8152 54.4288 17.2512 52.1539 17.2512ZM51.5852 26.0663C51.0165 29.0521 49.4525 31.0427 47.7464 31.0427C46.1824 31.0427 45.4715 30.3318 45.4715 30.3318C45.7558 27.7725 46.0402 26.0663 46.6089 24.6445C47.1776 23.2227 48.5994 21.09 50.0212 21.09C51.443 21.2322 52.1539 23.0806 51.5852 26.0663ZM69.2156 17.6777H65.8032V17.5355C66.0876 15.2607 66.5141 14.1232 68.3625 13.981C69.4999 13.8389 70.0686 13.2701 70.2108 12.5592C70.353 11.9905 70.6374 10.1422 70.6374 10.1422C63.6705 10.1422 61.5378 13.128 60.9691 17.6777V17.8199H60.8269C59.6895 17.8199 58.4099 19.0995 58.2677 20.6635L58.1255 21.2322H60.4004L58.4099 37.1564L57.8411 40C57.9833 40 57.9833 40 58.1255 40C61.3956 39.8578 63.3862 37.2986 63.9549 33.6019L65.5189 21.09H66.6563C67.6516 21.09 68.9312 20.0948 69.2156 18.2464V17.6777ZM87.1302 17.3934C83.1492 17.3934 79.4525 20.3791 78.3151 24.9289C77.1776 29.4787 78.8838 35.0237 84.7132 35.0237C90.5426 35.0237 93.9549 29.3365 93.9549 24.6445C93.8127 19.9526 90.6847 17.3934 87.1302 17.3934ZM88.6942 25.9242C88.552 28.0569 87.5568 31.1848 84.9975 31.1848C82.4383 31.1848 82.8648 27.4882 83.007 25.782C83.2914 23.9336 84.2866 21.2322 86.5615 21.2322C88.6942 21.2322 88.9786 23.6493 88.6942 25.9242ZM113.576 22.654C113.576 22.654 111.585 28.91 111.443 29.4787C111.443 28.91 109.879 17.6777 109.879 17.6777C106.467 17.6777 104.618 20.0948 103.765 22.654C103.765 22.654 101.348 28.91 101.206 29.4787C101.206 29.0521 100.78 22.7962 100.78 22.7962C100.637 19.6682 97.6516 17.8199 95.3767 17.8199L98.2203 34.8815C101.775 34.8815 103.765 32.4645 104.761 29.9052C104.761 29.9052 106.893 24.3602 107.035 24.0758C107.035 24.3602 108.599 34.8815 108.599 34.8815C112.154 34.8815 114.144 32.6066 115.14 30.1896L119.832 17.6777C116.277 17.6777 114.429 20.0948 113.576 22.654ZM72.4857 10.1422L69.6421 33.4597L69.0734 36.3033C69.2156 36.3033 69.2156 36.3033 69.3577 36.3033C72.4857 36.3033 74.7606 33.4597 75.0449 30.0474L76.7511 16.6825C77.1776 12.7014 74.6184 10.1422 72.4857 10.1422Z" fill="#1B1B1B"/>
</g>
<defs>
<clipPath id="clip0_1258_111570">
<rect width="120" height="48" fill="white" transform="translate(0.400391)"/>
</clipPath>
</defs>
</svg>
