<svg width="50" height="37" viewBox="0 0 50 37" fill="none" xmlns="http://www.w3.org/2000/svg">
<path d="M6.2 36V8.3L0.45 9.65V4.75L8.9 0.999998H12.85V36H6.2ZM34.133 36.6C30.8997 36.6 28.133 35.85 25.833 34.35C23.533 32.8167 21.7497 30.7 20.483 28C19.2497 25.2667 18.633 22.1 18.633 18.5C18.633 14.9333 19.2497 11.7833 20.483 9.05C21.7497 6.31666 23.533 4.2 25.833 2.7C28.133 1.16667 30.8997 0.399999 34.133 0.399999C37.3663 0.399999 40.133 1.16667 42.433 2.7C44.733 4.2 46.4997 6.31666 47.733 9.05C48.9997 11.7833 49.633 14.9333 49.633 18.5C49.633 22.1 48.9997 25.2667 47.733 28C46.4997 30.7 44.733 32.8167 42.433 34.35C40.133 35.85 37.3663 36.6 34.133 36.6ZM34.133 30.85C36.7663 30.85 38.9163 29.75 40.583 27.55C42.2497 25.35 43.083 22.3333 43.083 18.5C43.083 14.6667 42.2497 11.65 40.583 9.45C38.9163 7.25 36.7663 6.15 34.133 6.15C31.4663 6.15 29.2997 7.25 27.633 9.45C25.9997 11.65 25.183 14.6667 25.183 18.5C25.183 22.3333 25.9997 25.35 27.633 27.55C29.2997 29.75 31.4663 30.85 34.133 30.85Z" fill="white"/>
</svg>
