<svg width="40" height="34" viewBox="0 0 40 34" fill="none" xmlns="http://www.w3.org/2000/svg">
<g id="Group">
<path id="Vector" d="M14.6859 0.326172C13.906 0.409358 13.2495 1.15535 13.2539 1.95401V5.76956H2.94606C1.44033 5.76956 0.464844 7.12905 0.464844 8.46571V31.2908C0.464844 32.6275 1.44024 33.987 2.94606 33.987H37.3988C38.9046 33.987 39.8965 32.6275 39.8965 31.2908V8.46571C39.8965 7.12905 38.9046 5.76956 37.3988 5.76956H27.1082V1.95401C27.1082 1.10168 26.3467 0.326172 25.5095 0.326172H14.6859ZM16.4509 3.58185H23.9109V5.76956H16.4509V3.58185ZM3.6623 9.02524H36.6991V18.2795L32.5029 20.8401H7.85817L3.66196 18.2965L3.6623 9.02524ZM18.4156 15.5369C17.5784 15.5812 16.8566 16.3974 16.9002 17.2496C16.9438 18.1019 17.7451 18.8372 18.5824 18.793H21.7793C22.6239 18.805 23.4005 18.0252 23.4005 17.1651C23.4005 16.3051 22.624 15.5252 21.7793 15.5373H18.5824C18.527 15.5326 18.471 15.5322 18.4156 15.5369Z" fill="#FFD600"/>
</g>
</svg>
