<svg width="40" height="34" viewBox="0 0 40 34" fill="none" xmlns="http://www.w3.org/2000/svg">
<path d="M14.6619 0.326172C13.8821 0.409358 13.2256 1.15535 13.23 1.95401V5.76956H2.92213C1.4164 5.76956 0.440918 7.12905 0.440918 8.46571V31.2908C0.440918 32.6275 1.41632 33.987 2.92213 33.987H37.3749C38.8806 33.987 39.8725 32.6275 39.8725 31.2908V8.46571C39.8725 7.12905 38.8806 5.76956 37.3749 5.76956H27.0842V1.95401C27.0842 1.10168 26.3228 0.326172 25.4856 0.326172H14.6619ZM16.427 3.58185H23.887V5.76956H16.427V3.58185ZM3.63837 9.02524H36.6752V18.2795L32.4789 20.8401H7.83424L3.63803 18.2965L3.63837 9.02524ZM18.3917 15.5369C17.5545 15.5812 16.8326 16.3974 16.8763 17.2496C16.9199 18.1019 17.7212 18.8372 18.5585 18.793H21.7554C22.6 18.805 23.3765 18.0252 23.3765 17.1651C23.3765 16.3051 22.6 15.5252 21.7554 15.5373H18.5585C18.5031 15.5326 18.4474 15.5326 18.3921 15.5373L18.3917 15.5369Z" fill="white"/>
</svg>
