<svg width="231" height="63" viewBox="0 0 231 63" fill="none" xmlns="http://www.w3.org/2000/svg">
<path d="M38.6624 0.326172C37.8826 0.409358 37.2261 1.15535 37.2305 1.95401V5.76956H26.9226C25.4169 5.76956 24.4414 7.12905 24.4414 8.46571V31.2908C24.4414 32.6275 25.4168 33.987 26.9226 33.987H61.3754C62.8811 33.987 63.873 32.6275 63.873 31.2908V8.46571C63.873 7.12905 62.8811 5.76956 61.3754 5.76956H51.0847V1.95401C51.0847 1.10168 50.3233 0.326172 49.4861 0.326172H38.6624ZM40.4275 3.58185H47.8874V5.76956H40.4275V3.58185ZM27.6389 9.02524H60.6756V18.2795L56.4794 20.8401H31.8347L27.6385 18.2965L27.6389 9.02524ZM42.3922 15.5369C41.555 15.5812 40.8331 16.3974 40.8768 17.2496C40.9204 18.1019 41.7217 18.8372 42.559 18.793H45.7559C46.6005 18.805 47.377 18.0252 47.377 17.1651C47.377 16.3051 46.6005 15.5252 45.7559 15.5373H42.559C42.5036 15.5326 42.4479 15.5326 42.3926 15.5373L42.3922 15.5369Z" fill="white"/>
<path d="M6.20144 55.6842C5.0921 55.6842 4.1321 55.4442 3.32144 54.9642C2.52144 54.4735 1.90277 53.7962 1.46544 52.9322C1.0281 52.0575 0.809437 51.0495 0.809437 49.9082C0.809437 48.7562 1.0281 47.7482 1.46544 46.8842C1.90277 46.0095 2.52144 45.3269 3.32144 44.8362C4.1321 44.3455 5.0921 44.1002 6.20144 44.1002C7.51344 44.1002 8.58544 44.4202 9.41744 45.0602C10.2494 45.7002 10.7774 46.5962 11.0014 47.7482H9.11344C8.9641 47.0975 8.6441 46.5802 8.15344 46.1962C7.66277 45.8122 7.00677 45.6202 6.18544 45.6202C5.06544 45.6202 4.1801 46.0042 3.52944 46.7722C2.87877 47.5295 2.55344 48.5749 2.55344 49.9082C2.55344 51.2309 2.87877 52.2709 3.52944 53.0282C4.1801 53.7855 5.06544 54.1642 6.18544 54.1642C7.00677 54.1642 7.66277 53.9829 8.15344 53.6202C8.6441 53.2575 8.9641 52.7615 9.11344 52.1322H11.0014C10.7774 53.2415 10.2494 54.1109 9.41744 54.7402C8.58544 55.3695 7.51344 55.6842 6.20144 55.6842ZM16.7137 55.6842C15.9564 55.6842 15.2737 55.5135 14.6657 55.1722C14.0684 54.8202 13.5937 54.3349 13.2417 53.7162C12.8897 53.0869 12.7137 52.3562 12.7137 51.5242C12.7137 50.6922 12.8897 49.9669 13.2417 49.3482C13.6044 48.7189 14.0897 48.2335 14.6977 47.8922C15.3057 47.5402 15.983 47.3642 16.7297 47.3642C17.487 47.3642 18.1644 47.5402 18.7617 47.8922C19.3697 48.2335 19.8497 48.7189 20.2017 49.3482C20.5644 49.9669 20.7457 50.6922 20.7457 51.5242C20.7457 52.3562 20.5644 53.0869 20.2017 53.7162C19.8497 54.3349 19.3697 54.8202 18.7617 55.1722C18.1537 55.5135 17.471 55.6842 16.7137 55.6842ZM16.7137 54.2282C17.119 54.2282 17.4924 54.1269 17.8337 53.9242C18.1857 53.7215 18.4684 53.4229 18.6817 53.0282C18.895 52.6229 19.0017 52.1215 19.0017 51.5242C19.0017 50.9269 18.895 50.4309 18.6817 50.0362C18.479 49.6309 18.2017 49.3269 17.8497 49.1242C17.5084 48.9215 17.135 48.8202 16.7297 48.8202C16.3244 48.8202 15.9457 48.9215 15.5937 49.1242C15.2524 49.3269 14.975 49.6309 14.7617 50.0362C14.5484 50.4309 14.4417 50.9269 14.4417 51.5242C14.4417 52.1215 14.5484 52.6229 14.7617 53.0282C14.975 53.4229 15.2524 53.7215 15.5937 53.9242C15.935 54.1269 16.3084 54.2282 16.7137 54.2282ZM22.7798 55.4922V47.5562H24.2838L24.4278 48.6762C24.6838 48.2709 25.0198 47.9509 25.4358 47.7162C25.8625 47.4815 26.3531 47.3642 26.9078 47.3642C28.1665 47.3642 29.0411 47.8602 29.5318 48.8522C29.8198 48.3935 30.2038 48.0309 30.6838 47.7642C31.1745 47.4975 31.7025 47.3642 32.2678 47.3642C33.2598 47.3642 34.0385 47.6629 34.6038 48.2602C35.1691 48.8575 35.4518 49.7482 35.4518 50.9322V55.4922H33.7558V51.1082C33.7558 49.5722 33.1691 48.8042 31.9958 48.8042C31.3985 48.8042 30.9078 49.0282 30.5238 49.4762C30.1505 49.9242 29.9638 50.5642 29.9638 51.3962V55.4922H28.2678V51.1082C28.2678 49.5722 27.6758 48.8042 26.4918 48.8042C25.9051 48.8042 25.4198 49.0282 25.0358 49.4762C24.6625 49.9242 24.4758 50.5642 24.4758 51.3962V55.4922H22.7798ZM37.6361 55.4922V47.5562H39.1401L39.2841 48.6762C39.5401 48.2709 39.8761 47.9509 40.2921 47.7162C40.7187 47.4815 41.2094 47.3642 41.7641 47.3642C43.0227 47.3642 43.8974 47.8602 44.3881 48.8522C44.6761 48.3935 45.0601 48.0309 45.5401 47.7642C46.0307 47.4975 46.5587 47.3642 47.1241 47.3642C48.1161 47.3642 48.8947 47.6629 49.4601 48.2602C50.0254 48.8575 50.3081 49.7482 50.3081 50.9322V55.4922H48.6121V51.1082C48.6121 49.5722 48.0254 48.8042 46.8521 48.8042C46.2547 48.8042 45.7641 49.0282 45.3801 49.4762C45.0067 49.9242 44.8201 50.5642 44.8201 51.3962V55.4922H43.1241V51.1082C43.1241 49.5722 42.5321 48.8042 41.3481 48.8042C40.7614 48.8042 40.2761 49.0282 39.8921 49.4762C39.5187 49.9242 39.3321 50.5642 39.3321 51.3962V55.4922H37.6361ZM56.2043 55.6842C55.4256 55.6842 54.7323 55.5135 54.1243 55.1722C53.527 54.8202 53.0576 54.3349 52.7163 53.7162C52.375 53.0975 52.2043 52.3775 52.2043 51.5562C52.2043 50.7242 52.3696 49.9935 52.7003 49.3642C53.0416 48.7349 53.511 48.2442 54.1083 47.8922C54.7163 47.5402 55.4203 47.3642 56.2203 47.3642C56.999 47.3642 57.6763 47.5402 58.2523 47.8922C58.8283 48.2335 59.2763 48.6922 59.5963 49.2682C59.9163 49.8442 60.0763 50.4789 60.0763 51.1722C60.0763 51.2789 60.071 51.3962 60.0603 51.5242C60.0603 51.6415 60.055 51.7749 60.0443 51.9242H53.8683C53.9216 52.6922 54.1723 53.2789 54.6203 53.6842C55.079 54.0789 55.607 54.2762 56.2043 54.2762C56.6843 54.2762 57.0843 54.1695 57.4043 53.9562C57.735 53.7322 57.9803 53.4335 58.1403 53.0602H59.8363C59.623 53.8069 59.1963 54.4309 58.5563 54.9322C57.927 55.4335 57.143 55.6842 56.2043 55.6842ZM56.2043 48.7562C55.639 48.7562 55.1376 48.9269 54.7003 49.2682C54.263 49.5989 53.9963 50.1002 53.9003 50.7722H58.3803C58.3483 50.1535 58.1296 49.6629 57.7243 49.3002C57.319 48.9375 56.8123 48.7562 56.2043 48.7562ZM62.0361 55.4922V47.5562H63.5561L63.7001 49.0602C63.9774 48.5375 64.3614 48.1269 64.8521 47.8282C65.3534 47.5189 65.9561 47.3642 66.6601 47.3642V49.1402H66.1961C65.7267 49.1402 65.3054 49.2202 64.9321 49.3802C64.5694 49.5295 64.2761 49.7909 64.0521 50.1642C63.8387 50.5269 63.7321 51.0335 63.7321 51.6842V55.4922H62.0361ZM71.8554 55.6842C71.0768 55.6842 70.3781 55.5082 69.7594 55.1562C69.1514 54.8042 68.6714 54.3189 68.3194 53.7002C67.9781 53.0709 67.8074 52.3455 67.8074 51.5242C67.8074 50.7029 67.9781 49.9829 68.3194 49.3642C68.6714 48.7349 69.1514 48.2442 69.7594 47.8922C70.3781 47.5402 71.0768 47.3642 71.8554 47.3642C72.8368 47.3642 73.6581 47.6202 74.3194 48.1322C74.9914 48.6442 75.4234 49.3375 75.6154 50.2122H73.8394C73.7328 49.7749 73.4981 49.4335 73.1354 49.1882C72.7728 48.9429 72.3461 48.8202 71.8554 48.8202C71.4394 48.8202 71.0554 48.9269 70.7034 49.1402C70.3514 49.3429 70.0688 49.6469 69.8554 50.0522C69.6421 50.4469 69.5354 50.9375 69.5354 51.5242C69.5354 52.1109 69.6421 52.6069 69.8554 53.0122C70.0688 53.4069 70.3514 53.7109 70.7034 53.9242C71.0554 54.1375 71.4394 54.2442 71.8554 54.2442C72.3461 54.2442 72.7728 54.1215 73.1354 53.8762C73.4981 53.6309 73.7328 53.2842 73.8394 52.8362H75.6154C75.4341 53.6895 75.0074 54.3775 74.3354 54.9002C73.6634 55.4229 72.8368 55.6842 71.8554 55.6842ZM81.3668 55.6842C80.5881 55.6842 79.8948 55.5135 79.2868 55.1722C78.6895 54.8202 78.2201 54.3349 77.8788 53.7162C77.5375 53.0975 77.3668 52.3775 77.3668 51.5562C77.3668 50.7242 77.5321 49.9935 77.8628 49.3642C78.2041 48.7349 78.6735 48.2442 79.2708 47.8922C79.8788 47.5402 80.5828 47.3642 81.3828 47.3642C82.1615 47.3642 82.8388 47.5402 83.4148 47.8922C83.9908 48.2335 84.4388 48.6922 84.7588 49.2682C85.0788 49.8442 85.2388 50.4789 85.2388 51.1722C85.2388 51.2789 85.2335 51.3962 85.2228 51.5242C85.2228 51.6415 85.2175 51.7749 85.2068 51.9242H79.0308C79.0841 52.6922 79.3348 53.2789 79.7828 53.6842C80.2415 54.0789 80.7695 54.2762 81.3668 54.2762C81.8468 54.2762 82.2468 54.1695 82.5668 53.9562C82.8975 53.7322 83.1428 53.4335 83.3028 53.0602H84.9988C84.7855 53.8069 84.3588 54.4309 83.7188 54.9322C83.0895 55.4335 82.3055 55.6842 81.3668 55.6842ZM81.3668 48.7562C80.8015 48.7562 80.3001 48.9269 79.8628 49.2682C79.4255 49.5989 79.1588 50.1002 79.0628 50.7722H83.5428C83.5108 50.1535 83.2921 49.6629 82.8868 49.3002C82.4815 48.9375 81.9748 48.7562 81.3668 48.7562Z" fill="white"/>
<path d="M127.2 55.4922V44.2922H131.424C132.587 44.2922 133.467 44.5642 134.064 45.1082C134.661 45.6522 134.96 46.3349 134.96 47.1562C134.96 47.8709 134.768 48.4415 134.384 48.8682C134 49.2842 133.536 49.5669 132.992 49.7162C133.419 49.8015 133.797 49.9722 134.128 50.2282C134.469 50.4842 134.736 50.8042 134.928 51.1882C135.12 51.5722 135.216 51.9882 135.216 52.4362C135.216 53.0122 135.072 53.5349 134.784 54.0042C134.507 54.4629 134.096 54.8255 133.552 55.0922C133.008 55.3589 132.341 55.4922 131.552 55.4922H127.2ZM128.896 49.0922H131.216C131.867 49.0922 132.363 48.9429 132.704 48.6442C133.045 48.3349 133.216 47.9135 133.216 47.3802C133.216 46.8575 133.045 46.4415 132.704 46.1322C132.373 45.8229 131.867 45.6682 131.184 45.6682H128.896V49.0922ZM128.896 54.1002H131.328C132.011 54.1002 132.539 53.9402 132.912 53.6202C133.296 53.3002 133.488 52.8522 133.488 52.2762C133.488 51.7002 133.291 51.2469 132.896 50.9162C132.501 50.5749 131.968 50.4042 131.296 50.4042H128.896V54.1002ZM140.923 55.6842C140.166 55.6842 139.483 55.5135 138.875 55.1722C138.278 54.8202 137.803 54.3349 137.451 53.7162C137.099 53.0869 136.923 52.3562 136.923 51.5242C136.923 50.6922 137.099 49.9669 137.451 49.3482C137.814 48.7189 138.299 48.2335 138.907 47.8922C139.515 47.5402 140.192 47.3642 140.939 47.3642C141.696 47.3642 142.374 47.5402 142.971 47.8922C143.579 48.2335 144.059 48.7189 144.411 49.3482C144.774 49.9669 144.955 50.6922 144.955 51.5242C144.955 52.3562 144.774 53.0869 144.411 53.7162C144.059 54.3349 143.579 54.8202 142.971 55.1722C142.363 55.5135 141.68 55.6842 140.923 55.6842ZM140.923 54.2282C141.328 54.2282 141.702 54.1269 142.043 53.9242C142.395 53.7215 142.678 53.4229 142.891 53.0282C143.104 52.6229 143.211 52.1215 143.211 51.5242C143.211 50.9269 143.104 50.4309 142.891 50.0362C142.688 49.6309 142.411 49.3269 142.059 49.1242C141.718 48.9215 141.344 48.8202 140.939 48.8202C140.534 48.8202 140.155 48.9215 139.803 49.1242C139.462 49.3269 139.184 49.6309 138.971 50.0362C138.758 50.4309 138.651 50.9269 138.651 51.5242C138.651 52.1215 138.758 52.6229 138.971 53.0282C139.184 53.4229 139.462 53.7215 139.803 53.9242C140.144 54.1269 140.518 54.2282 140.923 54.2282ZM149.677 55.6842C149.005 55.6842 148.451 55.5722 148.013 55.3482C147.576 55.1242 147.251 54.8309 147.037 54.4682C146.824 54.0949 146.717 53.6895 146.717 53.2522C146.717 52.4842 147.016 51.8762 147.613 51.4282C148.211 50.9802 149.064 50.7562 150.173 50.7562H152.253V50.6122C152.253 49.9935 152.083 49.5295 151.741 49.2202C151.411 48.9109 150.979 48.7562 150.445 48.7562C149.976 48.7562 149.565 48.8735 149.213 49.1082C148.872 49.3322 148.664 49.6682 148.589 50.1162H146.893C146.947 49.5402 147.139 49.0495 147.469 48.6442C147.811 48.2282 148.237 47.9135 148.749 47.7002C149.272 47.4762 149.843 47.3642 150.461 47.3642C151.571 47.3642 152.429 47.6575 153.037 48.2442C153.645 48.8202 153.949 49.6095 153.949 50.6122V55.4922H152.477L152.333 54.1322C152.109 54.5695 151.784 54.9375 151.357 55.2362C150.931 55.5349 150.371 55.6842 149.677 55.6842ZM150.013 54.3082C150.472 54.3082 150.856 54.2015 151.165 53.9882C151.485 53.7642 151.731 53.4709 151.901 53.1082C152.083 52.7455 152.195 52.3455 152.237 51.9082H150.349C149.677 51.9082 149.197 52.0255 148.909 52.2602C148.632 52.4949 148.493 52.7882 148.493 53.1402C148.493 53.5029 148.627 53.7909 148.893 54.0042C149.171 54.2069 149.544 54.3082 150.013 54.3082ZM156.127 55.4922V47.5562H157.647L157.791 49.0602C158.068 48.5375 158.452 48.1269 158.943 47.8282C159.444 47.5189 160.047 47.3642 160.751 47.3642V49.1402H160.287C159.817 49.1402 159.396 49.2202 159.023 49.3802C158.66 49.5295 158.367 49.7909 158.143 50.1642C157.929 50.5269 157.823 51.0335 157.823 51.6842V55.4922H156.127ZM165.802 55.6842C165.034 55.6842 164.357 55.5029 163.77 55.1402C163.183 54.7775 162.725 54.2815 162.394 53.6522C162.063 53.0229 161.898 52.3082 161.898 51.5082C161.898 50.7082 162.063 49.9989 162.394 49.3802C162.725 48.7509 163.183 48.2602 163.77 47.9082C164.367 47.5455 165.05 47.3642 165.818 47.3642C166.447 47.3642 166.997 47.4869 167.466 47.7322C167.946 47.9775 168.319 48.3242 168.586 48.7722V43.9722H170.282V55.4922H168.762L168.586 54.2602C168.33 54.6335 167.978 54.9642 167.53 55.2522C167.082 55.5402 166.506 55.6842 165.802 55.6842ZM166.106 54.2122C166.831 54.2122 167.423 53.9615 167.882 53.4602C168.351 52.9589 168.586 52.3135 168.586 51.5242C168.586 50.7242 168.351 50.0789 167.882 49.5882C167.423 49.0869 166.831 48.8362 166.106 48.8362C165.381 48.8362 164.783 49.0869 164.314 49.5882C163.845 50.0789 163.61 50.7242 163.61 51.5242C163.61 52.0469 163.717 52.5109 163.93 52.9162C164.143 53.3215 164.437 53.6415 164.81 53.8762C165.194 54.1002 165.626 54.2122 166.106 54.2122ZM176.74 51.5562V50.1322H179.764V47.3002H181.236V50.1322H184.26V51.5562H181.236V54.4042H179.764V51.5562H176.74ZM195.776 55.6842C194.667 55.6842 193.707 55.4442 192.896 54.9642C192.096 54.4735 191.478 53.7962 191.04 52.9322C190.603 52.0575 190.384 51.0495 190.384 49.9082C190.384 48.7562 190.603 47.7482 191.04 46.8842C191.478 46.0095 192.096 45.3269 192.896 44.8362C193.707 44.3455 194.667 44.1002 195.776 44.1002C197.088 44.1002 198.16 44.4202 198.992 45.0602C199.824 45.7002 200.352 46.5962 200.576 47.7482H198.688C198.539 47.0975 198.219 46.5802 197.728 46.1962C197.238 45.8122 196.582 45.6202 195.76 45.6202C194.64 45.6202 193.755 46.0042 193.104 46.7722C192.454 47.5295 192.128 48.5749 192.128 49.9082C192.128 51.2309 192.454 52.2709 193.104 53.0282C193.755 53.7855 194.64 54.1642 195.76 54.1642C196.582 54.1642 197.238 53.9829 197.728 53.6202C198.219 53.2575 198.539 52.7615 198.688 52.1322H200.576C200.352 53.2415 199.824 54.1109 198.992 54.7402C198.16 55.3695 197.088 55.6842 195.776 55.6842ZM206.833 55.6842C206.033 55.6842 205.307 55.5295 204.657 55.2202C204.017 54.9002 203.505 54.4149 203.121 53.7642C202.747 53.1135 202.561 52.2869 202.561 51.2842V44.2922H204.257V51.3002C204.257 52.2815 204.491 53.0015 204.961 53.4602C205.43 53.9189 206.065 54.1482 206.865 54.1482C207.654 54.1482 208.283 53.9189 208.753 53.4602C209.222 53.0015 209.457 52.2815 209.457 51.3002V44.2922H211.153V51.2842C211.153 52.2869 210.955 53.1135 210.561 53.7642C210.177 54.4149 209.654 54.9002 208.993 55.2202C208.342 55.5295 207.622 55.6842 206.833 55.6842ZM213.528 55.4922V44.2922H220.648V45.6682H215.224V49.1562H220.168V50.5002H215.224V54.1162H220.648V55.4922H213.528ZM225.493 55.4922V45.6682H222.181V44.2922H230.485V45.6682H227.189V55.4922H225.493Z" fill="white"/>
<path d="M149.348 25.6342L148.83 26.4897L148.839 26.4947L149.348 25.6342ZM146.306 22.3322L145.412 22.7794L145.414 22.7838L146.306 22.3322ZM146.306 12.5042L145.412 12.057L145.412 12.057L146.306 12.5042ZM159.436 9.61819L158.817 10.4039L158.828 10.4123L159.436 9.61819ZM162.062 14.1682V15.1682H163.255L163.047 13.9939L162.062 14.1682ZM158.396 14.1682L157.421 14.3905L157.599 15.1682H158.396V14.1682ZM156.94 11.8542L156.322 12.6405L156.333 12.6486L156.343 12.6564L156.94 11.8542ZM150.076 12.7122L149.308 12.072L149.308 12.072L150.076 12.7122ZM150.076 22.1242L149.308 22.7644L149.313 22.7701L150.076 22.1242ZM156.94 23.0342L157.521 23.8479L157.525 23.8454L156.94 23.0342ZM158.396 20.8242V19.8242H157.608L157.424 20.5901L158.396 20.8242ZM162.062 20.8242L163.045 21.0063L163.264 19.8242H162.062V20.8242ZM159.436 25.2182L158.835 24.4194L158.83 24.423L159.436 25.2182ZM154.08 25.8042C152.386 25.8042 150.992 25.4456 149.858 24.7737L148.839 26.4947C150.338 27.3827 152.1 27.8042 154.08 27.8042V25.8042ZM149.866 24.7787C148.712 24.0805 147.826 23.1214 147.198 21.8806L145.414 22.7838C146.207 24.351 147.349 25.5932 148.83 26.4897L149.866 24.7787ZM147.201 21.885C146.57 20.6239 146.24 19.1435 146.24 17.4182H144.24C144.24 19.4022 144.621 21.1978 145.412 22.7794L147.201 21.885ZM146.24 17.4182C146.24 15.6929 146.57 14.2124 147.201 12.9514L145.412 12.057C144.621 13.6386 144.24 15.4342 144.24 17.4182H146.24ZM147.201 12.9514C147.83 11.6933 148.716 10.728 149.866 10.0317L148.83 8.32069C147.346 9.21906 146.204 10.4724 145.412 12.057L147.201 12.9514ZM149.866 10.0317C150.999 9.34572 152.39 8.98019 154.08 8.98019V6.98019C152.096 6.98019 150.332 7.41199 148.83 8.32069L149.866 10.0317ZM154.08 8.98019C156.094 8.98019 157.646 9.48105 158.817 10.4038L160.055 8.83255C158.453 7.57132 156.434 6.98019 154.08 6.98019V8.98019ZM158.828 10.4123C160.008 11.3155 160.769 12.5971 161.077 14.3425L163.047 13.9939C162.662 11.8219 161.672 10.0702 160.044 8.82411L158.828 10.4123ZM162.062 13.1682H158.396V15.1682H162.062V13.1682ZM159.371 13.9458C159.098 12.7484 158.491 11.762 157.537 11.052L156.343 12.6564C156.88 13.0557 157.244 13.612 157.421 14.3905L159.371 13.9458ZM157.558 11.0679C156.606 10.3197 155.396 9.99619 154.028 9.99619V11.9962C155.087 11.9962 155.819 12.2447 156.322 12.6405L157.558 11.0679ZM154.028 9.99619C152.093 9.99619 150.477 10.6689 149.308 12.072L150.844 13.3524C151.582 12.4675 152.601 11.9962 154.028 11.9962V9.99619ZM149.308 12.072C148.161 13.4486 147.646 15.2705 147.646 17.4182H149.646C149.646 15.5792 150.085 14.2638 150.844 13.3524L149.308 12.072ZM147.646 17.4182C147.646 19.5659 148.161 21.3878 149.308 22.7644L150.844 21.484C150.085 20.5726 149.646 19.2572 149.646 17.4182H147.646ZM149.313 22.7701C150.484 24.1541 152.098 24.8142 154.028 24.8142V22.8142C152.595 22.8142 151.575 22.3476 150.84 21.4782L149.313 22.7701ZM154.028 24.8142C155.377 24.8142 156.573 24.5255 157.521 23.8479L156.359 22.2205C155.851 22.5829 155.106 22.8142 154.028 22.8142V24.8142ZM157.525 23.8454C158.474 23.1611 159.09 22.2147 159.368 21.0582L157.424 20.5901C157.252 21.3057 156.897 21.8326 156.355 22.223L157.525 23.8454ZM158.396 21.8242H162.062V19.8242H158.396V21.8242ZM161.079 20.6421C160.774 22.2903 160.021 23.5257 158.835 24.4194L160.038 26.017C161.659 24.796 162.657 23.1021 163.045 21.0063L161.079 20.6421ZM158.83 24.423C157.657 25.317 156.101 25.8042 154.08 25.8042V27.8042C156.427 27.8042 158.442 27.234 160.042 26.0134L158.83 24.423ZM168.614 26.0242L168.167 26.9187L168.178 26.9243L168.614 26.0242ZM166.04 23.6062L165.175 24.1084L165.181 24.1186L166.04 23.6062ZM165.104 8.29219V7.29219H164.104V8.29219H165.104ZM168.432 8.29219H169.432V7.29219H168.432V8.29219ZM169.446 22.7222L168.73 23.4203L168.739 23.4293L169.446 22.7222ZM175.14 22.7222L174.433 22.0151L174.433 22.0151L175.14 22.7222ZM176.18 8.29219V7.29219H175.18V8.29219H176.18ZM179.508 8.29219H180.508V7.29219H179.508V8.29219ZM178.52 23.6062L177.667 23.0836L177.667 23.0836L178.52 23.6062ZM175.868 26.0242L176.298 26.9271L176.304 26.9242L175.868 26.0242ZM172.228 25.8042C171.026 25.8042 169.973 25.5709 169.05 25.124L168.178 26.9243C169.404 27.5174 170.76 27.8042 172.228 27.8042V25.8042ZM169.061 25.1298C168.165 24.6815 167.446 24.0116 166.899 23.0937L165.181 24.1186C165.916 25.3501 166.914 26.2922 168.167 26.9186L169.061 25.1298ZM166.905 23.1041C166.394 22.2237 166.104 21.0501 166.104 19.5242H164.104C164.104 21.2916 164.438 22.8393 165.175 24.1083L166.905 23.1041ZM166.104 19.5242V8.29219H164.104V19.5242H166.104ZM165.104 9.29219H168.432V7.29219H165.104V9.29219ZM167.432 8.29219V19.5502H169.432V8.29219H167.432ZM167.432 19.5502C167.432 21.1112 167.802 22.4685 168.73 23.4203L170.162 22.0241C169.738 21.5893 169.432 20.8318 169.432 19.5502H167.432ZM168.739 23.4293C169.662 24.3526 170.894 24.7622 172.306 24.7622V22.7622C171.291 22.7622 170.617 22.4784 170.153 22.0151L168.739 23.4293ZM172.306 24.7622C173.705 24.7622 174.927 24.3499 175.847 23.4293L174.433 22.0151C173.967 22.4811 173.299 22.7622 172.306 22.7622V24.7622ZM175.847 23.4293C176.798 22.4782 177.18 21.1173 177.18 19.5502H175.18C175.18 20.8257 174.868 21.5796 174.433 22.0151L175.847 23.4293ZM177.18 19.5502V8.29219H175.18V19.5502H177.18ZM176.18 9.29219H179.508V7.29219H176.18V9.29219ZM178.508 8.29219V19.5242H180.508V8.29219H178.508ZM178.508 19.5242C178.508 21.0417 178.204 22.2075 177.667 23.0836L179.373 24.1287C180.153 22.8555 180.508 21.3 180.508 19.5242H178.508ZM177.667 23.0836C177.106 23.9991 176.365 24.6722 175.432 25.1242L176.304 26.9242C177.589 26.3015 178.616 25.3626 179.373 24.1287L177.667 23.0836ZM175.438 25.1213C174.494 25.571 173.43 25.8042 172.228 25.8042V27.8042C173.696 27.8042 175.058 27.5174 176.298 26.927L175.438 25.1213ZM183.105 26.4922H182.105V27.4922H183.105V26.4922ZM183.105 8.29219V7.29219H182.105V8.29219H183.105ZM194.987 8.29219H195.987V7.29219H194.987V8.29219ZM194.987 10.9702V11.9702H195.987V10.9702H194.987ZM186.433 10.9702V9.97019H185.433V10.9702H186.433ZM186.433 15.9622H185.433V16.9622H186.433V15.9622ZM194.207 15.9622H195.207V14.9622H194.207V15.9622ZM194.207 18.5622V19.5622H195.207V18.5622H194.207ZM186.433 18.5622V17.5622H185.433V18.5622H186.433ZM186.433 23.8142H185.433V24.8142H186.433V23.8142ZM194.987 23.8142H195.987V22.8142H194.987V23.8142ZM194.987 26.4922V27.4922H195.987V26.4922H194.987ZM184.105 26.4922V8.29219H182.105V26.4922H184.105ZM183.105 9.29219H194.987V7.29219H183.105V9.29219ZM193.987 8.29219V10.9702H195.987V8.29219H193.987ZM194.987 9.97019H186.433V11.9702H194.987V9.97019ZM185.433 10.9702V15.9622H187.433V10.9702H185.433ZM186.433 16.9622H194.207V14.9622H186.433V16.9622ZM193.207 15.9622V18.5622H195.207V15.9622H193.207ZM194.207 17.5622H186.433V19.5622H194.207V17.5622ZM185.433 18.5622V23.8142H187.433V18.5622H185.433ZM186.433 24.8142H194.987V22.8142H186.433V24.8142ZM193.987 23.8142V26.4922H195.987V23.8142H193.987ZM194.987 25.4922H183.105V27.4922H194.987V25.4922ZM202.575 26.4922H201.575V27.4922H202.575V26.4922ZM202.575 10.9702H203.575V9.97019H202.575V10.9702ZM197.271 10.9702H196.271V11.9702H197.271V10.9702ZM197.271 8.29219V7.29219H196.271V8.29219H197.271ZM211.233 8.29219H212.233V7.29219H211.233V8.29219ZM211.233 10.9702V11.9702H212.233V10.9702H211.233ZM205.903 10.9702V9.97019H204.903V10.9702H205.903ZM205.903 26.4922V27.4922H206.903V26.4922H205.903ZM203.575 26.4922V10.9702H201.575V26.4922H203.575ZM202.575 9.97019H197.271V11.9702H202.575V9.97019ZM198.271 10.9702V8.29219H196.271V10.9702H198.271ZM197.271 9.29219H211.233V7.29219H197.271V9.29219ZM210.233 8.29219V10.9702H212.233V8.29219H210.233ZM211.233 9.97019H205.903V11.9702H211.233V9.97019ZM204.903 10.9702V26.4922H206.903V10.9702H204.903ZM205.903 25.4922H202.575V27.4922H205.903V25.4922Z" fill="white"/>
</svg>
