<svg width="49" height="35" viewBox="0 0 49 35" fill="none" xmlns="http://www.w3.org/2000/svg">
<path d="M24.6909 17.1601C24.1043 17.1601 24.8499 17.2759 9.80298 12.8594V23.8282C9.80298 24.0783 9.92782 24.306 10.1339 24.4385C10.3264 24.5706 10.5831 24.6055 10.8251 24.5047C15.6185 22.4535 20.1326 22.4462 24.3676 24.4901C24.5734 24.5856 24.8088 24.5856 25.0072 24.4901C29.2494 22.4462 33.7632 22.4536 38.5497 24.5047C38.7778 24.6003 39.0425 24.5783 39.2482 24.4385C39.454 24.3063 39.5791 24.0782 39.5791 23.8282V12.8594C24.319 17.3407 25.259 17.1601 24.6913 17.1601H24.6909Z" fill="white"/>
<path d="M48.423 7.30113L24.8972 0.353634C24.765 0.317018 24.6179 0.317018 24.4854 0.353634L0.959532 7.30113C0.650919 7.39668 0.430176 7.68332 0.430176 8.00693C0.430176 8.33055 0.650571 8.61719 0.959532 8.71274L24.4854 15.6602C24.5516 15.6822 24.6252 15.6895 24.6911 15.6895C24.7647 15.6895 24.8309 15.6822 24.8969 15.6602L48.4227 8.71274C48.739 8.61719 48.9521 8.33055 48.9521 8.00693C48.9524 7.68332 48.739 7.39668 48.423 7.30113Z" fill="white"/>
<path d="M41.386 26.9905V32.9086C41.386 33.7173 42.0475 34.3788 42.8562 34.3788H46.3409C47.1569 34.3788 47.8112 33.7173 47.8112 32.9086V27.108C47.8112 26.0053 47.2891 25.0129 46.4805 24.4172C46.9143 23.9615 47.1716 23.3439 47.1716 22.6747C47.1716 21.5131 46.3922 20.5426 45.3335 20.219V11.1543L43.8633 11.5881V20.2193C42.8046 20.5429 42.0252 21.513 42.0252 22.675C42.0252 23.3365 42.2752 23.9467 42.7017 24.4026C41.9582 24.8988 41.386 25.8773 41.386 26.9907L41.386 26.9905Z" fill="white"/>
</svg>
