<svg width="49" height="35" viewBox="0 0 49 35" fill="none" xmlns="http://www.w3.org/2000/svg">
<g id="Group">
<path id="Vector" d="M24.6887 17.1601C24.1021 17.1601 24.8477 17.2759 9.80078 12.8594V23.8282C9.80078 24.0783 9.92562 24.306 10.1317 24.4385C10.3242 24.5706 10.5809 24.6055 10.8229 24.5047C15.6163 22.4535 20.1304 22.4462 24.3654 24.4901C24.5712 24.5856 24.8066 24.5856 25.005 24.4901C29.2472 22.4462 33.761 22.4536 38.5475 24.5047C38.7756 24.6003 39.0403 24.5783 39.246 24.4385C39.4518 24.3063 39.577 24.0782 39.577 23.8282V12.8594C24.3168 17.3407 25.2568 17.1601 24.6891 17.1601H24.6887Z" fill="#FFD600"/>
<path id="Vector_2" d="M48.4226 7.30113L24.8967 0.353634C24.7646 0.317018 24.6174 0.317018 24.4849 0.353634L0.959044 7.30113C0.65043 7.39668 0.429688 7.68332 0.429688 8.00693C0.429688 8.33055 0.650082 8.61719 0.959044 8.71274L24.4849 15.6602C24.5511 15.6822 24.6247 15.6895 24.6906 15.6895C24.7642 15.6895 24.8305 15.6822 24.8964 15.6602L48.4222 8.71274C48.7385 8.61719 48.9516 8.33055 48.9516 8.00693C48.9519 7.68332 48.7385 7.39668 48.4226 7.30113Z" fill="#FFD600"/>
<path id="Vector_3" d="M41.3867 26.9905V32.9086C41.3867 33.7173 42.0482 34.3788 42.8569 34.3788H46.3417C47.1577 34.3788 47.8119 33.7173 47.8119 32.9086V27.108C47.8119 26.0053 47.2898 25.0129 46.4812 24.4172C46.915 23.9615 47.1724 23.3439 47.1724 22.6747C47.1724 21.5131 46.393 20.5426 45.3343 20.219V11.1543L43.864 11.5881V20.2193C42.8054 20.5429 42.0259 21.513 42.0259 22.675C42.0259 23.3365 42.276 23.9467 42.7024 24.4026C41.959 24.8988 41.3867 25.8773 41.3867 26.9907L41.3867 26.9905Z" fill="#FFD600"/>
</g>
</svg>
