<svg width="44" height="22" viewBox="0 0 44 22" fill="none" xmlns="http://www.w3.org/2000/svg">
<path d="M0.0400001 22V0.999999H3.88V9.49L11.65 0.999999H16.39L8.65 9.34L16.6 22H11.89L5.89 12.28L3.88 14.47V22H0.0400001ZM21.7095 22V5.38L18.2595 6.19V3.25L23.3295 0.999999H25.6995V22H21.7095ZM29.4612 22V19.21C30.7412 18.15 31.9812 17.1 33.1812 16.06C34.4013 15.02 35.4813 13.99 36.4213 12.97C37.3813 11.95 38.1413 10.96 38.7013 10C39.2813 9.02 39.5712 8.07 39.5712 7.15C39.5712 6.29 39.3313 5.53 38.8513 4.87C38.3913 4.21 37.6213 3.88 36.5412 3.88C35.4412 3.88 34.6112 4.24 34.0512 4.96C33.4913 5.68 33.2113 6.55 33.2113 7.57H29.4912C29.5312 6.03 29.8712 4.75 30.5112 3.73C31.1512 2.69 32.0012 1.92 33.0612 1.42C34.1212 0.899999 35.3112 0.64 36.6313 0.64C38.7713 0.64 40.4313 1.23 41.6113 2.41C42.8113 3.57 43.4113 5.08 43.4113 6.94C43.4113 8.1 43.1413 9.23 42.6013 10.33C42.0813 11.43 41.3913 12.49 40.5313 13.51C39.6712 14.53 38.7412 15.49 37.7413 16.39C36.7413 17.27 35.7712 18.09 34.8312 18.85H43.9213V22H29.4612Z" fill="white"/>
</svg>
