<svg width="48" height="25" viewBox="0 0 48 25" fill="none" xmlns="http://www.w3.org/2000/svg">
<path id="K12" d="M2.04 22.9961V1.99609H5.88V10.4861L13.65 1.99609H18.39L10.65 10.3361L18.6 22.9961H13.89L7.89 13.2761L5.88 15.4661V22.9961H2.04ZM23.7095 22.9961V6.37609L20.2595 7.18609V4.24609L25.3295 1.99609H27.6995V22.9961H23.7095ZM31.4612 22.9961V20.2061C32.7412 19.1461 33.9812 18.0961 35.1812 17.0561C36.4013 16.0161 37.4813 14.9861 38.4213 13.9661C39.3813 12.9461 40.1413 11.9561 40.7013 10.9961C41.2813 10.0161 41.5712 9.06609 41.5712 8.14609C41.5712 7.28609 41.3313 6.52609 40.8513 5.86609C40.3913 5.20609 39.6213 4.87609 38.5412 4.87609C37.4412 4.87609 36.6112 5.23609 36.0512 5.95609C35.4913 6.67609 35.2113 7.54609 35.2113 8.56609H31.4912C31.5312 7.02609 31.8712 5.74609 32.5112 4.72609C33.1512 3.68609 34.0012 2.91609 35.0612 2.41609C36.1212 1.89609 37.3112 1.63609 38.6313 1.63609C40.7713 1.63609 42.4313 2.22609 43.6113 3.40609C44.8113 4.56609 45.4113 6.07609 45.4113 7.93609C45.4113 9.09609 45.1413 10.2261 44.6013 11.3261C44.0813 12.4261 43.3913 13.4861 42.5313 14.5061C41.6712 15.5261 40.7412 16.4861 39.7413 17.3861C38.7413 18.2661 37.7712 19.0861 36.8312 19.8461H45.9213V22.9961H31.4612Z" fill="#FFD600"/>
</svg>
