<svg width="38" height="35" viewBox="0 0 38 35" fill="none" xmlns="http://www.w3.org/2000/svg">
<path d="M10.7017 13.2859L19.2317 4.75586L29.2928 14.817L20.7628 23.347L10.7017 13.2859Z" fill="white"/>
<path d="M24.1602 27.2208C23.4253 27.9557 22.2337 27.9557 21.4987 27.2208C20.7638 26.4858 20.7638 25.2942 21.4987 24.5592L30.5067 15.5512C31.2416 14.8163 32.4333 14.8163 33.1683 15.5512C33.9032 16.2861 33.9032 17.4777 33.1683 18.2127L24.1602 27.2208Z" fill="white"/>
<path d="M9.48641 12.5469C8.75149 13.2819 7.55986 13.2819 6.82487 12.5469C6.08995 11.812 6.08995 10.6204 6.82487 9.88539L15.8329 0.87736C16.5678 0.142442 17.7595 0.142442 18.4944 0.87736C19.2294 1.61228 19.2294 2.80391 18.4944 3.5389L9.48641 12.5469Z" fill="white"/>
<path d="M25.7978 10.227L25.2519 10.7729L23.2728 8.79389L23.8188 8.24796C24.3653 7.70146 25.2467 7.69718 25.7936 8.24368C26.0669 8.51708 26.2058 8.87714 26.2058 9.2352C26.2061 9.59355 26.0712 9.95361 25.7978 10.227L25.7978 10.227Z" fill="white"/>
<path d="M14.7429 17.3242L16.7219 19.3032L2.39067 33.6338C1.84416 34.1803 0.95382 34.176 0.407339 33.6295C0.133945 33.3561 -0.000610352 33.0003 -0.000610352 32.6423C-0.000610352 32.2839 0.138222 31.9281 0.411615 31.6548L14.7429 17.3242Z" fill="white"/>
<path d="M11.6741 34.0262C11.6741 31.9907 13.3375 30.3145 15.3895 30.3145H33.3071C35.3591 30.3145 37.0228 31.9907 37.0228 34.0262H11.6741Z" fill="white"/>
</svg>
