<svg width="38" height="35" viewBox="0 0 38 35" fill="none" xmlns="http://www.w3.org/2000/svg">
<g id="Group">
<path id="Vector" d="M10.7031 13.2859L19.2331 4.75586L29.2943 14.817L20.7643 23.347L10.7031 13.2859Z" fill="#FFD600"/>
<path id="Vector_2" d="M24.1619 27.2208C23.427 27.9557 22.2354 27.9557 21.5004 27.2208C20.7655 26.4858 20.7655 25.2942 21.5004 24.5592L30.5084 15.5512C31.2434 14.8163 32.435 14.8163 33.17 15.5512C33.9049 16.2861 33.9049 17.4777 33.17 18.2127L24.1619 27.2208Z" fill="#FFD600"/>
<path id="Vector_3" d="M9.48617 12.5469C8.75125 13.2819 7.55962 13.2819 6.82463 12.5469C6.08971 11.812 6.08971 10.6204 6.82463 9.88539L15.8327 0.87736C16.5676 0.142442 17.7592 0.142442 18.4942 0.87736C19.2291 1.61228 19.2291 2.80391 18.4942 3.5389L9.48617 12.5469Z" fill="#FFD600"/>
<path id="Vector_4" d="M25.7984 10.227L25.2525 10.7729L23.2734 8.79389L23.8194 8.24796C24.3659 7.70146 25.2473 7.69718 25.7942 8.24368C26.0676 8.51708 26.2064 8.87714 26.2064 9.2352C26.2067 9.59355 26.0718 9.95361 25.7984 10.227L25.7984 10.227Z" fill="#FFD600"/>
<path id="Vector_5" d="M14.7435 17.3242L16.7225 19.3032L2.39128 33.6338C1.84477 34.1803 0.95443 34.176 0.407949 33.6295C0.134555 33.3561 0 33.0003 0 32.6423C0 32.2839 0.138832 31.9281 0.412226 31.6548L14.7435 17.3242Z" fill="#FFD600"/>
<path id="Vector_6" d="M11.6758 34.0262C11.6758 31.9907 13.3392 30.3145 15.3912 30.3145H33.3088C35.3608 30.3145 37.0245 31.9907 37.0245 34.0262H11.6758Z" fill="#FFD600"/>
</g>
</svg>
