<svg width="34" height="34" viewBox="0 0 34 34" fill="none" xmlns="http://www.w3.org/2000/svg">
<path d="M18.6535 32.4191V26.9549L15.9214 25.6914L15.9217 32.4191C15.9217 33.1704 16.5363 33.785 17.2876 33.785C18.0389 33.785 18.6535 33.1704 18.6535 32.4191L18.6535 32.4191Z" fill="white"/>
<path d="M11.9938 29.7537C12.7111 29.9928 13.4965 29.6172 13.7354 28.8999C13.9403 28.2853 13.7014 27.6364 13.1549 27.2948C12.8133 27.124 12.6427 26.6802 12.8133 26.3386C12.8817 26.2021 13.0182 26.0654 13.1549 25.997L14.8965 25.1773L11.7547 23.709C10.1155 24.6652 9.56904 26.7484 10.5253 28.3875C10.8328 28.9683 11.3793 29.4464 11.9938 29.7537L11.9938 29.7537Z" fill="white"/>
<path d="M1.8173 13.7723C3.49074 14.0796 5.19826 14.2504 6.90579 14.2504C9.97921 14.2845 13.0529 13.6699 15.9215 12.5088V18.212L17.9363 19.1682L18.6193 19.5098V12.5089C21.4879 13.67 24.5615 14.2505 27.635 14.2164C29.3426 14.2164 31.0501 14.0456 32.7235 13.7383C33.2357 13.6359 33.6456 13.2262 33.7481 12.7138C33.8505 12.1673 33.5773 11.6552 33.1335 11.3819C30.8795 10.1184 28.9671 8.3425 27.4988 6.22523C27.2256 5.8155 26.8158 5.54228 26.3377 5.47392C25.8596 5.40556 25.3475 5.50798 24.9718 5.81552C23.0595 7.18142 20.9422 8.27436 18.6881 8.9914V6.94224C20.4298 6.19093 21.2494 4.17611 20.4981 2.43426C19.7122 0.658611 17.6972 -0.12679 15.9556 0.590249C14.214 1.30753 13.3943 3.35638 14.1456 5.09824C14.4872 5.91791 15.1359 6.56659 15.9556 6.90822V8.95737C13.7016 8.24009 11.5843 7.18148 9.63777 5.78149C9.2621 5.47419 8.74992 5.37176 8.27187 5.43989C7.79377 5.50826 7.38402 5.78149 7.11081 6.1912C5.64246 8.34275 3.69576 10.0844 1.40768 11.3821C0.929581 11.6554 0.690394 12.2018 0.793089 12.714C0.895285 13.2602 1.30525 13.67 1.81742 13.7724L1.8173 13.7723Z" fill="white"/>
<path d="M19.6782 19.9528L22.8201 21.4211C24.4592 20.4649 25.0057 18.3818 24.0495 16.7426C23.7079 16.1621 23.1957 15.684 22.5811 15.3767C21.9666 14.967 21.1128 15.1375 20.7028 15.7524C20.2931 16.3669 20.4636 17.2207 21.0785 17.6307C21.1809 17.6991 21.2833 17.7672 21.4201 17.8015C21.7617 17.9723 21.9322 18.4161 21.7617 18.7577C21.6933 18.8942 21.5568 19.0309 21.4201 19.0993L19.6782 19.9528Z" fill="white"/>
<path d="M13.1555 17.8347C13.8727 17.5955 14.2824 16.8444 14.0433 16.1272C13.8041 15.4099 13.0531 15.0002 12.3358 15.2393C12.2333 15.2734 12.0966 15.3417 11.9942 15.4101C10.2867 16.2298 9.56937 18.2446 10.355 19.9521C10.6966 20.6694 11.2771 21.2499 11.9942 21.5913L15.9219 23.4353L21.3861 26.0307C21.7277 26.2015 21.8982 26.6453 21.7277 26.9869C21.6593 27.1234 21.5228 27.2601 21.3861 27.3285C20.6688 27.5677 20.2591 28.3187 20.4982 29.036C20.7374 29.7533 21.4884 30.163 22.2057 29.9239C22.3082 29.8898 22.4449 29.8214 22.5473 29.7531C24.2549 28.9334 24.9721 26.9186 24.1865 25.211C23.8449 24.4938 23.2644 23.9133 22.5473 23.5719L17.0831 21.0106L13.1559 19.1666C12.8143 18.9958 12.6438 18.552 12.8143 18.2104C12.8825 18.0396 12.9849 17.9031 13.1555 17.8347L13.1555 17.8347Z" fill="white"/>
</svg>
