<svg width="34" height="34" viewBox="0 0 34 34" fill="none" xmlns="http://www.w3.org/2000/svg">
<g id="Group">
<path id="Vector" d="M1.81724 13.7723C3.49067 14.0796 5.1982 14.2504 6.90573 14.2504C9.97915 14.2845 13.0528 13.6699 15.9215 12.5088V18.212L17.9363 19.1682L18.6192 19.5098V12.5089C21.4878 13.67 24.5615 14.2505 27.635 14.2164C29.3425 14.2164 31.05 14.0456 32.7235 13.7383C33.2356 13.6359 33.6456 13.2262 33.748 12.7138C33.8505 12.1673 33.5772 11.6552 33.1334 11.3819C30.8794 10.1184 28.9671 8.3425 27.4987 6.22523C27.2255 5.8155 26.8158 5.54228 26.3377 5.47392C25.8596 5.40556 25.3474 5.50798 24.9718 5.81552C23.0594 7.18142 20.9421 8.27436 18.6881 8.9914V6.94225C20.4297 6.19093 21.2494 4.17611 20.4981 2.43425C19.7122 0.658611 17.6971 -0.12679 15.9556 0.590249C14.2139 1.30753 13.3943 3.35638 14.1456 5.09824C14.4872 5.91791 15.1358 6.56659 15.9556 6.90822V8.95737C13.7016 8.24009 11.5843 7.18148 9.63771 5.78149C9.26204 5.47419 8.74985 5.37176 8.27181 5.43989C7.79371 5.50826 7.38396 5.78149 7.11075 6.1912C5.6424 8.34275 3.6957 10.0844 1.40762 11.3821C0.92952 11.6554 0.690333 12.2018 0.793028 12.714C0.895224 13.2602 1.30519 13.67 1.81736 13.7724L1.81724 13.7723Z" fill="#FFD600"/>
<path id="Vector_2" d="M18.654 32.4191V26.9549L15.9219 25.6914L15.9221 32.4191C15.9221 33.1704 16.5367 33.785 17.288 33.785C18.0393 33.785 18.6539 33.1704 18.6539 32.4191L18.654 32.4191Z" fill="#FFD600"/>
<path id="Vector_3" d="M19.6797 19.9518L22.8215 21.4202C24.4607 20.464 25.0072 18.3808 24.051 16.7416C23.7094 16.1611 23.1972 15.683 22.5826 15.3757C21.968 14.966 21.1143 15.1365 20.7043 15.7514C20.2945 16.366 20.4651 17.2197 21.0799 17.6297C21.1824 17.6981 21.2848 17.7662 21.4215 17.8005C21.7631 17.9713 21.9337 18.4151 21.7631 18.7567C21.6948 18.8932 21.5583 19.03 21.4215 19.0983L19.6797 19.9518Z" fill="#FFD600"/>
<path id="Vector_4" d="M11.9938 29.7537C12.711 29.9928 13.4964 29.6172 13.7354 28.8999C13.9402 28.2853 13.7013 27.6364 13.1548 27.2948C12.8132 27.124 12.6427 26.6802 12.8132 26.3386C12.8816 26.2021 13.0181 26.0654 13.1548 25.997L14.8965 25.1773L11.7546 23.709C10.1154 24.6652 9.56898 26.7484 10.5252 28.3875C10.8327 28.9683 11.3792 29.4464 11.9938 29.7537L11.9938 29.7537Z" fill="#FFD600"/>
<path id="Vector_5" d="M13.1573 17.8357C13.8746 17.5965 14.2843 16.8454 14.0452 16.1281C13.806 15.4108 13.055 15.0012 12.3377 15.2403C12.2352 15.2743 12.0985 15.3427 11.9961 15.4111C10.2885 16.2308 9.57126 18.2456 10.3569 19.9531C10.6985 20.6704 11.279 21.2509 11.9961 21.5923L15.9237 23.4363L21.388 26.0316C21.7296 26.2024 21.9001 26.6462 21.7296 26.9879C21.6612 27.1244 21.5247 27.2611 21.388 27.3295C20.6707 27.5686 20.261 28.3197 20.5001 29.037C20.7393 29.7543 21.4903 30.164 22.2076 29.9248C22.3101 29.8908 22.4468 29.8224 22.5492 29.754C24.2568 28.9344 24.974 26.9195 24.1884 25.212C23.8468 24.4947 23.2663 23.9142 22.5492 23.5729L17.085 21.0116L13.1578 19.1676C12.8162 18.9968 12.6457 18.553 12.8162 18.2113C12.8844 18.0405 12.9868 17.904 13.1574 17.8357L13.1573 17.8357Z" fill="#FFD600"/>
</g>
</svg>
