<svg width="26" height="35" viewBox="0 0 26 35" fill="none" xmlns="http://www.w3.org/2000/svg">
<g id="Group">
<path id="Vector" d="M2.60849 34.0568H23.5994C24.3456 34.0568 25.0152 33.6735 25.3985 33.0347C25.7817 32.3959 25.797 31.6138 25.4343 30.9391V30.934L17.0981 16.4337C16.9805 16.2191 16.9191 15.9738 16.9191 15.7284V9.95294H17.4302C18.0792 9.95294 18.6057 9.42662 18.6057 8.77741V6.77905C18.6057 6.13006 18.0794 5.60352 17.4302 5.60352H8.77181C8.12282 5.60352 7.59628 6.12984 7.59628 6.77905V8.77741C7.59628 9.4264 8.1226 9.95294 8.77181 9.95294H9.28795V15.7284C9.28795 15.9738 9.22661 16.2191 9.11412 16.4235L0.757368 30.9542C0.404628 31.6137 0.420144 32.3955 0.80343 33.0343C1.18696 33.6734 1.86166 34.0567 2.60784 34.0567L2.60849 34.0568ZM10.0095 16.9194C10.2037 16.5565 10.3111 16.1424 10.3111 15.7286V9.95307H15.8975V15.7286C15.8975 16.1426 15.9998 16.5565 16.2041 16.9347L18.9538 21.7135H7.25438L10.0095 16.9194Z" fill="#FFD600"/>
<path id="Vector_2" d="M9.5715 4.58379H16.6398L17.0129 1.62948C17.0488 1.29734 16.9414 0.964972 16.7164 0.714548C16.4968 0.46945 16.1746 0.326172 15.8425 0.326172H10.3686C10.0314 0.326172 9.71427 0.469208 9.48954 0.714548C9.26965 0.964984 9.1625 1.29711 9.19814 1.63966L9.5715 4.58379Z" fill="#FFD600"/>
</g>
</svg>
