<svg width="34" height="34" viewBox="0 0 34 34" fill="none" xmlns="http://www.w3.org/2000/svg">
<path d="M6.375 25.5H8.5V27.625H4.25V6.375H2.125V29.75H8.5V31.875H0V4.25H4.25V2.125H10.625C11.599 2.125 12.5342 2.27441 13.4307 2.57324C14.3271 2.87207 15.1628 3.32031 15.9375 3.91797C16.7012 3.32031 17.5312 2.87207 18.4277 2.57324C19.3242 2.27441 20.265 2.125 21.25 2.125H27.625V4.25H31.875V17.8467L29.75 16.8838V6.375H27.625V15.9209L25.5 14.9414V4.25H21.25C20.4642 4.25 19.7116 4.38281 18.9922 4.64844C18.2728 4.91406 17.6087 5.30697 17 5.82715V15.9209L14.875 16.8838V5.82715C14.2773 5.31803 13.6188 4.93066 12.8994 4.66504C12.18 4.39941 11.4219 4.26107 10.625 4.25H6.375V25.5ZM29.75 29.7334L22.3125 33.4688L14.875 29.7334C14.875 29.335 14.8805 28.9144 14.8916 28.4717C14.9027 28.029 14.9469 27.5807 15.0244 27.127C15.1019 26.6732 15.2126 26.2471 15.3564 25.8486C15.5003 25.4502 15.6995 25.0794 15.9541 24.7363L12.75 23.2754V32.9375H10.625V22.3125L22.3125 17L34 22.3125L28.6709 24.7363L28.8037 24.9189C29.0361 25.262 29.2132 25.6328 29.335 26.0312C29.4567 26.4297 29.5508 26.8337 29.6172 27.2432C29.6836 27.6527 29.7223 28.0732 29.7334 28.5049C29.7445 28.9365 29.75 29.346 29.75 29.7334ZM22.3125 19.3242L15.7549 22.3125L22.3125 25.3008L28.8701 22.3125L22.3125 19.3242ZM22.3125 31.0947L27.625 28.4219C27.6139 28.1341 27.5918 27.874 27.5586 27.6416C27.5254 27.4092 27.4645 27.1823 27.376 26.9609C27.2874 26.7396 27.1989 26.5238 27.1104 26.3135C27.0218 26.1032 26.8945 25.8708 26.7285 25.6162L22.3125 27.625L17.8965 25.6162C17.7305 25.8818 17.5977 26.1198 17.498 26.3301C17.3984 26.5404 17.3099 26.7507 17.2324 26.9609C17.1549 27.1712 17.1051 27.3926 17.083 27.625C17.0609 27.8574 17.0387 28.1286 17.0166 28.4385L22.3125 31.0947Z" fill="white"/>
</svg>
