<svg width="35" height="34" viewBox="0 0 35 34" fill="none" xmlns="http://www.w3.org/2000/svg">
<g id="fluent-mdl2:learning-tools" clip-path="url(#clip0_941_52691)">
<path id="Vector" d="M6.39844 25.5H8.52344V27.625H4.27344V6.375H2.14844V29.75H8.52344V31.875H0.0234375V4.25H4.27344V2.125H10.6484C11.6224 2.125 12.5576 2.27441 13.4541 2.57324C14.3506 2.87207 15.1862 3.32031 15.9609 3.91797C16.7246 3.32031 17.5547 2.87207 18.4512 2.57324C19.3477 2.27441 20.2884 2.125 21.2734 2.125H27.6484V4.25H31.8984V17.8467L29.7734 16.8838V6.375H27.6484V15.9209L25.5234 14.9414V4.25H21.2734C20.4876 4.25 19.735 4.38281 19.0156 4.64844C18.2962 4.91406 17.6322 5.30697 17.0234 5.82715V15.9209L14.8984 16.8838V5.82715C14.3008 5.31803 13.6423 4.93066 12.9229 4.66504C12.2035 4.39941 11.4453 4.26107 10.6484 4.25H6.39844V25.5ZM29.7734 29.7334L22.3359 33.4688L14.8984 29.7334C14.8984 29.335 14.904 28.9144 14.915 28.4717C14.9261 28.029 14.9704 27.5807 15.0479 27.127C15.1253 26.6732 15.236 26.2471 15.3799 25.8486C15.5238 25.4502 15.723 25.0794 15.9775 24.7363L12.7734 23.2754V32.9375H10.6484V22.3125L22.3359 17L34.0234 22.3125L28.6943 24.7363L28.8271 24.9189C29.0596 25.262 29.2367 25.6328 29.3584 26.0312C29.4801 26.4297 29.5742 26.8337 29.6406 27.2432C29.707 27.6527 29.7458 28.0732 29.7568 28.5049C29.7679 28.9365 29.7734 29.346 29.7734 29.7334ZM22.3359 19.3242L15.7783 22.3125L22.3359 25.3008L28.8936 22.3125L22.3359 19.3242ZM22.3359 31.0947L27.6484 28.4219C27.6374 28.1341 27.6152 27.874 27.582 27.6416C27.5488 27.4092 27.488 27.1823 27.3994 26.9609C27.3109 26.7396 27.2223 26.5238 27.1338 26.3135C27.0452 26.1032 26.918 25.8708 26.752 25.6162L22.3359 27.625L17.9199 25.6162C17.7539 25.8818 17.6211 26.1198 17.5215 26.3301C17.4219 26.5404 17.3333 26.7507 17.2559 26.9609C17.1784 27.1712 17.1286 27.3926 17.1064 27.625C17.0843 27.8574 17.0622 28.1286 17.04 28.4385L22.3359 31.0947Z" fill="#FFD600"/>
</g>
<defs>
<clipPath id="clip0_941_52691">
<rect width="34" height="34" fill="white" transform="translate(0.0234375)"/>
</clipPath>
</defs>
</svg>
