<svg width="55" height="35" viewBox="0 0 55 35" fill="none" xmlns="http://www.w3.org/2000/svg">
<path d="M22.3186 17.0226C22.9388 16.8496 23.4968 16.9364 24.0547 17.2819C24.5508 17.5411 25.1087 17.0226 25.1087 16.3311V8.29342C25.1087 7.68812 24.7986 7.25645 24.3648 7.25645H18.5986C18.0407 7.25645 17.6687 6.47872 17.9166 5.78722C18.1644 5.09572 18.2267 4.23179 18.1025 3.36718C17.9166 1.72486 16.9244 0.341823 15.7463 0.0826874C13.8243 -0.4358 12.15 1.55192 12.15 4.14489C12.15 4.7502 12.2119 5.26867 12.3979 5.78722C12.5838 6.47874 12.2119 7.25645 11.7158 7.25645H5.94964C5.5154 7.25645 5.20572 7.68872 5.20572 8.29342V16.3311C5.20572 17.1088 4.64778 17.6273 4.1517 17.2819C3.65561 16.9364 3.03585 16.8496 2.41559 17.0226C1.2374 17.2819 0.245221 18.6649 0.0593193 20.3071C-0.312639 22.9863 1.11333 25.32 2.97351 25.32C3.40775 25.32 3.7797 25.2338 4.1517 24.9746C4.64779 24.7153 5.20572 25.2338 5.20572 25.9253V33.963C5.20572 34.5683 5.51583 35 5.94964 35H11.7158C12.2737 35 12.6457 34.2223 12.3979 33.5308C12.15 32.8392 12.0878 31.9753 12.2119 31.1107C12.3979 29.4684 13.3901 28.0854 14.5682 27.8262C16.4902 27.3077 18.1644 29.2955 18.1644 31.8884C18.1644 32.4937 18.1025 33.0122 17.9166 33.5308C17.7306 34.2223 18.1025 35 18.5986 35H24.3648C24.799 35 25.1087 34.5677 25.1087 33.963V25.9253C25.1087 25.1476 24.5508 24.6291 24.0547 24.9746C23.6827 25.1476 23.3108 25.32 22.8765 25.32C21.0163 25.32 19.5903 22.9863 19.9623 20.3071C20.1483 18.6648 21.1405 17.368 22.3186 17.0226Z" fill="white"/>
<path d="M52.0837 24.8248C51.6494 24.8248 51.2774 24.7373 50.9054 24.4742C50.5953 24.2986 50.2233 24.6498 50.2233 25.176V34.2982C50.2233 34.6488 49.9755 35 49.7272 35H43.2787C42.9067 35 42.6584 34.3857 42.8444 33.9476C43.0923 33.3333 43.2164 32.6321 43.2164 31.9303C43.2164 29.6498 41.914 27.72 40.3021 27.632C38.6277 27.5445 37.2017 29.4744 37.2017 31.8422C37.2017 32.5441 37.3258 33.2458 37.5737 33.8596C37.7597 34.2983 37.5118 34.912 37.1394 34.912H30.815C30.5672 34.912 30.3189 34.5614 30.3189 34.2102V25.1754C30.3189 24.6492 29.8846 24.298 29.5749 24.5611C29.1407 24.9117 28.645 25.0873 28.1489 25.0873C26.5368 25.0873 25.1727 23.2449 25.1104 20.9646C25.0486 18.5961 26.4128 16.5788 28.0867 16.5788C28.5828 16.5788 29.0789 16.7544 29.5127 17.105C29.8228 17.3681 30.2567 17.0175 30.2567 16.4907V7.36847C30.2567 7.01787 30.5045 6.66667 30.7528 6.66667H37.1395C37.5115 6.66667 37.7598 7.28097 37.5738 7.71907C37.3259 8.33338 37.2018 9.03457 37.2018 9.73639C37.2018 12.0169 38.5042 13.9466 40.1161 14.0347C41.7904 14.1221 43.2165 12.1923 43.2165 9.82442C43.2165 9.12261 43.0924 8.42082 42.8445 7.8071C42.6585 7.36839 42.9064 6.75469 43.2788 6.75469H49.7273C49.9752 6.75469 50.2234 7.10529 50.2234 7.4565V16.0532C50.2234 16.5794 50.5954 16.9306 50.9055 16.6675C51.2775 16.4919 51.6495 16.4044 52.0214 16.4044C53.6957 16.4044 55.0599 18.3341 54.9977 20.7902C54.9358 22.9825 53.6338 24.8248 52.0837 24.8248Z" fill="white"/>
</svg>
