<svg width="71" height="24" viewBox="0 0 71 24" fill="none" xmlns="http://www.w3.org/2000/svg">
<path d="M6.84812 20.142L6.33029 20.9975L6.33863 21.0025L6.84812 20.142ZM3.80612 16.84L2.91168 17.2872L2.9139 17.2916L3.80612 16.84ZM3.80612 7.012L2.91169 6.56478L2.91169 6.56479L3.80612 7.012ZM16.9361 4.126L16.3174 4.91171L16.3283 4.92008L16.9361 4.126ZM19.5621 8.676V9.676H20.7547L20.5468 8.50172L19.5621 8.676ZM15.8961 8.676L14.9212 8.89836L15.0985 9.676H15.8961V8.676ZM14.4401 6.362L13.8223 7.14832L13.8326 7.15641L13.8431 7.16423L14.4401 6.362ZM7.57612 7.22L6.8079 6.57981L6.8079 6.57981L7.57612 7.22ZM7.57612 16.632L6.80788 17.2722L6.81273 17.2779L7.57612 16.632ZM14.4401 17.542L15.0214 18.3557L15.0249 18.3532L14.4401 17.542ZM15.8961 15.332V14.332H15.1083L14.9239 15.0979L15.8961 15.332ZM19.5621 15.332L20.5454 15.5141L20.7643 14.332H19.5621V15.332ZM16.9361 19.726L16.3345 18.9272L16.3298 18.9308L16.9361 19.726ZM11.5801 20.312C9.88606 20.312 8.49241 19.9534 7.35761 19.2815L6.33863 21.0025C7.83849 21.8906 9.59951 22.312 11.5801 22.312V20.312ZM7.36592 19.2865C6.2124 18.5883 5.32641 17.6292 4.69833 16.3884L2.9139 17.2916C3.70716 18.8588 4.84917 20.101 6.33032 20.9975L7.36592 19.2865ZM4.70055 16.3928C4.07003 15.1318 3.74012 13.6513 3.74012 11.926H1.74012C1.74012 13.91 2.12087 15.7056 2.91169 17.2872L4.70055 16.3928ZM3.74012 11.926C3.74012 10.2007 4.07003 8.72025 4.70055 7.45921L2.91169 6.56479C2.12087 8.14642 1.74012 9.94198 1.74012 11.926H3.74012ZM4.70055 7.45921C5.32959 6.20112 6.21553 5.23579 7.36592 4.5395L6.33032 2.8285C4.84604 3.72688 3.70398 4.98022 2.91169 6.56478L4.70055 7.45921ZM7.36592 4.5395C8.49926 3.85353 9.88982 3.488 11.5801 3.488V1.488C9.59575 1.488 7.83165 1.9198 6.33032 2.8285L7.36592 4.5395ZM11.5801 3.488C13.5943 3.488 15.1457 3.98887 16.3174 4.91164L17.5548 3.34036C15.9532 2.07913 13.934 1.488 11.5801 1.488V3.488ZM16.3283 4.92008C17.5083 5.82328 18.2685 7.10491 18.5774 8.85028L20.5468 8.50172C20.1624 6.32976 19.1719 4.57805 17.5439 3.33192L16.3283 4.92008ZM19.5621 7.676H15.8961V9.676H19.5621V7.676ZM16.8711 8.45364C16.598 7.25618 15.9913 6.26986 15.0371 5.55977L13.8431 7.16423C14.3796 7.56348 14.7436 8.11982 14.9212 8.89836L16.8711 8.45364ZM15.0579 5.57568C14.1057 4.82749 12.8956 4.504 11.5281 4.504V6.504C12.5873 6.504 13.3185 6.7525 13.8223 7.14832L15.0579 5.57568ZM11.5281 4.504C9.59305 4.504 7.97716 5.1767 6.8079 6.57981L8.34434 7.86018C9.08174 6.9753 10.1005 6.504 11.5281 6.504V4.504ZM6.8079 6.57981C5.66072 7.95643 5.14612 9.77832 5.14612 11.926H7.14612C7.14612 10.087 7.58485 8.77157 8.34434 7.86018L6.8079 6.57981ZM5.14612 11.926C5.14612 14.0737 5.66072 15.8956 6.8079 17.2722L8.34434 15.9918C7.58485 15.0804 7.14612 13.765 7.14612 11.926H5.14612ZM6.81273 17.2779C7.98378 18.6619 9.59842 19.322 11.5281 19.322V17.322C10.0952 17.322 9.07512 16.8554 8.3395 15.9861L6.81273 17.2779ZM11.5281 19.322C12.877 19.322 14.0728 19.0333 15.0214 18.3557L13.8589 16.7283C13.3515 17.0907 12.6059 17.322 11.5281 17.322V19.322ZM15.0249 18.3532C15.9741 17.6689 16.5899 16.7225 16.8683 15.5661L14.9239 15.0979C14.7516 15.8135 14.3968 16.3405 13.8553 16.7308L15.0249 18.3532ZM15.8961 16.332H19.5621V14.332H15.8961V16.332ZM18.5788 15.1499C18.2736 16.7981 17.5212 18.0335 16.3345 18.9272L17.5377 20.5248C19.159 19.3038 20.1573 17.6099 20.5454 15.5141L18.5788 15.1499ZM16.3298 18.9308C15.1573 19.8248 13.6012 20.312 11.5801 20.312V22.312C13.927 22.312 15.9416 21.7419 17.5425 20.5212L16.3298 18.9308ZM26.114 20.532L25.6668 21.4265L25.6785 21.4322L26.114 20.532ZM23.54 18.114L22.6752 18.6162L22.6813 18.6265L23.54 18.114ZM22.604 2.8V1.8H21.604V2.8H22.604ZM25.932 2.8H26.932V1.8H25.932V2.8ZM26.946 17.23L26.23 17.9282L26.2389 17.9371L26.946 17.23ZM32.64 17.23L31.9329 16.5229L31.9329 16.5229L32.64 17.23ZM33.68 2.8V1.8H32.68V2.8H33.68ZM37.008 2.8H38.008V1.8H37.008V2.8ZM36.02 18.114L35.1674 17.5914L35.1674 17.5914L36.02 18.114ZM33.368 20.532L33.798 21.4349L33.804 21.432L33.368 20.532ZM29.728 20.312C28.5263 20.312 27.4732 20.0787 26.5496 19.6318L25.6785 21.4322C26.9042 22.0253 28.2605 22.312 29.728 22.312V20.312ZM26.5613 19.6376C25.6647 19.1893 24.9465 18.5194 24.3988 17.6015L22.6813 18.6265C23.4163 19.858 24.414 20.8 25.6668 21.4264L26.5613 19.6376ZM24.4048 17.6119C23.8937 16.7315 23.604 15.5579 23.604 14.032H21.604C21.604 15.7995 21.9384 17.3472 22.6753 18.6161L24.4048 17.6119ZM23.604 14.032V2.8H21.604V14.032H23.604ZM22.604 3.8H25.932V1.8H22.604V3.8ZM24.932 2.8V14.058H26.932V2.8H24.932ZM24.932 14.058C24.932 15.619 25.302 16.9763 26.23 17.9281L27.662 16.5319C27.2381 16.0971 26.932 15.3397 26.932 14.058H24.932ZM26.2389 17.9371C27.1622 18.8604 28.3942 19.27 29.806 19.27V17.27C28.7912 17.27 28.1165 16.9863 27.6531 16.5229L26.2389 17.9371ZM29.806 19.27C31.2052 19.27 32.4265 18.8577 33.3471 17.9371L31.9329 16.5229C31.4669 16.9889 30.7989 17.27 29.806 17.27V19.27ZM33.3471 17.9371C34.2983 16.986 34.68 15.6251 34.68 14.058H32.68C32.68 15.3335 32.3685 16.0874 31.9329 16.5229L33.3471 17.9371ZM34.68 14.058V2.8H32.68V14.058H34.68ZM33.68 3.8H37.008V1.8H33.68V3.8ZM36.008 2.8V14.032H38.008V2.8H36.008ZM36.008 14.032C36.008 15.5495 35.7044 16.7153 35.1674 17.5914L36.8726 18.6366C37.653 17.3633 38.008 15.8078 38.008 14.032H36.008ZM35.1674 17.5914C34.6063 18.5069 33.8653 19.18 32.9321 19.632L33.804 21.432C35.0895 20.8093 36.1164 19.8704 36.8726 18.6366L35.1674 17.5914ZM32.9381 19.6291C31.9938 20.0788 30.9295 20.312 29.728 20.312V22.312C31.1959 22.312 32.5583 22.0252 33.798 21.4349L32.9381 19.6291ZM40.6053 21H39.6053V22H40.6053V21ZM40.6053 2.8V1.8H39.6053V2.8H40.6053ZM52.4873 2.8H53.4873V1.8H52.4873V2.8ZM52.4873 5.478V6.478H53.4873V5.478H52.4873ZM43.9333 5.478V4.478H42.9333V5.478H43.9333ZM43.9333 10.47H42.9333V11.47H43.9333V10.47ZM51.7073 10.47H52.7073V9.47H51.7073V10.47ZM51.7073 13.07V14.07H52.7073V13.07H51.7073ZM43.9333 13.07V12.07H42.9333V13.07H43.9333ZM43.9333 18.322H42.9333V19.322H43.9333V18.322ZM52.4873 18.322H53.4873V17.322H52.4873V18.322ZM52.4873 21V22H53.4873V21H52.4873ZM41.6053 21V2.8H39.6053V21H41.6053ZM40.6053 3.8H52.4873V1.8H40.6053V3.8ZM51.4873 2.8V5.478H53.4873V2.8H51.4873ZM52.4873 4.478H43.9333V6.478H52.4873V4.478ZM42.9333 5.478V10.47H44.9333V5.478H42.9333ZM43.9333 11.47H51.7073V9.47H43.9333V11.47ZM50.7073 10.47V13.07H52.7073V10.47H50.7073ZM51.7073 12.07H43.9333V14.07H51.7073V12.07ZM42.9333 13.07V18.322H44.9333V13.07H42.9333ZM43.9333 19.322H52.4873V17.322H43.9333V19.322ZM51.4873 18.322V21H53.4873V18.322H51.4873ZM52.4873 20H40.6053V22H52.4873V20ZM60.0746 21H59.0746V22H60.0746V21ZM60.0746 5.478H61.0746V4.478H60.0746V5.478ZM54.7706 5.478H53.7706V6.478H54.7706V5.478ZM54.7706 2.8V1.8H53.7706V2.8H54.7706ZM68.7326 2.8H69.7326V1.8H68.7326V2.8ZM68.7326 5.478V6.478H69.7326V5.478H68.7326ZM63.4026 5.478V4.478H62.4026V5.478H63.4026ZM63.4026 21V22H64.4026V21H63.4026ZM61.0746 21V5.478H59.0746V21H61.0746ZM60.0746 4.478H54.7706V6.478H60.0746V4.478ZM55.7706 5.478V2.8H53.7706V5.478H55.7706ZM54.7706 3.8H68.7326V1.8H54.7706V3.8ZM67.7326 2.8V5.478H69.7326V2.8H67.7326ZM68.7326 4.478H63.4026V6.478H68.7326V4.478ZM62.4026 5.478V21H64.4026V5.478H62.4026ZM63.4026 20H60.0746V22H63.4026V20Z" fill="white"/>
</svg>
