<svg width="886" height="653" viewBox="0 0 886 653" fill="none" xmlns="http://www.w3.org/2000/svg">
<g clip-path="url(#clip0_887_4179)">
<path d="M805.984 501.033C794.482 534.756 778.515 568.078 756.718 599.308C756.236 600.011 755.745 600.7 755.251 601.4L689.896 581.374C690.18 580.698 690.488 579.941 690.818 579.114C710.525 530.349 829.072 233.122 815.009 171.771C816.34 176.806 859.824 343.394 805.984 501.033Z" fill="#D1F3FB"/>
<path d="M769.327 603.171C768.542 603.783 767.734 604.387 766.918 604.976L717.891 589.952C718.465 589.404 719.134 588.757 719.904 588.027C732.483 575.889 769.848 539.527 805.984 501.033C844.818 459.668 882.243 415.849 886 396.99C885.305 401.29 863.32 532.129 769.327 603.171Z" fill="#D1F3FB"/>
<path d="M775.377 154.635H771.801V56.6877C771.801 41.6532 765.829 27.2344 755.199 16.6034C744.569 5.97243 730.151 0 715.118 0H507.619C492.585 0 478.168 5.97243 467.538 16.6034C456.908 27.2344 450.936 41.6532 450.936 56.6877V594.035C450.936 609.069 456.908 623.488 467.538 634.119C478.168 644.75 492.585 650.722 507.619 650.722H715.117C730.15 650.722 744.568 644.75 755.198 634.119C765.828 623.488 771.8 609.069 771.8 594.035V224.355H775.376L775.377 154.635Z" fill="#3F3D56"/>
<path d="M717.404 14.7471H690.319C691.565 17.8013 692.041 21.1152 691.705 24.3968C691.368 27.6783 690.23 30.8268 688.391 33.5647C686.551 36.3027 684.066 38.5461 681.155 40.0972C678.244 41.6484 674.996 42.4597 671.697 42.4596H552.824C549.526 42.4594 546.279 41.6479 543.368 40.0969C540.458 38.5458 537.973 36.3027 536.134 33.5651C534.294 30.8275 533.156 27.6795 532.819 24.3984C532.483 21.1173 532.958 17.8038 534.204 14.7498H508.902C497.675 14.7498 486.908 19.2101 478.969 27.1494C471.03 35.0888 466.57 45.8569 466.57 57.0849V57.0849V593.641C466.57 604.869 471.03 615.637 478.969 623.576C486.908 631.516 497.675 635.976 508.902 635.976H717.396C728.623 635.976 739.391 631.516 747.329 623.576C755.268 615.637 759.728 604.869 759.728 593.641V593.641V57.0822C759.728 45.8542 755.268 35.0861 747.329 27.1468C739.391 19.2074 728.623 14.7471 717.396 14.7471V14.7471L717.404 14.7471Z" fill="white"/>
<path d="M636.458 568.581C638.514 555.908 629.908 543.967 617.236 541.91C604.564 539.854 592.624 548.461 590.567 561.134C588.511 573.807 597.117 585.748 609.789 587.805C622.462 589.861 634.402 581.255 636.458 568.581Z" fill="#D1F3FB"/>
<path d="M741.667 295.474H484.633V346.225H741.667V295.474Z" fill="#D1F3FB"/>
<path d="M490.113 340.746H736.189V300.957H490.113V340.746Z" fill="white"/>
<path d="M511.655 305.361C514.653 305.361 517.584 306.25 520.077 307.916C522.569 309.582 524.512 311.95 525.66 314.72C526.807 317.49 527.107 320.538 526.522 323.479C525.937 326.42 524.494 329.121 522.374 331.241C520.254 333.361 517.553 334.805 514.612 335.39C511.672 335.975 508.624 335.675 505.854 334.527C503.084 333.38 500.716 331.437 499.051 328.944C497.385 326.451 496.496 323.52 496.496 320.521C496.496 318.53 496.888 316.559 497.65 314.72C498.412 312.881 499.528 311.209 500.936 309.802C502.344 308.394 504.015 307.277 505.854 306.515C507.693 305.753 509.664 305.361 511.655 305.361Z" fill="#7A81DC"/>
<path d="M697.509 314.588H547.902V317.884H697.509V314.588Z" fill="#D1F3FB"/>
<path d="M697.509 323.156H547.902V326.452H697.509V323.156Z" fill="#D1F3FB"/>
<path d="M741.667 367.897H484.633V418.649H741.667V367.897Z" fill="#D1F3FB"/>
<path d="M490.113 413.17H736.189V373.381H490.113V413.17Z" fill="white"/>
<path d="M511.655 408.105C520.027 408.105 526.814 401.318 526.814 392.945C526.814 384.572 520.027 377.785 511.655 377.785C503.283 377.785 496.496 384.572 496.496 392.945C496.496 401.318 503.283 408.105 511.655 408.105Z" fill="#7A81DC"/>
<path d="M697.509 387.012H547.902V390.307H697.509V387.012Z" fill="#D1F3FB"/>
<path d="M697.509 395.58H547.902V398.876H697.509V395.58Z" fill="#D1F3FB"/>
<path d="M741.667 440.322H484.633V491.074H741.667V440.322Z" fill="#D1F3FB"/>
<path d="M490.113 485.594H736.189V445.806H490.113V485.594Z" fill="white"/>
<path d="M511.655 480.53C520.027 480.53 526.814 473.742 526.814 465.37C526.814 456.997 520.027 450.21 511.655 450.21C503.283 450.21 496.496 456.997 496.496 465.37C496.496 473.742 503.283 480.53 511.655 480.53Z" fill="#7A81DC"/>
<path d="M697.509 459.437H547.902V462.732H697.509V459.437Z" fill="#D1F3FB"/>
<path d="M697.509 468.005H547.902V471.301H697.509V468.005Z" fill="#D1F3FB"/>
<path d="M613.15 244.918C652.651 244.918 684.674 212.893 684.674 173.388C684.674 133.883 652.651 101.857 613.15 101.857C573.648 101.857 541.625 133.883 541.625 173.388C541.625 212.893 573.648 244.918 613.15 244.918Z" fill="#7A81DC"/>
<path d="M648.018 150.68V196.094C648.018 196.52 647.934 196.942 647.771 197.335C647.608 197.729 647.369 198.086 647.068 198.388C646.767 198.689 646.409 198.928 646.016 199.091C645.622 199.254 645.2 199.338 644.774 199.337H581.525C581.099 199.338 580.677 199.254 580.283 199.091C579.89 198.928 579.532 198.689 579.231 198.388C578.93 198.086 578.691 197.729 578.528 197.335C578.365 196.942 578.281 196.52 578.281 196.094V150.68C578.279 150.309 578.345 149.941 578.476 149.594C578.67 149.039 579.012 148.549 579.465 148.176C579.919 147.803 580.465 147.561 581.046 147.477C581.205 147.451 581.365 147.438 581.525 147.437H644.774C644.934 147.438 645.094 147.451 645.252 147.477C645.834 147.561 646.381 147.803 646.834 148.176C647.287 148.549 647.629 149.039 647.823 149.594C647.954 149.941 648.02 150.309 648.018 150.68V150.68Z" fill="white"/>
<path d="M647.823 149.594L614.115 174.685C613.837 174.895 613.498 175.009 613.15 175.009C612.802 175.009 612.463 174.895 612.185 174.685L578.477 149.594C578.67 149.04 579.013 148.55 579.466 148.176C579.919 147.803 580.466 147.561 581.047 147.478L613.15 171.368L645.253 147.478C645.834 147.561 646.381 147.803 646.834 148.176C647.287 148.549 647.63 149.04 647.823 149.594V149.594Z" fill="#7A81DC"/>
<path d="M195.398 231.671C195.398 253.853 215.907 250.498 241.206 250.498C266.505 250.498 287.014 253.853 287.014 231.671C287.014 209.49 276.996 170.171 241.206 170.171C204.184 170.171 195.398 209.49 195.398 231.671Z" fill="#2F2E41"/>
<path d="M338.844 636.865L353.489 632.144L342.251 573.409L320.637 580.377L338.844 636.865Z" fill="#A0616A"/>
<path d="M333.568 633.288L362.408 623.991L362.409 623.991C364.823 623.213 367.366 622.918 369.893 623.123C372.421 623.328 374.883 624.028 377.14 625.185C379.397 626.342 381.404 627.932 383.046 629.864C384.688 631.796 385.934 634.033 386.712 636.447L386.904 637.044L339.685 652.266L333.568 633.288Z" fill="#2F2E41"/>
<path d="M159.087 637.35L174.473 637.349L181.793 577.998L159.084 577.999L159.087 637.35Z" fill="#A0616A"/>
<path d="M155.162 632.326L185.463 632.325H185.464C188 632.325 190.511 632.825 192.854 633.795C195.197 634.765 197.325 636.188 199.118 637.981C200.912 639.774 202.334 641.903 203.304 644.246C204.275 646.589 204.774 649.1 204.774 651.636V652.264L155.163 652.266L155.162 632.326Z" fill="#2F2E41"/>
<path d="M139.223 408.515C138.006 407.04 137.1 405.334 136.559 403.499C136.017 401.665 135.853 399.74 136.074 397.841C136.295 395.941 136.898 394.106 137.847 392.445C138.795 390.785 140.069 389.333 141.593 388.177C142.152 387.756 142.742 387.379 143.359 387.049L193.548 269C194.037 267.582 194.803 266.274 195.801 265.153C196.799 264.032 198.009 263.12 199.362 262.47C200.714 261.819 202.182 261.443 203.68 261.363C205.179 261.283 206.679 261.5 208.093 262.003C209.507 262.506 210.807 263.284 211.918 264.292C213.03 265.301 213.931 266.519 214.569 267.878C215.207 269.236 215.57 270.707 215.636 272.207C215.702 273.706 215.471 275.204 214.955 276.613L163.271 394.066C164.569 397.206 164.698 400.707 163.633 403.934C162.568 407.16 160.38 409.897 157.468 411.647C154.556 413.397 151.113 414.043 147.764 413.468C144.416 412.893 141.385 411.136 139.223 408.515Z" fill="#A0616A"/>
<path d="M324.811 420.358C321.926 418.603 319.767 415.87 318.727 412.657C317.686 409.445 317.833 405.965 319.141 402.851L267.442 285.359C266.932 283.951 266.706 282.456 266.776 280.961C266.846 279.465 267.211 277.998 267.85 276.644C268.489 275.29 269.389 274.075 270.499 273.07C271.609 272.065 272.907 271.289 274.317 270.788C275.728 270.286 277.224 270.068 278.719 270.146C280.214 270.225 281.679 270.598 283.03 271.245C284.38 271.891 285.59 272.798 286.588 273.914C287.587 275.03 288.355 276.332 288.849 277.745L339.054 395.834C339.67 396.165 340.261 396.542 340.82 396.962C342.343 398.118 343.618 399.57 344.566 401.23C345.514 402.891 346.117 404.726 346.339 406.626C346.56 408.525 346.395 410.45 345.854 412.284C345.313 414.119 344.406 415.825 343.189 417.3C341.854 418.916 340.178 420.217 338.28 421.109C336.383 422.001 334.311 422.461 332.215 422.458C329.6 422.462 327.035 421.734 324.811 420.358V420.358Z" fill="#A0616A"/>
<path d="M256.145 246.684C271.082 238.518 276.572 219.787 268.406 204.848C260.241 189.91 241.512 184.419 226.574 192.586C211.637 200.752 206.147 219.482 214.313 234.421C222.478 249.36 241.207 254.85 256.145 246.684Z" fill="#A0616A"/>
<path d="M197.948 350.758L191.834 279.738C191.576 276.732 191.992 273.707 193.054 270.884C194.116 268.061 195.796 265.511 197.971 263.422C200.145 261.332 202.76 259.755 205.623 258.807C208.487 257.859 211.525 257.564 214.518 257.942L271.323 265.133C276.525 265.78 281.272 268.427 284.556 272.513C287.841 276.6 289.406 281.804 288.92 287.024C286.664 312.401 280.37 356.952 263.559 370.227L263.302 370.429L197.948 350.758Z" fill="#7D23E0"/>
<path d="M181.36 601.436L157.793 598.643C156.404 598.497 155.118 597.84 154.186 596.798C153.254 595.757 152.744 594.406 152.753 593.008C152.805 581.667 152.776 570.051 152.748 558.819C152.507 462.579 152.28 371.677 197.604 346.593L197.849 346.458L263.771 369.278L266.295 413.447L319.811 489.268C324.237 495.533 327.569 502.502 329.666 509.881L349.55 579.734C349.759 580.471 349.817 581.242 349.719 582.001C349.622 582.761 349.37 583.493 348.981 584.152C348.592 584.812 348.073 585.385 347.455 585.837C346.837 586.29 346.134 586.612 345.388 586.784L322.21 592.133C320.874 592.44 319.472 592.251 318.265 591.602C317.058 590.953 316.128 589.887 315.648 588.603L284.592 511.275L221.486 443.272C221.248 443.025 220.946 442.847 220.614 442.759C220.283 442.671 219.933 442.675 219.604 442.771C219.274 442.867 218.977 443.052 218.745 443.305C218.513 443.558 218.354 443.869 218.286 444.206L187.505 596.938C187.23 598.321 186.446 599.55 185.308 600.383C184.17 601.216 182.762 601.592 181.36 601.436Z" fill="#2F2E41"/>
<path d="M276.973 216.61H264.781L259.403 201.549L258.327 216.61H252.5L249.363 207.825L248.735 216.61H205.438C205.437 212.325 206.282 208.081 207.921 204.122C209.561 200.163 211.965 196.566 214.995 193.535C218.025 190.505 221.622 188.102 225.581 186.462C229.54 184.822 233.783 183.978 238.068 183.978H244.343C248.628 183.978 252.871 184.822 256.83 186.462C260.789 188.102 264.386 190.505 267.416 193.535C270.446 196.566 272.849 200.163 274.489 204.122C276.129 208.081 276.973 212.325 276.973 216.61V216.61Z" fill="#2F2E41"/>
<path d="M875.282 653H0.894057C0.656938 653 0.429531 652.906 0.261863 652.738C0.0941943 652.571 0 652.343 0 652.106C0 651.869 0.0941943 651.641 0.261863 651.474C0.429531 651.306 0.656938 651.212 0.894057 651.212H875.282C875.519 651.212 875.746 651.306 875.914 651.474C876.082 651.641 876.176 651.869 876.176 652.106C876.176 652.343 876.082 652.571 875.914 652.738C875.746 652.906 875.519 653 875.282 653Z" fill="#2F2E41"/>
</g>
<defs>
<clipPath id="clip0_887_4179">
<rect width="886" height="653" fill="white"/>
</clipPath>
</defs>
</svg>
