<?xml version="1.0" encoding="UTF-8"?>
<svg xmlns="http://www.w3.org/2000/svg" xmlns:xlink="http://www.w3.org/1999/xlink" viewBox="0 0 24 24" width="24px" height="24px">
<g id="surface97196595">
<path style=" stroke:none;fill-rule:nonzero;fill:rgb(58.431375%,64.705884%,65.098041%);fill-opacity:1;" d="M 4.320312 1.921875 C 2.996094 1.921875 1.921875 2.996094 1.921875 4.320312 L 1.921875 19.679688 C 1.921875 21.003906 2.996094 22.078125 4.320312 22.078125 L 19.679688 22.078125 C 21.003906 22.078125 22.078125 21.003906 22.078125 19.679688 L 22.078125 4.320312 C 22.078125 2.996094 21.003906 1.921875 19.679688 1.921875 Z M 9.601562 5.761719 L 12 5.761719 C 14.121094 5.761719 15.855469 7.503906 15.839844 9.628906 C 15.835938 10.148438 16.28125 10.558594 16.800781 10.558594 L 17.28125 10.558594 C 17.808594 10.558594 18.238281 10.988281 18.238281 11.519531 L 18.238281 14.398438 C 18.238281 16.511719 16.511719 18.238281 14.398438 18.238281 L 9.601562 18.238281 C 7.488281 18.238281 5.761719 16.511719 5.761719 14.398438 L 5.761719 9.601562 C 5.761719 7.488281 7.488281 5.761719 9.601562 5.761719 Z M 9.601562 8.640625 C 9.070312 8.640625 8.640625 9.070312 8.640625 9.601562 C 8.640625 10.128906 9.070312 10.558594 9.601562 10.558594 L 12 10.558594 C 12.527344 10.558594 12.960938 10.128906 12.960938 9.601562 C 12.960938 9.070312 12.527344 8.640625 12 8.640625 Z M 9.601562 13.441406 C 9.070312 13.441406 8.640625 13.871094 8.640625 14.398438 C 8.640625 14.929688 9.070312 15.359375 9.601562 15.359375 L 14.398438 15.359375 C 14.929688 15.359375 15.359375 14.929688 15.359375 14.398438 C 15.359375 13.871094 14.929688 13.441406 14.398438 13.441406 Z M 9.601562 13.441406 "/>
</g>
</svg>
