<svg width="24" height="25" viewBox="0 0 24 25" fill="none" xmlns="http://www.w3.org/2000/svg">
<path fill-rule="evenodd" clip-rule="evenodd" d="M12 0.773438C5.37527 0.773438 0 6.14871 0 12.7734C0 19.3982 5.37527 24.7734 12 24.7734C18.6117 24.7734 24 19.3982 24 12.7734C24 6.14871 18.6117 0.773438 12 0.773438ZM19.9262 6.30489C21.3579 8.04892 22.217 10.2745 22.243 12.6823C21.9046 12.6173 18.5206 11.9274 15.1106 12.357C15.0325 12.1878 14.9675 12.0055 14.8894 11.8233C14.6811 11.3288 14.4469 10.8212 14.2126 10.3396C17.9869 8.80384 19.705 6.59123 19.9262 6.30489ZM12 2.5435C14.603 2.5435 16.9848 3.51965 18.7939 5.12051C18.6117 5.38082 17.0629 7.45023 13.4186 8.81681C11.7397 5.73222 9.87855 3.20728 9.5922 2.81682C10.3601 2.63461 11.1671 2.5435 12 2.5435ZM7.63995 3.50662C7.91325 3.87105 9.73538 6.40901 11.4404 9.42851C6.65076 10.704 2.42083 10.678 1.96529 10.678C2.62907 7.50229 4.77657 4.8602 7.63995 3.50662ZM1.74404 12.7865C1.74404 12.6823 1.74404 12.5782 1.74404 12.4741C2.18655 12.4871 7.15835 12.5522 12.2733 11.0164C12.5727 11.589 12.846 12.1747 13.1063 12.7604C12.9761 12.7995 12.8329 12.8385 12.7028 12.8775C7.41865 14.5825 4.60738 19.242 4.3731 19.6324C2.7462 17.8233 1.74404 15.4155 1.74404 12.7865ZM12 23.0294C9.6312 23.0294 7.44469 22.2225 5.71367 20.8689C5.89588 20.4915 7.97827 16.4828 13.757 14.4654C13.783 14.4524 13.7961 14.4524 13.8221 14.4394C15.2668 18.1747 15.8525 21.3114 16.0087 22.2094C14.7722 22.743 13.4186 23.0294 12 23.0294ZM17.7136 21.2724C17.6096 20.6476 17.0629 17.6541 15.7223 13.9708C18.9371 13.4632 21.7484 14.2962 22.0998 14.4134C21.6573 17.2637 20.0173 19.7235 17.7136 21.2724Z" fill="#98A2B3"/>
</svg>
