<svg width="16" height="16" viewBox="0 0 16 16" fill="none" xmlns="http://www.w3.org/2000/svg">
<path d="M4.88546 14.7161V0.996756C4.88546 0.814827 4.81319 0.640349 4.68455 0.511705C4.55591 0.383062 4.38143 0.310791 4.1995 0.310791C4.01757 0.310791 3.84309 0.383062 3.71445 0.511705C3.5858 0.640349 3.51353 0.814827 3.51353 0.996756V14.7161C3.51353 14.898 3.5858 15.0725 3.71445 15.2011C3.84309 15.3297 4.01757 15.402 4.1995 15.402C4.38143 15.402 4.55591 15.3297 4.68455 15.2011C4.81319 15.0725 4.88546 14.898 4.88546 14.7161ZM2.1416 14.7161V0.996756C2.1416 0.814827 2.06933 0.640349 1.94069 0.511705C1.81205 0.383062 1.63757 0.310791 1.45564 0.310791C1.27371 0.310791 1.09923 0.383062 0.970587 0.511705C0.841944 0.640349 0.769673 0.814827 0.769673 0.996756V14.7161C0.769673 14.898 0.841944 15.0725 0.970587 15.2011C1.09923 15.3297 1.27371 15.402 1.45564 15.402C1.63757 15.402 1.81205 15.3297 1.94069 15.2011C2.06933 15.0725 2.1416 14.898 2.1416 14.7161ZM11.7451 3.74062C11.7451 3.60494 11.7049 3.47232 11.6295 3.35951C11.5541 3.24671 11.447 3.15879 11.3217 3.10687C11.1963 3.05495 11.0584 3.04136 10.9253 3.06783C10.7923 3.0943 10.67 3.15963 10.5741 3.25557C10.4782 3.3515 10.4128 3.47373 10.3864 3.60679C10.3599 3.73985 10.3735 3.87778 10.4254 4.00312C10.4773 4.12847 10.5652 4.2356 10.678 4.31097C10.7909 4.38635 10.9235 4.42658 11.0591 4.42658C11.2411 4.42658 11.4156 4.35431 11.5442 4.22567C11.6728 4.09702 11.7451 3.92254 11.7451 3.74062ZM15.8609 13.3441V2.36869C15.8609 1.8229 15.6441 1.29946 15.2582 0.913534C14.8722 0.527604 14.3488 0.310791 13.803 0.310791L8.31529 0.310791C7.7695 0.310791 7.24607 0.527604 6.86014 0.913534C6.47421 1.29946 6.25739 1.8229 6.25739 2.36869V13.3441C6.25739 13.8899 6.47421 14.4133 6.86014 14.7993C7.24607 15.1852 7.7695 15.402 8.31529 15.402H13.803C14.3488 15.402 14.8722 15.1852 15.2582 14.7993C15.6441 14.4133 15.8609 13.8899 15.8609 13.3441V13.3441ZM8.31529 14.0301C8.13336 14.0301 7.95888 13.9578 7.83024 13.8292C7.70159 13.7005 7.62932 13.5261 7.62932 13.3441V2.36869C7.62932 2.18676 7.70159 2.01228 7.83024 1.88364C7.95888 1.75499 8.13336 1.68272 8.31529 1.68272L13.803 1.68272C13.9849 1.68272 14.1594 1.75499 14.2881 1.88364C14.4167 2.01228 14.489 2.18676 14.489 2.36869V13.3441C14.489 13.5261 14.4167 13.7005 14.2881 13.8292C14.1594 13.9578 13.9849 14.0301 13.803 14.0301H8.31529ZM13.117 7.8564C13.117 7.44939 12.9963 7.05152 12.7702 6.7131C12.5441 6.37468 12.2227 6.11091 11.8467 5.95516C11.4706 5.7994 11.0569 5.75865 10.6577 5.83805C10.2585 5.91746 9.8918 6.11345 9.604 6.40125C9.31619 6.68905 9.1202 7.05574 9.04079 7.45493C8.96139 7.85412 9.00214 8.2679 9.1579 8.64393C9.31366 9.01996 9.57742 9.34136 9.91584 9.56748C10.2543 9.79361 10.6521 9.9143 11.0591 9.9143C11.6049 9.9143 12.1284 9.69749 12.5143 9.31156C12.9002 8.92563 13.117 8.40219 13.117 7.8564ZM10.3732 7.8564C10.3732 7.72073 10.4134 7.58811 10.4888 7.4753C10.5642 7.3625 10.6713 7.27457 10.7966 7.22266C10.922 7.17074 11.0599 7.15715 11.193 7.18362C11.326 7.21009 11.4483 7.27542 11.5442 7.37135C11.6401 7.46729 11.7055 7.58952 11.7319 7.72258C11.7584 7.85564 11.7448 7.99357 11.6929 8.11891C11.641 8.24426 11.5531 8.35139 11.4402 8.42676C11.3274 8.50214 11.1948 8.54237 11.0591 8.54237C10.8772 8.54237 10.7027 8.4701 10.5741 8.34146C10.4455 8.21281 10.3732 8.03833 10.3732 7.8564ZM11.7451 11.9722C11.7451 11.8365 11.7049 11.7039 11.6295 11.5911C11.5541 11.4783 11.447 11.3904 11.3217 11.3384C11.1963 11.2865 11.0584 11.2729 10.9253 11.2994C10.7923 11.3259 10.67 11.3912 10.5741 11.4871C10.4782 11.5831 10.4128 11.7053 10.3864 11.8384C10.3599 11.9714 10.3735 12.1094 10.4254 12.2347C10.4773 12.36 10.5652 12.4672 10.678 12.5426C10.7909 12.6179 10.9235 12.6582 11.0591 12.6582C11.2411 12.6582 11.4156 12.5859 11.5442 12.4572C11.6728 12.3286 11.7451 12.1541 11.7451 11.9722Z" fill="#7F56D9"/>
</svg>
