<svg width="24" height="25" viewBox="0 0 24 25" fill="none" xmlns="http://www.w3.org/2000/svg">
<path fill-rule="evenodd" clip-rule="evenodd" d="M12 0.773438C5.3724 0.773438 0 6.15424 0 12.7938C0 18.1038 3.438 22.6098 8.2068 24.1986C8.8068 24.309 9.0252 23.9382 9.0252 23.619C9.0252 23.3346 9.0156 22.5774 9.0096 21.5754C5.6712 22.3014 4.9668 19.9638 4.9668 19.9638C4.422 18.5742 3.6348 18.2046 3.6348 18.2046C2.5452 17.4606 3.7176 17.475 3.7176 17.475C4.9212 17.559 5.5548 18.7134 5.5548 18.7134C6.6252 20.5494 8.364 20.019 9.0468 19.7118C9.1572 18.9354 9.4668 18.4062 9.81 18.1062C7.146 17.8026 4.344 16.7706 4.344 12.165C4.344 10.8534 4.812 9.77944 5.5788 8.93944C5.4552 8.63584 5.0436 7.41304 5.6964 5.75944C5.6964 5.75944 6.7044 5.43544 8.9964 6.99064C9.97532 6.72365 10.9853 6.58767 12 6.58624C13.02 6.59104 14.046 6.72424 15.0048 6.99064C17.2956 5.43544 18.3012 5.75824 18.3012 5.75824C18.9564 7.41304 18.5436 8.63584 18.4212 8.93944C19.1892 9.77944 19.6548 10.8534 19.6548 12.165C19.6548 16.7826 16.848 17.799 14.1756 18.0966C14.6064 18.4674 14.9892 19.2006 14.9892 20.3226C14.9892 21.9282 14.9748 23.2254 14.9748 23.619C14.9748 23.9406 15.1908 24.315 15.8004 24.1974C18.19 23.396 20.2672 21.8638 21.7386 19.8175C23.2099 17.7712 24.001 15.3142 24 12.7938C24 6.15424 18.6264 0.773438 12 0.773438Z" fill="#98A2B3"/>
</svg>
