<svg width="24" height="20" viewBox="0 0 24 20" fill="none" xmlns="http://www.w3.org/2000/svg">
<path d="M7.55016 19.5234C16.6045 19.5234 21.5583 12.0201 21.5583 5.5153C21.5583 5.30436 21.5536 5.08874 21.5442 4.8778C22.5079 4.1809 23.3395 3.31769 24 2.32874C23.1025 2.72804 22.1496 2.98882 21.1739 3.10217C22.2013 2.48635 22.9705 1.51891 23.3391 0.379204C22.3726 0.951995 21.3156 1.35605 20.2134 1.57405C19.4708 0.784998 18.489 0.262554 17.4197 0.0874885C16.3504 -0.0875768 15.2532 0.0944879 14.2977 0.605534C13.3423 1.11658 12.5818 1.92814 12.1338 2.91475C11.6859 3.90136 11.5754 5.00805 11.8195 6.06374C9.86249 5.96553 7.94794 5.45714 6.19998 4.57154C4.45203 3.68593 2.90969 2.44287 1.67297 0.922954C1.0444 2.00668 0.852057 3.28908 1.13503 4.50953C1.418 5.72997 2.15506 6.79689 3.19641 7.49342C2.41463 7.4686 1.64998 7.25812 0.965625 6.87936V6.9403C0.964925 8.07759 1.3581 9.18002 2.07831 10.0602C2.79852 10.9404 3.80132 11.544 4.91625 11.7684C4.19206 11.9666 3.43198 11.9954 2.69484 11.8528C3.00945 12.8309 3.62157 13.6863 4.44577 14.2998C5.26997 14.9132 6.26512 15.254 7.29234 15.2747C5.54842 16.6445 3.39417 17.3876 1.17656 17.384C0.783287 17.3834 0.390399 17.3593 0 17.3119C2.25286 18.7572 4.87353 19.5248 7.55016 19.5234Z" fill="#98A2B3"/>
</svg>
