<svg width="94" height="65" viewBox="0 0 94 65" fill="none" xmlns="http://www.w3.org/2000/svg">
<path d="M77.0181 64.73C70.3396 64.73 65.2879 61.9901 61.863 56.5103C58.9519 51.8867 57.4963 46.2357 57.4963 39.5572C57.4963 30.9951 59.6369 23.2891 63.9179 16.4394C68.3703 9.58964 75.0488 4.10985 83.9534 0L86.2652 4.62357C80.9567 6.84974 76.3331 10.3602 72.3945 15.155C68.6271 19.9499 66.7435 24.8303 66.7435 29.7964C66.7435 31.8513 67.0003 33.6493 67.5141 35.1905C70.254 32.9644 73.422 31.8513 77.0181 31.8513C81.6416 31.8513 85.4946 33.3925 88.577 36.4748C91.8306 39.386 93.4574 43.3246 93.4574 48.2906C93.4574 52.9142 91.8306 56.8528 88.577 60.1064C85.4946 63.1888 81.6416 64.73 77.0181 64.73Z" fill="#7D23E0"/>
<path d="M19.5217 64.73C12.8433 64.73 7.79158 61.9901 4.36671 56.5103C1.45557 51.8867 0 46.2357 0 39.5572C0 30.9951 2.14054 23.2891 6.42163 16.4394C10.874 9.58964 17.5524 4.10985 26.4571 0L28.7689 4.62357C23.4603 6.84974 18.8368 10.3602 14.8982 15.155C11.1308 19.9499 9.24714 24.8303 9.24714 29.7964C9.24714 31.8513 9.50401 33.6493 10.0177 35.1905C12.7576 32.9644 15.9256 31.8513 19.5217 31.8513C24.1453 31.8513 27.9983 33.3925 31.0807 36.4748C34.3343 39.386 35.9611 43.3246 35.9611 48.2906C35.9611 52.9142 34.3343 56.8528 31.0807 60.1064C27.9983 63.1888 24.1453 64.73 19.5217 64.73Z" fill="#7D23E0"/>
</svg>
