<?xml version="1.0" standalone="no"?>
<!DOCTYPE svg PUBLIC "-//W3C//DTD SVG 20010904//EN"
 "http://www.w3.org/TR/2001/REC-SVG-20010904/DTD/svg10.dtd">
<svg version="1.0" xmlns="http://www.w3.org/2000/svg"
 width="512.000000pt" height="512.000000pt" viewBox="0 0 512.000000 512.000000"
 preserveAspectRatio="xMidYMid meet">

<g transform="translate(0.000000,512.000000) scale(0.100000,-0.100000)"
fill="#000000" stroke="none">
<path d="M2395 5113 c-203 -18 -494 -114 -526 -174 -6 -12 -9 -34 -6 -49 5
-23 -1 -32 -44 -64 -59 -44 -75 -51 -84 -37 -3 6 -23 11 -43 11 -32 0 -44 -8
-95 -62 -288 -308 -451 -818 -519 -1623 -15 -172 -16 -1297 -2 -1555 l9 -155
-34 -90 c-52 -140 -71 -248 -78 -442 l-6 -171 26 -26 c33 -33 76 -34 105 -3
20 21 22 34 22 126 0 328 91 597 269 791 36 39 42 43 53 29 78 -96 985 -1079
1010 -1094 45 -27 158 -28 210 -1 22 11 93 79 171 165 237 260 228 249 225
288 -2 25 -11 42 -30 56 -48 36 -71 19 -253 -181 -92 -101 -178 -188 -191
-194 -17 -8 -31 -8 -48 0 -14 6 -243 251 -510 544 l-485 533 32 27 c18 15 48
36 68 47 l37 21 422 -465 c416 -459 422 -465 460 -465 38 0 44 6 460 465 l423
464 38 -22 c21 -12 52 -33 68 -47 l30 -25 -231 -254 c-209 -229 -232 -257
-232 -289 0 -65 77 -95 127 -50 14 13 98 104 188 203 89 99 184 204 212 233
l49 53 29 -27 c83 -80 188 -271 233 -425 38 -132 46 -246 46 -654 l0 -375
-225 0 -225 0 0 308 0 309 -23 21 c-31 29 -77 29 -105 -1 -22 -23 -22 -29 -22
-330 l0 -307 -840 0 -840 0 0 308 0 309 -23 21 c-31 29 -77 29 -105 -1 -22
-23 -22 -29 -22 -330 l0 -307 -225 0 -225 0 0 154 0 155 -26 20 c-35 28 -69
26 -99 -4 -25 -24 -25 -25 -25 -225 0 -200 0 -201 25 -225 l24 -25 1541 0
1541 0 25 25 25 26 -4 497 c-4 553 -7 576 -78 767 l-34 90 9 155 c4 85 9 439
10 785 1 682 -6 819 -59 1188 -143 984 -527 1482 -1212 1572 -103 14 -284 17
-388 8z m-556 -1311 c19 -53 42 -113 52 -133 27 -55 93 -106 151 -118 66 -15
970 -15 1036 0 51 11 121 60 144 102 7 12 31 74 54 137 l42 115 20 -45 c11
-25 36 -80 56 -123 l36 -78 0 -373 c0 -216 -4 -397 -11 -432 -57 -324 -276
-580 -585 -683 -458 -153 -954 99 -1102 559 -38 118 -42 174 -42 572 l0 388
52 105 c29 58 55 105 58 105 3 0 20 -44 39 -98z m411 -1839 c0 -5 13 -64 29
-132 l29 -124 -26 -139 c-14 -76 -29 -137 -34 -136 -4 2 -67 68 -139 148 -72
80 -167 184 -211 232 l-79 86 67 22 c36 12 98 28 137 35 79 15 227 19 227 8z
m910 -21 c41 -11 89 -26 107 -33 l31 -14 -209 -230 c-115 -126 -213 -231 -217
-233 -5 -1 -20 60 -34 136 l-26 139 29 124 c16 68 29 128 29 133 0 15 209 -1
290 -22z"/>
<path d="M2056 3339 c-26 -20 -26 -21 -26 -160 0 -126 2 -141 20 -159 28 -28
75 -26 106 5 25 25 25 27 22 161 -3 129 -4 137 -27 155 -30 25 -62 24 -95 -2z"/>
<path d="M2969 3341 c-23 -18 -24 -26 -27 -155 -3 -134 -3 -136 22 -161 31
-31 78 -33 106 -5 18 18 20 33 20 159 0 139 0 140 -26 160 -33 26 -65 27 -95
2z"/>
<path d="M2233 2795 c-51 -36 -31 -108 52 -184 57 -53 110 -77 203 -93 82 -14
183 -2 258 32 57 24 136 100 158 149 16 34 16 43 5 67 -27 56 -106 58 -134 4
-23 -44 -88 -87 -153 -101 -104 -21 -225 18 -269 88 -33 55 -76 68 -120 38z"/>
</g>
</svg>
