<?xml version="1.0" standalone="no"?>
<!DOCTYPE svg PUBLIC "-//W3C//DTD SVG 20010904//EN"
 "http://www.w3.org/TR/2001/REC-SVG-20010904/DTD/svg10.dtd">
<svg version="1.0" xmlns="http://www.w3.org/2000/svg"
 width="512.000000pt" height="512.000000pt" viewBox="0 0 512.000000 512.000000"
 preserveAspectRatio="xMidYMid meet">

<g transform="translate(0.000000,512.000000) scale(0.100000,-0.100000)"
fill="#000000" stroke="none">
<path d="M2400 5101 c-47 -10 -126 -34 -176 -54 -172 -66 -202 -90 -190 -148
5 -26 0 -31 -53 -63 -67 -41 -67 -41 -87 -21 -26 26 -63 17 -188 -44 -155 -77
-231 -94 -396 -90 -69 2 -134 0 -146 -4 -29 -10 -46 -52 -38 -96 27 -166 117
-302 240 -362 35 -17 64 -33 64 -35 0 -2 -22 -15 -50 -29 -68 -34 -152 -55
-226 -55 -78 0 -114 -24 -114 -75 0 -78 257 -323 433 -411 l67 -34 0 -64 c0
-66 -7 -76 -48 -76 -35 0 -143 -61 -187 -105 -26 -25 -61 -76 -78 -113 -29
-61 -32 -76 -32 -162 0 -86 3 -101 32 -162 57 -122 161 -199 296 -222 l68 -12
34 -79 c69 -157 206 -325 348 -426 l68 -48 -38 -6 c-144 -24 -357 -109 -481
-194 -273 -185 -465 -474 -527 -793 -9 -46 -19 -158 -22 -250 l-6 -166 26 -26
c33 -33 76 -34 105 -3 20 21 22 34 22 126 0 327 92 597 269 791 36 39 42 43
53 29 80 -98 985 -1079 1009 -1094 50 -30 171 -28 220 2 31 20 168 164 342
361 57 64 63 108 21 141 -54 43 -66 35 -264 -182 -89 -98 -173 -183 -186 -189
-17 -8 -31 -8 -48 0 -14 6 -243 251 -510 544 l-485 533 30 25 c16 14 47 35 68
47 l39 22 422 -464 c416 -459 422 -465 460 -465 38 0 44 6 460 465 l423 464
38 -22 c21 -12 52 -33 68 -47 l30 -25 -220 -240 c-121 -132 -227 -255 -237
-273 -15 -30 -15 -36 -1 -60 17 -31 56 -48 90 -39 19 5 335 340 463 490 l18
22 40 -45 c138 -154 233 -374 257 -593 6 -53 11 -265 11 -472 l0 -375 -225 0
-225 0 0 308 0 309 -23 21 c-31 29 -77 29 -105 -1 -22 -23 -22 -29 -22 -330
l0 -307 -840 0 -840 0 0 308 0 309 -23 21 c-31 29 -77 29 -105 -1 -22 -23 -22
-29 -22 -330 l0 -307 -225 0 -225 0 0 154 0 155 -26 20 c-33 26 -65 27 -95 2
-24 -19 -24 -23 -27 -225 l-3 -206 25 -25 25 -25 1539 0 c1501 0 1540 0 1563
19 l24 19 3 429 c3 453 -4 585 -39 719 -78 297 -259 554 -510 724 -125 86
-337 171 -482 195 l-38 6 68 48 c142 101 279 269 348 426 l34 79 68 12 c135
23 239 100 296 222 29 61 32 76 32 162 0 86 -3 101 -32 162 -52 111 -147 189
-267 219 l-46 11 0 79 c0 78 1 81 41 131 59 75 117 197 146 307 22 82 26 119
26 251 1 116 -4 171 -16 220 -62 233 -215 370 -453 407 -111 17 -117 19 -205
86 -83 63 -223 131 -324 158 -115 30 -284 35 -395 10z m946 -1418 l84 -81 0
-344 c0 -353 -5 -412 -42 -528 -93 -291 -318 -500 -626 -581 -99 -27 -286 -30
-384 -6 -359 87 -614 355 -677 711 -6 34 -11 201 -11 382 l0 323 48 6 c102 13
263 55 351 93 118 51 182 90 288 175 47 37 86 67 88 65 15 -17 35 -113 35
-172 0 -61 3 -76 21 -92 29 -26 92 -22 199 12 157 49 297 135 382 234 l42 48
59 -81 c33 -45 97 -119 143 -164z m-1806 -597 c0 -112 3 -217 6 -234 6 -31 6
-31 -23 -23 -112 32 -177 117 -177 231 0 95 46 171 129 214 66 35 65 38 65
-188z m2108 185 c82 -42 126 -116 126 -211 0 -114 -65 -199 -177 -231 -29 -8
-29 -8 -23 23 3 17 6 122 6 234 0 227 -2 221 68 185z m-1398 -1308 c0 -5 13
-64 29 -132 l29 -124 -26 -139 c-14 -76 -29 -137 -34 -136 -4 2 -67 68 -139
148 -72 80 -167 184 -211 232 l-79 86 67 22 c36 12 98 28 137 35 79 15 227 19
227 8z m910 -21 c41 -11 89 -26 107 -33 l31 -14 -209 -230 c-115 -126 -213
-231 -217 -233 -5 -1 -20 60 -34 136 l-26 139 29 124 c16 68 29 128 29 133 0
15 209 -1 290 -22z"/>
<path d="M2056 3339 c-26 -20 -26 -21 -26 -160 0 -126 2 -141 20 -159 28 -28
75 -26 106 5 25 25 25 27 22 161 -3 129 -4 137 -27 155 -30 25 -62 24 -95 -2z"/>
<path d="M2969 3341 c-23 -18 -24 -26 -27 -155 -3 -134 -3 -136 22 -161 31
-31 78 -33 106 -5 18 18 20 33 20 159 0 139 0 140 -26 160 -33 26 -65 27 -95
2z"/>
<path d="M2233 2795 c-51 -36 -31 -108 52 -184 57 -53 110 -77 203 -93 82 -14
183 -2 258 32 57 24 136 100 158 149 16 34 16 43 5 67 -27 56 -106 58 -134 4
-23 -44 -88 -87 -153 -101 -104 -21 -225 18 -269 88 -33 55 -76 68 -120 38z"/>
</g>
</svg>
